<svg width="46" height="46" viewBox="0 0 46 46" fill="none" xmlns="http://www.w3.org/2000/svg">
<circle cx="23" cy="23" r="23" fill="#55DCFB"/>
<path d="M27.4545 17.0001C28.8603 17.0001 30 18.2946 30 19.8914C30 21.4882 28.8603 22.7827 27.4545 22.7827C26.0487 22.7827 24.9091 21.4882 24.9091 19.8914C24.9091 18.2946 26.0487 17.0001 27.4545 17.0001Z" fill="black"/>
<path d="M18.5455 17.0001C19.9513 17.0001 21.0909 18.2946 21.0909 19.8914C21.0909 21.4882 19.9513 22.7827 18.5455 22.7827C17.1396 22.7827 16 21.4882 16 19.8914C16 18.2946 17.1396 17.0001 18.5455 17.0001Z" fill="black"/>
<path d="M27.4545 25.2174C28.8603 25.2174 30 26.5119 30 28.1087C30 29.7055 28.8603 31 27.4545 31C26.0487 31 24.9091 29.7055 24.9091 28.1087C24.9091 26.5119 26.0487 25.2174 27.4545 25.2174Z" fill="black"/>
<path d="M18.5455 25.2174C19.9513 25.2174 21.0909 26.5119 21.0909 28.1087C21.0909 29.7055 19.9513 31 18.5455 31C17.1396 31 16 29.7055 16 28.1087C16 26.5119 17.1396 25.2174 18.5455 25.2174Z" fill="black"/>
</svg>
