<svg width="14" height="14" viewBox="0 0 14 14" fill="none" xmlns="http://www.w3.org/2000/svg">
<path d="M11.4545 0.000110149C12.8603 0.000110149 14 1.29459 14 2.89141C14 4.48823 12.8603 5.78271 11.4545 5.78271C10.0487 5.78271 8.90906 4.48823 8.90906 2.89141C8.90906 1.29459 10.0487 0.000110149 11.4545 0.000110149Z" fill="black"/>
<path d="M2.54545 0.000110149C3.95127 0.000110149 5.09091 1.29459 5.09091 2.89141C5.09091 4.48823 3.95127 5.78271 2.54545 5.78271C1.13964 5.78271 0 4.48823 0 2.89141C0 1.29459 1.13964 0.000110149 2.54545 0.000110149Z" fill="black"/>
<path d="M11.4545 8.2174C12.8603 8.2174 14 9.51188 14 11.1087C14 12.7055 12.8603 14 11.4545 14C10.0487 14 8.90906 12.7055 8.90906 11.1087C8.90906 9.51188 10.0487 8.2174 11.4545 8.2174Z" fill="black"/>
<path d="M2.54545 8.2174C3.95127 8.2174 5.09091 9.51188 5.09091 11.1087C5.09091 12.7055 3.95127 14 2.54545 14C1.13964 14 0 12.7055 0 11.1087C0 9.51188 1.13964 8.2174 2.54545 8.2174Z" fill="black"/>
</svg>
