<svg width="113" height="27" viewBox="0 0 113 27" fill="none" xmlns="http://www.w3.org/2000/svg">
<rect width="113" height="27" rx="13.5" fill="url(#paint0_linear_892_140)"/>
<path d="M30.6513 17H29.245L31.8054 9.72727H33.4318L35.9957 17H34.5895L32.647 11.2188H32.5902L30.6513 17ZM30.6974 14.1484H34.5327V15.2067H30.6974V14.1484ZM38.755 17.0959C38.3265 17.0959 37.9429 16.9858 37.6044 16.7656C37.2659 16.5455 36.9983 16.2259 36.8018 15.8068C36.6054 15.3878 36.5071 14.8788 36.5071 14.2798C36.5071 13.6738 36.6065 13.1624 36.8054 12.7457C37.0066 12.3267 37.2777 12.0107 37.6186 11.7976C37.9595 11.5821 38.3395 11.4744 38.7585 11.4744C39.0781 11.4744 39.3409 11.5289 39.5469 11.6378C39.7528 11.7443 39.9162 11.8733 40.0369 12.0249C40.1577 12.174 40.2512 12.3149 40.3175 12.4474H40.3707V9.72727H41.6598V17H40.3956V16.1406H40.3175C40.2512 16.2732 40.1553 16.4141 40.0298 16.5632C39.9044 16.71 39.7386 16.8355 39.5327 16.9396C39.3267 17.0438 39.0675 17.0959 38.755 17.0959ZM39.1136 16.0412C39.3859 16.0412 39.6179 15.9678 39.8097 15.821C40.0014 15.6719 40.147 15.4647 40.2464 15.1996C40.3459 14.9344 40.3956 14.6255 40.3956 14.2727C40.3956 13.92 40.3459 13.6134 40.2464 13.353C40.1494 13.0926 40.005 12.8902 39.8132 12.7457C39.6238 12.6013 39.3906 12.5291 39.1136 12.5291C38.8272 12.5291 38.5881 12.6037 38.3963 12.7528C38.2045 12.902 38.0601 13.108 37.9631 13.3707C37.866 13.6335 37.8175 13.9342 37.8175 14.2727C37.8175 14.6136 37.866 14.9179 37.9631 15.1854C38.0625 15.4505 38.2081 15.66 38.3999 15.8139C38.594 15.9654 38.8319 16.0412 39.1136 16.0412ZM45.0538 17.0959C44.6253 17.0959 44.2418 16.9858 43.9032 16.7656C43.5647 16.5455 43.2972 16.2259 43.1007 15.8068C42.9042 15.3878 42.8059 14.8788 42.8059 14.2798C42.8059 13.6738 42.9054 13.1624 43.1042 12.7457C43.3055 12.3267 43.5765 12.0107 43.9174 11.7976C44.2583 11.5821 44.6383 11.4744 45.0574 11.4744C45.377 11.4744 45.6397 11.5289 45.8457 11.6378C46.0517 11.7443 46.215 11.8733 46.3358 12.0249C46.4565 12.174 46.55 12.3149 46.6163 12.4474H46.6696V9.72727H47.9586V17H46.6944V16.1406H46.6163C46.55 16.2732 46.4541 16.4141 46.3287 16.5632C46.2032 16.71 46.0375 16.8355 45.8315 16.9396C45.6255 17.0438 45.3663 17.0959 45.0538 17.0959ZM45.4125 16.0412C45.6847 16.0412 45.9167 15.9678 46.1085 15.821C46.3002 15.6719 46.4458 15.4647 46.5453 15.1996C46.6447 14.9344 46.6944 14.6255 46.6944 14.2727C46.6944 13.92 46.6447 13.6134 46.5453 13.353C46.4482 13.0926 46.3038 12.8902 46.112 12.7457C45.9226 12.6013 45.6895 12.5291 45.4125 12.5291C45.126 12.5291 44.8869 12.6037 44.6951 12.7528C44.5034 12.902 44.359 13.108 44.2619 13.3707C44.1648 13.6335 44.1163 13.9342 44.1163 14.2727C44.1163 14.6136 44.1648 14.9179 44.2619 15.1854C44.3613 15.4505 44.5069 15.66 44.6987 15.8139C44.8928 15.9654 45.1307 16.0412 45.4125 16.0412ZM54.5327 11.5455V12.5398H51.397V11.5455H54.5327ZM52.1712 10.2386H53.4567V15.3594C53.4567 15.5322 53.4827 15.6648 53.5348 15.7571C53.5893 15.8471 53.6603 15.9086 53.7479 15.9418C53.8355 15.9749 53.9325 15.9915 54.0391 15.9915C54.1196 15.9915 54.1929 15.9856 54.2592 15.9737C54.3279 15.9619 54.38 15.9512 54.4155 15.9418L54.6321 16.9467C54.5634 16.9704 54.4652 16.9964 54.3374 17.0249C54.2119 17.0533 54.058 17.0698 53.8757 17.0746C53.5537 17.084 53.2637 17.0355 53.0057 16.929C52.7476 16.8201 52.5429 16.652 52.3913 16.4247C52.2422 16.1974 52.1688 15.9134 52.1712 15.5724V10.2386ZM57.9284 17.1065C57.3958 17.1065 56.9341 16.9893 56.5435 16.755C56.1529 16.5206 55.8498 16.1927 55.6344 15.7713C55.4213 15.3499 55.3148 14.8575 55.3148 14.294C55.3148 13.7306 55.4213 13.237 55.6344 12.8132C55.8498 12.3894 56.1529 12.0604 56.5435 11.826C56.9341 11.5916 57.3958 11.4744 57.9284 11.4744C58.4611 11.4744 58.9228 11.5916 59.3134 11.826C59.704 12.0604 60.0059 12.3894 60.2189 12.8132C60.4344 13.237 60.5421 13.7306 60.5421 14.294C60.5421 14.8575 60.4344 15.3499 60.2189 15.7713C60.0059 16.1927 59.704 16.5206 59.3134 16.755C58.9228 16.9893 58.4611 17.1065 57.9284 17.1065ZM57.9355 16.0767C58.2244 16.0767 58.4658 15.9974 58.66 15.8388C58.8541 15.6778 58.9985 15.4624 59.0932 15.1925C59.1903 14.9226 59.2388 14.6219 59.2388 14.2905C59.2388 13.9567 59.1903 13.6548 59.0932 13.3849C58.9985 13.1127 58.8541 12.8961 58.66 12.7351C58.4658 12.5741 58.2244 12.4936 57.9355 12.4936C57.6396 12.4936 57.3934 12.5741 57.1969 12.7351C57.0028 12.8961 56.8572 13.1127 56.7601 13.3849C56.6654 13.6548 56.6181 13.9567 56.6181 14.2905C56.6181 14.6219 56.6654 14.9226 56.7601 15.1925C56.8572 15.4624 57.0028 15.6778 57.1969 15.8388C57.3934 15.9974 57.6396 16.0767 57.9355 16.0767ZM66.4929 17.1065C65.9484 17.1065 65.4808 16.987 65.0902 16.7479C64.7019 16.5088 64.4025 16.1785 64.1918 15.7571C63.9834 15.3333 63.8793 14.8456 63.8793 14.294C63.8793 13.7401 63.9858 13.2512 64.1989 12.8274C64.4119 12.4013 64.7126 12.0698 65.1009 11.8331C65.4915 11.594 65.9531 11.4744 66.4858 11.4744C66.9285 11.4744 67.3203 11.5561 67.6612 11.7195C68.0045 11.8804 68.2779 12.1089 68.4815 12.4048C68.6851 12.6984 68.8011 13.0417 68.8295 13.4347H67.6009C67.5511 13.1719 67.4328 12.9529 67.2457 12.7777C67.0611 12.6001 66.8137 12.5114 66.5036 12.5114C66.2408 12.5114 66.0099 12.5824 65.8111 12.7244C65.6122 12.8641 65.4571 13.0653 65.3459 13.3281C65.237 13.5909 65.1825 13.9058 65.1825 14.2727C65.1825 14.6444 65.237 14.964 65.3459 15.2315C65.4548 15.4967 65.6075 15.7015 65.804 15.8459C66.0028 15.9879 66.236 16.0589 66.5036 16.0589C66.6929 16.0589 66.8622 16.0234 67.0114 15.9524C67.1629 15.879 67.2895 15.7737 67.3913 15.6364C67.4931 15.4991 67.563 15.3321 67.6009 15.1357H68.8295C68.7988 15.5215 68.6851 15.8636 68.4886 16.1619C68.2921 16.4579 68.0246 16.6899 67.6861 16.858C67.3475 17.0237 66.9498 17.1065 66.4929 17.1065ZM71.4547 17.1101C71.1091 17.1101 70.7978 17.0485 70.5208 16.9254C70.2462 16.8 70.0283 16.6153 69.8674 16.3714C69.7087 16.1276 69.6294 15.8269 69.6294 15.4695C69.6294 15.1617 69.6863 14.9072 69.7999 14.706C69.9135 14.5047 70.0686 14.3438 70.2651 14.223C70.4616 14.1023 70.6829 14.0111 70.9292 13.9496C71.1777 13.8857 71.4346 13.8395 71.6998 13.8111C72.0194 13.7779 72.2786 13.7483 72.4775 13.7223C72.6763 13.6939 72.8207 13.6513 72.9107 13.5945C73.003 13.5353 73.0492 13.4441 73.0492 13.321V13.2997C73.0492 13.0322 72.9699 12.825 72.8113 12.6783C72.6526 12.5315 72.4242 12.4581 72.1259 12.4581C71.811 12.4581 71.5613 12.5268 71.3766 12.6641C71.1943 12.8014 71.0712 12.9635 71.0073 13.1506L69.807 12.9801C69.9017 12.6487 70.0579 12.3717 70.2757 12.1491C70.4935 11.9242 70.7599 11.7562 71.0748 11.6449C71.3896 11.5312 71.7376 11.4744 72.1188 11.4744C72.3816 11.4744 72.6432 11.5052 72.9036 11.5668C73.164 11.6283 73.4019 11.7301 73.6174 11.8722C73.8328 12.0118 74.0056 12.2024 74.1358 12.4439C74.2684 12.6854 74.3347 12.9872 74.3347 13.3494V17H73.0989V16.2507H73.0563C72.9782 16.4022 72.8681 16.5443 72.726 16.6768C72.5864 16.8071 72.41 16.9124 72.1969 16.9929C71.9862 17.071 71.7388 17.1101 71.4547 17.1101ZM71.7885 16.1655C72.0466 16.1655 72.2703 16.1146 72.4597 16.0128C72.6491 15.9086 72.7947 15.7713 72.8965 15.6009C73.0007 15.4304 73.0527 15.2446 73.0527 15.0433V14.4006C73.0125 14.4337 72.9438 14.4645 72.8468 14.4929C72.7521 14.5213 72.6455 14.5462 72.5272 14.5675C72.4088 14.5888 72.2916 14.6077 72.1756 14.6243C72.0596 14.6409 71.959 14.6551 71.8738 14.6669C71.682 14.6929 71.5104 14.7356 71.3588 14.7947C71.2073 14.8539 71.0878 14.9368 71.0002 15.0433C70.9126 15.1475 70.8688 15.2824 70.8688 15.4482C70.8688 15.6849 70.9552 15.8636 71.128 15.9844C71.3008 16.1051 71.521 16.1655 71.7885 16.1655ZM75.6273 17V11.5455H76.8738V12.4545H76.9306C77.03 12.1397 77.2005 11.897 77.4419 11.7266C77.6858 11.5537 77.964 11.4673 78.2765 11.4673C78.3475 11.4673 78.4268 11.4709 78.5144 11.478C78.6043 11.4827 78.6789 11.491 78.7381 11.5028V12.6854C78.6837 12.6664 78.5972 12.6499 78.4789 12.6357C78.3629 12.6191 78.2504 12.6108 78.1415 12.6108C77.9071 12.6108 77.6964 12.6617 77.5094 12.7635C77.3248 12.8629 77.1792 13.0014 77.0726 13.179C76.9661 13.3565 76.9128 13.5613 76.9128 13.7933V17H75.6273ZM82.6088 11.5455V12.5398H79.4732V11.5455H82.6088ZM80.2473 10.2386H81.5328V15.3594C81.5328 15.5322 81.5589 15.6648 81.611 15.7571C81.6654 15.8471 81.7364 15.9086 81.824 15.9418C81.9116 15.9749 82.0087 15.9915 82.1152 15.9915C82.1957 15.9915 82.2691 15.9856 82.3354 15.9737C82.4041 15.9619 82.4561 15.9512 82.4917 15.9418L82.7083 16.9467C82.6396 16.9704 82.5414 16.9964 82.4135 17.0249C82.2881 17.0533 82.1342 17.0698 81.9519 17.0746C81.6299 17.084 81.3399 17.0355 81.0819 16.929C80.8238 16.8201 80.619 16.652 80.4675 16.4247C80.3184 16.1974 80.245 15.9134 80.2473 15.5724V10.2386Z" fill="white"/>
<defs>
<linearGradient id="paint0_linear_892_140" x1="56.5" y1="0" x2="56.5" y2="27" gradientUnits="userSpaceOnUse">
<stop stop-color="#EAB570"/>
<stop offset="1" stop-color="#F36D4D"/>
</linearGradient>
</defs>
</svg>
