<svg width="24" height="25" viewBox="0 0 24 25" fill="none" xmlns="http://www.w3.org/2000/svg">
<g clip-path="url(#clip0_463_343)">
<path d="M24 12.3478C24 19.1663 18.6265 24.6955 12 24.6955C5.37347 24.6955 0 19.1663 0 12.3478C0 5.52919 5.37347 0 12 0C18.6265 0 24 5.52919 24 12.3478Z" fill="#72BCC6"/>
<mask id="mask0_463_343" style="mask-type:luminance" maskUnits="userSpaceOnUse" x="0" y="0" width="24" height="25">
<path d="M24 12.3478C24 19.1663 18.6265 24.6955 12 24.6955C5.37347 24.6955 0 19.1663 0 12.3478C0 5.52919 5.37347 0 12 0C18.6265 0 24 5.52919 24 12.3478Z" fill="white"/>
</mask>
<g mask="url(#mask0_463_343)">
<path d="M18.3817 19.5673C17.6266 18.5993 11.6592 16.4762 11.6592 16.4762C11.6592 16.4762 5.81636 18.826 4.93473 19.5673C4.05513 20.3107 3.72656 25.002 3.72656 25.002H19.4184C19.4184 25.002 19.1347 20.5354 18.3817 19.5673Z" fill="#003662"/>
<path d="M13.5103 17.608C13.5103 17.608 13.3858 18.2254 12.6776 18.5509C12.4225 18.6685 12.0899 20.1658 11.6613 20.1658C11.2082 20.1658 10.8633 18.6601 10.6042 18.5299C9.93274 18.1981 9.81437 17.608 9.81437 17.608C9.81437 17.608 10.2654 16.6862 9.81437 15.6047C9.36335 14.5232 14.0633 14.3027 13.5123 15.6047C12.9613 16.9067 13.5123 17.608 13.5123 17.608H13.5103Z" fill="#DDA778"/>
<path d="M15.8796 13.3011C16.2245 11.7114 16.6388 9.37208 16.6388 9.37208C18.0633 6.09615 16.5857 1.15705 13.8245 2.67532C10.4082 -0.535519 5.00408 3.95419 6.83265 9.32798C6.83265 9.32798 7.05306 11.787 7.40816 13.3536C7.80816 15.1155 10.7571 16.4237 11.6592 16.4762C12.5592 16.5287 15.5143 14.9853 15.8796 13.3032V13.3011Z" fill="#281511"/>
<path d="M16.8857 10.3086C16.8857 11.1675 16.2939 12.3476 15.8959 12.3476C15.498 12.3476 15.1735 11.6505 15.1735 10.7937C15.1735 9.9369 15.5816 9.49171 15.8959 9.23971C16.2816 8.92892 16.8857 9.23971 16.8857 10.3107V10.3086Z" fill="#F9BB8D"/>
<path d="M6.5531 10.3086C6.5531 11.1675 7.14494 12.3476 7.5429 12.3476C7.94086 12.3476 8.26535 11.6505 8.26535 10.7937C8.26535 9.9369 7.85718 9.49171 7.5429 9.23971C7.15718 8.92892 6.5531 9.23971 6.5531 10.3107V10.3086Z" fill="#F9BB8D"/>
<path d="M11.7367 3.50488C8.9347 3.50488 7.69592 5.52504 7.69592 8.53848V12.3121C7.69592 14.9371 10.6429 17.1819 11.5735 17.1819C12.5041 17.1819 15.7776 14.557 15.7776 12.0706V8.53848C15.7776 5.52504 14.5388 3.50488 11.7367 3.50488Z" fill="#F9BB8D"/>
<path d="M15.7776 10.6886L16.0306 8.48998C16.0306 5.47654 14.5388 3.23169 11.7367 3.23169C8.9347 3.23169 7.55103 5.47654 7.55103 8.48998L7.69592 11.1716C7.69592 11.1716 8.02858 10.5962 7.99796 9.74576C7.93062 7.8117 9.24694 7.6395 10.7796 7.33711C13.1959 6.86252 13.8755 5.37155 13.8755 5.37155C13.8755 5.37155 14.6674 5.64664 15.1735 6.86252C15.5 7.6479 15.5776 8.85118 15.551 9.34467C15.5265 9.83606 15.7776 10.6886 15.7776 10.6886Z" fill="#281511"/>
<path d="M9.35714 8.48999C8.27346 8.48999 7.59387 8.90368 7.59387 9.34467C7.59387 10.044 7.84285 11.18 8.91836 11.3144C9.95918 11.4446 11.3204 11.0561 11.3204 9.26907C11.3204 8.85538 10.4408 8.49209 9.35714 8.49209V8.48999ZM8.99795 11.1128C8.0755 10.9973 7.86326 10.0272 7.86326 9.42867C7.86326 9.05278 8.44285 8.69579 9.37142 8.69579C10.3 8.69579 11.0531 9.00658 11.0531 9.36147C11.0531 10.8923 9.88979 11.2241 8.99795 11.1128Z" fill="#AC0F09"/>
<path d="M12 9.72054C12 9.72054 11.949 9.44754 11.5919 9.44754C11.347 9.44754 11.2837 9.74574 11.2837 9.74574L11.1531 8.95825C11.1531 8.95825 11.3327 9.11575 11.451 9.11575C11.5102 9.11575 11.6572 9.14725 11.7796 9.11575C11.9021 9.08425 12 8.95825 12 8.95825V9.71844V9.72054Z" fill="#AC0F09"/>
<path d="M7.7449 10.1488C7.7449 10.1488 7.3551 10.1194 7.3551 9.91365V9.29416C7.3551 8.97077 7.7449 9.07367 7.7449 9.07367V10.1488Z" fill="#AC0F09"/>
<path d="M11.8245 9.26907C11.8245 11.0561 13.1836 11.4446 14.2265 11.3144C15.3041 11.18 15.551 10.0461 15.551 9.34467C15.551 8.90368 14.8734 8.48999 13.7877 8.48999C12.702 8.48999 11.8245 8.85328 11.8245 9.26697V9.26907ZM12.0918 9.36147C12.0918 9.00658 12.8449 8.69579 13.7734 8.69579C14.702 8.69579 15.2816 9.05068 15.2816 9.42867C15.2816 10.0272 15.0694 10.9994 14.149 11.1128C13.2571 11.2241 12.0939 10.8923 12.0939 9.36147H12.0918Z" fill="#AC0F09"/>
<path d="M15.4 10.1488C15.4 10.1488 15.7898 10.1194 15.7898 9.91365V9.29416C15.7898 8.97077 15.4 9.07367 15.4 9.07367V10.1488Z" fill="#AC0F09"/>
</g>
</g>
<defs>
<clipPath id="clip0_463_343">
<rect width="24" height="25" fill="white"/>
</clipPath>
</defs>
</svg>
