<svg width="19" height="13" viewBox="0 0 19 13" fill="none" xmlns="http://www.w3.org/2000/svg">
<path d="M16.5113 3.31859H10.4737V1.5059C10.4737 0.678362 9.80094 0.00282331 8.97059 0.00282331L1.50307 8.76429e-06C0.675539 -0.00280598 0 0.672733 0 1.50027V6.28252C0 7.11006 0.672724 7.78559 1.50307 7.78559H1.78173V8.63002C1.78173 8.7792 1.86336 8.91431 1.99565 8.98468C2.06038 9.01939 2.13331 9.03589 2.20667 9.03242C2.28003 9.02895 2.35108 9.00564 2.41224 8.96497L4.17708 7.78559H7.54352V9.6011C7.54352 10.4286 8.21624 11.1014 9.04378 11.1014H13.8401L15.6049 12.2836C15.6661 12.3242 15.7372 12.3475 15.8105 12.351C15.8839 12.3545 15.9568 12.338 16.0215 12.3033C16.1538 12.2329 16.2354 12.0978 16.2354 11.9486V11.1042H16.5141C17.3445 11.1042 18.0172 10.4315 18.02 9.60392V4.82448C18.0144 3.99413 17.3388 3.31859 16.5113 3.31859ZM7.95728 6.97776H4.05042C3.97161 6.97776 3.89279 7.00028 3.82524 7.04532L2.58675 7.87285V7.38027C2.58675 7.15791 2.40661 6.97776 2.18424 6.97776H1.50307C1.12027 6.97776 0.807832 6.66533 0.807832 6.28252V1.50027C0.807832 1.11746 1.12027 0.805026 1.50307 0.805026L8.97059 0.807841C9.3534 0.807841 9.66583 1.12028 9.66583 1.50308V6.28252C9.66583 6.66533 9.3534 6.97776 8.97059 6.97776H7.95728ZM17.2065 9.60392C17.2065 9.98672 16.8941 10.2992 16.5085 10.2992H15.8273C15.6049 10.2992 15.4248 10.4793 15.4248 10.7017V11.1943L14.1863 10.3639C14.1188 10.3189 14.0428 10.2963 13.9611 10.2963H9.04096C8.65816 10.2963 8.34572 9.98391 8.34572 9.6011V7.78559H8.96778C9.79531 7.78559 10.4709 7.11287 10.4709 6.28252V4.1208H16.5085C16.6936 4.1208 16.8712 4.19434 17.0021 4.32525C17.133 4.45616 17.2065 4.63372 17.2065 4.81885V9.60392Z" fill="#FF647D"/>
<path d="M6.57539 5.03841C6.55749 5.02273 6.53634 5.0112 6.51346 5.00464C6.48813 4.99619 6.45154 4.98212 6.4065 4.96242C6.36147 4.94271 6.30799 4.91457 6.24043 4.87516C6.17569 4.83575 6.0997 4.77946 6.01525 4.70628C6.07155 4.64998 6.12221 4.58524 6.16444 4.51206C6.20947 4.43887 6.24606 4.35725 6.27421 4.26717C6.30517 4.1771 6.32769 4.0814 6.34176 3.97726C6.35865 3.87311 6.36428 3.76052 6.36428 3.6423C6.36428 3.41149 6.33613 3.21446 6.28265 3.04558C6.22917 2.87669 6.15036 2.73877 6.0434 2.62899C5.93926 2.51922 5.80978 2.43759 5.65778 2.38411C5.50579 2.33063 5.32846 2.3053 5.13142 2.3053C4.92032 2.3053 4.73455 2.33626 4.57692 2.401C4.41648 2.46574 4.28419 2.55862 4.17441 2.67684C4.06745 2.79788 3.98582 2.94143 3.92953 3.11313C3.87605 3.28483 3.8479 3.47905 3.8479 3.69297C3.8479 3.92941 3.87323 4.13488 3.9239 4.30658C3.97456 4.47828 4.05338 4.61902 4.15471 4.73161C4.25604 4.84138 4.38552 4.92301 4.54033 4.97649C4.69514 5.02997 4.87528 5.0553 5.08076 5.0553C5.19053 5.0553 5.28905 5.04404 5.37912 5.02434C5.46919 5.00182 5.54519 4.97931 5.60712 4.94834C5.68311 5.0356 5.76474 5.1116 5.852 5.17634C5.93926 5.24389 6.02651 5.30019 6.11095 5.34522C6.1954 5.39026 6.27421 5.42685 6.34739 5.45218C6.42058 5.47752 6.47969 5.48877 6.52472 5.48877C6.53598 5.48877 6.54724 5.48596 6.55569 5.48033C6.56413 5.4747 6.57539 5.46626 6.58102 5.44937C6.59074 5.42691 6.59737 5.40324 6.60072 5.379C6.60635 5.34804 6.60917 5.30863 6.60917 5.26078C6.60917 5.19886 6.60635 5.15101 6.59791 5.11723C6.58946 5.08345 6.59228 5.05249 6.57539 5.03841ZM5.76756 4.03355C5.74504 4.14614 5.70563 4.24747 5.65215 4.33191C5.59867 4.41636 5.52549 4.48391 5.43542 4.53176C5.34534 4.58243 5.23557 4.60494 5.10328 4.60494C4.97098 4.60494 4.86121 4.58243 4.77395 4.54021C4.68669 4.49798 4.61633 4.43325 4.56566 4.35162C4.5098 4.26035 4.4725 4.15896 4.45589 4.05325C4.43212 3.92327 4.42081 3.79132 4.42211 3.65919C4.42211 3.53534 4.43337 3.41994 4.45589 3.30735C4.4784 3.19476 4.51781 3.09906 4.57129 3.01461C4.62477 2.93017 4.69795 2.86543 4.78803 2.81477C4.8781 2.7641 4.98787 2.74158 5.12017 2.74158C5.25246 2.74158 5.36223 2.7641 5.44949 2.80914C5.53675 2.85417 5.60712 2.9161 5.6606 2.99772C5.71408 3.07935 5.75067 3.17787 5.77319 3.29046C5.7957 3.40305 5.80696 3.52971 5.80696 3.66763C5.80415 3.79711 5.79007 3.91815 5.76756 4.03355ZM13.1675 5.88847C13.1612 5.86518 13.1507 5.84324 13.1366 5.82373C13.1253 5.80684 13.1028 5.79558 13.0746 5.78714C13.0361 5.77689 12.9963 5.77215 12.9564 5.77306C12.9058 5.77025 12.8382 5.77025 12.7509 5.77025C12.6778 5.77025 12.6186 5.77025 12.5736 5.77306C12.5286 5.77588 12.4948 5.78151 12.4695 5.78714C12.4441 5.79558 12.4244 5.80684 12.4132 5.82091C12.4019 5.83499 12.3907 5.85469 12.3822 5.88002L11.5153 8.37389C11.4984 8.42455 11.4871 8.46396 11.4815 8.49492C11.4759 8.52588 11.4815 8.5484 11.4956 8.56529C11.5096 8.58218 11.535 8.59344 11.5744 8.59625C11.611 8.60188 11.6644 8.60188 11.732 8.60188C11.7939 8.60188 11.8446 8.59907 11.884 8.59625C11.9234 8.59344 11.9516 8.58781 11.9741 8.57936C11.9938 8.57092 12.0107 8.55966 12.0191 8.54559C12.0288 8.52976 12.0364 8.51273 12.0416 8.49492L12.219 7.94605H13.2745L13.4631 8.51181C13.4687 8.53151 13.4771 8.54559 13.4856 8.55685C13.494 8.56811 13.5081 8.57655 13.5306 8.58499C13.5531 8.59062 13.5841 8.59625 13.6263 8.59907C13.6685 8.60188 13.7248 8.60188 13.798 8.60188C13.8684 8.60188 13.9247 8.59907 13.9641 8.59625C14.0035 8.59344 14.0316 8.58218 14.0485 8.56811C14.0654 8.55403 14.0711 8.53151 14.0654 8.50055C14.058 8.45833 14.0467 8.41687 14.0316 8.3767L13.1675 5.88847ZM12.3484 7.51258L12.7453 6.31912H12.7481L13.145 7.51258H12.3484Z" fill="#FF647D"/>
</svg>
