<svg width="307" height="218" viewBox="0 0 307 218" fill="none" xmlns="http://www.w3.org/2000/svg">
<path d="M146.713 164.811L110.689 178.66L66.0967 72.373L96.5461 60.6671C99.6239 59.4838 103.121 60.9134 104.357 63.8596L146.711 164.811H146.713Z" fill="#F4A640"/>
<path d="M133.758 68.0309L64.7812 79.7327L81.9687 172.566L150.945 160.864L133.758 68.0309Z" fill="#ADCFD8"/>
<path d="M116.334 80.4884L85.5322 85.7139L85.6547 86.3755L116.456 81.1501L116.334 80.4884Z" fill="#55769F"/>
<path d="M122.493 77.7121L78.7498 85.1331L78.8723 85.7947L122.615 78.3737L122.493 77.7121Z" fill="#55769F"/>
<path d="M128.754 85.5516L75.6836 94.5549L75.8061 95.2166L128.876 86.2133L128.754 85.5516Z" fill="#55769F"/>
<path d="M129.345 88.7347L76.2744 97.738L76.3969 98.3997L129.467 89.3964L129.345 88.7347Z" fill="#55769F"/>
<path d="M130.522 95.1021L77.4521 104.105L77.5746 104.767L130.645 95.7638L130.522 95.1021Z" fill="#55769F"/>
<path d="M131.113 98.285L78.043 107.288L78.1655 107.95L131.236 98.9467L131.113 98.285Z" fill="#55769F"/>
<path d="M131.702 101.47L78.6313 110.473L78.7538 111.135L131.824 102.131L131.702 101.47Z" fill="#55769F"/>
<path d="M134.294 115.472L81.2241 124.475L81.3466 125.137L134.417 116.134L134.294 115.472Z" fill="#55769F"/>
<path d="M134.905 118.774L81.8345 127.778L81.957 128.439L135.027 119.436L134.905 118.774Z" fill="#55769F"/>
<path d="M135.517 122.076L82.4468 131.08L82.5693 131.741L135.64 122.738L135.517 122.076Z" fill="#55769F"/>
<path d="M136.128 125.377L83.0574 134.38L83.1799 135.042L136.25 126.039L136.128 125.377Z" fill="#55769F"/>
<path d="M136.739 128.678L83.6692 137.681L83.7917 138.343L136.862 129.339L136.739 128.678Z" fill="#55769F"/>
<path d="M137.35 131.981L84.28 140.984L84.4025 141.646L137.473 132.643L137.35 131.981Z" fill="#55769F"/>
<path d="M137.962 135.281L84.8921 144.284L85.0146 144.946L138.085 135.942L137.962 135.281Z" fill="#55769F"/>
<path d="M123.815 65.7158L56.0696 82.7771L81.129 173.954L148.875 156.893L123.815 65.7158Z" fill="#DAEEF7"/>
<path d="M107.514 79.4958L77.2617 87.1145L77.4403 87.7643L107.692 80.1456L107.514 79.4958Z" fill="#55769F"/>
<path d="M113.416 76.2475L70.4531 87.0674L70.6317 87.7172L113.594 76.8974L113.416 76.2475Z" fill="#55769F"/>
<path d="M120.327 83.5694L68.2039 96.6963L68.3825 97.3461L120.506 84.2192L120.327 83.5694Z" fill="#55769F"/>
<path d="M121.185 86.6961L69.0613 99.823L69.2399 100.473L121.363 87.3459L121.185 86.6961Z" fill="#55769F"/>
<path d="M122.905 92.9502L70.7817 106.077L70.9603 106.727L123.084 93.6001L122.905 92.9502Z" fill="#55769F"/>
<path d="M123.765 96.0767L71.6418 109.204L71.8205 109.853L123.944 96.7265L123.765 96.0767Z" fill="#55769F"/>
<path d="M124.623 99.2049L72.4993 112.332L72.6779 112.982L124.801 99.8547L124.623 99.2049Z" fill="#55769F"/>
<path d="M128.403 112.959L76.2791 126.085L76.4577 126.735L128.581 113.608L128.403 112.959Z" fill="#55769F"/>
<path d="M129.295 116.199L77.1716 129.326L77.3502 129.976L129.474 116.849L129.295 116.199Z" fill="#55769F"/>
<path d="M130.185 119.443L78.0615 132.57L78.2401 133.22L130.364 120.093L130.185 119.443Z" fill="#55769F"/>
<path d="M131.078 122.685L78.9541 135.812L79.1327 136.462L131.256 123.335L131.078 122.685Z" fill="#55769F"/>
<path d="M131.967 125.927L79.8438 139.054L80.0224 139.704L132.146 126.577L131.967 125.927Z" fill="#55769F"/>
<path d="M132.86 129.17L80.7368 142.297L80.9154 142.947L133.039 129.82L132.86 129.17Z" fill="#55769F"/>
<path d="M133.75 132.413L81.6265 145.54L81.8051 146.189L133.929 133.062L133.75 132.413Z" fill="#55769F"/>
<path d="M133.043 170.066L60.5199 197.947L18.2207 97.1259L79.163 61.1396C82.5876 59.117 87.0903 60.5359 88.5908 64.1112L133.045 170.068L133.043 170.066Z" fill="#FEB546"/>
<path d="M37.1169 181.632L26.7704 181.452C23.178 175.221 20.5435 169.803 20.5435 169.803C32.2282 167.224 42.0895 168.283 50.3063 171.306L54.8342 181.834L55.8033 173.727C76.1649 184.246 84.5551 206.512 84.5551 206.512C84.5551 206.512 48.5695 202.843 40.9414 199.447C37.9965 198.135 34.2838 193.416 30.8368 188.118C33.5944 185.604 37.1183 181.632 37.1183 181.632H37.1169Z" fill="#FF5B7E"/>
<path d="M20.5435 169.801C20.5435 169.801 66.7441 188.413 84.5537 206.51C84.5537 206.51 48.5681 202.841 40.94 199.445C37.9951 198.133 34.2824 193.415 30.8354 188.117C33.593 185.603 37.1169 181.63 37.1169 181.63L26.7704 181.451C23.178 175.22 20.5435 169.801 20.5435 169.801Z" fill="#E03268"/>
<path d="M22.0173 199.547C28.2387 195.921 34.5145 193.98 40.5877 193.206C42.3678 195.325 44.5534 197.816 44.5534 197.816L44.7842 192.849C68.088 191.833 87.398 206.779 87.398 206.779C73.901 214.922 62.3882 217.168 52.9562 216.44C52.3969 214.702 51.6068 212.11 51.6068 212.11L49.9413 216.1C45.4204 215.424 41.4309 214.073 37.9853 212.424C38.8677 210.355 39.7976 207.988 39.7976 207.988L34.7746 210.719C26.3579 205.793 22.0187 199.546 22.0187 199.546L22.0173 199.547Z" fill="#FF5B7E"/>
<path d="M52.9563 216.441C52.3969 214.704 51.6069 212.111 51.6069 212.111L49.9414 216.101C45.4205 215.425 41.4309 214.075 37.9854 212.426C38.8677 210.356 39.7976 207.989 39.7976 207.989L34.7747 210.72C26.3579 205.794 22.0188 199.547 22.0188 199.547C49.1709 196.545 87.3995 206.781 87.3995 206.781C73.9024 214.923 62.3897 217.169 52.9577 216.441H52.9563Z" fill="#E03268"/>
<path d="M157.992 65.5488L166.332 59.6858C165.507 52.6128 164.392 46.7324 164.392 46.7324C153.296 51.0828 145.88 57.3969 140.995 64.4057L143.646 75.5051L137.966 69.4213C127.681 89.2603 134.256 112.079 134.256 112.079C134.256 112.079 161.429 89.2001 165.61 82.2114C167.225 79.5128 167.411 73.6097 167.031 67.3773C163.264 66.8486 157.99 65.5515 157.99 65.5515L157.992 65.5488Z" fill="#02CCC0"/>
<path d="M164.392 46.731C164.392 46.731 137.887 87.4558 134.257 112.075C134.257 112.075 161.43 89.196 165.611 82.2073C167.226 79.5087 167.412 73.6056 167.032 67.3732C163.265 66.8444 157.992 65.5473 157.992 65.5473L166.331 59.6844C165.506 52.6113 164.392 46.731 164.392 46.731Z" fill="#06BFAD"/>
<path d="M181.125 71.8359C173.858 72.3125 167.563 74.1959 162.136 76.9185C161.96 79.6318 161.678 82.8738 161.678 82.8738L158.495 78.9451C138.854 90.991 132.097 113.866 132.097 113.866C148.028 113.059 158.785 108.53 166.046 102.725C165.455 100.997 164.537 98.4428 164.537 98.4428L168.305 100.781C171.589 97.7307 174.032 94.4244 175.85 91.173C173.881 89.971 171.696 88.5521 171.696 88.5521L177.444 88.0073C181.347 79.3346 181.123 71.8359 181.123 71.8359H181.125Z" fill="#02CCC0"/>
<path d="M166.048 102.726C165.456 100.998 164.539 98.4443 164.539 98.4443L168.306 100.783C171.591 97.7322 174.034 94.4259 175.852 91.1745C173.883 89.9724 171.697 88.5536 171.697 88.5536L177.446 88.0088C181.349 79.3361 181.125 71.8374 181.125 71.8374C157.143 84.3879 132.098 113.869 132.098 113.869C148.03 113.062 158.786 108.533 166.048 102.728V102.726Z" fill="#06BFAD"/>
<path d="M247.795 100.848H252.755C251.944 100.317 250.929 99.9998 249.824 99.9998H125.58C119.081 99.9998 113.81 104.471 113.81 109.987V116.33C113.81 121.845 119.079 126.318 125.58 126.318L248.434 126.281L247.795 100.848Z" fill="#E03268"/>
<path d="M124.233 116.33V109.987C124.233 104.471 129.502 99.9998 136.003 99.9998H133.335C126.835 99.9998 121.564 104.471 121.564 109.987V116.33C121.564 121.845 126.833 126.318 133.335 126.318H135.968C129.483 126.3 124.233 121.836 124.233 116.33Z" fill="#FEB546"/>
<path d="M153.33 116.33V109.987C153.33 104.471 158.599 99.9998 165.1 99.9998H162.432C155.932 99.9998 150.662 104.471 150.662 109.987V116.33C150.662 121.845 155.931 126.318 162.432 126.318H165.065C158.581 126.3 153.33 121.836 153.33 116.33Z" fill="#FEB546"/>
<path d="M177.258 100.022C171.041 100.022 166.003 104.298 166.003 109.573V116.743C166.003 122.018 171.043 126.293 177.258 126.293H254.603V124.69H254.283L234.621 123.11L230.647 109.881C230.647 109.881 238.317 102.57 238.817 102.382C239.318 102.194 254.283 101.622 254.283 101.622L254.603 101.619V100.025H177.258V100.022Z" fill="#FF5B7E"/>
<path d="M249.588 113.111C249.588 105.375 254.299 101.626 254.299 101.626H178.844C173.135 101.626 168.506 105.553 168.506 110.399V115.918C168.506 120.762 173.135 124.691 178.844 124.691H254.299C254.299 124.691 249.588 122.852 249.588 113.112V113.111Z" fill="#DAEEF7"/>
<g style="mix-blend-mode:multiply">
<path d="M168.505 110.399V115.918C168.505 116.644 168.611 117.348 168.806 118.022C171.351 112.739 176.228 107.65 185.513 106.014C207.191 102.194 254.298 101.627 254.298 101.627H178.843C173.133 101.627 168.505 105.555 168.505 110.4V110.399Z" fill="#DAEEF7"/>
</g>
<path d="M245.749 153.452H251.362C250.443 152.786 249.295 152.389 248.045 152.389H107.425C100.069 152.389 94.1045 157.986 94.1045 164.89V172.83C94.1045 179.735 100.069 185.331 107.425 185.331L246.472 185.287L245.749 153.452Z" fill="#284C7A"/>
<path d="M165.916 152.418C158.881 152.418 153.177 157.771 153.177 164.373V173.347C153.177 179.949 158.881 185.302 165.916 185.302H253.455V183.294H253.093L230.838 181.316L226.34 164.756C226.34 164.756 235.021 155.606 235.587 155.37C236.153 155.134 253.092 154.418 253.092 154.418L253.454 154.414V152.418H165.915H165.916Z" fill="#55769F"/>
<path d="M247.778 168.801C247.778 159.119 253.11 154.426 253.11 154.426H167.71C161.248 154.426 156.009 159.343 156.009 165.407V172.314C156.009 178.377 161.247 183.294 167.71 183.294H253.11C253.11 183.294 247.778 180.992 247.778 168.8V168.801Z" fill="#DAEEF7"/>
<g style="mix-blend-mode:multiply">
<path d="M156.008 165.406V172.314C156.008 173.221 156.128 174.103 156.349 174.947C159.229 168.333 164.749 161.964 175.257 159.916C199.792 155.134 253.109 154.425 253.109 154.425H167.709C161.247 154.425 156.008 159.341 156.008 165.405V165.406Z" fill="#DAEEF7"/>
</g>
<path d="M89.4703 127.093H83.8545C84.7732 126.565 85.9227 126.249 87.1728 126.249H227.847C235.207 126.249 241.174 130.691 241.174 136.168V142.469C241.174 147.948 235.207 152.388 227.847 152.388L88.746 152.353L89.4703 127.093Z" fill="#02CCC0"/>
<path d="M169.334 126.273C176.372 126.273 182.079 130.521 182.079 135.76V142.88C182.079 148.119 176.373 152.366 169.334 152.366H81.7612V150.773H82.1234L104.387 149.205L108.887 136.065C108.887 136.065 100.202 128.805 99.6352 128.617C99.0688 128.43 82.1234 127.862 82.1234 127.862L81.7612 127.86V126.276H169.334V126.273Z" fill="#06BFAD"/>
<path d="M87.4398 139.272C87.4398 131.59 82.1064 127.866 82.1064 127.866H167.54C174.004 127.866 179.245 131.767 179.245 136.579V142.059C179.245 146.871 174.004 150.772 167.54 150.772H82.1064C82.1064 150.772 87.4398 148.945 87.4398 139.272Z" fill="#DAEEF7"/>
<g style="mix-blend-mode:multiply">
<path d="M179.246 136.579V142.059C179.246 142.779 179.125 143.479 178.904 144.149C176.022 138.902 170.5 133.847 159.987 132.222C135.443 128.427 82.1052 127.865 82.1052 127.865H167.538C174.003 127.865 179.244 131.766 179.244 136.578L179.246 136.579Z" fill="#DAEEF7"/>
</g>
<path opacity="0.5" d="M215.403 142.47V136.17C215.403 130.692 209.436 126.251 202.077 126.251H215.435C222.795 126.251 228.762 130.692 228.762 136.17V142.47C228.762 147.949 222.795 152.389 215.435 152.389L202.254 152.385C209.533 152.314 215.403 147.904 215.403 142.469V142.47Z" fill="#55769F"/>
<path d="M78.8497 186.341H72.7961C73.7862 185.752 75.0251 185.398 76.3732 185.398H228.023C235.958 185.398 242.39 190.36 242.39 196.48V203.52C242.39 209.641 235.958 214.602 228.023 214.602L78.0694 214.563L78.8497 186.339V186.341Z" fill="#FEB546"/>
<path d="M164.944 185.424C172.532 185.424 178.683 190.169 178.683 196.023V203.978C178.683 209.831 172.532 214.577 164.944 214.577H70.5393V212.798H70.9295L94.9296 211.044L99.7806 196.364C99.7806 196.364 90.4185 188.251 89.8074 188.042C89.1963 187.833 70.9295 187.199 70.9295 187.199L70.5393 187.196V185.427H164.946L164.944 185.424Z" fill="#F4A640"/>
<path d="M76.6612 199.949C76.6612 191.366 70.9111 187.204 70.9111 187.204H163.01C169.98 187.204 175.629 191.563 175.629 196.94V203.064C175.629 208.441 169.98 212.799 163.01 212.799H70.9111C70.9111 212.799 76.6612 210.758 76.6612 199.95V199.949Z" fill="#DAEEF7"/>
<g style="mix-blend-mode:multiply">
<path d="M175.629 196.938V203.062C175.629 203.867 175.501 204.648 175.262 205.397C172.156 199.534 166.201 193.886 154.869 192.071C128.409 187.832 70.9111 187.204 70.9111 187.204H163.01C169.98 187.204 175.629 191.563 175.629 196.94V196.938Z" fill="#DAEEF7"/>
</g>
<path d="M34.0069 214.401H289.77C290.525 214.401 291.139 214.989 291.139 215.712V216.314C291.139 217.037 290.525 217.624 289.77 217.624H34.0069C33.2518 217.624 32.6379 217.037 32.6379 216.314V215.712C32.6379 214.989 33.2518 214.401 34.0069 214.401Z" fill="#C4DFE8"/>
<path d="M31.0703 108.257L80.4467 81.2222L87.1211 93.8771L36.5967 119.463L31.0703 108.257Z" fill="#F4A640"/>
<path d="M124.118 31.2517C124.118 31.2517 123.728 34.9274 120.697 35.1818C123.728 35.4361 124.118 39.1118 124.118 39.1118C124.118 39.1118 124.508 35.4361 127.538 35.1818C124.508 34.9274 124.118 31.2517 124.118 31.2517Z" fill="#02CCC0"/>
<path d="M71.76 3.01172C71.76 3.01172 71.2412 7.90823 67.2041 8.24689C71.2412 8.58555 71.76 13.4821 71.76 13.4821C71.76 13.4821 72.2788 8.58555 76.3159 8.24689C72.2788 7.90823 71.76 3.01172 71.76 3.01172Z" fill="#FEB546"/>
<path d="M50.6124 46.8059C50.6124 46.8059 50.2642 50.0935 47.5542 50.321C50.2642 50.5486 50.6124 53.8361 50.6124 53.8361C50.6124 53.8361 50.9606 50.5486 53.6707 50.321C50.9606 50.0935 50.6124 46.8059 50.6124 46.8059Z" fill="#FF5B7E"/>
<path d="M290.777 125.252C290.777 125.252 290.258 130.148 286.222 130.487C290.259 130.826 290.777 135.722 290.777 135.722C290.777 135.722 291.295 130.826 295.333 130.487C291.297 130.148 290.777 125.252 290.777 125.252Z" fill="#FF5B7E"/>
<path d="M4.55588 82.1392C4.55588 82.1392 4.03709 87.0357 0 87.3743C4.03709 87.713 4.55588 92.6095 4.55588 92.6095C4.55588 92.6095 5.07468 87.713 9.11176 87.3743C5.07468 87.0357 4.55588 82.1392 4.55588 82.1392Z" fill="#02CCC0"/>
<path d="M301.559 76.9041C301.559 76.9041 301.041 81.8006 297.005 82.1392C301.041 82.4779 301.559 87.3744 301.559 87.3744C301.559 87.3744 302.078 82.4779 306.115 82.1392C302.078 81.8006 301.559 76.9041 301.559 76.9041Z" fill="#02CCC0"/>
<path d="M175.629 0C175.629 0 175.111 4.89651 171.073 5.23517C175.111 5.57383 175.629 10.4703 175.629 10.4703C175.629 10.4703 176.148 5.57383 180.185 5.23517C176.148 4.89651 175.629 0 175.629 0Z" fill="#FF5B7E"/>
<path d="M262.104 40.8909C262.104 40.8909 261.822 43.983 259.628 44.1958C261.822 44.41 262.104 47.5008 262.104 47.5008C262.104 47.5008 262.387 44.4086 264.58 44.1958C262.386 43.9816 262.104 40.8909 262.104 40.8909Z" fill="#FEB546"/>
<path d="M84.9801 191.568L78.1631 191.898L77.3003 211.257L73.8127 212.865L73.9805 213.57L75.2768 213.863C75.2768 213.863 79.4705 213.795 79.5964 213.795C79.7223 213.795 80.5864 212.882 80.5864 212.882L80.4564 212.723L81.1528 212.27L84.9801 191.571V191.568Z" fill="#FFC0BB"/>
<path d="M103.445 212.865C103.445 212.865 100.04 211.228 99.9565 211.257L100.728 191.545L92.2781 191.569L96.1054 212.269L96.5249 212.542C96.42 212.886 96.3361 213.183 96.3166 213.278C96.262 213.537 97.7569 213.554 98.2785 213.64C98.8001 213.725 100.312 213.881 101.284 214.139C102.255 214.397 103.479 213.64 103.479 213.64L103.447 212.866L103.445 212.865Z" fill="#FFC0BB"/>
<path d="M103.674 138.361C102.689 135.911 101.733 136.882 99.9567 133.919C99.6742 133.448 99.4714 132.839 99.3288 132.277C98.9023 130.597 97.9808 129.063 96.6146 127.933C92.4502 124.49 87.7391 126.019 87.7391 126.019C87.7391 126.019 88.9613 132.673 89.1948 134.022C88.1544 135.378 87.1043 136.763 87.1043 136.763C87.1043 136.763 84.913 147.7 88.3516 148.622C91.7916 149.545 92.4167 148.064 94.0961 147.294C95.7756 146.523 97.4158 148.628 99.9245 147.163C101.842 146.044 100.868 143.255 101.882 142.731C102.896 142.208 104.735 141.004 103.674 138.361Z" fill="#FF5500"/>
<path d="M85.9546 131.538C85.8931 131.513 84.3171 130.661 82.8404 129.864L92.0095 120.093C92.0095 120.093 89.231 119.578 89.0618 119.558C88.8926 119.538 84.9086 120.725 84.9086 120.725L80.8002 121.791C77.6651 132.742 73.7608 134.724 73.7594 134.725C73.2882 135.025 72.8421 135.425 72.3918 136.123C70.8355 138.532 72.41 140.041 73.305 140.735C74.1999 141.43 72.7023 143.999 74.3691 145.438C76.552 147.323 78.5698 145.545 80.0717 146.601C81.5735 147.657 81.9007 149.222 85.4596 148.926C89.0184 148.63 88.9835 137.493 88.9835 137.493C88.9835 137.493 86.0707 131.589 85.956 131.539L85.9546 131.538Z" fill="#FF5500"/>
<path d="M101.52 151.502C101.52 151.502 104.546 165.33 103.668 166.826C102.79 168.321 91.2712 168.788 91.2712 168.788L90.7832 151.034L95.1755 144.68L101.52 151.502Z" fill="#FF5B7E"/>
<path d="M97.8674 167.51L95.7154 161.865C95.7154 161.865 88.6312 159.395 88.181 159.365C87.7307 159.335 81.7345 161.865 81.7345 161.865C81.7345 161.865 79.9012 165.418 79.5432 166.055C79.3447 166.408 79.8019 168.582 80.2494 170.451L77.7086 170.564L76.0208 206.255C76.0208 206.255 79.6789 208.141 83.6181 206.524L86.8539 175.35L89.6674 174.946L93.8877 205.849C93.8877 205.849 97.2648 208.273 102.049 206.254L98.8785 171.86C98.7414 170.373 98.4016 168.91 97.866 167.508L97.8674 167.51Z" fill="#07085B"/>
<path d="M84.0908 140.482C84.0908 140.482 87.233 139.852 93.0809 140.248C98.9275 140.646 90.3765 143.799 90.3765 143.799C90.3765 143.799 87.3756 143.706 87.2469 143.683C87.1183 143.66 84.0922 140.482 84.0922 140.482H84.0908Z" fill="#FFC0BB"/>
<path d="M91.5259 137.321H86.3352V146.042H91.5259V137.321Z" fill="#FFC0BB"/>
<path d="M91.5176 138.812V135.838H86.3352V138.368C87.4511 138.942 89.1026 139.271 91.5176 138.812Z" fill="#F99893"/>
<path d="M98.789 127.612C98.2925 127.378 97.7164 127.419 97.1948 127.672C97.3738 123.179 93.5465 119.4 88.7249 119.559C83.9033 119.4 80.076 123.179 80.255 127.672C79.7334 127.419 79.1573 127.378 78.6609 127.612C77.7086 128.062 77.4121 129.349 77.9994 130.49C78.5867 131.629 79.8341 132.189 80.7864 131.739C80.9192 131.676 81.0367 131.597 81.143 131.505C81.6883 135.219 84.9255 138.003 88.7235 137.952C92.5215 138.005 95.7587 135.219 96.3041 131.505C96.4103 131.597 96.5278 131.677 96.6606 131.739C97.6129 132.189 98.8603 131.629 99.4476 130.49C100.035 129.351 99.7385 128.062 98.7862 127.612H98.789Z" fill="#FFC0BB"/>
<path d="M86.584 129.269C86.605 129.645 86.3043 129.968 85.9114 129.988C85.5184 130.008 85.1814 129.72 85.1605 129.344C85.1395 128.968 85.4401 128.645 85.8331 128.625C86.226 128.605 86.563 128.893 86.584 129.269Z" fill="#333333"/>
<path d="M92.7214 129.332C92.7424 129.708 92.4418 130.031 92.0488 130.051C91.6559 130.071 91.3189 129.783 91.2979 129.407C91.2769 129.031 91.5776 128.708 91.9705 128.688C92.3635 128.668 92.7005 128.956 92.7214 129.332Z" fill="#333333"/>
<path d="M87.3671 127.873C87.0105 127.754 86.6707 127.662 86.3323 127.604C85.9953 127.546 85.661 127.532 85.3352 127.565C85.0108 127.603 84.685 127.666 84.3731 127.801L84.2515 127.844C84.2109 127.858 84.1746 127.881 84.1354 127.898L83.8963 128.01C83.7369 128.086 83.5873 128.184 83.4097 128.26C83.5048 128.106 83.6138 127.955 83.7397 127.817C83.8795 127.695 84.0082 127.549 84.1774 127.457C84.4934 127.236 84.8877 127.113 85.2821 127.071C85.6792 127.031 86.0847 127.09 86.4455 127.232C86.8035 127.376 87.1321 127.585 87.3657 127.874L87.3671 127.873Z" fill="#FF5500"/>
<path d="M90.2407 127.862C90.4714 127.572 90.7986 127.36 91.1552 127.213C91.5146 127.07 91.9187 127.007 92.3172 127.045C92.713 127.083 93.1073 127.204 93.4247 127.422C93.5953 127.513 93.7254 127.658 93.8652 127.779C93.9925 127.916 94.1015 128.067 94.198 128.22C94.0204 128.145 93.8708 128.048 93.71 127.974L93.4709 127.865C93.4303 127.849 93.394 127.826 93.3534 127.812L93.2318 127.769C92.9185 127.636 92.5927 127.575 92.2683 127.54C91.9425 127.509 91.6097 127.526 91.2713 127.587C90.9328 127.647 90.5944 127.742 90.2393 127.862H90.2407Z" fill="#FF5500"/>
<path d="M89.0774 128.336C89.0424 128.695 89.069 129.054 89.1389 129.408C89.1738 129.586 89.2242 129.763 89.2969 129.938C89.3724 130.112 89.4633 130.288 89.6297 130.439C89.8199 130.58 89.9024 130.621 89.9555 130.748C90.0115 130.859 89.9863 131.001 89.9262 131.136C89.7933 131.412 89.4871 131.618 89.1529 131.771C89.5206 131.755 89.9276 131.613 90.1681 131.269C90.2855 131.102 90.3499 130.866 90.2744 130.643C90.196 130.412 90.0576 130.331 89.908 130.217C89.7751 130.115 89.6898 129.972 89.6045 129.81C89.5248 129.664 89.4703 129.501 89.406 129.341C89.2899 129.016 89.1892 128.679 89.0774 128.338V128.336Z" fill="#F99893"/>
<path d="M86.7405 132.614C86.9376 132.744 87.1404 132.862 87.353 132.962C87.5627 133.067 87.7795 133.158 88.0018 133.231C88.4465 133.378 88.9094 133.47 89.3764 133.471C89.8435 133.474 90.3063 133.381 90.7412 133.214C91.1747 133.041 91.576 132.794 91.948 132.507C91.783 132.673 91.6054 132.828 91.4124 132.968C91.2209 133.107 91.0097 133.222 90.793 133.326C90.5734 133.425 90.3413 133.503 90.1036 133.554C89.8644 133.603 89.6211 133.627 89.3764 133.629C88.887 133.625 88.4031 133.523 87.9571 133.344C87.511 133.164 87.0929 132.925 86.7405 132.613V132.614Z" fill="#F99893"/>
<path d="M99.0239 142.225C96.2118 139.612 92.3229 140.167 92.3229 140.167C91.888 140.583 91.4531 140.897 91.0224 141.132C90.4057 141.432 89.6324 141.691 88.7711 141.713C88.7557 141.713 88.7403 141.713 88.7249 141.713C88.7095 141.713 88.6941 141.713 88.6788 141.713C87.8174 141.691 87.0427 141.432 86.4274 141.132C85.9967 140.896 85.5618 140.583 85.1269 140.167C85.1269 140.167 81.238 139.612 78.4259 142.225C75.6138 144.838 72.8003 150.603 72.8003 150.603C72.8003 150.603 76.3577 153.708 79.7488 154.104C79.7488 154.104 81.4031 161.39 81.7345 161.865C81.7345 161.865 83.4419 162.632 85.924 163.033C86.8273 163.198 87.7153 163.266 88.5669 163.27C88.62 163.27 88.6718 163.27 88.7249 163.27C88.778 163.27 88.8312 163.27 88.8829 163.27C89.7345 163.266 90.6225 163.198 91.5258 163.033C94.0079 162.632 95.7153 161.865 95.7153 161.865C96.0468 161.39 97.701 154.104 97.701 154.104C101.092 153.708 104.65 150.603 104.65 150.603C104.65 150.603 101.837 144.84 99.0239 142.225Z" fill="#02CCC0"/>
<path d="M89.0284 159.9C89.0284 159.9 90.073 159.734 90.6491 160.469L90.6086 162.36L89.3319 162.929C89.3319 162.929 87.7503 161.64 87.8692 161.608C87.988 161.574 89.0284 159.9 89.0284 159.9Z" fill="#E03268"/>
<path d="M92.2796 172.256L75.4572 176.914L73.8281 165.127L90.6491 160.467L92.2796 172.256Z" fill="#E03268"/>
<path d="M74.0686 175.018L75.5453 176.212L91.6461 171.794L90.1988 160.685L89.0633 160.229L74.0686 175.018Z" fill="#DAEEF7"/>
<g style="mix-blend-mode:multiply">
<path d="M91.6461 171.794L90.498 170.839L88.3977 168.63L88.525 162.551L89.0633 160.229L90.2044 160.667L91.6461 171.794Z" fill="#DAEEF7"/>
</g>
<path d="M90.4981 170.839L73.6757 175.497L72.2061 164.558L89.0284 159.9L90.4981 170.839Z" fill="#FF5B7E"/>
<path d="M82.2434 147.782C81.8532 148.237 81.4966 148.709 81.1708 149.198C80.8464 149.688 80.5541 150.195 80.3164 150.725C80.0773 151.254 79.8955 151.804 79.7934 152.37C79.6899 152.938 79.6788 153.519 79.7501 154.104C79.5613 153.543 79.5054 152.935 79.5711 152.341C79.6312 151.745 79.8102 151.164 80.0521 150.615C80.3024 150.069 80.6157 149.551 80.9862 149.076C81.3554 148.601 81.7679 148.155 82.2448 147.78L82.2434 147.782Z" fill="#DAEEF7"/>
<path d="M78.7531 167.663C75.7914 162.863 77.1618 157.023 78.3336 153.794C76.0081 153.077 73.8547 151.457 73.0926 150.844C68.3647 161.062 76.3717 169.805 76.3717 169.805L76.3871 169.79C76.5395 170.12 76.6514 170.414 76.6514 170.414C78.5392 173.68 78.6217 173.628 78.7573 173.583C78.893 173.536 78.5196 171.983 78.686 171.987C78.8524 171.991 80.0438 173.862 80.1319 173.687C80.2186 173.512 79.3391 171.655 79.4677 171.624C79.5964 171.592 80.7178 173.415 80.9654 173.257C81.2129 173.101 79.9124 171.144 80.1613 171.096C80.4102 171.047 81.6883 173.085 81.8897 172.907C82.0589 172.757 80.6871 170.445 80.2466 169.713C80.1893 169.619 80.2662 169.501 80.3794 169.508C82.1316 169.606 82.2728 169.515 82.2393 169.329C82.2155 169.196 80.1124 168.258 78.7531 167.663Z" fill="#FFC0BB"/>
<path d="M98.5681 140.679C94.9379 153.187 99.3204 156.877 99.3386 156.974L98.6828 159.884C98.6828 159.884 89.7416 154.319 95.4092 139.492C95.5686 139.076 96.0426 138.857 96.4636 139.044L98.1598 139.796C98.508 139.951 98.6716 140.325 98.5681 140.679Z" fill="#E03268"/>
<path d="M106.494 171.223C106.494 171.223 106.379 170.946 106.27 170.618C106.27 170.618 106.27 170.615 106.27 170.614H106.269L106.098 169.401C105.992 166.652 105.515 156.901 103.946 151.164C102.752 152.072 100.217 153.787 97.7556 154.094C99.298 157.183 102.528 164.3 103.089 170.77C102.52 172.005 101.754 173.711 101.819 173.813C101.919 173.964 102.078 173.944 103.255 172.821C103.332 172.749 103.462 172.785 103.485 172.887C103.653 173.671 104.198 176.135 104.416 176.139C104.675 176.145 104.244 173.931 104.454 173.816C104.662 173.701 105.026 175.869 105.304 175.832C105.582 175.794 105.182 173.828 105.293 173.773C105.405 173.718 105.999 175.564 106.175 175.636C106.353 175.708 105.968 173.664 106.084 173.561C106.2 173.458 106.955 174.783 107.081 174.735C107.207 174.687 107.301 174.674 106.495 171.223H106.494Z" fill="#FFC0BB"/>
<path d="M78.7614 127.565C78.7614 127.565 78.2357 118.266 89.0618 117.652C89.0618 117.652 88.7248 126.787 80.2549 127.674L79.6019 126.459L78.7614 127.565Z" fill="#FF5500"/>
<path d="M89.0619 117.65C89.0619 117.65 97.8437 117.179 98.3093 127.471C98.3093 127.471 97.6716 127.427 97.1962 127.672C97.1962 127.672 90.2407 126.007 88.5151 119.555L89.0633 117.65H89.0619Z" fill="#FF5500"/>
<path d="M76.7701 213.571C75.0054 213.741 74.172 213.373 73.8126 212.865L72.617 213.612C72.1429 213.901 72.3569 214.604 72.919 214.604H80.687C80.961 214.604 81.1834 214.391 81.1834 214.128V212.119C80.6842 212.61 79.5067 213.308 76.7701 213.57V213.571Z" fill="#07085B"/>
<path d="M100.489 213.571C102.254 213.741 103.088 213.373 103.447 212.865L104.643 213.612C105.117 213.901 104.903 214.604 104.341 214.604H96.5726C96.2985 214.604 96.0762 214.391 96.0762 214.128V212.119C96.5754 212.61 97.7528 213.308 100.489 213.57V213.571Z" fill="#07085B"/>
<g style="mix-blend-mode:multiply">
<path d="M263.002 147.001L271.978 147.69L269.081 154.642L264.55 154.294L262.664 160.087C262.204 159.886 261.865 159.734 261.797 159.691C261.66 159.604 261.159 156.728 260.719 154.012L263.002 147.001Z" fill="#DAEEF7"/>
</g>
<path d="M268.125 210.919V213.949C268.125 214.199 268.336 214.401 268.596 214.401H275.983C276.518 214.401 276.722 213.73 276.271 213.455L272.127 210.918C272.127 210.918 270.5 212.058 268.125 210.918V210.919Z" fill="#E03268"/>
<path d="M253.623 82.5311C253.516 82.5713 253.403 82.4816 253.426 82.3731C253.611 81.5325 254.176 78.8821 253.963 78.7884C253.71 78.6773 253.145 81.0332 252.888 81.0613C252.631 81.0894 253.243 78.8045 252.952 78.7269C252.661 78.6492 252.178 80.7508 252.042 80.7588C251.908 80.7668 252.147 78.7068 252.004 78.5622C251.862 78.419 251.326 80.5888 251.167 80.6437C251.007 80.6986 250.856 79.0829 250.709 79.0789C250.562 79.0749 250.466 79.0495 249.718 82.7787C249.718 82.7787 249.673 84.1454 249.421 84.4667L249.984 85.5656L251.726 85.6205C251.726 85.6205 255.513 82.341 255.481 82.1416C255.451 81.9515 255.283 81.906 253.622 82.5298L253.623 82.5311Z" fill="#FFC0BB"/>
<path d="M271.562 83.357C271.639 83.44 271.781 83.4092 271.812 83.3022C272.048 82.4722 272.808 79.8674 273.041 79.8767C273.319 79.8874 272.7 82.2313 272.915 82.3692C273.131 82.507 273.675 80.206 273.97 80.2636C274.265 80.3211 273.696 82.404 273.812 82.4696C273.928 82.5351 274.695 80.5969 274.891 80.5313C275.087 80.4657 274.529 82.6302 274.647 82.7493C274.763 82.8671 275.666 81.4951 275.799 81.5567C275.93 81.6169 276.03 81.637 274.919 85.2832C274.919 85.2832 274.308 86.5188 274.379 86.915L273.356 87.6472L271.778 86.9364C271.778 86.9364 269.97 82.3651 270.092 82.2018C270.21 82.0452 270.379 82.0787 271.562 83.3584V83.357Z" fill="#FFC0BB"/>
<path d="M257.711 113.222L257.739 119.599L251.267 118.645L252.347 111.474L257.711 113.222Z" fill="#FFC0BB"/>
<path opacity="0.6" d="M251.85 114.775L252.347 111.474L257.716 113.827L257.719 115.085C256.426 115.388 254.004 115.66 251.849 114.775H251.85Z" fill="#FC8D84"/>
<path d="M246.019 210.582V213.904C246.019 214.179 245.787 214.401 245.5 214.401H237.374C236.786 214.401 236.562 213.666 237.058 213.364L241.617 210.582C241.617 210.582 243.406 211.834 246.019 210.582Z" fill="#E03268"/>
<path d="M238.598 154.141C238.615 153.43 236.682 155.525 236.719 154.958C237.476 143.161 261.555 153.051 261.555 153.051L267.432 157.18L274.068 211.852C274.068 211.852 270.465 212.851 268.095 212.034L253.401 165.184L251.594 164.519C251.594 164.519 243.558 159.151 238.597 154.14L238.598 154.141Z" fill="#07085B"/>
<path d="M236.671 155.87C236.665 156.018 236.66 156.17 236.654 156.325C236.66 156.17 236.664 156.018 236.671 155.87Z" fill="#06BFAD"/>
<path d="M236.653 156.384C236.647 156.545 236.643 156.71 236.639 156.877C236.643 156.708 236.647 156.545 236.653 156.384Z" fill="#06BFAD"/>
<path d="M236.721 152.278C241.683 157.289 251.596 164.52 251.596 164.52L246.009 211.855C246.009 211.855 242.028 212.58 239.753 211.401C239.753 211.401 236.398 166.345 236.723 152.279L236.721 152.278Z" fill="#07085B"/>
<path d="M274.067 211.854C274.067 211.854 272.517 212.283 270.78 212.349C272.517 212.285 274.067 211.854 274.067 211.854Z" fill="#06BFAD"/>
<path d="M268.79 212.219C268.949 212.25 269.113 212.275 269.278 212.295C269.113 212.275 268.951 212.25 268.79 212.219Z" fill="#06BFAD"/>
<path d="M270.78 212.348C270.366 212.364 269.942 212.358 269.527 212.321C269.942 212.357 270.367 212.362 270.78 212.348Z" fill="#06BFAD"/>
<path d="M267.432 157.181L268.379 164.983C265.873 165.912 259.765 166.904 255.163 157.268C253.711 154.228 253.338 152.041 253.606 150.47C258.014 151.599 261.556 153.053 261.556 153.053L267.434 157.181H267.432Z" fill="#050645"/>
<path d="M245.34 125.331C245.618 125.331 249.788 116.282 249.788 116.282C253.355 118.677 258.198 117.014 258.198 117.014C258.198 117.014 277.682 151.145 264.615 156.467C251.548 161.79 239.223 155.315 239.223 155.315C239.223 155.315 236.443 148.396 236.443 148.129C236.443 147.863 245.061 125.331 245.34 125.331Z" fill="#DAEEF7"/>
<path d="M270.731 87.0087C270.731 87.0087 271.576 103.202 269.99 106.17C264.731 116.017 258.198 117.016 258.198 117.016C258.198 117.016 255.95 151.457 257.803 159.707C257.803 159.707 263.966 161.526 273.048 157.445C273.048 157.445 266.098 130.743 266.469 127.372C266.469 127.372 277.59 117.88 277.961 106.703C278.331 95.5261 275.273 85.5898 275.273 85.5898L270.732 87.0087H270.731Z" fill="#55769F"/>
<path d="M240.751 158.465C240.751 158.465 241.446 145.646 244.505 133.492C247.563 121.339 249.786 116.282 249.786 116.282C245.685 111.957 246.367 108.048 246.728 102.975C247.145 97.1203 253.123 85.4104 253.123 85.4104L249.091 82.8818C229.769 105.104 240.473 122.801 240.473 122.801C240.473 122.801 233.245 147.285 232.272 154.737C232.272 154.737 236.117 156.865 240.751 158.462V158.465Z" fill="#55769F"/>
<path d="M266.282 127.335C266.049 127.177 265.774 126.936 265.505 126.628C264.686 125.681 264.261 124.616 263.967 123.425C264.145 123.933 264.62 125.411 265.621 126.534C266.07 127.024 266.307 127.19 266.525 127.324C266.49 127.355 266.47 127.372 266.47 127.372C266.467 127.395 266.466 127.418 266.465 127.442C266.207 127.492 265.756 127.507 264.996 127.111C264.524 126.874 264.15 126.58 263.76 126.262C264.016 126.436 264.543 126.802 265.041 127.025C265.388 127.189 265.897 127.36 266.283 127.333L266.282 127.335Z" fill="white"/>
<path d="M240.621 122.72C240.953 122.52 241.239 122.232 241.504 121.943C242.323 121.022 242.773 119.932 243.158 118.833C242.866 120.018 242.443 121.086 241.62 122.036C241.351 122.343 241.08 122.583 240.844 122.743C241.024 122.755 241.242 122.722 241.388 122.683C241.627 122.625 241.862 122.541 242.085 122.435C242.55 122.227 243.008 121.916 243.366 121.672C243.021 121.953 242.624 122.273 242.13 122.521C241.907 122.637 241.669 122.735 241.42 122.806C241.168 122.866 240.912 122.919 240.627 122.845L240.479 122.806L240.619 122.72H240.621Z" fill="white"/>
<path d="M248.428 100.211L248.037 104.587L248.76 105.022L250.095 99.6929L248.428 100.211Z" fill="#07085B"/>
<path d="M249.4 104.136C249.599 105.126 249.088 106.054 248.261 106.207C247.433 106.359 246.599 105.678 246.401 104.687C246.202 103.697 246.713 102.769 247.54 102.618C248.368 102.465 249.202 103.147 249.4 104.137V104.136Z" fill="#F99893"/>
<path d="M248.215 108.181C248.002 106.914 248.033 105.617 248.15 104.505C248.175 104.267 248.187 104.027 248.192 103.786C248.216 102.817 248.427 101.825 248.87 100.849C250.295 97.7064 253.774 95.8003 257.326 96.2219C262.112 96.7908 265.263 101.1 264.343 105.505C264.9 105.335 265.475 105.38 265.925 105.687C266.789 106.275 266.867 107.589 266.1 108.624C265.332 109.659 264.009 110.02 263.145 109.432C263.025 109.351 262.921 109.254 262.832 109.147C261.649 112.819 257.835 115.097 254.001 114.299C251.09 113.693 248.686 111.381 248.213 108.182L248.215 108.181Z" fill="#FFC0BB"/>
<path d="M257.061 104.681C256.873 105.133 257.214 105.622 257.732 105.62C258.014 105.62 258.274 105.448 258.379 105.196C258.568 104.742 258.227 104.252 257.707 104.255C257.424 104.256 257.164 104.429 257.059 104.681H257.061Z" fill="#333333"/>
<path d="M251.001 103.812C250.813 104.264 251.155 104.754 251.674 104.751C251.957 104.75 252.217 104.577 252.322 104.326C252.509 103.873 252.168 103.385 251.649 103.387C251.366 103.387 251.106 103.561 251.001 103.813V103.812Z" fill="#333333"/>
<path d="M256.117 109.447C255.741 109.627 255.318 109.759 254.973 109.823C254.579 109.897 254.176 109.92 253.781 109.867C253.387 109.817 253.008 109.685 252.661 109.494C252.317 109.299 252.01 109.043 251.731 108.758C252.015 109.139 252.271 109.362 252.604 109.584C252.948 109.799 253.314 109.938 253.763 110.004C254.177 110.056 254.599 110.027 254.998 109.928C255.397 109.827 255.781 109.673 256.118 109.45L256.117 109.447Z" fill="#F99893"/>
<path d="M256.484 103.298C256.855 103.235 257.205 103.195 257.549 103.189C257.891 103.184 258.223 103.219 258.539 103.302C258.852 103.387 259.162 103.5 259.448 103.679C259.836 103.891 260.116 104.15 260.319 104.279C260.189 103.964 259.98 103.591 259.694 103.371C259.418 103.106 259.05 102.924 258.669 102.824C258.284 102.723 257.874 102.721 257.497 102.805C257.121 102.893 256.763 103.049 256.484 103.298Z" fill="#07085B"/>
<path d="M253.654 102.852C253.474 102.531 253.187 102.272 252.86 102.074C252.53 101.879 252.141 101.756 251.742 101.733C251.347 101.712 250.938 101.77 250.589 101.938C250.245 102.058 249.92 102.35 249.694 102.606C249.948 102.541 250.267 102.389 250.72 102.306C251.05 102.223 251.383 102.212 251.709 102.227C252.036 102.246 252.362 102.314 252.684 102.424C253.007 102.533 253.324 102.679 253.655 102.853L253.654 102.852Z" fill="#07085B"/>
<path d="M254.889 103.711C254.555 104.011 254.25 104.337 253.96 104.674C253.671 105.013 253.401 105.367 253.162 105.746C253.025 105.974 252.853 106.276 252.812 106.534C252.788 106.678 252.801 106.817 253.05 107.051C253.214 107.217 253.398 107.352 253.587 107.477C253.779 107.599 253.976 107.712 254.183 107.805C253.837 107.521 253.488 107.239 253.214 106.913C253.17 106.864 253.086 106.746 253.057 106.68C253.042 106.632 253.068 106.526 253.105 106.437C253.179 106.249 253.285 106.062 253.4 105.88C253.625 105.512 253.881 105.156 254.131 104.796C254.384 104.437 254.64 104.078 254.885 103.709L254.889 103.711Z" fill="#F99893"/>
<path d="M249.28 95.5393C249.28 95.5393 246.879 95.0963 249.836 93.7082C252.794 92.3201 260.046 91.5116 263.837 94.6211C263.837 94.6211 265.112 93.0549 266.257 93.743C267.403 94.431 265.065 95.1913 265.065 95.1913C265.065 95.1913 266.666 95.4871 266.973 96.3371C267.201 96.9663 266.223 96.7802 265.697 96.6396C266.567 96.9823 269.126 99.2954 265.803 105.613C265.214 105.35 261.412 100.157 261.412 100.157C261.412 100.157 253.769 102.562 255.161 100.567C255.161 100.567 246.254 102.711 248.413 98.847C248.413 98.847 245.13 98.3744 249.28 95.538V95.5393Z" fill="#07085B"/>
<path d="M265.802 105.613C265.802 105.613 265.226 105.19 264.345 105.504C263.464 105.817 262.903 107.708 262.903 107.708C262.903 107.708 260.018 109.969 261.425 100.114C262.807 90.4326 264.721 101.726 264.721 101.726L265.802 105.612V105.613Z" fill="#07085B"/>
<path d="M246.046 75.0138L244.798 74.896C245.016 74.7822 245.279 74.726 245.558 74.7514L276.813 77.6936C278.447 77.8475 279.658 79.0978 279.516 80.4845L279.352 82.0801C279.209 83.4682 277.768 84.4681 276.133 84.3142L245.229 81.3961L246.047 75.0138H246.046Z" fill="#E03268"/>
<path d="M276.728 81.8338L276.892 80.2382C277.035 78.8501 275.825 77.6012 274.189 77.4473L274.86 77.5102C276.495 77.6641 277.706 78.9143 277.563 80.3011L277.4 81.8967C277.257 83.2848 275.815 84.2847 274.181 84.1308L273.518 84.0679C275.15 84.2178 276.586 83.2192 276.728 81.8338Z" fill="#FEB546"/>
<path d="M269.408 81.1443L269.572 79.5488C269.714 78.1606 268.505 76.9117 266.869 76.7578L267.54 76.8207C269.175 76.9747 270.386 78.2236 270.243 79.6117L270.079 81.2072C269.937 82.5953 268.495 83.5953 266.86 83.4413L266.198 83.3784C267.829 83.5283 269.266 82.5284 269.408 81.1443Z" fill="#FEB546"/>
<path d="M263.811 76.4755C265.374 76.6227 266.532 77.8181 266.395 79.1446L266.209 80.9476C266.073 82.2742 264.694 83.2313 263.131 83.084L243.674 81.2528L243.716 80.8499L243.797 80.858L248.784 80.9262L250.125 77.6922C250.125 77.6922 248.384 75.671 248.264 75.6121C248.143 75.5532 244.393 75.0539 244.393 75.0539L244.313 75.0459L244.355 74.6443L263.812 76.4755H263.811Z" fill="#FF5B7E"/>
<path d="M245.278 78.055C245.478 76.1088 244.39 75.054 244.39 75.054L263.371 76.841C264.807 76.9761 265.87 78.0738 265.746 79.2932L265.603 80.6813C265.477 81.8994 264.212 82.7789 262.776 82.6437L243.794 80.8567C243.794 80.8567 245.026 80.506 245.278 78.055Z" fill="#DAEEF7"/>
<g style="mix-blend-mode:multiply">
<path d="M265.744 79.2931L265.602 80.6812C265.583 80.8633 265.537 81.0386 265.472 81.2033C264.968 79.8138 263.872 78.4177 261.579 77.7872C256.224 76.3134 244.388 75.0552 244.388 75.0552L263.37 76.8422C264.806 76.9774 265.869 78.075 265.744 79.2944V79.2931Z" fill="#DAEEF7"/>
</g>
<path d="M208.142 120.954L206.852 123.706C206.746 123.933 206.852 124.2 207.09 124.302L213.822 127.19C214.308 127.399 214.78 126.87 214.486 126.443L211.881 122.557C211.881 122.557 209.821 122.919 208.142 120.952V120.954Z" fill="#55769F"/>
<path d="M199.588 120.954L198.298 123.706C198.192 123.933 198.298 124.2 198.536 124.302L205.268 127.19C205.754 127.399 206.226 126.87 205.932 126.443L203.327 122.557C203.327 122.557 201.267 122.919 199.588 120.952V120.954Z" fill="#55769F"/>
<path d="M185.046 45.0766L184.33 49.3747L182.817 43.6443C182.817 43.6443 184.937 42.6591 185.031 43.0178C185.124 43.3766 185.046 45.0766 185.046 45.0766Z" fill="#07085B"/>
<path d="M173.015 54.3274L172.36 61.7565L179.209 61.4433L178.419 54.8642L173.015 54.3274Z" fill="#FFC0BB"/>
<path d="M178.795 57.9938L178.419 54.8642L173.015 54.3274L172.788 56.9001C173.862 57.9255 175.795 58.987 178.795 57.9938Z" fill="#F99893"/>
<path d="M182.995 49.3212C182.582 50.1364 182.802 51.0533 183.483 51.3679C184.164 51.6838 185.05 51.2782 185.463 50.463C185.875 49.6478 185.656 48.7309 184.975 48.4163C184.294 48.1017 183.407 48.506 182.995 49.3212Z" fill="#F99893"/>
<path d="M183.989 49.9182C184.025 49.7054 184.073 49.4952 184.126 49.2864C184.338 48.4404 184.396 47.5342 184.247 46.5892C183.772 43.5493 181.216 41.1251 178.035 40.7048C173.749 40.1372 169.974 43.1758 169.707 47.1982C169.267 46.9279 168.758 46.8395 168.292 47.0055C167.401 47.3227 167.015 48.4458 167.431 49.5126C167.846 50.5795 168.905 51.1859 169.797 50.8686C169.92 50.8244 170.033 50.7629 170.137 50.6906C170.274 54.1361 173.03 56.9565 176.547 57.1131C178.267 57.1907 179.868 56.6165 181.11 55.6112C182.799 54.4225 183.653 51.9007 183.987 49.9196L183.989 49.9182Z" fill="#FFC0BB"/>
<path d="M178.654 47.672C178.668 48.0736 178.671 48.4644 178.693 48.8486C178.72 49.2234 178.762 49.625 178.92 49.89C179.079 50.1042 179.206 50.2407 179.211 50.5031C179.22 50.7681 179.074 51.0064 178.892 51.151C178.518 51.4521 178.033 51.4802 177.632 51.3865C178.042 51.3169 178.433 51.1831 178.661 50.9274C178.767 50.8002 178.837 50.6584 178.812 50.5245C178.795 50.3773 178.748 50.3478 178.562 50.1015C178.43 49.8873 178.388 49.6705 178.363 49.4603C178.342 49.2502 178.346 49.0454 178.366 48.8419C178.407 48.439 178.496 48.0441 178.654 47.6707V47.672Z" fill="#F99893"/>
<path d="M176.222 48.1045C176.268 48.5208 175.885 48.8568 175.456 48.7724C175.189 48.7202 174.981 48.5007 174.953 48.241C174.908 47.8261 175.29 47.4927 175.717 47.5744C175.985 47.6253 176.194 47.8448 176.222 48.1045Z" fill="#333333"/>
<path d="M181.686 48.696C181.73 49.1109 181.349 49.4443 180.921 49.3626C180.654 49.3117 180.445 49.0922 180.416 48.8325C180.37 48.4162 180.753 48.0816 181.182 48.1646C181.449 48.2168 181.658 48.4363 181.687 48.696H181.686Z" fill="#333333"/>
<path d="M175.154 52.3425C175.322 52.4817 175.497 52.6116 175.681 52.7267C175.863 52.8445 176.053 52.9516 176.25 53.0426C176.643 53.2247 177.06 53.3572 177.491 53.4067C177.92 53.4589 178.358 53.4228 178.777 53.3157C179.197 53.2032 179.597 53.0185 179.974 52.795C179.563 53.1256 179.225 53.2902 178.815 53.4335C178.384 53.5713 177.954 53.6169 177.47 53.566C177.018 53.5098 176.582 53.3652 176.19 53.151C175.8 52.9369 175.441 52.6705 175.153 52.3425H175.154Z" fill="#F99893"/>
<path d="M177.028 46.822C176.702 46.7257 176.397 46.652 176.094 46.6079C175.792 46.5637 175.495 46.5557 175.207 46.5891C174.92 46.6253 174.631 46.6855 174.354 46.806C174.141 46.8689 173.625 47.1594 173.491 47.2169C173.649 46.9385 173.879 46.6413 174.161 46.4767C174.442 46.2719 174.794 46.1554 175.151 46.1126C175.509 46.0711 175.875 46.122 176.201 46.2464C176.524 46.3736 176.821 46.5624 177.029 46.8247L177.028 46.822Z" fill="#07085B"/>
<path d="M179.843 47.1246C180.1 46.9064 180.43 46.7766 180.772 46.711C181.116 46.6494 181.486 46.6682 181.83 46.7752C182.171 46.8837 182.492 47.0644 182.727 47.3174C182.972 47.5315 183.136 47.8675 183.234 48.1687C183.112 48.087 182.666 47.7069 182.47 47.6052C182.223 47.4352 181.951 47.3227 181.677 47.2344C181.4 47.1474 181.108 47.1005 180.803 47.0885C180.497 47.0764 180.182 47.0911 179.844 47.126L179.843 47.1246Z" fill="#07085B"/>
<path d="M176.786 89.1801C176.786 89.1801 175.358 98.4551 184.719 100.071C194.081 101.686 205.729 101.205 205.729 101.205L207.35 122.509L212.237 122.748C212.237 122.748 224.823 93.1449 207.403 88.5175L191.75 88.5911L185.305 88.1507C185.305 88.1507 178.783 86.6087 178.706 86.9018C178.629 87.1963 176.941 89.326 176.787 89.1787L176.786 89.1801Z" fill="#070852"/>
<path d="M168.183 89.2282C168.183 89.2282 166.755 98.5032 176.116 100.119C185.478 101.734 197.127 101.253 197.127 101.253L198.747 122.557L203.635 122.796C203.635 122.796 216.219 93.193 198.8 88.5656L183.147 88.6392L176.702 88.1988C176.702 88.1988 170.18 86.6568 170.103 86.9499C170.026 87.2444 168.338 89.3741 168.185 89.2268L168.183 89.2282Z" fill="#10116B"/>
<path d="M179.974 58.7944C179.974 58.7944 186.419 59.5775 188.057 60.8505C189.694 62.1235 197.571 80.8301 197.571 80.8301L191.023 88.1762L177.107 88.2739C177.107 88.2739 166.671 93.6603 160.123 88.567C153.574 83.4738 156.951 65.747 160.737 61.928C164.522 58.1091 171.275 58.2068 171.275 58.2068C171.275 58.2068 177.414 62.3202 179.971 58.7944H179.974Z" fill="#FF5B7E"/>
<path d="M167.492 68.0989C167.723 69.1189 167.864 70.1536 167.965 71.191C168.021 71.7104 168.045 72.2311 168.075 72.7518C168.092 73.2738 168.105 73.7959 168.096 74.3179C168.075 75.362 168.015 76.4101 167.828 77.4435C167.645 78.4728 167.379 79.5062 166.878 80.4379C167.215 79.4446 167.382 78.4246 167.502 77.4006C167.621 76.3766 167.661 75.3433 167.675 74.3112C167.698 73.2792 167.671 72.2444 167.638 71.2084C167.6 70.1723 167.55 69.1363 167.492 68.0962V68.0989Z" fill="white"/>
<path d="M186.778 67.4133C187.074 68.9299 187.385 70.4425 187.701 71.9511C188.024 73.4583 188.36 74.9629 188.742 76.4568C189.119 77.9506 189.537 79.4337 190.044 80.8888C190.298 81.6156 190.581 82.3331 190.913 83.0292C191.241 83.7266 191.629 84.4026 192.15 84.9929C191.557 84.4628 191.122 83.7922 190.729 83.1162C190.347 82.4308 190.019 81.7187 189.735 80.9932C189.445 80.269 189.196 79.5315 188.961 78.7912C188.735 78.0483 188.526 77.3001 188.332 76.5505C188.147 75.7982 187.97 75.0432 187.81 74.2869C187.657 73.5279 187.506 72.7703 187.378 72.0073C187.115 70.484 186.91 68.9514 186.777 67.4133H186.778Z" fill="white"/>
<path d="M200.736 70.7974C199.544 69.0238 189.791 66.012 189.791 66.012V69.0144L199.719 72.3367L200.736 70.7974Z" fill="#EDEDED"/>
<path d="M200.034 70.6768L188.707 65.6772V67.6182L199.754 71.4331L200.034 70.6768Z" fill="white"/>
<path d="M199.405 70.6767L187.448 66.3464V69.6929L199.284 71.433L199.405 70.6767Z" fill="#EDEDED"/>
<path d="M200.736 70.3341C200.736 70.3341 203.04 65.1739 203.984 64.103C203.984 67.4977 202.551 71.7664 202.551 71.7664L200.736 70.3341Z" fill="white"/>
<path d="M201.743 70.563L204.537 63.8032V67.0238L202.617 71.4331L201.743 70.563Z" fill="#EDEDED"/>
<path d="M202.616 70.6769L205.662 64.1045V66.447L202.616 70.6769Z" fill="white"/>
<path d="M202.616 90.9283L206.456 84.5968V64.3455L202.616 70.6769V90.9283Z" fill="#26426E"/>
<path d="M184.924 87.8683L198.521 90.9283V70.6769L184.924 67.6169V87.8683Z" fill="#55769F"/>
<path d="M198.521 70.6769C199.719 70.1281 202.226 70.3222 202.617 70.6769C202.411 71.8347 198.826 72.0623 198.521 70.6769Z" fill="#E0E0E0"/>
<path d="M198.521 90.9281C198.521 91.4234 202.635 91.4234 202.635 90.9281V70.6768C202.218 71.2657 198.985 71.2497 198.521 70.6768V90.9281Z" fill="#3A5782"/>
<path d="M190.017 83.9421C189.977 83.6315 187.517 83.2862 186.614 83.2407C185.928 83.2072 181.389 83.0613 179.845 82.9944L179.959 83.3745L179.935 85.0531L179.682 86.1655C181.037 86.2471 184.348 86.3716 185.038 86.5028C185.959 86.6768 187.556 87.3421 187.556 87.3421C187.556 87.3421 188.22 87.1975 187.376 86.8481C186.697 86.5684 186.222 86.1347 186.021 85.9178C185.905 85.7933 186.03 85.5725 186.114 85.5939C188.413 86.1708 188.65 86.2659 188.65 86.2659C188.65 86.2659 191.351 86.2511 188.665 85.6702C187.054 85.3222 186.477 85.1187 186.334 84.946C186.272 84.8724 186.381 84.6221 186.479 84.6154C187.875 84.5324 190.379 85.0063 189.693 84.6957C189.133 84.4427 187.372 84.1656 186.686 84.0599C186.644 84.0532 186.576 83.8096 186.763 83.7935C188.092 83.6878 190.054 84.2272 190.016 83.9394L190.017 83.9421Z" fill="#FFC0BB"/>
<path d="M165.919 80.1821C166.486 80.3133 167.043 80.4659 167.611 80.5783C168.175 80.7068 168.748 80.8005 169.314 80.9157C170.455 81.1151 171.599 81.2878 172.747 81.4417C173.897 81.5863 175.046 81.7188 176.2 81.8259C177.349 81.9357 178.517 82.028 179.655 82.0896L179.808 82.0976L179.841 82.2248C179.939 82.5942 180.002 82.9543 180.051 83.3238C180.099 83.6919 180.12 84.0627 180.118 84.4335C180.115 84.8042 180.082 85.1764 180.018 85.5445C179.948 85.9112 179.833 86.2713 179.681 86.6153L179.668 86.6448L179.643 86.6608L178.379 87.472C177.958 87.7424 177.535 88.0115 177.109 88.2752C177.505 87.9713 177.905 87.6728 178.307 87.3756L179.511 86.4855L179.474 86.531C179.601 86.1977 179.689 85.8537 179.738 85.5016C179.783 85.1496 179.804 84.7935 179.792 84.4361C179.78 84.0801 179.743 83.724 179.692 83.3693C179.637 83.0172 179.564 82.6598 179.468 82.3265L179.654 82.4617C179.053 82.447 178.484 82.4095 177.899 82.3694C177.317 82.3279 176.737 82.2837 176.158 82.2261C174.999 82.111 173.842 81.9731 172.691 81.7978C171.541 81.6198 170.397 81.4056 169.263 81.1486C168.698 81.0107 168.133 80.8769 167.576 80.7095C167.016 80.5583 166.466 80.3709 165.919 80.1848V80.1821Z" fill="white"/>
<path d="M185.183 41.0113C185.183 41.0113 187.332 41.0769 185.077 39.3381C182.821 37.5993 176.768 35.5593 172.887 37.5203C172.887 37.5203 172.111 35.9408 170.99 36.3183C169.868 36.6958 171.72 37.7814 171.72 37.7814C171.72 37.7814 170.288 37.7372 169.85 38.4105C169.527 38.9071 170.404 38.9299 170.883 38.9071C170.068 39.0396 166.941 40.9297 168.51 46.964C169.068 46.8462 172.247 42.4356 172.247 42.4356C172.247 42.4356 179.514 46.3014 178.795 43.228C178.795 43.228 186.326 47.7256 185.257 44.0111C185.257 44.0111 188.169 44.2159 185.184 41.0127L185.183 41.0113Z" fill="#07085B"/>
<path d="M168.503 47C168.503 47 169.105 46.7979 169.752 47.2892C170.4 47.7804 170.328 49.5085 170.328 49.5085C170.328 49.5085 173.417 51.416 173.091 43.3457C172.745 34.7601 170.514 44.0337 170.514 44.0337L168.503 46.9987V47Z" fill="#07085B"/>
<path d="M134.969 207.953L136.258 210.705C136.364 210.933 136.258 211.199 136.02 211.301L129.289 214.19C128.802 214.398 128.331 213.87 128.624 213.443L131.23 209.557C131.23 209.557 133.289 209.918 134.969 207.952V207.953Z" fill="#07085B"/>
<path d="M143.692 207.625L144.981 210.377C145.087 210.605 144.981 210.871 144.743 210.973L138.012 213.862C137.524 214.071 137.054 213.542 137.348 213.115L139.953 209.229C139.953 209.229 142.012 209.59 143.692 207.624V207.625Z" fill="#07085B"/>
<path d="M151.561 118.504C151.561 118.504 144.223 117.32 141.762 125.166L144.801 129.519C144.801 129.519 151.173 127.175 151.198 126.947C151.224 126.718 151.561 118.504 151.561 118.504Z" fill="#FF5500"/>
<path d="M163.37 122.039C163.37 122.039 165.509 125.121 166.601 126.341C169.348 129.415 169.701 128.45 171.407 131.093C173.249 133.946 171.386 135.733 170.326 136.555C169.266 137.377 171.04 140.418 169.065 142.123C166.481 144.355 164.091 142.25 162.314 143.501C160.536 144.751 160.148 146.604 155.934 146.254C151.721 145.903 151.762 132.717 151.762 132.717C151.762 132.717 155.21 125.726 155.347 125.668C155.484 125.611 163.37 122.041 163.37 122.041V122.039Z" fill="#FF5500"/>
<path d="M141.762 125.168C141.762 125.168 141.51 127.588 140.674 128.981C138.571 132.488 137.438 131.34 136.272 134.239C135.014 137.369 137.192 138.794 138.392 139.414C139.592 140.034 138.44 143.338 140.709 144.663C143.681 146.398 145.622 143.905 147.61 144.818C149.599 145.731 150.34 147.483 154.413 146.391C158.485 145.299 155.891 132.348 155.891 132.348C155.891 132.348 151.148 126.09 151.003 126.058C150.857 126.026 141.762 125.169 141.762 125.169V125.168Z" fill="#FF5500"/>
<path d="M152.408 140.783C152.408 140.783 159.44 139.545 162.673 139.65C165.906 139.754 160.714 147.803 160.714 147.803L155.433 147.915C155.433 147.915 152.195 144.454 152.408 144.051C152.621 143.648 152.398 141.007 152.398 141.007L152.408 140.783Z" fill="#FFC0BB"/>
<path d="M158.678 134.361L160.534 139.75C160.534 139.75 158.919 142.946 153.974 141.568C153.974 141.568 154.539 140.451 153.781 138.153C153.008 135.804 158.68 134.361 158.68 134.361H158.678Z" fill="#FFC0BB"/>
<path opacity="0.6" d="M158.678 134.361L159.548 136.879C159.029 138.719 157.347 139.972 154.173 140.36C154.173 139.813 154.086 139.082 153.78 138.153C153.006 135.804 158.678 134.361 158.678 134.361Z" fill="#FC8D84"/>
<path d="M147.364 130.415C147.765 131.29 147.498 132.249 146.767 132.557C146.036 132.864 145.117 132.404 144.715 131.529C144.314 130.653 144.581 129.695 145.313 129.387C146.044 129.079 146.963 129.539 147.364 130.415Z" fill="#F99893"/>
<path d="M147.158 134.389C146.684 133.262 146.427 132.06 146.291 131.008C146.262 130.783 146.22 130.559 146.173 130.336C145.982 129.436 145.959 128.478 146.153 127.487C146.778 124.299 149.571 121.837 152.943 121.512C157.487 121.073 161.345 124.415 161.464 128.668C161.939 128.399 162.48 128.325 162.964 128.518C163.891 128.886 164.253 130.084 163.772 131.194C163.291 132.304 162.149 132.905 161.223 132.535C161.094 132.484 160.978 132.416 160.872 132.334C160.588 135.963 157.568 138.834 153.851 138.871C151.061 138.897 148.315 137.278 147.163 134.388L147.158 134.389Z" fill="#FFC0BB"/>
<path d="M152.008 128.837C152.155 129.237 152.23 129.656 152.255 130.083C152.268 130.297 152.262 130.513 152.232 130.733C152.197 130.953 152.144 131.179 151.998 131.397C151.829 131.605 151.741 131.673 151.716 131.84C151.685 131.984 151.755 132.139 151.864 132.277C152.099 132.557 152.509 132.711 152.938 132.794C152.511 132.874 152.004 132.823 151.626 132.492C151.442 132.333 151.299 132.08 151.32 131.804C151.341 131.518 151.475 131.391 151.65 131.172C151.741 131.04 151.798 130.855 151.842 130.668C151.889 130.479 151.903 130.277 151.93 130.078C151.966 129.673 151.983 129.26 152.009 128.838L152.008 128.837Z" fill="#F99893"/>
<path d="M154.554 129.384C154.49 129.822 154.882 130.189 155.337 130.115C155.62 130.07 155.849 129.846 155.89 129.574C155.954 129.138 155.563 128.771 155.108 128.843C154.826 128.888 154.596 129.112 154.556 129.384H154.554Z" fill="#333333"/>
<path d="M148.769 129.804C148.705 130.241 149.095 130.606 149.549 130.537C149.833 130.492 150.063 130.269 150.103 129.997C150.169 129.559 149.777 129.193 149.322 129.265C149.039 129.309 148.81 129.534 148.769 129.806V129.804Z" fill="#333333"/>
<g style="mix-blend-mode:multiply" opacity="0.3">
<path d="M154.666 134.393C154.666 134.393 153.701 134.063 152.795 134.631C152.795 134.631 151.814 134.044 151.042 134.605C151.042 134.605 151.401 136.003 153.012 135.908C154.623 135.815 154.668 134.393 154.668 134.393H154.666Z" fill="#F99893"/>
</g>
<path d="M155.509 133.892C155.328 134.034 155.137 134.164 154.937 134.278C154.74 134.396 154.536 134.501 154.325 134.59C153.903 134.766 153.458 134.892 153.002 134.928C152.548 134.967 152.088 134.914 151.648 134.785C151.211 134.651 150.797 134.441 150.407 134.192C150.58 134.343 150.768 134.481 150.967 134.603C151.167 134.726 151.383 134.823 151.604 134.908C151.827 134.989 152.061 135.046 152.299 135.08C152.536 135.109 152.778 135.114 153.017 135.098C153.496 135.056 153.963 134.919 154.384 134.708C154.805 134.497 155.193 134.228 155.509 133.894V133.892Z" fill="#F99893"/>
<path d="M153.757 128C154.104 127.91 154.43 127.845 154.752 127.809C155.072 127.773 155.385 127.775 155.688 127.822C155.989 127.872 156.291 127.944 156.579 128.082C156.8 128.157 157.334 128.482 157.473 128.546C157.319 128.248 157.088 127.925 156.796 127.74C156.508 127.514 156.14 127.378 155.767 127.319C155.391 127.263 155.002 127.301 154.654 127.421C154.308 127.542 153.988 127.731 153.757 128Z" fill="#FF5500"/>
<path d="M150.777 128.216C150.515 127.976 150.173 127.826 149.814 127.746C149.453 127.668 149.063 127.673 148.697 127.774C148.333 127.876 147.985 128.054 147.729 128.312C147.462 128.529 147.276 128.875 147.16 129.191C147.291 129.111 147.778 128.726 147.988 128.626C148.256 128.456 148.547 128.348 148.839 128.264C149.134 128.182 149.445 128.143 149.768 128.142C150.091 128.141 150.422 128.169 150.779 128.217L150.777 128.216Z" fill="#FF5500"/>
<path d="M164.639 173.711C164.639 173.711 166.713 183.053 157.304 185.271C147.894 187.489 136.019 187.714 136.019 187.714L135.799 209.475L130.846 210.019C130.846 210.019 116.067 180.694 133.467 174.92L149.387 174.032L155.911 173.188C155.911 173.188 162.438 171.219 162.536 171.513C162.634 171.808 164.494 173.869 164.639 173.711Z" fill="#FFC0BB"/>
<path d="M173.389 173.232C173.389 173.232 175.463 182.574 166.053 184.792C156.643 187.01 144.768 187.236 144.768 187.236L144.549 208.997L139.596 209.541C139.596 209.541 124.817 180.217 142.216 174.442L158.137 173.555L164.66 172.71C164.66 172.71 171.188 170.741 171.286 171.035C171.384 171.33 173.242 173.391 173.389 173.233V173.232Z" fill="#FFC0BB"/>
<path d="M139.557 172.13C131.623 172.247 124.385 176.608 121.81 185.077C119.236 193.548 113.363 202.284 113.922 202.199C126.368 208.868 130.28 202.169 138.882 204.149C147.483 206.129 150.531 205.233 150.531 205.233C148.042 193.279 144.767 187.235 144.767 187.235C145.49 187.359 166.6 187.656 171.814 182.124C173.277 180.573 174.397 178.621 174.174 173.852C173.757 164.974 141.857 172.096 139.556 172.129L139.557 172.13Z" fill="#FEB546"/>
<path d="M141.923 187.86C142.194 187.813 142.466 187.769 142.733 187.709C143.001 187.65 143.265 187.58 143.527 187.505C143.658 187.466 143.79 187.424 143.92 187.378C143.784 187.351 143.653 187.314 143.521 187.268C143.263 187.181 143.021 187.055 142.794 186.912C142.575 186.758 142.368 186.591 142.186 186.4C142.004 186.209 141.847 186.001 141.709 185.782L141.979 186.062C142.075 186.149 142.165 186.24 142.266 186.321C142.457 186.492 142.672 186.635 142.892 186.765C143.113 186.893 143.348 186.997 143.59 187.078C143.83 187.156 144.09 187.213 144.33 187.221L144.77 187.236L144.38 187.41C144.114 187.528 143.851 187.606 143.58 187.678C143.31 187.75 143.036 187.801 142.762 187.847C142.486 187.889 142.211 187.927 141.934 187.946C141.657 187.966 141.38 187.978 141.104 187.976C141.378 187.938 141.652 187.905 141.923 187.859V187.86Z" fill="#DAEEF7"/>
<path d="M144.416 153.899C144.416 153.899 143.776 169.163 141.983 171.553L151.846 169.408V152.796L144.418 153.899H144.416Z" fill="#FFC0BB"/>
<path d="M148.4 155.983C148.4 155.983 149.99 159.825 150.239 161.866C150.858 166.934 150.186 170.508 149.09 173.392C147.553 177.439 159.447 175.9 159.734 175.905C172.302 176.191 172.186 175.7 172.186 175.7L174.193 174.158C173.913 169.215 173.199 164.939 173.311 160.531L173.425 155.983L172.849 151.385L155.058 150.044L148.402 155.983H148.4Z" fill="#FEB546"/>
<path d="M142.31 159.376C143.397 157.758 152.296 155.01 152.296 155.01V157.749L143.237 160.781L142.31 159.376Z" fill="#EDEDED"/>
<path d="M142.31 159.376C143.397 157.758 152.296 155.01 152.296 155.01V157.749L143.237 160.781L142.31 159.376Z" fill="#EDEDED"/>
<path d="M142.949 159.267L153.285 154.705V156.476L143.205 159.957L142.949 159.267Z" fill="white"/>
<path d="M143.524 159.267L154.433 155.316V158.37L143.634 159.957L143.524 159.267Z" fill="#EDEDED"/>
<path d="M142.31 158.955C142.31 158.955 140.207 154.247 139.346 153.27C139.346 156.367 140.653 160.261 140.653 160.261L142.31 158.953V158.955Z" fill="white"/>
<path d="M141.392 159.164L138.842 152.995V155.934L140.593 159.957L141.392 159.164Z" fill="#EDEDED"/>
<path d="M140.593 159.267L137.814 153.27V155.407L140.593 159.267Z" fill="white"/>
<path d="M140.593 177.743L138.044 172.126V153.649L140.593 159.267V177.743Z" fill="#F5577A"/>
<path d="M156.736 174.952L144.329 177.743V159.267L156.736 156.476V174.952Z" fill="#FF5B7E"/>
<path d="M144.329 159.267C143.236 158.766 140.948 158.943 140.593 159.267C140.78 160.323 144.051 160.53 144.329 159.267Z" fill="#E0E0E0"/>
<path d="M144.329 177.743C144.329 178.195 140.576 178.195 140.576 177.743V159.267C140.957 159.805 143.906 159.789 144.329 159.267V177.743Z" fill="#DE4B6C"/>
<path d="M177.151 152.056L168.706 155.8C168.706 155.8 168.049 166.14 167.642 166.598C166.904 167.427 159.415 169.799 155.472 170.493C154.837 170.604 154.184 170.556 153.576 170.351C151.619 169.69 148.157 168.5 147.612 168.322C146.754 168.044 144.335 167.497 144.177 167.771C144.03 168.025 146.061 168.216 147.255 168.784C147.423 168.864 147.266 169.068 147.224 169.058C146.547 168.914 144.802 168.548 144.186 168.586C143.428 168.633 145.938 169.077 147.203 169.647C147.291 169.687 147.297 169.959 147.212 170.006C147.012 170.116 146.398 170.101 144.766 169.855C142.045 169.445 144.551 170.414 144.551 170.414C144.551 170.414 144.807 170.409 147.167 170.686C147.254 170.697 147.284 170.946 147.129 171.021C146.859 171.149 146.25 171.385 145.511 171.406C144.593 171.432 145.155 171.801 145.155 171.801C145.155 171.801 146.896 171.747 147.82 171.911C148.511 172.033 151.638 173.087 152.928 173.49L153.088 173.3C154.878 173.699 171.374 174.853 173.377 170.168C177.06 161.554 177.154 152.057 177.154 152.057L177.151 152.056Z" fill="#FFC0BB"/>
<path d="M152.408 140.783C152.408 140.783 157.189 146.124 162.673 139.65C162.673 139.65 168.667 139.182 173.084 142.186C177.503 145.19 180.149 151.936 180.149 151.936C180.149 151.936 173.807 155.983 168.695 155.983L156.706 151.873L148.4 155.983C148.4 155.983 144.543 155.738 141.277 154.144C141.277 154.144 141.84 143.42 152.406 140.783H152.408Z" fill="#FEB546"/>
<path d="M167.238 149.896C167.443 150.559 167.629 151.227 167.814 151.895C168.158 153.207 168.475 154.457 168.707 155.8C169.141 155.818 169.629 155.758 170.057 155.699C172.364 155.306 173.88 154.687 175.935 153.883C179.015 152.54 178.599 152.67 180.149 151.938C178.346 153.029 177.376 153.521 176.063 154.149C174.263 154.948 172.543 155.687 170.121 156.095C169.062 156.233 168.758 156.204 168.356 156.16C168.2 155.175 168.021 154.167 167.53 151.959L167.073 149.938L166.601 147.917C166.829 148.573 167.032 149.235 167.238 149.898V149.896Z" fill="#07085B"/>
<path d="M148.237 151.139C148.097 151.828 148.002 152.738 148.034 153.588C148.049 153.984 148.355 155.094 148.708 156.218C148.642 156.243 148.576 156.265 148.511 156.289C148.102 155.158 147.751 154.025 147.707 153.612C147.599 152.761 147.673 151.902 147.823 151.066C147.99 150.224 148.211 149.44 148.546 148.627C148.863 147.84 149.238 147.075 149.708 146.363C149.394 147.147 149.109 147.935 148.856 148.729C148.607 149.524 148.386 150.326 148.238 151.137L148.237 151.139Z" fill="#07085B"/>
<path d="M161.462 128.668C161.462 128.668 153.253 126.773 149.33 121.432C149.33 121.432 149.262 116.569 156.799 117.672C164.122 118.744 165.836 125.565 161.462 128.668Z" fill="#FF5500"/>
</svg>
