<svg width="15" height="18" viewBox="0 0 15 18" fill="none" xmlns="http://www.w3.org/2000/svg">
<path fill-rule="evenodd" clip-rule="evenodd" d="M15 15.7499C15 16.3466 14.7531 16.919 14.3135 17.341C13.8739 17.7629 13.2777 18 12.6561 18H2.3432C1.72168 17.9998 1.12568 17.7627 0.686265 17.3407C0.24685 16.9188 0 16.3465 0 15.7499V13.275C0 13.1557 0.0493746 13.0412 0.137261 12.9568C0.225149 12.8725 0.344349 12.8251 0.46864 12.8251C0.592932 12.8251 0.712132 12.8725 0.800019 12.9568C0.887906 13.0412 0.937281 13.1557 0.937281 13.275V15.7499C0.937281 16.1079 1.08544 16.4513 1.34917 16.7045C1.6129 16.9576 1.97059 17.0999 2.34355 17.0999H12.6564C13.0294 17.0999 13.3871 16.9576 13.6508 16.7045C13.9146 16.4513 14.0627 16.1079 14.0627 15.7499L14.0627 2.24979C14.0627 1.89174 13.9146 1.54836 13.6508 1.29519C13.3871 1.04201 13.0294 0.89978 12.6564 0.89978H2.34355C1.97059 0.89978 1.6129 1.04201 1.34917 1.29519C1.08544 1.54836 0.937281 1.89174 0.937281 2.24979V4.72503C0.937281 4.84435 0.887906 4.95878 0.800019 5.04315C0.712132 5.12752 0.592932 5.17492 0.46864 5.17492C0.344349 5.17492 0.225149 5.12752 0.137261 5.04315C0.0493746 4.95878 0 4.84435 0 4.72503V2.24979C9.34601e-05 1.65314 0.247033 1.08094 0.686514 0.659046C1.126 0.237148 1.72203 8.96454e-05 2.34355 0H12.6564C13.2779 0.000177383 13.8739 0.237276 14.3133 0.659164C14.7527 1.08105 14.9996 1.65319 14.9996 2.24979L15 15.7499Z" fill="#FF647D"/>
<path fill-rule="evenodd" clip-rule="evenodd" d="M3.14374 11.5683C3.32656 11.3924 3.32656 11.1076 3.14374 10.9317L1.60001 9.45009H8.90594C9.03028 9.45009 9.14952 9.40267 9.23744 9.31827C9.32536 9.23387 9.37476 9.11939 9.37476 9.00003C9.37476 8.88067 9.32536 8.76619 9.23744 8.68179C9.14952 8.59739 9.03028 8.54997 8.90594 8.54997H1.60036L3.14374 7.06834C3.18728 7.02657 3.22182 6.97697 3.24539 6.92238C3.26896 6.86779 3.2811 6.80928 3.28112 6.75019C3.28113 6.6911 3.26903 6.63259 3.24548 6.57799C3.22194 6.52339 3.18743 6.47377 3.14392 6.43198C3.1004 6.39018 3.04874 6.35702 2.99188 6.3344C2.93502 6.31177 2.87407 6.30012 2.81251 6.3001C2.75096 6.30008 2.69 6.31171 2.63313 6.33431C2.57625 6.3569 2.52457 6.39004 2.48104 6.43181L0.137132 8.6816C-0.0456839 8.8571 -0.0456839 9.14229 0.137132 9.31813L2.48104 11.5679C2.52456 11.6097 2.57624 11.6429 2.63313 11.6655C2.69001 11.6882 2.75099 11.6998 2.81256 11.6998C2.87414 11.6998 2.93512 11.6882 2.992 11.6655C3.04889 11.6429 3.10057 11.6097 3.14409 11.5679L3.14374 11.5683Z" fill="#FF647D"/>
</svg>
