<svg width="18" height="18" viewBox="0 0 18 18" fill="none" xmlns="http://www.w3.org/2000/svg">
<rect width="18" height="18" rx="2" fill="#FF647D" fill-opacity="0.2"/>
<path fill-rule="evenodd" clip-rule="evenodd" d="M7 8.3176C7 7.81955 7.21071 7.3419 7.58579 6.98972C7.96086 6.63755 8.46957 6.4397 9 6.4397C9.53043 6.4397 10.0391 6.63755 10.4142 6.98972C10.7893 7.3419 11 7.81955 11 8.3176C11 8.81566 10.7893 9.29331 10.4142 9.64548C10.0391 9.99766 9.53043 10.1955 9 10.1955C8.46957 10.1955 7.96086 9.99766 7.58579 9.64548C7.21071 9.29331 7 8.81566 7 8.3176ZM9 7.46401C8.75889 7.46401 8.52766 7.55394 8.35718 7.71402C8.18669 7.8741 8.09091 8.09122 8.09091 8.3176C8.09091 8.54399 8.18669 8.76111 8.35718 8.92119C8.52766 9.08127 8.75889 9.1712 9 9.1712C9.24111 9.1712 9.47234 9.08127 9.64282 8.92119C9.81331 8.76111 9.90909 8.54399 9.90909 8.3176C9.90909 8.09122 9.81331 7.8741 9.64282 7.71402C9.47234 7.55394 9.24111 7.46401 9 7.46401Z" fill="#FF647D"/>
<path d="M7.00009 13.1164C7.00009 12.5257 7.41754 12.0067 8.02191 11.8442C8.66123 11.6726 9.33895 11.6726 9.97827 11.8442C10.2726 11.9232 10.5316 12.0902 10.7159 12.3197C10.9003 12.5492 11 12.8289 11.0001 13.1164V13.4394C11.0001 13.5752 11.0576 13.7055 11.1598 13.8015C11.2621 13.8976 11.4009 13.9515 11.5455 13.9515C11.6902 13.9515 11.8289 13.8976 11.9312 13.8015C12.0335 13.7055 12.091 13.5752 12.091 13.4394V13.1164C12.0909 12.6063 11.9139 12.1102 11.5868 11.703C11.2597 11.2958 10.8002 10.9997 10.2779 10.8595C9.44274 10.6354 8.55744 10.6354 7.72227 10.8595C7.19998 10.9997 6.74052 11.2958 6.41339 11.703C6.08627 12.1102 5.90927 12.6063 5.90918 13.1164V13.4394C5.90918 13.5752 5.96665 13.7055 6.06894 13.8015C6.17123 13.8976 6.30997 13.9515 6.45463 13.9515C6.5993 13.9515 6.73804 13.8976 6.84033 13.8015C6.94262 13.7055 7.00009 13.5752 7.00009 13.4394V13.1164Z" fill="#FF647D"/>
<path fill-rule="evenodd" clip-rule="evenodd" d="M8.43055 2.00106C8.19564 2.00106 7.98036 2.00106 7.80218 2.01813C7.608 2.03657 7.39855 2.07959 7.20218 2.20251C7.06315 2.28972 6.94379 2.4018 6.85091 2.53234C6.72 2.71671 6.67418 2.91338 6.65455 3.09571C6.64539 3.18698 6.64005 3.27856 6.63855 3.37023C6.20073 3.37501 5.82036 3.38798 5.49164 3.42281C4.94327 3.48085 4.47127 3.60445 4.06691 3.89604C3.87782 4.03261 3.70836 4.19104 3.56364 4.36859C3.25309 4.74827 3.12145 5.19145 3.05964 5.70702C3 6.20484 3 6.82899 3 7.60405V11.4282C3 12.3616 3 13.1149 3.08509 13.7069C3.17236 14.3215 3.36145 14.8391 3.79855 15.2502C4.23636 15.6613 4.78764 15.8375 5.44218 15.9208C6.07273 16 6.87491 16 7.86909 16H10.1309C11.1251 16 11.9273 16 12.5578 15.9208C13.2124 15.8375 13.7636 15.6613 14.2015 15.2502C14.6393 14.8391 14.8269 14.3215 14.9156 13.7069C15 13.1149 15 12.3616 15 11.4282V7.60405C15 6.82899 15 6.20416 14.9404 5.70634C14.8785 5.19145 14.7469 4.74827 14.4364 4.36859C14.2913 4.19111 14.1221 4.03224 13.9331 3.89604C13.5287 3.60445 13.0567 3.48085 12.5076 3.42281C12.1796 3.38866 11.7993 3.37501 11.3615 3.37023C11.3599 3.27856 11.3546 3.18698 11.3455 3.09571C11.3258 2.91338 11.28 2.71671 11.1491 2.53234C11.0562 2.4018 10.9368 2.28972 10.7978 2.20251C10.6015 2.07959 10.392 2.03657 10.1978 2.01813C9.98877 2.00312 9.77908 1.99743 9.56945 2.00106H8.43055ZM11.336 4.39386C11.7593 4.39864 12.0996 4.41024 12.3862 4.44097C12.8371 4.48878 13.0858 4.57687 13.2691 4.70866C13.3825 4.79061 13.4836 4.88621 13.5709 4.99205C13.7113 5.16414 13.8051 5.39768 13.856 5.82106C13.9084 6.25537 13.9091 6.82216 13.9091 7.63478V11.3906C13.9091 12.3705 13.9076 13.0541 13.8342 13.5703C13.7622 14.0716 13.6305 14.3365 13.4298 14.5257C13.2284 14.7148 12.9462 14.8377 12.4116 14.9054C11.8633 14.9743 11.1345 14.9757 10.0909 14.9757H7.90909C6.86545 14.9757 6.13673 14.9743 5.58764 14.9054C5.05382 14.8377 4.77164 14.7141 4.57018 14.5257C4.36873 14.3365 4.23782 14.0716 4.16582 13.5696C4.09236 13.0541 4.09091 12.3705 4.09091 11.3906V7.63478C4.09091 6.82216 4.09164 6.25537 4.144 5.82106C4.19491 5.39768 4.28873 5.16414 4.42909 4.99205C4.51636 4.88553 4.61818 4.79061 4.73091 4.70866C4.91418 4.57687 5.16291 4.48878 5.61382 4.44097C5.90036 4.41024 6.24073 4.39864 6.664 4.39386C6.688 4.55501 6.73673 4.72437 6.85091 4.88416C6.944 5.01459 7.06327 5.12658 7.20218 5.21399C7.39855 5.33691 7.608 5.37993 7.80218 5.39836C7.98036 5.41544 8.19564 5.41544 8.43055 5.41544H9.56945C9.80436 5.41544 10.0196 5.41544 10.1978 5.39836C10.392 5.37993 10.6015 5.33691 10.7978 5.21399C10.9368 5.12678 11.0562 5.0147 11.1491 4.88416C11.2506 4.73634 11.3145 4.56858 11.336 4.39386ZM7.912 3.03698C7.87593 3.03901 7.84027 3.0452 7.80582 3.05542C7.78749 3.06736 7.77171 3.08242 7.75927 3.09981C7.74849 3.13195 7.74189 3.16519 7.73964 3.19882C7.728 3.30808 7.72727 3.45832 7.72727 3.70825C7.72727 3.95886 7.72727 4.10773 7.73964 4.21767C7.74189 4.2513 7.74849 4.28455 7.75927 4.31669C7.77164 4.33445 7.78836 4.34947 7.80655 4.36108C7.81382 4.36449 7.84291 4.37269 7.912 4.37951C8.02836 4.39044 8.18836 4.39112 8.45455 4.39112H9.54545C9.81236 4.39112 9.97091 4.39112 10.088 4.37951C10.1238 4.37742 10.1592 4.37123 10.1935 4.36108C10.212 4.34915 10.228 4.3341 10.2407 4.31669C10.2515 4.28455 10.2581 4.2513 10.2604 4.21767C10.272 4.10841 10.2727 3.95818 10.2727 3.70825C10.2727 3.45763 10.2727 3.30877 10.2604 3.19882C10.2581 3.16519 10.2515 3.13195 10.2407 3.09981C10.228 3.0824 10.212 3.06735 10.1935 3.05542C10.1592 3.04526 10.1238 3.03907 10.088 3.03698C9.90742 3.02559 9.7264 3.02172 9.54545 3.02537H8.45455C8.18764 3.02537 8.02909 3.02537 7.912 3.03698Z" fill="#FF647D"/>
</svg>
