<svg width="18" height="18" viewBox="0 0 18 18" fill="none" xmlns="http://www.w3.org/2000/svg">
<rect width="18" height="18" rx="2" fill="#FF647D" fill-opacity="0.2"/>
<path d="M10.7141 12.8965C10.6981 13.0246 10.6623 13.1489 10.6081 13.2643C10.512 13.4842 10.3596 13.6702 10.1689 13.8004C9.97808 13.9307 9.75676 13.9998 9.53078 13.9998C9.3048 13.9998 9.08349 13.9307 8.89271 13.8004C8.70193 13.6702 8.54957 13.4842 8.45344 13.2643C8.39926 13.1489 8.36342 13.0246 8.34741 12.8965H10.7141Z" fill="#FF3C5C"/>
<path d="M9.53071 4.06956C9.90849 4.06956 10.2147 3.74023 10.2147 3.33398C10.2147 2.92772 9.90849 2.59839 9.53071 2.59839C9.15293 2.59839 8.84668 2.92772 8.84668 3.33398C8.84668 3.74023 9.15293 4.06956 9.53071 4.06956Z" fill="#FF647D"/>
<path d="M9.18877 3.3341C9.18904 3.1714 9.23957 3.01341 9.33244 2.88497C9.4253 2.75653 9.55523 2.66491 9.70179 2.62453C9.60786 2.59823 9.5098 2.59376 9.41415 2.61142C9.31849 2.62908 9.22743 2.66846 9.14704 2.72694C9.06664 2.78542 8.99877 2.86165 8.94793 2.95056C8.89709 3.03947 8.86446 3.13901 8.8522 3.24255C8.83995 3.34609 8.84836 3.45124 8.87688 3.55101C8.90539 3.65078 8.95335 3.74287 9.01756 3.82113C9.08177 3.8994 9.16075 3.96205 9.24925 4.00491C9.33775 4.04777 9.43372 4.06985 9.53078 4.06969C9.58858 4.06888 9.64605 4.06014 9.70179 4.04367C9.55523 4.00328 9.42531 3.91167 9.33244 3.78322C9.23958 3.65478 9.18904 3.4968 9.18877 3.3341ZM8.68943 12.8967H8.34741C8.38863 13.2028 8.53087 13.4827 8.74814 13.6852C8.96542 13.8878 9.24321 13.9996 9.53078 14.0001C9.58809 13.9989 9.64524 13.9932 9.70179 13.9831C9.44674 13.9434 9.21041 13.8163 9.028 13.6205C8.84558 13.4248 8.72683 13.1709 8.68943 12.8967Z" fill="#FF647D"/>
<path d="M13.8057 12.8965H5.25537V12.1609C5.25537 11.9658 5.32744 11.7787 5.45572 11.6407C5.584 11.5028 5.75798 11.4253 5.9394 11.4253H13.1217C13.3031 11.4253 13.4771 11.5028 13.6054 11.6407C13.7337 11.7787 13.8057 11.9658 13.8057 12.1609V12.8965Z" fill="#FF647D"/>
<path d="M6.28141 11.4253H5.9394C5.75798 11.4253 5.584 11.5028 5.45572 11.6407C5.32744 11.7787 5.25537 11.9658 5.25537 12.1609V12.8965H5.59739V12.1609C5.59739 11.9658 5.66945 11.7787 5.79773 11.6407C5.92601 11.5028 6.1 11.4253 6.28141 11.4253Z" fill="#FF3C5C"/>
<path d="M13.1217 11.4254H5.93945C6.1207 11.4249 6.29438 11.3472 6.42255 11.2094C6.55071 11.0715 6.62295 10.8848 6.62348 10.6899V7.19582C6.62348 6.36669 6.92977 5.57152 7.47496 4.98524C8.02015 4.39895 8.75959 4.06958 9.5306 4.06958C10.3016 4.06958 11.0411 4.39895 11.5862 4.98524C12.1314 5.57152 12.4377 6.36669 12.4377 7.19582V10.6899C12.4383 10.8848 12.5105 11.0715 12.6387 11.2094C12.7668 11.3472 12.9405 11.4249 13.1217 11.4254Z" fill="#FF647D"/>
<path d="M6.9655 10.6899V7.19582C6.9649 6.39874 7.24806 5.63164 7.75686 5.052C8.26565 4.47237 8.96148 4.12416 9.7015 4.07887C9.64464 4.0753 9.5883 4.06958 9.5306 4.06958C8.75962 4.06971 8.02026 4.39913 7.47509 4.98538C6.92993 5.57164 6.6236 6.36673 6.62348 7.19582V10.6899C6.62295 10.8848 6.55071 11.0715 6.42255 11.2094C6.29438 11.3472 6.1207 11.4249 5.93945 11.4254H6.28147C6.46272 11.4249 6.63639 11.3472 6.76456 11.2094C6.89272 11.0715 6.96496 10.8848 6.9655 10.6899Z" fill="#FF3C5C"/>
<path d="M13.1217 11.4254H5.93945C6.1207 11.4248 6.29438 11.3471 6.42255 11.2093C6.55071 11.0715 6.62295 10.8847 6.62348 10.6898V10.322H12.4377V10.6898C12.4383 10.8847 12.5105 11.0715 12.6387 11.2093C12.7668 11.3471 12.9405 11.4248 13.1217 11.4254Z" fill="#FF3C5C"/>
<path d="M14.4248 10.0079C14.393 10.0078 14.3619 9.99831 14.3349 9.98036C14.3079 9.96241 14.2861 9.93674 14.2719 9.90622C14.2577 9.8757 14.2516 9.84153 14.2545 9.80753C14.2573 9.77353 14.2688 9.74105 14.2878 9.7137C14.578 9.29146 14.7055 8.76506 14.6436 8.24423C14.5818 7.7234 14.3354 7.24834 13.9558 6.91808C13.9204 6.88769 13.8976 6.8434 13.8924 6.79494C13.8873 6.74647 13.9003 6.69781 13.9286 6.65966C13.9569 6.62151 13.998 6.59699 14.0431 6.5915C14.0882 6.58601 14.1334 6.6 14.1689 6.63038C14.6175 7.02065 14.9087 7.58203 14.9819 8.19753C15.0551 8.81302 14.9046 9.43515 14.5617 9.93423C14.5458 9.95711 14.5251 9.97568 14.5013 9.98846C14.4776 10.0012 14.4513 10.0079 14.4248 10.0079Z" fill="#8B8891"/>
<path d="M13.6037 9.34573C13.572 9.3457 13.5408 9.33617 13.5138 9.31819C13.4868 9.30022 13.465 9.27451 13.4508 9.24395C13.4367 9.21339 13.4307 9.17919 13.4335 9.14518C13.4364 9.11117 13.4481 9.07869 13.4671 9.05139C13.5993 8.85918 13.6572 8.61945 13.6288 8.38236C13.6003 8.14527 13.4877 7.9292 13.3145 7.77937C13.2791 7.74904 13.2563 7.70484 13.2512 7.65648C13.246 7.60811 13.2589 7.55953 13.2871 7.52139C13.3152 7.48325 13.3562 7.45866 13.4012 7.45302C13.4462 7.44739 13.4914 7.46116 13.5269 7.49132C13.7695 7.70104 13.9272 8.0036 13.967 8.3356C14.0068 8.66759 13.9256 9.00327 13.7403 9.27228C13.7245 9.29512 13.7038 9.31366 13.6801 9.32641C13.6564 9.33916 13.6302 9.34578 13.6037 9.34573ZM4.63654 10.0079C4.60997 10.0079 4.58375 10.0012 4.55997 9.98846C4.5362 9.97568 4.51553 9.95711 4.49959 9.93424C4.15673 9.43515 4.0062 8.81303 4.07937 8.19753C4.15254 7.58204 4.44378 7.02065 4.89237 6.63038C4.92785 6.6 4.9731 6.58601 5.01817 6.5915C5.06323 6.59699 5.10442 6.62151 5.13268 6.65966C5.16093 6.69781 5.17394 6.74647 5.16883 6.79494C5.16373 6.8434 5.14093 6.88769 5.10545 6.91808C4.72588 7.24834 4.47949 7.7234 4.41764 8.24423C4.35579 8.76506 4.48325 9.29146 4.77346 9.7137C4.79245 9.74105 4.804 9.77353 4.80682 9.80753C4.80963 9.84153 4.8036 9.8757 4.78939 9.90622C4.77518 9.93674 4.75336 9.96241 4.72636 9.98036C4.69936 9.99831 4.66828 10.0078 4.63654 10.0079Z" fill="#8B8891"/>
<path d="M5.45742 9.34585C5.43091 9.3459 5.40474 9.33929 5.38103 9.32653C5.35731 9.31378 5.33669 9.29524 5.32082 9.2724C5.13557 9.00339 5.05433 8.66771 5.09411 8.33571C5.1339 8.00372 5.29162 7.70116 5.53424 7.49144C5.56977 7.46128 5.61497 7.4475 5.65994 7.45314C5.7049 7.45878 5.74595 7.48337 5.77407 7.52151C5.8022 7.55965 5.81511 7.60823 5.80997 7.6566C5.80483 7.70496 5.78206 7.74916 5.74666 7.77949C5.57344 7.92932 5.46082 8.14539 5.43237 8.38248C5.40392 8.61957 5.46185 8.8593 5.59402 9.05151C5.61309 9.07881 5.62472 9.11129 5.62759 9.1453C5.63047 9.17931 5.62448 9.21351 5.6103 9.24407C5.59612 9.27463 5.5743 9.30034 5.5473 9.31831C5.5203 9.33629 5.48918 9.34583 5.45742 9.34585Z" fill="#8B8891"/>
</svg>
