<svg width="18" height="18" viewBox="0 0 18 18" fill="none" xmlns="http://www.w3.org/2000/svg">
<rect width="18" height="18" rx="2" fill="#FDDEE4"/>
<path d="M7.90909 2C6.10909 2 4.63636 3.35 4.63636 5V7C3.70909 7 3 7.65 3 8.5V11.5C3 12.7 3.49091 13.85 4.41818 14.7C5.34545 15.55 6.6 16 7.90909 16C10.2545 16 12.2182 14.5 12.7091 12.5H12.8182C13.4182 12.5 13.9636 12.3 14.3455 11.9C14.7818 11.5 15 11 15 10.5C15 10 14.7818 9.45 14.3455 9.1C13.9091 8.75 13.4182 8.5 12.8182 8.5C12.8182 7.65 12.1091 7 11.1818 7V5C11.1818 3.35 9.70909 2 7.90909 2ZM13.5818 9.8C13.8 10 13.9091 10.25 13.9091 10.5C13.9091 10.75 13.8 11 13.5818 11.2C13.3091 11.45 12.8727 11.55 12.4364 11.45C12 11.3 11.7273 10.95 11.7273 10.5C11.7273 10.25 11.8364 10 12.0545 9.8C12.1636 9.7 12.3273 9.6 12.4909 9.55C12.6 9.5 12.7091 9.5 12.8182 9.5C13.0909 9.5 13.3636 9.6 13.5818 9.8ZM11.7273 8.5V8.8C11.5636 8.9 11.4 9 11.2909 9.1C11.0182 9.35 10.8 9.65 10.7455 10H5.72727C5.4 10 5.18182 10.2 5.18182 10.5V11.5C5.18182 11.8 5.4 12 5.72727 12C6.05455 12 6.27273 11.8 6.27273 11.5V11H7.36364V11.5C7.36364 11.8 7.58182 12 7.90909 12C8.23636 12 8.45455 11.8 8.45455 11.5V11H10.6909C10.8545 11.5 11.1818 11.9 11.6182 12.2C11.2909 13.8 9.76364 15 7.90909 15C6.87273 15 5.94545 14.65 5.18182 14C4.47273 13.35 4.09091 12.45 4.09091 11.5V8.5C4.09091 8.2 4.30909 8 4.63636 8H11.1818C11.5091 8 11.7273 8.2 11.7273 8.5ZM5.72727 7V5C5.72727 3.9 6.70909 3 7.90909 3C9.10909 3 10.0909 3.9 10.0909 5V7H5.72727Z" fill="#FF647D"/>
</svg>
