<svg width="18" height="18" viewBox="0 0 18 18" fill="none" xmlns="http://www.w3.org/2000/svg">
<rect width="18" height="18" rx="2" fill="#FF647D" fill-opacity="0.2"/>
<path d="M13.7658 12.8211V13.6379C12.5104 14.6074 10.969 15.1333 9.38289 15.1333C7.79677 15.1333 6.2554 14.6074 5 13.6379V12.8211C5 11.6586 5.46177 10.5437 6.28372 9.72167C7.10567 8.89965 8.22048 8.43785 9.38289 8.43785C10.5453 8.43785 11.6601 8.89965 12.4821 9.72167C13.304 10.5437 13.7658 11.6586 13.7658 12.8211ZM10.9647 3.64705C11.3289 4.00971 11.5561 4.4875 11.6074 4.99893C11.6588 5.51037 11.5312 6.02379 11.2463 6.45165C10.9615 6.8795 10.5371 7.1953 10.0455 7.3452C9.55383 7.49509 9.02543 7.4698 8.55036 7.27364C8.07529 7.07747 7.68297 6.72258 7.4403 6.26947C7.19762 5.81637 7.11962 5.29311 7.21958 4.78891C7.31955 4.28472 7.5913 3.83082 7.98849 3.5046C8.38568 3.17838 8.88373 3.00005 9.3977 3.00001C9.68865 2.99918 9.97689 3.05592 10.2458 3.16697C10.5148 3.27802 10.7591 3.44118 10.9647 3.64705Z" fill="#FF647D"/>
</svg>
