<svg width="30" height="30" viewBox="0 0 30 30" fill="none" xmlns="http://www.w3.org/2000/svg">
<path d="M15 0C6.75 0 0 6.75 0 15C0 23.25 6.75 30 15 30C23.2969 30 30 23.25 30 15C30 6.75 23.2969 0 15 0ZM15 29.1094C7.21875 29.1094 0.890625 22.7812 0.890625 15C0.890625 7.21875 7.21875 0.890625 15 0.890625C22.7812 0.890625 29.1094 7.21875 29.1094 15C29.1094 22.7812 22.7812 29.1094 15 29.1094Z" fill="#2B2E63"/>
<path d="M15 0.890625C7.21875 0.890625 0.890625 7.21875 0.890625 15C0.890625 22.7812 7.21875 29.1094 15 29.1094C22.7812 29.1094 29.1094 22.7812 29.1094 15C29.1094 7.21875 22.7812 0.890625 15 0.890625ZM15 5.95312C17.25 5.95312 19.125 7.78125 19.125 10.0781C19.125 12.3281 17.2969 14.2031 15 14.2031C12.75 14.2031 10.875 12.375 10.875 10.0781C10.9219 7.82812 12.75 5.95312 15 5.95312ZM22.4531 23.625H7.54688C7.3125 23.625 7.07813 23.4375 7.07813 23.1562C7.07813 18.7969 10.6406 15.2344 15 15.2344C19.3594 15.2344 22.9219 18.7969 22.9219 23.1562C22.9219 23.4375 22.7344 23.625 22.4531 23.625Z" fill="#EDEDED"/>
<path d="M15 0.890625C7.21875 0.890625 0.890625 7.21875 0.890625 15C0.890625 22.7812 7.21875 29.1094 15 29.1094C22.7812 29.1094 29.1094 22.7812 29.1094 15C29.1094 7.21875 22.7812 0.890625 15 0.890625ZM15 28.1719C7.73438 28.1719 1.82812 22.2656 1.82812 15C1.82812 7.73438 7.73438 1.82812 15 1.82812C22.2656 1.82812 28.1719 7.73438 28.1719 15C28.1719 22.2656 22.2656 28.1719 15 28.1719Z" fill="#D6D6D6"/>
<path d="M15 15.2344C10.6406 15.2344 7.07812 18.7969 7.07812 23.1563C7.07812 23.3906 7.26562 23.625 7.54688 23.625H22.5C22.7344 23.625 22.9688 23.4375 22.9688 23.1563C22.9219 18.7969 19.3594 15.2344 15 15.2344ZM8.01562 22.7344C8.25 19.0781 11.2969 16.1719 15 16.1719C18.7031 16.1719 21.75 19.0781 21.9844 22.7344H8.01562Z" fill="#2B2E63"/>
<path d="M21.9844 22.7344H8.01562C8.25 19.0781 11.2969 16.1719 15 16.1719C18.7031 16.1719 21.75 19.0781 21.9844 22.7344Z" fill="#F26E61"/>
<path d="M15 5.95312C12.75 5.95312 10.875 7.78125 10.875 10.0781C10.875 12.3281 12.7031 14.2031 15 14.2031C17.25 14.2031 19.125 12.375 19.125 10.0781C19.125 7.82812 17.25 5.95312 15 5.95312ZM15 13.2656C13.2187 13.2656 11.8125 11.8594 11.8125 10.0781C11.8125 8.29688 13.2656 6.89062 15 6.89062C16.7812 6.89062 18.1875 8.34375 18.1875 10.0781C18.1875 11.8125 16.7812 13.2656 15 13.2656Z" fill="#2B2E63"/>
<path d="M18.1875 10.0781C18.1875 11.8594 16.7344 13.2656 15 13.2656C13.2187 13.2656 11.8125 11.8594 11.8125 10.0781C11.8125 8.29688 13.2656 6.89062 15 6.89062C16.7812 6.89062 18.1875 8.29688 18.1875 10.0781Z" fill="#FFE5AB"/>
<path d="M15 16.1719C11.2969 16.1719 8.25 19.0781 8.01562 22.7344H22.0312C21.75 19.0781 18.7031 16.1719 15 16.1719ZM15 16.875C18.0469 16.875 20.6719 19.0781 21.1875 22.0312H8.8125C9.32812 19.0781 11.9531 16.875 15 16.875Z" fill="#E15E5A"/>
<path d="M15 6.89062C13.2187 6.89062 11.8125 8.34375 11.8125 10.0781C11.8125 11.8125 13.2656 13.2656 15 13.2656C16.7812 13.2656 18.1875 11.8594 18.1875 10.0781C18.1875 8.29688 16.7812 6.89062 15 6.89062ZM15 12.5625C13.6406 12.5625 12.5156 11.4375 12.5156 10.0781C12.5156 8.71875 13.6406 7.59375 15 7.59375C16.3594 7.59375 17.4844 8.71875 17.4844 10.0781C17.4844 11.4375 16.3594 12.5625 15 12.5625Z" fill="#F0D39A"/>
</svg>
