<svg width="120" height="120" viewBox="0 0 120 120" fill="none" xmlns="http://www.w3.org/2000/svg">
<g clip-path="url(#clip0_407_266)">
<mask id="mask0_407_266" style="mask-type:luminance" maskUnits="userSpaceOnUse" x="0" y="0" width="120" height="120">
<path d="M17.2972 101.664C5.75116 89.6215 0 75.5039 0 59.3303C0 48.5395 2.97237 38.565 8.91086 29.3941C14.8556 20.2232 22.6987 13.0336 32.4275 7.81891C42.1627 2.61046 52.4286 0 63.244 0C79.0987 0 92.5181 5.22091 103.515 15.644C114.505 26.0796 120 40.0976 120 57.7104C120 75.3232 114.324 89.6215 102.978 101.664C91.6251 113.72 77.4814 119.732 60.5401 119.732C43.5989 119.732 28.8245 113.714 17.2972 101.664Z" fill="white"/>
</mask>
<g mask="url(#mask0_407_266)">
<path d="M71.2182 85.6344C67.1093 82.4133 70.9247 63.9595 70.9247 63.9595H47.6328C47.6328 63.9595 51.4482 82.4133 47.3393 85.6344C43.2305 88.8554 12.1143 88.5626 15.0492 119.608H103.508C106.443 88.5626 75.327 88.8554 71.2182 85.6344Z" fill="#F89B6A"/>
<path d="M70.0317 83.7966C67.996 78.1146 70.9247 63.9658 70.9247 63.9658H47.6328C47.6328 63.9658 49.2064 71.5729 49.2439 77.8716C55.1074 82.1082 62.4759 83.7903 70.0317 83.7966Z" fill="#EF8050"/>
<path d="M34.5943 55.3182C35.6871 59.3179 38.7718 62.8629 41.1947 62.2025C43.6175 61.5421 44.4668 56.9255 43.3678 52.9258C42.275 48.926 39.6523 47.0631 37.2232 47.7235C34.7941 48.3839 33.489 51.3246 34.588 55.3182H34.5943Z" fill="#EF8050"/>
<path d="M83.963 55.3182C82.8703 59.3179 79.7855 62.8629 77.3626 62.2025C74.9398 61.5421 74.0905 56.9255 75.1896 52.9258C76.2823 48.926 78.905 47.0631 81.3341 47.7235C83.757 48.3839 85.0683 51.3246 83.9693 55.3182H83.963Z" fill="#EF8050"/>
<path d="M39.1777 48.1471C39.1777 62.7881 48.2447 77.7282 59.4348 77.7282C70.6249 77.7282 79.6919 62.7881 79.6919 48.1471C79.6919 33.5062 70.6249 24.7153 59.4348 24.7153C48.2447 24.7153 39.1777 33.5062 39.1777 48.1471Z" fill="#F89B6A"/>
<path d="M41.5631 57.8103L39.6523 57.9598C39.6523 57.9598 39.0653 47.4183 36.4239 48.0039C36.4239 48.0039 30.5541 33.3567 36.8672 26.4786C43.886 18.8279 48.3134 28.385 48.3134 28.385C48.3134 28.385 46.1091 38.9265 40.3891 41.4186L41.5631 57.8227V57.8103Z" fill="#2C2429"/>
<path d="M74.8774 35.9922C74.8774 35.9922 74.1405 42.727 77.9621 43.8983V55.9039L79.1361 56.1967C79.1361 56.1967 81.484 44.1911 81.484 38.1852C81.484 32.1793 74.8774 35.9859 74.8774 35.9859V35.9922Z" fill="#2C2429"/>
<path d="M46.6961 31.1573C46.6961 31.1573 52.8594 42.434 71.062 41.406C71.062 41.406 58.7354 39.2068 53.7398 32.4719C53.7398 32.4719 62.4009 41.6988 77.5188 40.2347L75.1709 36.8642C75.1709 36.8642 78.1058 42.5773 84.7124 40.378C84.7124 40.378 86.3297 21.1952 66.0727 15.3388C49.556 10.5603 41.7067 23.6873 42.1501 31.0078C42.5935 38.3283 46.7023 31.1573 46.7023 31.1573H46.6961Z" fill="#2C2429"/>
<path d="M42.0003 42.1412C42.3749 41.7425 42.6996 41.3126 43.0306 40.8827C43.3553 40.4528 43.6613 40.0043 43.9423 39.5495C44.2233 39.0947 44.4856 38.6212 44.7291 38.1477L45.085 37.4312C45.2099 37.1944 45.2973 36.9452 45.4035 36.7023C45.5097 36.4593 45.6096 36.2101 45.6907 35.9609L45.953 35.2132C46.0966 34.7024 46.2652 34.2039 46.3527 33.6806C46.4026 33.4189 46.4713 33.1697 46.5088 32.9081L46.6212 32.1293C46.7024 31.6122 46.7024 31.0826 46.7461 30.5593L47.0833 26.6716L47.8139 30.5157C47.895 30.9331 48.0449 31.419 48.2198 31.8614C48.2947 32.0919 48.4071 32.31 48.507 32.528C48.6007 32.7523 48.7131 32.9704 48.838 33.1822C48.9628 33.394 49.069 33.6121 49.2001 33.8177L49.6185 34.422C49.8808 34.8394 50.2367 35.1821 50.5365 35.5746C50.8549 35.9484 51.2233 36.2786 51.5668 36.6337C51.9227 36.9702 52.3286 37.263 52.7033 37.5807C52.8906 37.7427 53.0967 37.886 53.309 38.0168L53.9272 38.428C54.1333 38.5651 54.3331 38.7146 54.5517 38.8392L55.2136 39.1943C55.6632 39.4186 56.0815 39.6928 56.5499 39.8734L57.9362 40.4653C58.392 40.6834 58.8853 40.808 59.3599 40.97L60.8024 41.4497L62.2823 41.811C62.7756 41.9356 63.2689 42.0789 63.7685 42.1786C64.7739 42.3531 65.7855 42.5275 66.7971 42.7331C65.773 42.6957 64.7426 42.6334 63.7123 42.5649C63.2002 42.5213 62.6882 42.4278 62.1761 42.3593L60.64 42.1163L59.1288 41.7425C58.6293 41.6054 58.111 41.5058 57.6302 41.3064L56.1565 40.7706C55.6632 40.5961 55.2073 40.3282 54.7265 40.104L54.0146 39.7551C53.7836 39.6305 53.565 39.4809 53.3402 39.3439C52.8969 39.0573 52.4223 38.8081 52.0226 38.4654C51.6105 38.129 51.1796 37.8175 50.7862 37.4623C50.4116 37.0823 50.0119 36.7334 49.656 36.3347C49.325 35.9173 48.9504 35.531 48.6694 35.0762L48.226 34.4095C48.0824 34.1853 47.9637 33.9423 47.8326 33.7055C47.7015 33.475 47.5766 33.232 47.4767 32.9828C47.3705 32.7336 47.2519 32.4969 47.1707 32.2352C46.9896 31.7181 46.8397 31.2259 46.7523 30.6278L47.8201 30.5842C47.7514 31.1387 47.7327 31.7056 47.6265 32.2539L47.4767 33.0763C47.4267 33.3504 47.333 33.6183 47.2644 33.8862C47.1332 34.4282 46.9272 34.9516 46.7461 35.4749C46.5275 35.9858 46.3277 36.5029 46.0592 36.9889C45.928 37.2318 45.8156 37.4873 45.6658 37.7178L45.2411 38.428C44.9352 38.8891 44.6167 39.3376 44.2733 39.7675C43.5926 40.6273 42.8495 41.4434 41.994 42.1225L42.0003 42.1412Z" fill="#2C2429"/>
<path d="M33.9261 28.9643C34.3633 27.9675 34.9128 27.008 35.5747 26.1296C36.2366 25.2511 37.0047 24.4287 37.9476 23.8057C38.1786 23.6437 38.4284 23.5067 38.6844 23.3821C38.9405 23.2512 39.209 23.1515 39.4775 23.0519C39.7522 22.9709 40.0332 22.9023 40.3267 22.8649C40.614 22.8338 40.9075 22.8026 41.1947 22.8276C41.4882 22.8276 41.7754 22.8836 42.0627 22.9335C42.3437 23.0082 42.6309 23.0705 42.8932 23.1827C43.168 23.2761 43.424 23.4007 43.68 23.5316C43.936 23.6562 44.1733 23.8182 44.4231 23.9615L43.8361 24.1608C44.1983 23.0643 44.7041 22.0986 45.2911 21.1454C45.8906 20.2109 46.5712 19.32 47.3642 18.5287C48.9316 16.9338 50.8549 15.6877 52.9531 14.8965C53.9959 14.4853 55.0887 14.2237 56.1814 14.0181C57.2805 13.8125 58.392 13.7377 59.5035 13.7065C60.0593 13.7065 60.615 13.719 61.1645 13.7502C61.714 13.8 62.2698 13.8187 62.8131 13.8997C63.9121 14.0305 64.9924 14.2174 66.0727 14.4604C66.5972 14.5788 67.1218 14.7096 67.665 14.8778C68.2083 15.0273 68.7266 15.2143 69.2449 15.4012C69.7694 15.5756 70.269 15.8124 70.781 16.0179C71.2806 16.2609 71.7864 16.4728 72.2672 16.7407C73.2538 17.2391 74.1718 17.8559 75.0772 18.4851C75.9702 19.1331 76.8132 19.8433 77.6125 20.5909C79.1986 22.1111 80.6098 23.8057 81.7463 25.6685C82.8766 27.5314 83.8382 29.5001 84.4189 31.5872C84.0443 30.5717 83.5697 29.606 83.0639 28.6528C82.5518 27.7058 81.9836 26.79 81.3654 25.9177C80.1165 24.1733 78.7052 22.5534 77.1067 21.1454C76.3011 20.4476 75.4581 19.7997 74.5777 19.2078C73.6847 18.6284 72.773 18.0864 71.8176 17.6253C71.3493 17.3761 70.8559 17.183 70.3751 16.9587C69.8756 16.7718 69.3947 16.5537 68.8889 16.398C68.3894 16.2298 67.8836 16.0616 67.3778 15.9307C66.8845 15.7812 66.3537 15.6691 65.8229 15.5445C64.7988 15.3202 63.7373 15.1457 62.6882 15.0273C62.1636 14.9526 61.6329 14.9401 61.1021 14.8965C60.5713 14.8716 60.0468 14.8654 59.516 14.8654C58.4607 14.8965 57.4116 14.9526 56.375 15.1395C55.3447 15.3202 54.3206 15.5631 53.3465 15.937C51.3919 16.6659 49.5685 17.7624 48.0761 19.2265C47.3268 19.9554 46.6461 20.7591 46.0467 21.6189C45.4597 22.4787 44.9289 23.4257 44.573 24.3727L44.3981 24.8337L43.986 24.572C43.7674 24.435 43.5551 24.273 43.3303 24.1546C43.1055 24.03 42.8745 23.9054 42.6372 23.8119C42.4061 23.6998 42.1564 23.6437 41.9128 23.5627C41.663 23.5129 41.4133 23.4568 41.1572 23.4444C40.9012 23.4132 40.6452 23.4319 40.3954 23.4444C40.1394 23.463 39.8896 23.5191 39.6398 23.5752C39.3901 23.6437 39.1403 23.7185 38.903 23.8244C38.6657 23.9241 38.4222 24.0362 38.1974 24.1733C37.2794 24.7029 36.4801 25.4443 35.7808 26.2604C35.0876 27.089 34.4507 27.9799 33.9324 28.9332L33.9261 28.9643Z" fill="#2C2429"/>
<path d="M35.0502 53.6111C35.0128 53.094 35.019 52.5706 35.094 52.0473C35.1314 51.7856 35.1814 51.5239 35.2813 51.2623C35.3812 51.0068 35.4998 50.7202 35.7996 50.496C35.9494 50.39 36.1618 50.3277 36.3553 50.3402C36.5552 50.3464 36.7175 50.4212 36.8611 50.496C36.9361 50.5458 36.986 50.5645 37.0735 50.633C37.1234 50.6766 37.1671 50.7016 37.2296 50.7639C37.3607 50.8885 37.4481 51.0068 37.5355 51.1252C37.854 51.6049 38.0726 52.1033 38.2412 52.608C38.5784 53.6173 38.7782 54.639 38.9218 55.667C39.0654 56.695 39.1466 57.723 39.1654 58.7634V58.9503L39.0342 59.0313C38.9156 59.1061 38.7782 59.212 38.6658 59.3179C38.5534 59.4238 38.4535 59.5422 38.3785 59.6668C38.2287 59.916 38.2287 60.1652 38.4285 60.402C38.6221 60.6387 38.9343 60.8069 39.2465 60.9502C39.565 61.0935 39.896 61.2119 40.2332 61.3178C39.8835 61.2804 39.5275 61.2306 39.1778 61.1371C38.8344 61.0375 38.4785 60.9191 38.1725 60.6512C38.0226 60.5141 37.8915 60.3272 37.8478 60.0967C37.8041 59.8662 37.8603 59.6357 37.9414 59.4488C38.0289 59.2556 38.1413 59.0936 38.2661 58.9441C38.3973 58.7946 38.5222 58.6638 38.6908 58.5329L38.5596 58.8008C38.416 57.7978 38.2537 56.7885 38.0788 55.7916C37.9914 55.2932 37.8977 54.7948 37.7853 54.3088C37.6854 53.8167 37.5668 53.3307 37.4231 52.8572C37.2795 52.3899 37.1234 51.9227 36.8924 51.5302C36.8299 51.4367 36.7675 51.3495 36.7238 51.2872C36.705 51.2498 36.6363 51.2 36.5989 51.1564C36.5926 51.1439 36.5302 51.1003 36.499 51.0754C36.3304 50.9632 36.2304 50.9383 36.1118 50.9944C35.9807 51.0567 35.8308 51.2436 35.7246 51.4492C35.6185 51.6548 35.5248 51.8853 35.4374 52.122C35.2813 52.5955 35.1502 53.0939 35.044 53.5986L35.0502 53.6111Z" fill="#DB5223"/>
<path d="M83.4886 53.611C83.3824 53.1064 83.2513 52.608 83.0952 52.1345C83.014 51.8977 82.9203 51.6672 82.8079 51.4616C82.6955 51.256 82.5519 51.0691 82.4208 51.0068C82.3021 50.9508 82.2022 50.9757 82.0336 51.0878C82.0024 51.1127 81.9399 51.1563 81.9337 51.1688C81.8962 51.2124 81.8275 51.2623 81.8088 51.2996C81.7651 51.3619 81.7027 51.4492 81.6402 51.5426C81.4092 51.9289 81.2531 52.3962 81.1094 52.8697C80.9658 53.3431 80.8472 53.8291 80.7472 54.3213C80.6348 54.8135 80.5412 55.3057 80.4538 55.8041C80.2789 56.8009 80.1166 57.8102 79.9729 58.8133L79.8418 58.5454C80.0104 58.6762 80.1353 58.807 80.2664 58.9566C80.3913 59.1061 80.51 59.2681 80.5974 59.4612C80.6786 59.6481 80.7348 59.8786 80.6911 60.1092C80.6473 60.3397 80.51 60.5266 80.3663 60.6636C80.0604 60.9378 79.7044 61.0561 79.361 61.1496C79.0113 61.2431 78.6554 61.2929 78.3057 61.3303C78.6429 61.2244 78.9738 61.106 79.2923 60.9627C79.5983 60.8132 79.9167 60.645 80.1103 60.4144C80.3164 60.1777 80.3101 59.9285 80.1603 59.6793C80.0853 59.5547 79.9854 59.4363 79.873 59.3304C79.7606 59.2245 79.6232 59.1185 79.5046 59.0438L79.3735 58.9628V58.7759C79.3984 57.7354 79.4796 56.7075 79.6232 55.6795C79.7731 54.6515 79.9667 53.6297 80.3039 52.6204C80.4725 52.1158 80.6848 51.6174 81.0095 51.1377C81.0969 51.0193 81.1844 50.9009 81.3155 50.7763C81.3779 50.714 81.4217 50.6891 81.4716 50.6455C81.559 50.5707 81.6152 50.552 81.6839 50.5084C81.8338 50.4336 81.9899 50.3651 82.1897 50.3527C82.3833 50.3402 82.5956 50.4025 82.7455 50.5084C83.0452 50.7327 83.1576 51.0131 83.2638 51.2747C83.3574 51.5364 83.4136 51.7981 83.4511 52.0597C83.526 52.5831 83.5323 53.1064 83.4948 53.6235L83.4886 53.611Z" fill="#DB5223"/>
<path d="M60.4965 48.1472C60.4841 49.2873 60.4965 50.4026 60.5652 51.5115C60.5965 52.066 60.6339 52.6143 60.7026 53.1625C60.7588 53.7108 60.8275 54.2528 60.9337 54.7824C61.0273 55.3182 61.1397 55.8478 61.2896 56.3649C61.3708 56.6203 61.4395 56.882 61.5269 57.1312C61.6081 57.3866 61.708 57.6358 61.8079 57.8788C62.0202 58.3648 62.2575 58.8383 62.526 59.2993C62.8132 59.7416 63.1255 60.1715 63.4752 60.5765L63.8436 61.0064L63.4127 61.2618C62.7446 61.6543 62.0639 62.0281 61.3833 62.3957C60.6964 62.7571 60.0095 63.1184 59.2976 63.4424C59.8783 62.9128 60.4778 62.4269 61.0835 61.9347C61.6892 61.4549 62.3012 60.9752 62.9256 60.5204L62.8632 61.2057C62.6446 61.0001 62.4198 60.807 62.22 60.5827C62.014 60.3646 61.8391 60.1217 61.658 59.8849C61.3083 59.399 61.0086 58.8819 60.7713 58.3398C60.534 57.7978 60.3217 57.2433 60.1781 56.6764C60.0282 56.1094 59.9221 55.5362 59.8409 54.9568C59.6973 53.8042 59.691 52.6454 59.7972 51.4991C59.8596 50.9259 59.9345 50.3589 60.0532 49.7982C60.1656 49.2375 60.3155 48.683 60.509 48.1472H60.4965Z" fill="#DB5223"/>
<path d="M53.153 66.601C53.153 66.601 54.0147 66.8315 55.2761 67.0932C55.5946 67.1493 55.9318 67.224 56.2939 67.2801C56.6561 67.3486 57.037 67.3923 57.4242 67.4483C57.8113 67.5169 58.2235 67.5106 58.6294 67.5729C59.0415 67.5854 59.4599 67.6228 59.872 67.6041C60.2842 67.5916 60.7025 67.6103 61.1084 67.548C61.3083 67.5231 61.5143 67.5044 61.7141 67.4919C61.914 67.4733 62.1013 67.4234 62.2949 67.3923C62.4885 67.3611 62.6758 67.3175 62.8631 67.2926C63.0442 67.2427 63.2191 67.1929 63.3939 67.1493C63.7373 67.0558 64.0746 66.9811 64.368 66.8502C64.6678 66.7381 64.9425 66.6384 65.1923 66.5512C65.4234 66.4328 65.6357 66.3394 65.8043 66.2584C66.154 66.0964 66.3663 66.0154 66.3663 66.0154C66.3663 66.0154 66.2164 66.1774 65.9416 66.4515C65.8043 66.5886 65.6294 66.7568 65.4234 66.9375C65.2048 67.1057 64.9488 67.2739 64.6615 67.4608C64.3868 67.6664 64.0496 67.8221 63.6936 67.9779C63.5126 68.0589 63.3315 68.1399 63.1379 68.2209C62.9443 68.2894 62.7382 68.3392 62.5322 68.3953C62.12 68.5262 61.6892 68.6196 61.2396 68.6694C60.7962 68.7504 60.3404 68.7442 59.8783 68.7691C59.4224 68.7691 58.9728 68.7193 58.5232 68.6944C58.0799 68.6258 57.649 68.5635 57.2369 68.4576C56.8247 68.3704 56.4313 68.252 56.0691 68.1212C55.7007 68.009 55.3698 67.8595 55.0638 67.7287C53.8336 67.1867 53.1467 66.601 53.1467 66.601H53.153Z" fill="#DB5223"/>
<path d="M61.377 46.9759C61.377 46.9759 61.377 46.9073 61.4145 46.789C61.4457 46.6706 61.4831 46.4837 61.5706 46.2719C61.6455 46.0476 61.7642 45.7921 61.914 45.5055C62.0826 45.2314 62.2512 44.895 62.5197 44.5835C62.7633 44.2533 63.0817 43.9418 63.4377 43.6116C63.6125 43.4496 63.8311 43.3187 64.0371 43.1692C64.1433 43.0945 64.2494 43.0259 64.3556 42.9512C64.4742 42.8951 64.5929 42.8328 64.7115 42.7705C64.9551 42.6521 65.1986 42.5213 65.4609 42.4341C65.7294 42.3531 66.0041 42.2721 66.2789 42.2035C66.5537 42.1163 66.8472 42.1039 67.1344 42.0789C67.4216 42.0665 67.7151 42.0166 68.0024 42.0415L68.8579 42.1412C69.0015 42.1599 69.1389 42.1724 69.2825 42.2035L69.6821 42.3281C70.2067 42.4964 70.7375 42.6396 71.1746 42.9075C71.6179 43.1568 72.0675 43.3748 72.4235 43.6614C72.7794 43.948 73.1104 44.2284 73.4038 44.49C73.7098 44.7392 73.9284 45.032 74.1282 45.2813C74.3343 45.5242 74.4966 45.7547 74.6278 45.9417C74.8963 46.3155 75.0212 46.5398 75.0212 46.5398C75.0212 46.5398 74.7589 46.465 74.3343 46.303C74.122 46.222 73.8659 46.1286 73.5912 46.004C73.3102 45.8856 73.0042 45.7361 72.6545 45.6301C72.3111 45.5055 71.9489 45.3685 71.5742 45.2127C71.1995 45.057 70.7874 44.9822 70.3878 44.8389C69.9881 44.6769 69.5635 44.652 69.1514 44.5399L68.8391 44.4651L68.5269 44.4402L67.9025 44.3779C67.6964 44.3467 67.4903 44.3903 67.2843 44.3903C67.0782 44.409 66.8721 44.3716 66.6723 44.4277C66.4725 44.4651 66.2727 44.4962 66.0728 44.5149C65.873 44.5523 65.6919 44.6271 65.4921 44.6707L65.2049 44.7455C65.1174 44.7828 65.0238 44.8202 64.9301 44.8576C64.749 44.9324 64.5617 44.9884 64.3868 45.0694C64.0434 45.2439 63.6999 45.3872 63.4064 45.5741C63.0942 45.7361 62.8257 45.9292 62.5697 46.085C62.3386 46.2656 62.1014 46.4027 61.9328 46.5398C61.7579 46.6768 61.608 46.7765 61.5144 46.8513C61.4145 46.926 61.3645 46.9696 61.3645 46.9696L61.377 46.9759Z" fill="#161114"/>
<path d="M43.1744 46.9759C43.1744 46.9759 43.1744 46.9073 43.2118 46.789C43.243 46.6706 43.2805 46.4837 43.3679 46.2719C43.4429 46.0476 43.5615 45.7921 43.7114 45.5055C43.88 45.2314 44.0486 44.895 44.3171 44.5835C44.5606 44.2533 44.8791 43.9418 45.235 43.6116C45.4099 43.4496 45.6284 43.3187 45.8345 43.1692C45.9407 43.0945 46.0468 43.0259 46.153 42.9512C46.2716 42.8951 46.3903 42.8328 46.5089 42.7705C46.7524 42.6521 46.996 42.5213 47.2582 42.4341C47.5267 42.3531 47.8015 42.2721 48.0763 42.2035C48.351 42.1163 48.6445 42.1039 48.9318 42.0789C49.219 42.0665 49.5125 42.0166 49.7997 42.0415L50.6552 42.1412C50.7989 42.1599 50.9362 42.1724 51.0799 42.2035L51.4795 42.3281C52.004 42.4964 52.5348 42.6396 52.9719 42.9075C53.4153 43.1568 53.8649 43.3748 54.2208 43.6614C54.5768 43.948 54.9077 44.2284 55.2012 44.49C55.5072 44.7392 55.7257 45.032 55.9256 45.2813C56.1316 45.5242 56.294 45.7547 56.4251 45.9417C56.6936 46.3155 56.8185 46.5398 56.8185 46.5398C56.8185 46.5398 56.5563 46.465 56.1316 46.303C55.9193 46.222 55.6633 46.1286 55.3885 46.004C55.1075 45.8856 54.8016 45.7361 54.4519 45.6301C54.1084 45.5055 53.7462 45.3685 53.3716 45.2127C52.9969 45.057 52.5848 44.9822 52.1851 44.8389C51.7855 44.6769 51.3609 44.652 50.9487 44.5399L50.6365 44.4651L50.3243 44.4402L49.6998 44.3779C49.4938 44.3467 49.2877 44.3903 49.0816 44.3903C48.8756 44.409 48.6695 44.3716 48.4697 44.4277C48.2698 44.4651 48.07 44.4962 47.8702 44.5149C47.6704 44.5523 47.4893 44.6271 47.2895 44.6707L47.0022 44.7455C46.9148 44.7828 46.8211 44.8202 46.7275 44.8576C46.5464 44.9324 46.359 44.9884 46.1842 45.0694C45.8407 45.2439 45.4973 45.3872 45.2038 45.5741C44.8916 45.7361 44.6231 45.9292 44.367 46.085C44.136 46.2656 43.8987 46.4027 43.7301 46.5398C43.5553 46.6768 43.4054 46.7765 43.3117 46.8513C43.2118 46.926 43.1619 46.9696 43.1619 46.9696L43.1744 46.9759Z" fill="#161114"/>
<path d="M51.6044 51.1252C51.6044 52.7139 51.161 54.0035 50.6177 54.0035C50.0745 54.0035 49.6311 52.7139 49.6311 51.1252C49.6311 49.5365 50.0745 48.2468 50.6177 48.2468C51.161 48.2468 51.6044 49.5365 51.6044 51.1252Z" fill="#161114"/>
<path d="M68.8142 50.7326C68.8142 52.3213 68.3708 53.611 67.8276 53.611C67.2843 53.611 66.8409 52.3213 66.8409 50.7326C66.8409 49.1439 67.2843 47.8542 67.8276 47.8542C68.3708 47.8542 68.8142 49.1439 68.8142 50.7326Z" fill="#161114"/>
<path d="M77.4876 86.5127C77.4876 86.5127 74.1967 96.6804 59.2787 96.7614C44.3607 96.6804 41.0698 86.5127 41.0698 86.5127C7.31846 93.8332 14.5496 119.608 14.5496 119.608L59.1039 119.9H59.2787H59.4535L104.008 119.608C104.008 119.608 111.239 93.8332 77.4876 86.5127Z" fill="#C1DB4D"/>
<path d="M37.4418 85.8398L43.3615 119.994L21.1375 119.732V94.6494C21.1375 94.6494 28.9493 88.55 37.4418 85.8398Z" fill="#D84848"/>
<path d="M80.9282 85.8398L75.0272 119.994L97.2326 119.732V94.6494C97.2326 94.6494 89.4207 88.55 80.9282 85.8398Z" fill="#D84848"/>
</g>
</g>
<defs>
<clipPath id="clip0_407_266">
<rect width="120" height="120" fill="white"/>
</clipPath>
</defs>
</svg>
