<svg width="18" height="18" viewBox="0 0 18 18" fill="none" xmlns="http://www.w3.org/2000/svg">
<rect width="18" height="18" rx="2" fill="#FDDEE4"/>
<path d="M9 3C7.81331 3 6.65328 3.35189 5.66658 4.01118C4.67989 4.67047 3.91085 5.60754 3.45673 6.7039C3.0026 7.80025 2.88378 9.00665 3.11529 10.1705C3.3468 11.3344 3.91825 12.4035 4.75736 13.2426C5.59648 14.0818 6.66557 14.6532 7.82946 14.8847C8.99335 15.1162 10.1997 14.9974 11.2961 14.5433C12.3925 14.0891 13.3295 13.3201 13.9888 12.3334C14.6481 11.3467 15 10.1867 15 9C14.9982 7.40926 14.3655 5.88419 13.2406 4.75937C12.1158 3.63454 10.5907 3.00182 9 3ZM9 13.8C8.05065 13.8 7.12262 13.5185 6.33326 12.9911C5.54391 12.4636 4.92868 11.714 4.56538 10.8369C4.20208 9.95979 4.10702 8.99467 4.29223 8.06357C4.47744 7.13246 4.9346 6.27718 5.60589 5.60589C6.27718 4.93459 7.13246 4.47744 8.06357 4.29223C8.99468 4.10702 9.9598 4.20208 10.8369 4.56538C11.714 4.92868 12.4636 5.54391 12.9911 6.33326C13.5185 7.12262 13.8 8.05065 13.8 9C13.7985 10.2726 13.2924 11.4926 12.3925 12.3925C11.4926 13.2924 10.2726 13.7985 9 13.8ZM9.6 8.8494V6C9.6 5.84087 9.53679 5.68826 9.42427 5.57574C9.31174 5.46321 9.15913 5.4 9 5.4C8.84087 5.4 8.68826 5.46321 8.57574 5.57574C8.46322 5.68826 8.4 5.84087 8.4 6V9C8.40008 9.09881 8.42443 9.19609 8.4709 9.2833L9.3709 10.9626C9.44603 11.1029 9.57384 11.2077 9.72619 11.2538C9.87855 11.2999 10.043 11.2835 10.1833 11.2084C10.3236 11.1333 10.4284 11.0055 10.4745 10.8531C10.5206 10.7007 10.5042 10.5363 10.4291 10.396L9.6 8.8494Z" fill="#FF647D"/>
</svg>
