<svg width="269" height="45" viewBox="0 0 269 45" fill="none" xmlns="http://www.w3.org/2000/svg">
<rect x="1" y="1" width="267" height="43" rx="21.5" stroke="#B7B7B7" stroke-width="2"/>
<path d="M43.8295 20.4545C43.7784 20.0227 43.571 19.6875 43.2074 19.4489C42.8438 19.2102 42.3977 19.0909 41.8693 19.0909C41.483 19.0909 41.1449 19.1534 40.8551 19.2784C40.5682 19.4034 40.3438 19.5753 40.1818 19.794C40.0227 20.0128 39.9432 20.2614 39.9432 20.5398C39.9432 20.7727 39.9986 20.973 40.1094 21.1406C40.223 21.3054 40.3679 21.4432 40.544 21.554C40.7202 21.6619 40.9048 21.7514 41.098 21.8224C41.2912 21.8906 41.4688 21.946 41.6307 21.9886L42.517 22.2273C42.7443 22.2869 42.9972 22.3693 43.2756 22.4744C43.5568 22.5795 43.8253 22.723 44.081 22.9048C44.3395 23.0838 44.5526 23.3139 44.7202 23.5952C44.8878 23.8764 44.9716 24.2216 44.9716 24.6307C44.9716 25.1023 44.848 25.5284 44.6009 25.9091C44.3565 26.2898 43.9986 26.5923 43.527 26.8168C43.0582 27.0412 42.4886 27.1534 41.8182 27.1534C41.1932 27.1534 40.652 27.0526 40.1946 26.8509C39.7401 26.6491 39.3821 26.3679 39.1207 26.0071C38.8622 25.6463 38.7159 25.2273 38.6818 24.75H39.7727C39.8011 25.0795 39.9119 25.3523 40.1051 25.5682C40.3011 25.7812 40.5483 25.9403 40.8466 26.0455C41.1477 26.1477 41.4716 26.1989 41.8182 26.1989C42.2216 26.1989 42.5838 26.1335 42.9048 26.0028C43.2259 25.8693 43.4801 25.6847 43.6676 25.4489C43.8551 25.2102 43.9489 24.9318 43.9489 24.6136C43.9489 24.3239 43.8679 24.0881 43.706 23.9062C43.544 23.7244 43.331 23.5767 43.0668 23.4631C42.8026 23.3494 42.517 23.25 42.2102 23.1648L41.1364 22.858C40.4545 22.6619 39.9148 22.3821 39.517 22.0185C39.1193 21.6548 38.9205 21.179 38.9205 20.5909C38.9205 20.1023 39.0526 19.6761 39.3168 19.3125C39.5838 18.946 39.9418 18.6619 40.3906 18.4602C40.8423 18.2557 41.3466 18.1534 41.9034 18.1534C42.4659 18.1534 42.9659 18.2543 43.4034 18.456C43.8409 18.6548 44.1875 18.9276 44.4432 19.2741C44.7017 19.6207 44.8381 20.0142 44.8523 20.4545H43.8295ZM49.3171 27.1364C48.6864 27.1364 48.1424 26.9972 47.685 26.7188C47.2305 26.4375 46.8796 26.0455 46.6325 25.5426C46.3881 25.0369 46.266 24.4489 46.266 23.7784C46.266 23.108 46.3881 22.517 46.6325 22.0057C46.8796 21.4915 47.2234 21.0909 47.6637 20.804C48.1069 20.5142 48.6239 20.3693 49.2148 20.3693C49.5558 20.3693 49.8924 20.4261 50.2248 20.5398C50.5572 20.6534 50.8597 20.8381 51.1325 21.0938C51.4052 21.3466 51.6225 21.6818 51.7844 22.0994C51.9464 22.517 52.0273 23.0312 52.0273 23.642V24.0682H46.9819V23.1989H51.0046C51.0046 22.8295 50.9308 22.5 50.783 22.2102C50.6381 21.9205 50.4308 21.6918 50.1609 21.5241C49.8938 21.3565 49.5785 21.2727 49.2148 21.2727C48.8143 21.2727 48.4677 21.3722 48.1751 21.571C47.8853 21.767 47.6623 22.0227 47.506 22.3381C47.3498 22.6534 47.2717 22.9915 47.2717 23.3523V23.9318C47.2717 24.4261 47.3569 24.8452 47.5273 25.1889C47.7006 25.5298 47.9407 25.7898 48.2475 25.9688C48.5543 26.1449 48.9109 26.233 49.3171 26.233C49.5813 26.233 49.82 26.196 50.033 26.1222C50.2489 26.0455 50.435 25.9318 50.5913 25.7812C50.7475 25.6278 50.8683 25.4375 50.9535 25.2102L51.9251 25.483C51.8228 25.8125 51.6509 26.1023 51.4094 26.3523C51.168 26.5994 50.8697 26.7926 50.5146 26.9318C50.1594 27.0682 49.7603 27.1364 49.3171 27.1364ZM55.4833 27.1534C55.0685 27.1534 54.6921 27.0753 54.354 26.919C54.016 26.7599 53.7475 26.5312 53.5487 26.233C53.3498 25.9318 53.2504 25.5682 53.2504 25.142C53.2504 24.767 53.3242 24.4631 53.4719 24.2301C53.6197 23.9943 53.8171 23.8097 54.0643 23.6761C54.3114 23.5426 54.5842 23.4432 54.8825 23.3778C55.1836 23.3097 55.4862 23.2557 55.7901 23.2159C56.1879 23.1648 56.5103 23.1264 56.7575 23.1009C57.0075 23.0724 57.1893 23.0256 57.3029 22.9602C57.4194 22.8949 57.4776 22.7812 57.4776 22.6193V22.5852C57.4776 22.1648 57.3626 21.8381 57.1325 21.6051C56.9052 21.3722 56.56 21.2557 56.0969 21.2557C55.6168 21.2557 55.2404 21.3608 54.9677 21.571C54.695 21.7812 54.5032 22.0057 54.3924 22.2443L53.4379 21.9034C53.6083 21.5057 53.8356 21.196 54.1197 20.9744C54.4066 20.75 54.7191 20.5937 55.0572 20.5057C55.3981 20.4148 55.7333 20.3693 56.0629 20.3693C56.2731 20.3693 56.5146 20.3949 56.7873 20.446C57.0629 20.4943 57.3285 20.5952 57.5842 20.7486C57.8427 20.902 58.0572 21.1335 58.2276 21.4432C58.3981 21.7528 58.4833 22.1676 58.4833 22.6875V27H57.4776V26.1136H57.4265C57.3583 26.2557 57.2447 26.4077 57.0856 26.5696C56.9265 26.7315 56.7148 26.8693 56.4506 26.983C56.1864 27.0966 55.864 27.1534 55.4833 27.1534ZM55.6367 26.25C56.0344 26.25 56.3697 26.1719 56.6424 26.0156C56.918 25.8594 57.1254 25.6577 57.2646 25.4105C57.4066 25.1634 57.4776 24.9034 57.4776 24.6307V23.7102C57.435 23.7614 57.3413 23.8082 57.1964 23.8509C57.0543 23.8906 56.8896 23.9261 56.7021 23.9574C56.5174 23.9858 56.337 24.0114 56.1609 24.0341C55.9876 24.054 55.8469 24.071 55.739 24.0852C55.4776 24.1193 55.2333 24.1747 55.006 24.2514C54.7816 24.3253 54.5998 24.4375 54.4606 24.5881C54.3242 24.7358 54.256 24.9375 54.256 25.1932C54.256 25.5426 54.3853 25.8068 54.6438 25.9858C54.9052 26.1619 55.2362 26.25 55.6367 26.25ZM60.3189 27V20.4545H61.2905V21.4432H61.3587C61.478 21.1193 61.6939 20.8565 62.0064 20.6548C62.3189 20.4531 62.6712 20.3523 63.0632 20.3523C63.1371 20.3523 63.2294 20.3537 63.3402 20.3565C63.451 20.3594 63.5348 20.3636 63.5916 20.3693V21.392C63.5575 21.3835 63.4794 21.3707 63.3572 21.3537C63.2379 21.3338 63.1115 21.3239 62.978 21.3239C62.6598 21.3239 62.3757 21.3906 62.1257 21.5241C61.8786 21.6548 61.6825 21.8366 61.5376 22.0696C61.3956 22.2997 61.3246 22.5625 61.3246 22.858V27H60.3189ZM67.2436 27.1364C66.63 27.1364 66.1016 26.9915 65.6584 26.7017C65.2152 26.4119 64.8743 26.0128 64.6357 25.5043C64.397 24.9957 64.2777 24.4148 64.2777 23.7614C64.2777 23.0966 64.3999 22.5099 64.6442 22.0014C64.8913 21.4901 65.2351 21.0909 65.6754 20.804C66.1186 20.5142 66.6357 20.3693 67.2266 20.3693C67.6868 20.3693 68.1016 20.4545 68.4709 20.625C68.8402 20.7955 69.1428 21.0341 69.3786 21.3409C69.6143 21.6477 69.7607 22.0057 69.8175 22.4148H68.8118C68.7351 22.1165 68.5646 21.8523 68.3004 21.6222C68.0391 21.3892 67.6868 21.2727 67.2436 21.2727C66.8516 21.2727 66.5078 21.375 66.2124 21.5795C65.9197 21.7812 65.6911 22.0668 65.5263 22.4361C65.3643 22.8026 65.2834 23.233 65.2834 23.7273C65.2834 24.233 65.3629 24.6733 65.522 25.0483C65.6839 25.4233 65.9112 25.7145 66.2038 25.9219C66.4993 26.1293 66.8459 26.233 67.2436 26.233C67.505 26.233 67.7422 26.1875 67.9553 26.0966C68.1683 26.0057 68.3487 25.875 68.4964 25.7045C68.6442 25.5341 68.7493 25.3295 68.8118 25.0909H69.8175C69.7607 25.4773 69.62 25.8253 69.3956 26.1349C69.174 26.4418 68.88 26.6861 68.5135 26.8679C68.1499 27.0469 67.7266 27.1364 67.2436 27.1364ZM72.2933 23.0625V27H71.2876V18.2727H72.2933V21.4773H72.3786C72.532 21.1392 72.7621 20.8707 73.0689 20.6719C73.3786 20.4702 73.7905 20.3693 74.3047 20.3693C74.7507 20.3693 75.1413 20.4588 75.4766 20.6378C75.8118 20.8139 76.0717 21.0852 76.2564 21.4517C76.4439 21.8153 76.5376 22.2784 76.5376 22.8409V27H75.532V22.9091C75.532 22.3892 75.397 21.9872 75.1271 21.7031C74.8601 21.4162 74.4893 21.2727 74.0149 21.2727C73.6854 21.2727 73.3899 21.3423 73.1286 21.4815C72.87 21.6207 72.6655 21.8239 72.5149 22.0909C72.3672 22.358 72.2933 22.6818 72.2933 23.0625ZM84.4116 27.1364C83.7979 27.1364 83.2695 26.9915 82.8263 26.7017C82.3832 26.4119 82.0423 26.0128 81.8036 25.5043C81.565 24.9957 81.4457 24.4148 81.4457 23.7614C81.4457 23.0966 81.5678 22.5099 81.8121 22.0014C82.0593 21.4901 82.4031 21.0909 82.8434 20.804C83.2866 20.5142 83.8036 20.3693 84.3945 20.3693C84.8548 20.3693 85.2695 20.4545 85.6388 20.625C86.0082 20.7955 86.3107 21.0341 86.5465 21.3409C86.7823 21.6477 86.9286 22.0057 86.9854 22.4148H85.9798C85.9031 22.1165 85.7326 21.8523 85.4684 21.6222C85.207 21.3892 84.8548 21.2727 84.4116 21.2727C84.0195 21.2727 83.6758 21.375 83.3803 21.5795C83.0877 21.7812 82.859 22.0668 82.6942 22.4361C82.5323 22.8026 82.4513 23.233 82.4513 23.7273C82.4513 24.233 82.5309 24.6733 82.69 25.0483C82.8519 25.4233 83.0792 25.7145 83.3718 25.9219C83.6673 26.1293 84.0138 26.233 84.4116 26.233C84.6729 26.233 84.9102 26.1875 85.1232 26.0966C85.3363 26.0057 85.5167 25.875 85.6644 25.7045C85.8121 25.5341 85.9173 25.3295 85.9798 25.0909H86.9854C86.9286 25.4773 86.788 25.8253 86.5636 26.1349C86.342 26.4418 86.0479 26.6861 85.6815 26.8679C85.3178 27.0469 84.8945 27.1364 84.4116 27.1364ZM91.1147 27.1364C90.5238 27.1364 90.0053 26.9957 89.5593 26.7145C89.1161 26.4332 88.7695 26.0398 88.5195 25.5341C88.2724 25.0284 88.1488 24.4375 88.1488 23.7614C88.1488 23.0795 88.2724 22.4844 88.5195 21.9759C88.7695 21.4673 89.1161 21.0724 89.5593 20.7912C90.0053 20.5099 90.5238 20.3693 91.1147 20.3693C91.7056 20.3693 92.2227 20.5099 92.6658 20.7912C93.1119 21.0724 93.4585 21.4673 93.7056 21.9759C93.9556 22.4844 94.0806 23.0795 94.0806 23.7614C94.0806 24.4375 93.9556 25.0284 93.7056 25.5341C93.4585 26.0398 93.1119 26.4332 92.6658 26.7145C92.2227 26.9957 91.7056 27.1364 91.1147 27.1364ZM91.1147 26.233C91.5636 26.233 91.9329 26.1179 92.2227 25.8878C92.5124 25.6577 92.7269 25.3551 92.8661 24.9801C93.0053 24.6051 93.0749 24.1989 93.0749 23.7614C93.0749 23.3239 93.0053 22.9162 92.8661 22.5384C92.7269 22.1605 92.5124 21.8551 92.2227 21.6222C91.9329 21.3892 91.5636 21.2727 91.1147 21.2727C90.6658 21.2727 90.2965 21.3892 90.0067 21.6222C89.717 21.8551 89.5025 22.1605 89.3633 22.5384C89.2241 22.9162 89.1545 23.3239 89.1545 23.7614C89.1545 24.1989 89.2241 24.6051 89.3633 24.9801C89.5025 25.3551 89.717 25.6577 90.0067 25.8878C90.2965 26.1179 90.6658 26.233 91.1147 26.233ZM99.7408 24.3239V20.4545H100.746V27H99.7408V25.892H99.6726C99.5192 26.2244 99.2805 26.5071 98.9567 26.7401C98.6328 26.9702 98.2237 27.0852 97.7294 27.0852C97.3203 27.0852 96.9567 26.9957 96.6385 26.8168C96.3203 26.6349 96.0703 26.3622 95.8885 25.9986C95.7067 25.6321 95.6158 25.1705 95.6158 24.6136V20.4545H96.6214V24.5455C96.6214 25.0227 96.755 25.4034 97.022 25.6875C97.2919 25.9716 97.6357 26.1136 98.0533 26.1136C98.3033 26.1136 98.5575 26.0497 98.8161 25.9219C99.0774 25.794 99.2962 25.598 99.4723 25.3338C99.6513 25.0696 99.7408 24.733 99.7408 24.3239ZM102.588 27V20.4545H103.56V21.4432H103.628C103.748 21.1193 103.963 20.8565 104.276 20.6548C104.588 20.4531 104.941 20.3523 105.333 20.3523C105.407 20.3523 105.499 20.3537 105.61 20.3565C105.721 20.3594 105.804 20.3636 105.861 20.3693V21.392C105.827 21.3835 105.749 21.3707 105.627 21.3537C105.507 21.3338 105.381 21.3239 105.248 21.3239C104.929 21.3239 104.645 21.3906 104.395 21.5241C104.148 21.6548 103.952 21.8366 103.807 22.0696C103.665 22.2997 103.594 22.5625 103.594 22.858V27H102.588ZM111.69 21.9205L110.786 22.1761C110.729 22.0256 110.646 21.8793 110.535 21.7372C110.427 21.5923 110.279 21.473 110.092 21.3793C109.904 21.2855 109.664 21.2386 109.371 21.2386C108.971 21.2386 108.637 21.331 108.37 21.5156C108.106 21.6974 107.974 21.929 107.974 22.2102C107.974 22.4602 108.065 22.6577 108.246 22.8026C108.428 22.9474 108.712 23.0682 109.099 23.1648L110.07 23.4034C110.656 23.5455 111.092 23.7628 111.379 24.0554C111.665 24.3452 111.809 24.7187 111.809 25.1761C111.809 25.5511 111.701 25.8864 111.485 26.1818C111.272 26.4773 110.974 26.7102 110.59 26.8807C110.207 27.0511 109.761 27.1364 109.252 27.1364C108.585 27.1364 108.032 26.9915 107.594 26.7017C107.157 26.4119 106.88 25.9886 106.763 25.4318L107.718 25.1932C107.809 25.5455 107.981 25.8097 108.234 25.9858C108.489 26.1619 108.823 26.25 109.235 26.25C109.704 26.25 110.076 26.1506 110.352 25.9517C110.63 25.75 110.769 25.5085 110.769 25.2273C110.769 25 110.69 24.8097 110.531 24.6562C110.371 24.5 110.127 24.3835 109.798 24.3068L108.707 24.0511C108.107 23.9091 107.667 23.6889 107.386 23.3906C107.107 23.0895 106.968 22.7131 106.968 22.2614C106.968 21.892 107.072 21.5653 107.279 21.2812C107.489 20.9972 107.775 20.7741 108.136 20.6122C108.499 20.4503 108.911 20.3693 109.371 20.3693C110.019 20.3693 110.528 20.5114 110.897 20.7955C111.269 21.0795 111.533 21.4545 111.69 21.9205ZM116.067 27.1364C115.436 27.1364 114.892 26.9972 114.435 26.7188C113.98 26.4375 113.63 26.0455 113.382 25.5426C113.138 25.0369 113.016 24.4489 113.016 23.7784C113.016 23.108 113.138 22.517 113.382 22.0057C113.63 21.4915 113.973 21.0909 114.414 20.804C114.857 20.5142 115.374 20.3693 115.965 20.3693C116.306 20.3693 116.642 20.4261 116.975 20.5398C117.307 20.6534 117.61 20.8381 117.882 21.0938C118.155 21.3466 118.373 21.6818 118.534 22.0994C118.696 22.517 118.777 23.0312 118.777 23.642V24.0682H113.732V23.1989H117.755C117.755 22.8295 117.681 22.5 117.533 22.2102C117.388 21.9205 117.181 21.6918 116.911 21.5241C116.644 21.3565 116.328 21.2727 115.965 21.2727C115.564 21.2727 115.218 21.3722 114.925 21.571C114.635 21.767 114.412 22.0227 114.256 22.3381C114.1 22.6534 114.022 22.9915 114.022 23.3523V23.9318C114.022 24.4261 114.107 24.8452 114.277 25.1889C114.451 25.5298 114.691 25.7898 114.998 25.9688C115.304 26.1449 115.661 26.233 116.067 26.233C116.331 26.233 116.57 26.196 116.783 26.1222C116.999 26.0455 117.185 25.9318 117.341 25.7812C117.498 25.6278 117.618 25.4375 117.703 25.2102L118.675 25.483C118.573 25.8125 118.401 26.1023 118.159 26.3523C117.918 26.5994 117.62 26.7926 117.265 26.9318C116.909 27.0682 116.51 27.1364 116.067 27.1364ZM124.688 23.0625V27H123.682V18.2727H124.688V21.4773H124.773C124.926 21.1392 125.157 20.8707 125.463 20.6719C125.773 20.4702 126.185 20.3693 126.699 20.3693C127.145 20.3693 127.536 20.4588 127.871 20.6378C128.206 20.8139 128.466 21.0852 128.651 21.4517C128.838 21.8153 128.932 22.2784 128.932 22.8409V27H127.926V22.9091C127.926 22.3892 127.792 21.9872 127.522 21.7031C127.255 21.4162 126.884 21.2727 126.409 21.2727C126.08 21.2727 125.784 21.3423 125.523 21.4815C125.265 21.6207 125.06 21.8239 124.909 22.0909C124.762 22.358 124.688 22.6818 124.688 23.0625ZM133.516 27.1364C132.886 27.1364 132.342 26.9972 131.884 26.7188C131.43 26.4375 131.079 26.0455 130.832 25.5426C130.587 25.0369 130.465 24.4489 130.465 23.7784C130.465 23.108 130.587 22.517 130.832 22.0057C131.079 21.4915 131.423 21.0909 131.863 20.804C132.306 20.5142 132.823 20.3693 133.414 20.3693C133.755 20.3693 134.092 20.4261 134.424 20.5398C134.756 20.6534 135.059 20.8381 135.332 21.0938C135.604 21.3466 135.822 21.6818 135.984 22.0994C136.146 22.517 136.227 23.0312 136.227 23.642V24.0682H131.181V23.1989H135.204C135.204 22.8295 135.13 22.5 134.982 22.2102C134.837 21.9205 134.63 21.6918 134.36 21.5241C134.093 21.3565 133.778 21.2727 133.414 21.2727C133.013 21.2727 132.667 21.3722 132.374 21.571C132.085 21.767 131.862 22.0227 131.705 22.3381C131.549 22.6534 131.471 22.9915 131.471 23.3523V23.9318C131.471 24.4261 131.556 24.8452 131.727 25.1889C131.9 25.5298 132.14 25.7898 132.447 25.9688C132.754 26.1449 133.11 26.233 133.516 26.233C133.781 26.233 134.019 26.196 134.232 26.1222C134.448 26.0455 134.634 25.9318 134.79 25.7812C134.947 25.6278 135.067 25.4375 135.153 25.2102L136.124 25.483C136.022 25.8125 135.85 26.1023 135.609 26.3523C135.367 26.5994 135.069 26.7926 134.714 26.9318C134.359 27.0682 133.96 27.1364 133.516 27.1364ZM137.756 27V20.4545H138.728V21.4432H138.796C138.915 21.1193 139.131 20.8565 139.444 20.6548C139.756 20.4531 140.109 20.3523 140.501 20.3523C140.575 20.3523 140.667 20.3537 140.778 20.3565C140.888 20.3594 140.972 20.3636 141.029 20.3693V21.392C140.995 21.3835 140.917 21.3707 140.795 21.3537C140.675 21.3338 140.549 21.3239 140.415 21.3239C140.097 21.3239 139.813 21.3906 139.563 21.5241C139.316 21.6548 139.12 21.8366 138.975 22.0696C138.833 22.2997 138.762 22.5625 138.762 22.858V27H137.756ZM144.766 27.1364C144.136 27.1364 143.592 26.9972 143.134 26.7188C142.68 26.4375 142.329 26.0455 142.082 25.5426C141.837 25.0369 141.715 24.4489 141.715 23.7784C141.715 23.108 141.837 22.517 142.082 22.0057C142.329 21.4915 142.673 21.0909 143.113 20.804C143.556 20.5142 144.073 20.3693 144.664 20.3693C145.005 20.3693 145.342 20.4261 145.674 20.5398C146.006 20.6534 146.309 20.8381 146.582 21.0938C146.854 21.3466 147.072 21.6818 147.234 22.0994C147.396 22.517 147.477 23.0312 147.477 23.642V24.0682H142.431V23.1989H146.454C146.454 22.8295 146.38 22.5 146.232 22.2102C146.087 21.9205 145.88 21.6918 145.61 21.5241C145.343 21.3565 145.028 21.2727 144.664 21.2727C144.263 21.2727 143.917 21.3722 143.624 21.571C143.335 21.767 143.112 22.0227 142.955 22.3381C142.799 22.6534 142.721 22.9915 142.721 23.3523V23.9318C142.721 24.4261 142.806 24.8452 142.977 25.1889C143.15 25.5298 143.39 25.7898 143.697 25.9688C144.004 26.1449 144.36 26.233 144.766 26.233C145.031 26.233 145.269 26.196 145.482 26.1222C145.698 26.0455 145.884 25.9318 146.04 25.7812C146.197 25.6278 146.317 25.4375 146.403 25.2102L147.374 25.483C147.272 25.8125 147.1 26.1023 146.859 26.3523C146.617 26.5994 146.319 26.7926 145.964 26.9318C145.609 27.0682 145.21 27.1364 144.766 27.1364Z" fill="#8E8E8E"/>
</svg>
