<svg width="38" height="38" viewBox="0 0 38 38" fill="none" xmlns="http://www.w3.org/2000/svg">
<rect width="38" height="38" rx="19" fill="url(#paint0_linear_730_1560)"/>
<path fill-rule="evenodd" clip-rule="evenodd" d="M26.8043 25.8849L24.0538 23.1976L23.9914 23.1008C23.8698 22.9784 23.7074 22.9128 23.5354 22.9128C23.3666 22.9128 23.201 22.9784 23.0826 23.1008C20.7449 25.2441 17.1449 25.3601 14.6664 23.3721C12.188 21.3816 11.604 17.9063 13.3008 15.2479C14.9976 12.5902 18.4481 11.5758 21.3634 12.8759C24.2794 14.1759 25.757 17.3871 24.8138 20.3816C24.7482 20.6008 24.801 20.8352 24.9602 21.0008C25.117 21.1664 25.3546 21.2352 25.5794 21.1848C25.8042 21.1352 25.9858 20.9688 26.0546 20.7536C27.1795 17.2007 25.4794 13.3759 22.0546 11.7526C18.6289 10.1318 14.504 11.2006 12.3512 14.2687C10.1975 17.3375 10.66 21.4816 13.4416 24.0257C16.2193 26.5665 20.4825 26.7409 23.4698 24.4353L25.9042 26.8161C26.1546 27.0633 26.5603 27.0633 26.8139 26.8161C27.0635 26.5689 27.0635 26.1689 26.8139 25.9193L26.8043 25.8849Z" fill="white"/>
<defs>
<linearGradient id="paint0_linear_730_1560" x1="19" y1="0" x2="19" y2="38" gradientUnits="userSpaceOnUse">
<stop stop-color="#F87A72"/>
<stop offset="1" stop-color="#F43B62"/>
</linearGradient>
</defs>
</svg>
