<svg width="113" height="27" viewBox="0 0 113 27" fill="none" xmlns="http://www.w3.org/2000/svg">
<rect width="113" height="27" rx="13.5" fill="url(#paint0_linear_945_141)"/>
<path d="M24.6697 11.7266C24.6366 11.4164 24.4969 11.175 24.2507 11.0021C24.0069 10.8293 23.6896 10.7429 23.299 10.7429C23.0244 10.7429 22.7888 10.7843 22.5923 10.8672C22.3958 10.95 22.2455 11.0625 22.1413 11.2045C22.0372 11.3466 21.9839 11.5088 21.9815 11.6911C21.9815 11.8426 22.0159 11.974 22.0845 12.0852C22.1555 12.1965 22.2514 12.2912 22.3722 12.3693C22.4929 12.4451 22.6267 12.509 22.7734 12.5611C22.9202 12.6132 23.0682 12.657 23.2173 12.6925L23.8991 12.8629C24.1738 12.9268 24.4377 13.0133 24.6911 13.1222C24.9467 13.2311 25.1752 13.3684 25.3764 13.5341C25.58 13.6998 25.741 13.8999 25.8594 14.1342C25.9777 14.3686 26.0369 14.6432 26.0369 14.9581C26.0369 15.3842 25.928 15.7595 25.7102 16.0838C25.4924 16.4058 25.1776 16.6579 24.7656 16.8402C24.3561 17.0201 23.8601 17.1101 23.2777 17.1101C22.7119 17.1101 22.2206 17.0225 21.804 16.8473C21.3897 16.6721 21.0653 16.4164 20.831 16.0803C20.599 15.7441 20.4735 15.3345 20.4545 14.8516H21.7507C21.7696 15.1049 21.8478 15.3156 21.9851 15.4837C22.1224 15.6518 22.3011 15.7772 22.5213 15.8601C22.7438 15.9429 22.9924 15.9844 23.267 15.9844C23.5535 15.9844 23.8045 15.9418 24.0199 15.8565C24.2377 15.7689 24.4081 15.6482 24.5312 15.4943C24.6544 15.3381 24.7171 15.1558 24.7195 14.9474C24.7171 14.758 24.6615 14.6018 24.5526 14.4787C24.4437 14.3532 24.291 14.2491 24.0945 14.1662C23.9003 14.081 23.6731 14.0052 23.4126 13.9389L22.5852 13.7259C21.9863 13.572 21.5128 13.3388 21.1648 13.0263C20.8191 12.7114 20.6463 12.2936 20.6463 11.7727C20.6463 11.3442 20.7623 10.969 20.9943 10.647C21.2287 10.325 21.5471 10.0753 21.9496 9.89773C22.352 9.7178 22.8078 9.62784 23.3168 9.62784C23.8329 9.62784 24.285 9.7178 24.6733 9.89773C25.0639 10.0753 25.3705 10.3227 25.593 10.6399C25.8156 10.9548 25.9304 11.317 25.9375 11.7266H24.6697ZM27.1547 17V11.5455H28.4402V17H27.1547ZM27.801 10.7713C27.5974 10.7713 27.4222 10.7038 27.2754 10.5689C27.1286 10.4316 27.0552 10.267 27.0552 10.0753C27.0552 9.88116 27.1286 9.71662 27.2754 9.58168C27.4222 9.44437 27.5974 9.37571 27.801 9.37571C28.0069 9.37571 28.1821 9.44437 28.3265 9.58168C28.4733 9.71662 28.5467 9.88116 28.5467 10.0753C28.5467 10.267 28.4733 10.4316 28.3265 10.5689C28.1821 10.7038 28.0069 10.7713 27.801 10.7713ZM29.7621 17V11.5455H30.9908V12.4723H31.0547C31.1683 12.1598 31.3565 11.916 31.6193 11.7408C31.8821 11.5632 32.1958 11.4744 32.5604 11.4744C32.9297 11.4744 33.241 11.5644 33.4943 11.7443C33.75 11.9219 33.9299 12.1645 34.0341 12.4723H34.0909C34.2116 12.1693 34.4152 11.9278 34.7017 11.7479C34.9905 11.5656 35.3326 11.4744 35.728 11.4744C36.2299 11.4744 36.6394 11.633 36.9567 11.9503C37.2739 12.2675 37.4325 12.7304 37.4325 13.3388V17H36.1435V13.5376C36.1435 13.1991 36.0535 12.9517 35.8736 12.7955C35.6937 12.6368 35.4735 12.5575 35.2131 12.5575C34.9029 12.5575 34.6603 12.6546 34.4851 12.8487C34.3123 13.0405 34.2259 13.2902 34.2259 13.598V17H32.9652V13.4844C32.9652 13.2027 32.88 12.9777 32.7095 12.8097C32.5414 12.6416 32.3213 12.5575 32.049 12.5575C31.8643 12.5575 31.6963 12.6049 31.5447 12.6996C31.3932 12.7919 31.2725 12.9233 31.1825 13.0938C31.0926 13.2618 31.0476 13.4583 31.0476 13.6832V17H29.7621ZM38.7367 17V11.5455H40.0222V17H38.7367ZM39.383 10.7713C39.1794 10.7713 39.0042 10.7038 38.8574 10.5689C38.7106 10.4316 38.6373 10.267 38.6373 10.0753C38.6373 9.88116 38.7106 9.71662 38.8574 9.58168C39.0042 9.44437 39.1794 9.37571 39.383 9.37571C39.589 9.37571 39.7641 9.44437 39.9086 9.58168C40.0553 9.71662 40.1287 9.88116 40.1287 10.0753C40.1287 10.267 40.0553 10.4316 39.9086 10.5689C39.7641 10.7038 39.589 10.7713 39.383 10.7713ZM42.6296 9.72727V17H41.3441V9.72727H42.6296ZM45.5211 17.1101C45.1755 17.1101 44.8642 17.0485 44.5872 16.9254C44.3126 16.8 44.0948 16.6153 43.9338 16.3714C43.7752 16.1276 43.6958 15.8269 43.6958 15.4695C43.6958 15.1617 43.7527 14.9072 43.8663 14.706C43.9799 14.5047 44.135 14.3438 44.3315 14.223C44.528 14.1023 44.7493 14.0111 44.9956 13.9496C45.2441 13.8857 45.501 13.8395 45.7662 13.8111C46.0858 13.7779 46.345 13.7483 46.5439 13.7223C46.7427 13.6939 46.8871 13.6513 46.9771 13.5945C47.0694 13.5353 47.1156 13.4441 47.1156 13.321V13.2997C47.1156 13.0322 47.0363 12.825 46.8777 12.6783C46.719 12.5315 46.4906 12.4581 46.1923 12.4581C45.8774 12.4581 45.6277 12.5268 45.443 12.6641C45.2607 12.8014 45.1376 12.9635 45.0737 13.1506L43.8734 12.9801C43.9681 12.6487 44.1243 12.3717 44.3422 12.1491C44.56 11.9242 44.8263 11.7562 45.1412 11.6449C45.456 11.5312 45.804 11.4744 46.1852 11.4744C46.448 11.4744 46.7096 11.5052 46.97 11.5668C47.2304 11.6283 47.4683 11.7301 47.6838 11.8722C47.8992 12.0118 48.072 12.2024 48.2022 12.4439C48.3348 12.6854 48.4011 12.9872 48.4011 13.3494V17H47.1653V16.2507H47.1227C47.0446 16.4022 46.9345 16.5443 46.7924 16.6768C46.6528 16.8071 46.4764 16.9124 46.2633 16.9929C46.0526 17.071 45.8052 17.1101 45.5211 17.1101ZM45.8549 16.1655C46.113 16.1655 46.3367 16.1146 46.5261 16.0128C46.7155 15.9086 46.8611 15.7713 46.9629 15.6009C47.0671 15.4304 47.1191 15.2446 47.1191 15.0433V14.4006C47.0789 14.4337 47.0102 14.4645 46.9132 14.4929C46.8185 14.5213 46.7119 14.5462 46.5936 14.5675C46.4752 14.5888 46.358 14.6077 46.242 14.6243C46.126 14.6409 46.0254 14.6551 45.9402 14.6669C45.7484 14.6929 45.5768 14.7356 45.4252 14.7947C45.2737 14.8539 45.1542 14.9368 45.0666 15.0433C44.979 15.1475 44.9352 15.2824 44.9352 15.4482C44.9352 15.6849 45.0216 15.8636 45.1944 15.9844C45.3672 16.1051 45.5874 16.1655 45.8549 16.1655ZM49.6937 17V11.5455H50.9402V12.4545H50.997C51.0964 12.1397 51.2669 11.897 51.5083 11.7266C51.7522 11.5537 52.0304 11.4673 52.3429 11.4673C52.4139 11.4673 52.4932 11.4709 52.5808 11.478C52.6708 11.4827 52.7453 11.491 52.8045 11.5028V12.6854C52.7501 12.6664 52.6636 12.6499 52.5453 12.6357C52.4293 12.6191 52.3168 12.6108 52.2079 12.6108C51.9735 12.6108 51.7628 12.6617 51.5758 12.7635C51.3912 12.8629 51.2456 13.0014 51.139 13.179C51.0325 13.3565 50.9792 13.5613 50.9792 13.7933V17H49.6937ZM62.421 12.1811H61.0929C61.055 11.9633 60.9851 11.7704 60.8833 11.6023C60.7815 11.4318 60.6549 11.2874 60.5034 11.169C60.3519 11.0507 60.179 10.9619 59.9849 10.9027C59.7931 10.8411 59.586 10.8104 59.3635 10.8104C58.9681 10.8104 58.6177 10.9098 58.3123 11.1087C58.0069 11.3052 57.7678 11.594 57.595 11.9751C57.4222 12.3539 57.3358 12.8168 57.3358 13.3636C57.3358 13.92 57.4222 14.3887 57.595 14.7699C57.7702 15.1487 58.0093 15.4351 58.3123 15.6293C58.6177 15.821 58.9669 15.9169 59.3599 15.9169C59.5777 15.9169 59.7813 15.8885 59.9707 15.8317C60.1625 15.7725 60.3341 15.6861 60.4856 15.5724C60.6395 15.4588 60.7685 15.3191 60.8727 15.1534C60.9792 14.9877 61.0526 14.7983 61.0929 14.5852L62.421 14.5923C62.3713 14.938 62.2636 15.2623 62.0978 15.5653C61.9345 15.8684 61.7202 16.1359 61.4551 16.3679C61.1899 16.5975 60.8798 16.7775 60.5247 16.9077C60.1696 17.0355 59.7754 17.0994 59.3422 17.0994C58.7029 17.0994 58.1324 16.9515 57.6305 16.6555C57.1286 16.3596 56.7333 15.9323 56.4444 15.3736C56.1556 14.8149 56.0112 14.1449 56.0112 13.3636C56.0112 12.58 56.1568 11.91 56.448 11.3537C56.7392 10.795 57.1357 10.3677 57.6376 10.0717C58.1395 9.7758 58.7077 9.62784 59.3422 9.62784C59.747 9.62784 60.1234 9.68466 60.4714 9.7983C60.8194 9.91193 61.1296 10.0788 61.4018 10.299C61.6741 10.5168 61.8978 10.7843 62.073 11.1016C62.2505 11.4164 62.3665 11.7763 62.421 12.1811ZM65.9499 17.1065C65.4173 17.1065 64.9556 16.9893 64.565 16.755C64.1744 16.5206 63.8713 16.1927 63.6559 15.7713C63.4428 15.3499 63.3363 14.8575 63.3363 14.294C63.3363 13.7306 63.4428 13.237 63.6559 12.8132C63.8713 12.3894 64.1744 12.0604 64.565 11.826C64.9556 11.5916 65.4173 11.4744 65.9499 11.4744C66.4826 11.4744 66.9442 11.5916 67.3349 11.826C67.7255 12.0604 68.0273 12.3894 68.2404 12.8132C68.4558 13.237 68.5636 13.7306 68.5636 14.294C68.5636 14.8575 68.4558 15.3499 68.2404 15.7713C68.0273 16.1927 67.7255 16.5206 67.3349 16.755C66.9442 16.9893 66.4826 17.1065 65.9499 17.1065ZM65.957 16.0767C66.2459 16.0767 66.4873 15.9974 66.6815 15.8388C66.8756 15.6778 67.02 15.4624 67.1147 15.1925C67.2118 14.9226 67.2603 14.6219 67.2603 14.2905C67.2603 13.9567 67.2118 13.6548 67.1147 13.3849C67.02 13.1127 66.8756 12.8961 66.6815 12.7351C66.4873 12.5741 66.2459 12.4936 65.957 12.4936C65.6611 12.4936 65.4149 12.5741 65.2184 12.7351C65.0243 12.8961 64.8787 13.1127 64.7816 13.3849C64.6869 13.6548 64.6396 13.9567 64.6396 14.2905C64.6396 14.6219 64.6869 14.9226 64.7816 15.1925C64.8787 15.4624 65.0243 15.6778 65.2184 15.8388C65.4149 15.9974 65.6611 16.0767 65.957 16.0767ZM73.1312 14.706V11.5455H74.4167V17H73.1703V16.0305H73.1135C72.9904 16.3359 72.7879 16.5857 72.5062 16.7798C72.2269 16.974 71.8824 17.071 71.4728 17.071C71.1154 17.071 70.7993 16.9917 70.5247 16.8331C70.2524 16.6721 70.0394 16.4389 69.8855 16.1335C69.7316 15.8258 69.6547 15.4541 69.6547 15.0185V11.5455H70.9402V14.8196C70.9402 15.1652 71.0349 15.4399 71.2243 15.6435C71.4136 15.8471 71.6622 15.9489 71.97 15.9489C72.1594 15.9489 72.3429 15.9027 72.5204 15.8104C72.698 15.718 72.8436 15.5807 72.9572 15.3984C73.0732 15.2138 73.1312 14.983 73.1312 14.706ZM75.7386 17V11.5455H76.9851V12.4545H77.0419C77.1413 12.1397 77.3118 11.897 77.5533 11.7266C77.7971 11.5537 78.0753 11.4673 78.3878 11.4673C78.4588 11.4673 78.5381 11.4709 78.6257 11.478C78.7157 11.4827 78.7902 11.491 78.8494 11.5028V12.6854C78.795 12.6664 78.7086 12.6499 78.5902 12.6357C78.4742 12.6191 78.3617 12.6108 78.2528 12.6108C78.0185 12.6108 77.8078 12.6617 77.6207 12.7635C77.4361 12.8629 77.2905 13.0014 77.1839 13.179C77.0774 13.3565 77.0241 13.5613 77.0241 13.7933V17H75.7386ZM84.0146 12.9872L82.8427 13.1151C82.8095 12.9967 82.7515 12.8854 82.6687 12.7812C82.5882 12.6771 82.4793 12.593 82.342 12.5291C82.2047 12.4652 82.0366 12.4332 81.8377 12.4332C81.5702 12.4332 81.3453 12.4912 81.163 12.6072C80.9831 12.7232 80.8943 12.8736 80.8967 13.0582C80.8943 13.2169 80.9523 13.3459 81.0707 13.4453C81.1914 13.5447 81.3903 13.6264 81.6673 13.6903L82.5977 13.8892C83.1138 14.0005 83.4973 14.1768 83.7482 14.4183C84.0015 14.6598 84.1294 14.9759 84.1317 15.3665C84.1294 15.7098 84.0288 16.0128 83.8299 16.2756C83.6334 16.536 83.36 16.7396 83.0096 16.8864C82.6592 17.0331 82.2567 17.1065 81.8022 17.1065C81.1346 17.1065 80.5972 16.9669 80.19 16.6875C79.7828 16.4058 79.5401 16.014 79.462 15.5121L80.7156 15.3913C80.7724 15.6375 80.8931 15.8234 81.0778 15.9489C81.2624 16.0743 81.5027 16.1371 81.7987 16.1371C82.104 16.1371 82.3491 16.0743 82.5337 15.9489C82.7208 15.8234 82.8143 15.6683 82.8143 15.4837C82.8143 15.3274 82.7539 15.1984 82.6332 15.0966C82.5148 14.9948 82.3301 14.9167 82.0792 14.8622L81.1488 14.6669C80.6256 14.558 80.2385 14.3745 79.9876 14.1165C79.7366 13.8561 79.6123 13.527 79.6147 13.1293C79.6123 12.7931 79.7035 12.5019 79.8881 12.2557C80.0752 12.0071 80.3344 11.8153 80.6658 11.6804C80.9996 11.5431 81.3844 11.4744 81.82 11.4744C82.4592 11.4744 82.9622 11.6106 83.3292 11.8828C83.6985 12.1551 83.927 12.5232 84.0146 12.9872ZM87.6065 17.1065C87.0597 17.1065 86.5874 16.9929 86.1896 16.7656C85.7943 16.536 85.4901 16.2116 85.277 15.7926C85.0639 15.3712 84.9574 14.8752 84.9574 14.3047C84.9574 13.7436 85.0639 13.2512 85.277 12.8274C85.4924 12.4013 85.7931 12.0698 86.179 11.8331C86.5649 11.594 87.0182 11.4744 87.5391 11.4744C87.8752 11.4744 88.1925 11.5289 88.4908 11.6378C88.7914 11.7443 89.0566 11.91 89.2862 12.1349C89.5182 12.3598 89.7005 12.6463 89.8331 12.9943C89.9657 13.34 90.032 13.7519 90.032 14.2301V14.6243H85.5611V13.7578H88.7997C88.7973 13.5116 88.7441 13.2926 88.6399 13.1009C88.5357 12.9067 88.3902 12.754 88.2031 12.6428C88.0185 12.5315 87.803 12.4759 87.5568 12.4759C87.294 12.4759 87.0632 12.5398 86.8643 12.6676C86.6655 12.7931 86.5104 12.9588 86.3991 13.1648C86.2902 13.3684 86.2346 13.5921 86.2322 13.8359V14.5923C86.2322 14.9096 86.2902 15.1818 86.4062 15.4091C86.5223 15.634 86.6844 15.8068 86.8928 15.9276C87.1011 16.0459 87.3449 16.1051 87.6243 16.1051C87.8113 16.1051 87.9806 16.0791 88.1321 16.027C88.2836 15.9725 88.415 15.8932 88.5263 15.7891C88.6375 15.6849 88.7216 15.5559 88.7784 15.402L89.9787 15.5369C89.9029 15.8542 89.7585 16.1312 89.5455 16.3679C89.3348 16.6023 89.0649 16.7846 88.7358 16.9148C88.4067 17.0426 88.0303 17.1065 87.6065 17.1065ZM95.4306 12.9872L94.2587 13.1151C94.2256 12.9967 94.1676 12.8854 94.0847 12.7812C94.0042 12.6771 93.8953 12.593 93.758 12.5291C93.6207 12.4652 93.4526 12.4332 93.2537 12.4332C92.9862 12.4332 92.7613 12.4912 92.579 12.6072C92.3991 12.7232 92.3103 12.8736 92.3127 13.0582C92.3103 13.2169 92.3683 13.3459 92.4867 13.4453C92.6074 13.5447 92.8063 13.6264 93.0833 13.6903L94.0137 13.8892C94.5298 14.0005 94.9133 14.1768 95.1642 14.4183C95.4176 14.6598 95.5454 14.9759 95.5478 15.3665C95.5454 15.7098 95.4448 16.0128 95.2459 16.2756C95.0494 16.536 94.776 16.7396 94.4256 16.8864C94.0752 17.0331 93.6728 17.1065 93.2182 17.1065C92.5506 17.1065 92.0132 16.9669 91.606 16.6875C91.1988 16.4058 90.9561 16.014 90.878 15.5121L92.1316 15.3913C92.1884 15.6375 92.3091 15.8234 92.4938 15.9489C92.6784 16.0743 92.9187 16.1371 93.2147 16.1371C93.5201 16.1371 93.7651 16.0743 93.9498 15.9489C94.1368 15.8234 94.2303 15.6683 94.2303 15.4837C94.2303 15.3274 94.1699 15.1984 94.0492 15.0966C93.9308 14.9948 93.7462 14.9167 93.4952 14.8622L92.5648 14.6669C92.0416 14.558 91.6545 14.3745 91.4036 14.1165C91.1526 13.8561 91.0283 13.527 91.0307 13.1293C91.0283 12.7931 91.1195 12.5019 91.3042 12.2557C91.4912 12.0071 91.7504 11.8153 92.0819 11.6804C92.4157 11.5431 92.8004 11.4744 93.236 11.4744C93.8752 11.4744 94.3783 11.6106 94.7452 11.8828C95.1145 12.1551 95.343 12.5232 95.4306 12.9872Z" fill="white"/>
<defs>
<linearGradient id="paint0_linear_945_141" x1="56.5" y1="0" x2="56.5" y2="27" gradientUnits="userSpaceOnUse">
<stop stop-color="#EAB570"/>
<stop offset="1" stop-color="#F36D4D"/>
</linearGradient>
</defs>
</svg>
