<svg width="344" height="182" viewBox="0 0 344 182" fill="none" xmlns="http://www.w3.org/2000/svg">
<g filter="url(#filter0_d_848_133)">
<rect x="10" y="2" width="324" height="162" rx="16" fill="#535CDE"/>
</g>
<path d="M35.152 31.0909L38.1882 39.9759H38.3107L41.3469 31.0909H43.1261L39.2003 42H37.2987L33.3729 31.0909H35.152ZM44.5736 42V33.8182H46.1663V42H44.5736ZM45.3779 32.5558C45.1009 32.5558 44.863 32.4634 44.6642 32.2788C44.4688 32.0906 44.3712 31.8668 44.3712 31.6076C44.3712 31.3448 44.4688 31.1211 44.6642 30.9364C44.863 30.7482 45.1009 30.6541 45.3779 30.6541C45.6549 30.6541 45.8911 30.7482 46.0864 30.9364C46.2852 31.1211 46.3847 31.3448 46.3847 31.6076C46.3847 31.8668 46.2852 32.0906 46.0864 32.2788C45.8911 32.4634 45.6549 32.5558 45.3779 32.5558ZM48.3089 42V33.8182H49.8484V35.1179H49.9336C50.0827 34.6776 50.3455 34.3313 50.7219 34.0792C51.1019 33.8235 51.5316 33.6957 52.011 33.6957C52.1104 33.6957 52.2276 33.6992 52.3626 33.7063C52.5011 33.7134 52.6094 33.7223 52.6875 33.733V35.2564C52.6236 35.2386 52.5099 35.2191 52.3466 35.1978C52.1832 35.1729 52.0199 35.1605 51.8565 35.1605C51.4801 35.1605 51.1445 35.2404 50.8498 35.4002C50.5586 35.5565 50.3278 35.7749 50.1573 36.0554C49.9869 36.3324 49.9016 36.6484 49.9016 37.0036V42H48.3089ZM58.3684 33.8182V35.0966H53.8993V33.8182H58.3684ZM55.0978 31.858H56.6905V39.5977C56.6905 39.9066 56.7367 40.1392 56.829 40.2955C56.9213 40.4482 57.0403 40.5529 57.1859 40.6097C57.335 40.663 57.4966 40.6896 57.6706 40.6896C57.7985 40.6896 57.9103 40.6808 58.0062 40.663C58.1021 40.6452 58.1767 40.631 58.2299 40.6204L58.5176 41.9361C58.4252 41.9716 58.2939 42.0071 58.1234 42.0426C57.9529 42.0817 57.7399 42.103 57.4842 42.1065C57.0652 42.1136 56.6745 42.0391 56.3123 41.8828C55.9501 41.7266 55.6571 41.4851 55.4334 41.1584C55.2097 40.8317 55.0978 40.4215 55.0978 39.9279V31.858ZM65.3131 38.6069V33.8182H66.9111V42H65.3451V40.5831H65.2599C65.0716 41.0199 64.7698 41.3839 64.3543 41.6751C63.9424 41.9627 63.4292 42.1065 62.8149 42.1065C62.2893 42.1065 61.8241 41.9911 61.4193 41.7603C61.018 41.5259 60.702 41.1797 60.4711 40.7216C60.2439 40.2635 60.1302 39.6971 60.1302 39.0224V33.8182H61.7229V38.8306C61.7229 39.3881 61.8774 39.832 62.1863 40.1623C62.4953 40.4925 62.8966 40.6577 63.3902 40.6577C63.6885 40.6577 63.985 40.5831 64.2797 40.4339C64.578 40.2848 64.8248 40.0593 65.0202 39.7575C65.219 39.4556 65.3167 39.0721 65.3131 38.6069ZM71.4322 42.1811C70.9137 42.1811 70.445 42.0852 70.0259 41.8935C69.6069 41.6982 69.2749 41.4158 69.0298 41.0465C68.7884 40.6772 68.6676 40.2244 68.6676 39.6882C68.6676 39.2266 68.7564 38.8466 68.9339 38.5483C69.1115 38.25 69.3512 38.0138 69.6531 37.8398C69.9549 37.6658 70.2923 37.5344 70.6651 37.4457C71.038 37.3569 71.418 37.2894 71.805 37.2433C72.2951 37.1864 72.6928 37.1403 72.9982 37.1048C73.3036 37.0657 73.5256 37.0036 73.6641 36.9183C73.8026 36.8331 73.8718 36.6946 73.8718 36.5028V36.4656C73.8718 36.0004 73.7404 35.6399 73.4776 35.3842C73.2184 35.1286 72.8313 35.0007 72.3164 35.0007C71.7802 35.0007 71.3576 35.1197 71.0487 35.3576C70.7433 35.592 70.532 35.853 70.4148 36.1406L68.918 35.7997C69.0955 35.3026 69.3548 34.9013 69.6957 34.5959C70.0401 34.2869 70.4361 34.0632 70.8835 33.9247C71.331 33.7827 71.8015 33.7116 72.2951 33.7116C72.6218 33.7116 72.968 33.7507 73.3338 33.8288C73.7031 33.9034 74.0476 34.0419 74.3672 34.2443C74.6903 34.4467 74.9549 34.7362 75.1609 35.1126C75.3668 35.4854 75.4698 35.9702 75.4698 36.5668V42H73.9144V40.8814H73.8505C73.7475 41.0874 73.593 41.2898 73.3871 41.4886C73.1811 41.6875 72.9165 41.8526 72.5934 41.984C72.2702 42.1154 71.8832 42.1811 71.4322 42.1811ZM71.7784 40.9027C72.2188 40.9027 72.5952 40.8157 72.9077 40.6417C73.2237 40.4677 73.4634 40.2404 73.6268 39.9599C73.7937 39.6758 73.8771 39.3722 73.8771 39.049V37.9943C73.8203 38.0511 73.7102 38.1044 73.5469 38.1541C73.3871 38.2003 73.2042 38.2411 72.9982 38.2766C72.7923 38.3086 72.5916 38.3388 72.3963 38.3672C72.201 38.392 72.0376 38.4134 71.9062 38.4311C71.5973 38.4702 71.315 38.5359 71.0593 38.6282C70.8072 38.7205 70.6048 38.8537 70.4521 39.0277C70.3029 39.1982 70.2283 39.4254 70.2283 39.7095C70.2283 40.1037 70.3739 40.402 70.6651 40.6044C70.9563 40.8033 71.3274 40.9027 71.7784 40.9027ZM79.1839 31.0909V42H77.5912V31.0909H79.1839ZM85.4241 42V31.0909H89.3126C90.1578 31.0909 90.8591 31.2365 91.4166 31.5277C91.9777 31.8189 92.3968 32.2219 92.6737 32.7369C92.9507 33.2482 93.0892 33.8395 93.0892 34.5107C93.0892 35.1783 92.949 35.766 92.6684 36.2738C92.3914 36.7781 91.9724 37.1705 91.4113 37.451C90.8538 37.7315 90.1524 37.8718 89.3073 37.8718H86.3616V36.4549H89.1581C89.6908 36.4549 90.124 36.3786 90.4578 36.2259C90.7952 36.0732 91.042 35.8512 91.1982 35.56C91.3545 35.2688 91.4326 34.919 91.4326 34.5107C91.4326 34.0987 91.3527 33.7418 91.1929 33.44C91.0367 33.1381 90.7899 32.9073 90.4525 32.7475C90.1187 32.5842 89.6801 32.5025 89.1368 32.5025H87.07V42H85.4241ZM90.8094 37.0781L93.5047 42H91.6297L88.9877 37.0781H90.8094ZM98.388 42.1651C97.5819 42.1651 96.8876 41.9929 96.3052 41.6484C95.7264 41.3004 95.2789 40.8121 94.9629 40.1836C94.6504 39.5515 94.4941 38.8111 94.4941 37.9624C94.4941 37.1243 94.6504 36.3857 94.9629 35.7464C95.2789 35.1072 95.7193 34.6083 96.2839 34.2496C96.8521 33.891 97.5162 33.7116 98.2761 33.7116C98.7377 33.7116 99.1852 33.788 99.6184 33.9407C100.052 34.0934 100.441 34.3331 100.785 34.6598C101.129 34.9865 101.401 35.4109 101.6 35.9329C101.799 36.4513 101.898 37.0817 101.898 37.8239V38.3885H95.3944V37.1953H100.338C100.338 36.7763 100.252 36.4052 100.082 36.082C99.9114 35.7553 99.6717 35.4979 99.3627 35.3097C99.0574 35.1214 98.6987 35.0273 98.2868 35.0273C97.8393 35.0273 97.4487 35.1374 97.1149 35.3576C96.7846 35.5742 96.5289 35.8583 96.3478 36.2099C96.1703 36.5579 96.0815 36.9361 96.0815 37.3445V38.2766C96.0815 38.8235 96.1774 39.2887 96.3691 39.6722C96.5645 40.0558 96.8361 40.3487 97.1841 40.5511C97.5321 40.75 97.9387 40.8494 98.4039 40.8494C98.7058 40.8494 98.981 40.8068 99.2296 40.7216C99.4782 40.6328 99.693 40.5014 99.8741 40.3274C100.055 40.1534 100.194 39.9386 100.29 39.6829L101.797 39.9545C101.676 40.3984 101.46 40.7873 101.147 41.1211C100.838 41.4513 100.449 41.7088 99.9806 41.8935C99.5154 42.0746 98.9846 42.1651 98.388 42.1651ZM106.046 42.1811C105.528 42.1811 105.059 42.0852 104.64 41.8935C104.221 41.6982 103.889 41.4158 103.644 41.0465C103.403 40.6772 103.282 40.2244 103.282 39.6882C103.282 39.2266 103.371 38.8466 103.548 38.5483C103.726 38.25 103.965 38.0138 104.267 37.8398C104.569 37.6658 104.907 37.5344 105.279 37.4457C105.652 37.3569 106.032 37.2894 106.419 37.2433C106.909 37.1864 107.307 37.1403 107.612 37.1048C107.918 37.0657 108.14 37.0036 108.278 36.9183C108.417 36.8331 108.486 36.6946 108.486 36.5028V36.4656C108.486 36.0004 108.355 35.6399 108.092 35.3842C107.833 35.1286 107.446 35.0007 106.931 35.0007C106.394 35.0007 105.972 35.1197 105.663 35.3576C105.358 35.592 105.146 35.853 105.029 36.1406L103.532 35.7997C103.71 35.3026 103.969 34.9013 104.31 34.5959C104.654 34.2869 105.05 34.0632 105.498 33.9247C105.945 33.7827 106.416 33.7116 106.909 33.7116C107.236 33.7116 107.582 33.7507 107.948 33.8288C108.317 33.9034 108.662 34.0419 108.981 34.2443C109.305 34.4467 109.569 34.7362 109.775 35.1126C109.981 35.4854 110.084 35.9702 110.084 36.5668V42H108.529V40.8814H108.465C108.362 41.0874 108.207 41.2898 108.001 41.4886C107.795 41.6875 107.531 41.8526 107.208 41.984C106.884 42.1154 106.497 42.1811 106.046 42.1811ZM106.393 40.9027C106.833 40.9027 107.209 40.8157 107.522 40.6417C107.838 40.4677 108.078 40.2404 108.241 39.9599C108.408 39.6758 108.491 39.3722 108.491 39.049V37.9943C108.435 38.0511 108.324 38.1044 108.161 38.1541C108.001 38.2003 107.818 38.2411 107.612 38.2766C107.407 38.3086 107.206 38.3388 107.011 38.3672C106.815 38.392 106.652 38.4134 106.521 38.4311C106.212 38.4702 105.929 38.5359 105.674 38.6282C105.421 38.7205 105.219 38.8537 105.066 39.0277C104.917 39.1982 104.843 39.4254 104.843 39.7095C104.843 40.1037 104.988 40.402 105.279 40.6044C105.571 40.8033 105.942 40.9027 106.393 40.9027ZM113.798 31.0909V42H112.205V31.0909H113.798ZM115.941 42V33.8182H117.533V42H115.941ZM116.745 32.5558C116.468 32.5558 116.23 32.4634 116.031 32.2788C115.836 32.0906 115.738 31.8668 115.738 31.6076C115.738 31.3448 115.836 31.1211 116.031 30.9364C116.23 30.7482 116.468 30.6541 116.745 30.6541C117.022 30.6541 117.258 30.7482 117.454 30.9364C117.652 31.1211 117.752 31.3448 117.752 31.6076C117.752 31.8668 117.652 32.0906 117.454 32.2788C117.258 32.4634 117.022 32.5558 116.745 32.5558ZM123.495 33.8182V35.0966H119.026V33.8182H123.495ZM120.225 31.858H121.817V39.5977C121.817 39.9066 121.864 40.1392 121.956 40.2955C122.048 40.4482 122.167 40.5529 122.313 40.6097C122.462 40.663 122.624 40.6896 122.798 40.6896C122.925 40.6896 123.037 40.6808 123.133 40.663C123.229 40.6452 123.304 40.631 123.357 40.6204L123.645 41.9361C123.552 41.9716 123.421 42.0071 123.25 42.0426C123.08 42.0817 122.867 42.103 122.611 42.1065C122.192 42.1136 121.801 42.0391 121.439 41.8828C121.077 41.7266 120.784 41.4851 120.56 41.1584C120.337 40.8317 120.225 40.4215 120.225 39.9279V31.858ZM126.264 45.0682C126.026 45.0682 125.809 45.0487 125.614 45.0096C125.419 44.9741 125.273 44.935 125.177 44.8924L125.561 43.5874C125.852 43.6655 126.111 43.6992 126.339 43.6886C126.566 43.6779 126.766 43.5927 126.94 43.4329C127.118 43.2731 127.274 43.0121 127.409 42.6499L127.606 42.1065L124.613 33.8182H126.317L128.389 40.1676H128.475L130.547 33.8182H132.256L128.885 43.092C128.728 43.5181 128.53 43.8786 128.288 44.1733C128.047 44.4716 127.759 44.6953 127.425 44.8445C127.091 44.9936 126.704 45.0682 126.264 45.0682ZM138.574 36.6999V38.0795H133.737V36.6999H138.574ZM144.256 32.5078V31.0909H152.699V32.5078H149.295V42H147.655V32.5078H144.256ZM154.437 42V33.8182H156.03V42H154.437ZM155.241 32.5558C154.964 32.5558 154.726 32.4634 154.527 32.2788C154.332 32.0906 154.234 31.8668 154.234 31.6076C154.234 31.3448 154.332 31.1211 154.527 30.9364C154.726 30.7482 154.964 30.6541 155.241 30.6541C155.518 30.6541 155.754 30.7482 155.95 30.9364C156.149 31.1211 156.248 31.3448 156.248 31.6076C156.248 31.8668 156.149 32.0906 155.95 32.2788C155.754 32.4634 155.518 32.5558 155.241 32.5558ZM158.172 42V33.8182H159.701V35.1499H159.802C159.973 34.6989 160.251 34.3473 160.638 34.0952C161.026 33.8395 161.489 33.7116 162.029 33.7116C162.576 33.7116 163.034 33.8395 163.403 34.0952C163.776 34.3509 164.051 34.7024 164.229 35.1499H164.314C164.509 34.7131 164.82 34.3651 165.246 34.1058C165.672 33.843 166.18 33.7116 166.77 33.7116C167.512 33.7116 168.117 33.9442 168.586 34.4094C169.058 34.8746 169.294 35.576 169.294 36.5135V42H167.702V36.6626C167.702 36.1087 167.551 35.7074 167.249 35.4588C166.947 35.2102 166.587 35.0859 166.168 35.0859C165.649 35.0859 165.246 35.2457 164.958 35.5653C164.671 35.8814 164.527 36.288 164.527 36.7852V42H162.94V36.5614C162.94 36.1175 162.801 35.7607 162.524 35.4908C162.247 35.2209 161.887 35.0859 161.443 35.0859C161.141 35.0859 160.862 35.1658 160.607 35.3256C160.354 35.4819 160.15 35.7003 159.994 35.9808C159.841 36.2614 159.765 36.5863 159.765 36.9556V42H158.172ZM174.955 42.1651C174.149 42.1651 173.455 41.9929 172.873 41.6484C172.294 41.3004 171.846 40.8121 171.53 40.1836C171.218 39.5515 171.062 38.8111 171.062 37.9624C171.062 37.1243 171.218 36.3857 171.53 35.7464C171.846 35.1072 172.287 34.6083 172.851 34.2496C173.419 33.891 174.084 33.7116 174.843 33.7116C175.305 33.7116 175.753 33.788 176.186 33.9407C176.619 34.0934 177.008 34.3331 177.352 34.6598C177.697 34.9865 177.968 35.4109 178.167 35.9329C178.366 36.4513 178.466 37.0817 178.466 37.8239V38.3885H171.962V37.1953H176.905C176.905 36.7763 176.82 36.4052 176.649 36.082C176.479 35.7553 176.239 35.4979 175.93 35.3097C175.625 35.1214 175.266 35.0273 174.854 35.0273C174.407 35.0273 174.016 35.1374 173.682 35.3576C173.352 35.5742 173.096 35.8583 172.915 36.2099C172.738 36.5579 172.649 36.9361 172.649 37.3445V38.2766C172.649 38.8235 172.745 39.2887 172.937 39.6722C173.132 40.0558 173.403 40.3487 173.752 40.5511C174.1 40.75 174.506 40.8494 174.971 40.8494C175.273 40.8494 175.548 40.8068 175.797 40.7216C176.046 40.6328 176.26 40.5014 176.441 40.3274C176.623 40.1534 176.761 39.9386 176.857 39.6829L178.364 39.9545C178.244 40.3984 178.027 40.7873 177.715 41.1211C177.406 41.4513 177.017 41.7088 176.548 41.8935C176.083 42.0746 175.552 42.1651 174.955 42.1651ZM188.022 33.8182V35.0966H183.553V33.8182H188.022ZM184.751 31.858H186.344V39.5977C186.344 39.9066 186.39 40.1392 186.482 40.2955C186.575 40.4482 186.694 40.5529 186.839 40.6097C186.988 40.663 187.15 40.6896 187.324 40.6896C187.452 40.6896 187.564 40.6808 187.66 40.663C187.755 40.6452 187.83 40.631 187.883 40.6204L188.171 41.9361C188.079 41.9716 187.947 42.0071 187.777 42.0426C187.606 42.0817 187.393 42.103 187.138 42.1065C186.718 42.1136 186.328 42.0391 185.966 41.8828C185.603 41.7266 185.31 41.4851 185.087 41.1584C184.863 40.8317 184.751 40.4215 184.751 39.9279V31.858ZM193.142 42.1651C192.375 42.1651 191.706 41.9893 191.134 41.6378C190.562 41.2862 190.118 40.7944 189.802 40.1623C189.486 39.5302 189.328 38.7915 189.328 37.9464C189.328 37.0977 189.486 36.3555 189.802 35.7198C190.118 35.0842 190.562 34.5906 191.134 34.239C191.706 33.8874 192.375 33.7116 193.142 33.7116C193.909 33.7116 194.578 33.8874 195.15 34.239C195.722 34.5906 196.166 35.0842 196.482 35.7198C196.798 36.3555 196.956 37.0977 196.956 37.9464C196.956 38.7915 196.798 39.5302 196.482 40.1623C196.166 40.7944 195.722 41.2862 195.15 41.6378C194.578 41.9893 193.909 42.1651 193.142 42.1651ZM193.147 40.8281C193.645 40.8281 194.056 40.6967 194.383 40.4339C194.71 40.1712 194.951 39.8214 195.108 39.3846C195.267 38.9478 195.347 38.4666 195.347 37.9411C195.347 37.419 195.267 36.9396 195.108 36.5028C194.951 36.0625 194.71 35.7092 194.383 35.4428C194.056 35.1765 193.645 35.0433 193.147 35.0433C192.647 35.0433 192.231 35.1765 191.901 35.4428C191.574 35.7092 191.331 36.0625 191.171 36.5028C191.015 36.9396 190.937 37.419 190.937 37.9411C190.937 38.4666 191.015 38.9478 191.171 39.3846C191.331 39.8214 191.574 40.1712 191.901 40.4339C192.231 40.6967 192.647 40.8281 193.147 40.8281ZM35.6634 57.0909V68H34.0707V57.0909H35.6634ZM41.3323 68.1651C40.5262 68.1651 39.8319 67.9929 39.2496 67.6484C38.6707 67.3004 38.2233 66.8121 37.9072 66.1836C37.5947 65.5515 37.4385 64.8111 37.4385 63.9624C37.4385 63.1243 37.5947 62.3857 37.9072 61.7464C38.2233 61.1072 38.6636 60.6083 39.2282 60.2496C39.7964 59.891 40.4605 59.7116 41.2204 59.7116C41.6821 59.7116 42.1295 59.788 42.5628 59.9407C42.996 60.0934 43.3849 60.3331 43.7293 60.6598C44.0738 60.9865 44.3454 61.4109 44.5443 61.9329C44.7432 62.4513 44.8426 63.0817 44.8426 63.8239V64.3885H38.3387V63.1953H43.2819C43.2819 62.7763 43.1966 62.4052 43.0262 62.082C42.8557 61.7553 42.616 61.4979 42.3071 61.3097C42.0017 61.1214 41.643 61.0273 41.2311 61.0273C40.7836 61.0273 40.393 61.1374 40.0592 61.3576C39.729 61.5742 39.4733 61.8583 39.2922 62.2099C39.1146 62.5579 39.0258 62.9361 39.0258 63.3445V64.2766C39.0258 64.8235 39.1217 65.2887 39.3135 65.6722C39.5088 66.0558 39.7805 66.3487 40.1285 66.5511C40.4765 66.75 40.8831 66.8494 41.3483 66.8494C41.6501 66.8494 41.9253 66.8068 42.1739 66.7216C42.4225 66.6328 42.6373 66.5014 42.8184 66.3274C42.9996 66.1534 43.1381 65.9386 43.2339 65.6829L44.7414 65.9545C44.6206 66.3984 44.404 66.7873 44.0915 67.1211C43.7826 67.4513 43.3937 67.7088 42.925 67.8935C42.4598 68.0746 41.9289 68.1651 41.3323 68.1651ZM48.9908 68.1811C48.4723 68.1811 48.0036 68.0852 47.5845 67.8935C47.1655 67.6982 46.8335 67.4158 46.5884 67.0465C46.3469 66.6772 46.2262 66.2244 46.2262 65.6882C46.2262 65.2266 46.315 64.8466 46.4925 64.5483C46.6701 64.25 46.9098 64.0138 47.2116 63.8398C47.5135 63.6658 47.8509 63.5344 48.2237 63.4457C48.5966 63.3569 48.9766 63.2894 49.3636 63.2433C49.8537 63.1864 50.2514 63.1403 50.5568 63.1048C50.8622 63.0657 51.0842 63.0036 51.2227 62.9183C51.3612 62.8331 51.4304 62.6946 51.4304 62.5028V62.4656C51.4304 62.0004 51.299 61.6399 51.0362 61.3842C50.777 61.1286 50.3899 61.0007 49.875 61.0007C49.3388 61.0007 48.9162 61.1197 48.6072 61.3576C48.3018 61.592 48.0906 61.853 47.9734 62.1406L46.4766 61.7997C46.6541 61.3026 46.9134 60.9013 47.2543 60.5959C47.5987 60.2869 47.9947 60.0632 48.4421 59.9247C48.8896 59.7827 49.3601 59.7116 49.8537 59.7116C50.1804 59.7116 50.5266 59.7507 50.8924 59.8288C51.2617 59.9034 51.6062 60.0419 51.9258 60.2443C52.2489 60.4467 52.5135 60.7362 52.7195 61.1126C52.9254 61.4854 53.0284 61.9702 53.0284 62.5668V68H51.473V66.8814H51.4091C51.3061 67.0874 51.1516 67.2898 50.9457 67.4886C50.7397 67.6875 50.4751 67.8526 50.152 67.984C49.8288 68.1154 49.4418 68.1811 48.9908 68.1811ZM49.337 66.9027C49.7773 66.9027 50.1538 66.8157 50.4663 66.6417C50.7823 66.4677 51.022 66.2404 51.1854 65.9599C51.3523 65.6758 51.4357 65.3722 51.4357 65.049V63.9943C51.3789 64.0511 51.2688 64.1044 51.1055 64.1541C50.9457 64.2003 50.7628 64.2411 50.5568 64.2766C50.3509 64.3086 50.1502 64.3388 49.9549 64.3672C49.7596 64.392 49.5962 64.4134 49.4648 64.4311C49.1559 64.4702 48.8736 64.5359 48.6179 64.6282C48.3658 64.7205 48.1634 64.8537 48.0107 65.0277C47.8615 65.1982 47.7869 65.4254 47.7869 65.7095C47.7869 66.1037 47.9325 66.402 48.2237 66.6044C48.5149 66.8033 48.886 66.9027 49.337 66.9027ZM55.1498 68V59.8182H56.6892V61.1179H56.7744C56.9236 60.6776 57.1863 60.3313 57.5628 60.0792C57.9427 59.8235 58.3724 59.6957 58.8518 59.6957C58.9513 59.6957 59.0684 59.6992 59.2034 59.7063C59.3419 59.7134 59.4502 59.7223 59.5283 59.733V61.2564C59.4644 61.2386 59.3508 61.2191 59.1874 61.1978C59.0241 61.1729 58.8607 61.1605 58.6974 61.1605C58.3209 61.1605 57.9854 61.2404 57.6906 61.4002C57.3994 61.5565 57.1686 61.7749 56.9981 62.0554C56.8277 62.3324 56.7425 62.6484 56.7425 63.0036V68H55.1498ZM62.4993 63.142V68H60.9066V59.8182H62.4354V61.1499H62.5366C62.7248 60.7166 63.0195 60.3686 63.4208 60.1058C63.8256 59.843 64.3352 59.7116 64.9496 59.7116C65.5071 59.7116 65.9954 59.8288 66.4144 60.0632C66.8335 60.294 67.1584 60.6385 67.3892 61.0966C67.62 61.5547 67.7354 62.1211 67.7354 62.7958V68H66.1428V62.9876C66.1428 62.3945 65.9883 61.9311 65.6793 61.5973C65.3704 61.2599 64.946 61.0913 64.4062 61.0913C64.0369 61.0913 63.7085 61.1712 63.4208 61.331C63.1367 61.4908 62.9112 61.7251 62.7443 62.0341C62.581 62.3395 62.4993 62.7088 62.4993 63.142ZM77.6178 68.1491C76.8863 68.1491 76.2329 68.0231 75.6576 67.771C75.0858 67.5188 74.6331 67.169 74.2993 66.7216C73.969 66.2706 73.7915 65.7486 73.7666 65.1555H75.4392C75.4605 65.4787 75.5688 65.7592 75.7641 65.9972C75.963 66.2315 76.2222 66.4126 76.5418 66.5405C76.8614 66.6683 77.2165 66.7322 77.6072 66.7322C78.0368 66.7322 78.4168 66.6577 78.7471 66.5085C79.0809 66.3594 79.3419 66.1516 79.5301 65.8853C79.7183 65.6154 79.8124 65.3047 79.8124 64.9531C79.8124 64.5874 79.7183 64.266 79.5301 63.989C79.3454 63.7085 79.0738 63.4883 78.7151 63.3285C78.36 63.1687 77.9303 63.0888 77.426 63.0888H76.5045V61.7464H77.426C77.8309 61.7464 78.186 61.6737 78.4914 61.5281C78.8003 61.3825 79.0418 61.18 79.2158 60.9208C79.3898 60.658 79.4768 60.3509 79.4768 59.9993C79.4768 59.6619 79.4005 59.369 79.2478 59.1204C79.0986 58.8683 78.8856 58.6712 78.6086 58.5291C78.3351 58.3871 78.012 58.3161 77.6391 58.3161C77.284 58.3161 76.952 58.3817 76.643 58.5131C76.3376 58.641 76.089 58.8256 75.8973 59.0671C75.7055 59.305 75.6025 59.5909 75.5883 59.9247H73.9956C74.0134 59.3352 74.1874 58.8168 74.5177 58.3693C74.8515 57.9219 75.2918 57.5721 75.8387 57.32C76.3856 57.0678 76.9928 56.9418 77.6604 56.9418C78.36 56.9418 78.9637 57.0785 79.4715 57.3519C79.9829 57.6218 80.377 57.9822 80.654 58.4332C80.9346 58.8842 81.0731 59.3778 81.0695 59.9141C81.0731 60.5249 80.9026 61.0433 80.5581 61.4695C80.2172 61.8956 79.7627 62.1815 79.1945 62.3271V62.4123C79.9189 62.5224 80.48 62.81 80.8778 63.2752C81.279 63.7404 81.4779 64.3175 81.4743 65.0064C81.4779 65.6065 81.311 66.1445 80.9736 66.6204C80.6398 67.0962 80.1835 67.4709 79.6047 67.7443C79.0258 68.0142 78.3635 68.1491 77.6178 68.1491ZM87.2964 68.1491C86.8099 68.142 86.3305 68.0533 85.8582 67.8828C85.3895 67.7124 84.9633 67.4283 84.5798 67.0305C84.1963 66.6328 83.8891 66.0984 83.6583 65.4272C83.431 64.756 83.3174 63.918 83.3174 62.913C83.3174 61.9613 83.4115 61.1161 83.5997 60.3775C83.7915 59.6388 84.0667 59.0156 84.4253 58.5078C84.784 57.9964 85.2172 57.6076 85.7251 57.3413C86.2329 57.0749 86.8028 56.9418 87.4349 56.9418C88.0848 56.9418 88.6618 57.0696 89.1661 57.3253C89.6704 57.581 90.0787 57.9343 90.3912 58.3853C90.7073 58.8363 90.9079 59.3494 90.9932 59.9247H89.3685C89.2584 59.4702 89.04 59.0991 88.7133 58.8114C88.3866 58.5238 87.9605 58.38 87.4349 58.38C86.6359 58.38 86.0127 58.728 85.5653 59.424C85.1214 60.12 84.8976 61.0877 84.8941 62.3271H84.974C85.1622 62.0181 85.393 61.7553 85.6665 61.5387C85.9434 61.3185 86.2524 61.1499 86.5933 61.0327C86.9378 60.9119 87.3 60.8516 87.68 60.8516C88.3121 60.8516 88.8838 61.006 89.3952 61.315C89.9101 61.6204 90.3202 62.043 90.6256 62.5827C90.931 63.1225 91.0837 63.7404 91.0837 64.4364C91.0837 65.1325 90.9257 65.7628 90.6096 66.3274C90.2971 66.892 89.8568 67.3395 89.2886 67.6697C88.7204 67.9964 88.0564 68.1562 87.2964 68.1491ZM87.2911 66.7642C87.7101 66.7642 88.0848 66.6612 88.415 66.4553C88.7453 66.2493 89.0063 65.9723 89.1981 65.6243C89.3898 65.2763 89.4857 64.8874 89.4857 64.4577C89.4857 64.0387 89.3916 63.657 89.2034 63.3125C89.0187 62.968 88.7631 62.6946 88.4363 62.4922C88.1132 62.2898 87.7439 62.1886 87.3284 62.1886C87.0123 62.1886 86.7194 62.2489 86.4495 62.3697C86.1831 62.4904 85.9488 62.6573 85.7464 62.8704C85.5439 63.0835 85.3841 63.3285 85.267 63.6055C85.1533 63.8789 85.0965 64.1683 85.0965 64.4737C85.0965 64.8821 85.1906 65.2603 85.3788 65.6083C85.5706 65.9563 85.8316 66.2369 86.1618 66.4499C86.4956 66.6594 86.8721 66.7642 87.2911 66.7642ZM96.8219 68.1811C95.9803 68.1776 95.2612 67.9556 94.6646 67.5153C94.068 67.0749 93.6117 66.4339 93.2956 65.5923C92.9796 64.7507 92.8216 63.7369 92.8216 62.5508C92.8216 61.3683 92.9796 60.358 93.2956 59.5199C93.6152 58.6818 94.0733 58.0426 94.6699 57.6023C95.2701 57.1619 95.9874 56.9418 96.8219 56.9418C97.6564 56.9418 98.372 57.1637 98.9686 57.6076C99.5652 58.0479 100.021 58.6871 100.338 59.5252C100.657 60.3597 100.817 61.3683 100.817 62.5508C100.817 63.7404 100.659 64.756 100.343 65.5977C100.027 66.4357 99.5705 67.0767 98.9739 67.5206C98.3773 67.9609 97.66 68.1811 96.8219 68.1811ZM96.8219 66.7589C97.5605 66.7589 98.1376 66.3984 98.5531 65.6776C98.9721 64.9567 99.1816 63.9144 99.1816 62.5508C99.1816 61.6452 99.0858 60.88 98.894 60.255C98.7058 59.6264 98.4341 59.1506 98.079 58.8274C97.7275 58.5007 97.3084 58.3374 96.8219 58.3374C96.0868 58.3374 95.5098 58.6996 95.0907 59.424C94.6717 60.1484 94.4604 61.1907 94.4569 62.5508C94.4569 63.4599 94.551 64.2287 94.7392 64.8572C94.9309 65.4822 95.2026 65.9563 95.5542 66.2795C95.9057 66.5991 96.3283 66.7589 96.8219 66.7589ZM113.697 59.8182L110.73 68H109.025L106.053 59.8182H107.763L109.835 66.1143H109.92L111.987 59.8182H113.697ZM115.194 68V59.8182H116.786V68H115.194ZM115.998 58.5558C115.721 58.5558 115.483 58.4634 115.284 58.2788C115.089 58.0906 114.991 57.8668 114.991 57.6076C114.991 57.3448 115.089 57.1211 115.284 56.9364C115.483 56.7482 115.721 56.6541 115.998 56.6541C116.275 56.6541 116.511 56.7482 116.706 56.9364C116.905 57.1211 117.005 57.3448 117.005 57.6076C117.005 57.8668 116.905 58.0906 116.706 58.2788C116.511 58.4634 116.275 58.5558 115.998 58.5558ZM121.992 68.1598C121.331 68.1598 120.742 67.9911 120.223 67.6538C119.709 67.3129 119.304 66.8281 119.009 66.1996C118.718 65.5675 118.572 64.8093 118.572 63.9251C118.572 63.0408 118.72 62.2844 119.014 61.6559C119.313 61.0273 119.721 60.5462 120.239 60.2124C120.758 59.8786 121.346 59.7116 122.003 59.7116C122.51 59.7116 122.919 59.7969 123.228 59.9673C123.54 60.1342 123.782 60.3295 123.952 60.5533C124.126 60.777 124.261 60.9741 124.357 61.1445H124.453V57.0909H126.046V68H124.49V66.7269H124.357C124.261 66.9009 124.123 67.0998 123.941 67.3235C123.764 67.5472 123.519 67.7425 123.206 67.9094C122.894 68.0763 122.489 68.1598 121.992 68.1598ZM122.343 66.8015C122.802 66.8015 123.189 66.6808 123.505 66.4393C123.824 66.1942 124.066 65.8551 124.229 65.4219C124.396 64.9886 124.479 64.4844 124.479 63.9091C124.479 63.3409 124.398 62.8437 124.234 62.4176C124.071 61.9915 123.831 61.6594 123.515 61.4215C123.199 61.1836 122.809 61.0646 122.343 61.0646C121.864 61.0646 121.465 61.1889 121.145 61.4375C120.825 61.6861 120.584 62.0252 120.421 62.4549C120.261 62.8846 120.181 63.3693 120.181 63.9091C120.181 64.456 120.263 64.9478 120.426 65.3846C120.589 65.8214 120.831 66.1676 121.15 66.4233C121.473 66.6754 121.871 66.8015 122.343 66.8015ZM131.845 68.1651C131.039 68.1651 130.345 67.9929 129.762 67.6484C129.183 67.3004 128.736 66.8121 128.42 66.1836C128.107 65.5515 127.951 64.8111 127.951 63.9624C127.951 63.1243 128.107 62.3857 128.42 61.7464C128.736 61.1072 129.176 60.6083 129.741 60.2496C130.309 59.891 130.973 59.7116 131.733 59.7116C132.195 59.7116 132.642 59.788 133.075 59.9407C133.509 60.0934 133.898 60.3331 134.242 60.6598C134.586 60.9865 134.858 61.4109 135.057 61.9329C135.256 62.4513 135.355 63.0817 135.355 63.8239V64.3885H128.851V63.1953H133.795C133.795 62.7763 133.709 62.4052 133.539 62.082C133.368 61.7553 133.129 61.4979 132.82 61.3097C132.514 61.1214 132.156 61.0273 131.744 61.0273C131.296 61.0273 130.906 61.1374 130.572 61.3576C130.242 61.5742 129.986 61.8583 129.805 62.2099C129.627 62.5579 129.539 62.9361 129.539 63.3445V64.2766C129.539 64.8235 129.634 65.2887 129.826 65.6722C130.021 66.0558 130.293 66.3487 130.641 66.5511C130.989 66.75 131.396 66.8494 131.861 66.8494C132.163 66.8494 132.438 66.8068 132.687 66.7216C132.935 66.6328 133.15 66.5014 133.331 66.3274C133.512 66.1534 133.651 65.9386 133.747 65.6829L135.254 65.9545C135.133 66.3984 134.917 66.7873 134.604 67.1211C134.295 67.4513 133.906 67.7088 133.438 67.8935C132.972 68.0746 132.442 68.1651 131.845 68.1651ZM140.569 68.1651C139.802 68.1651 139.132 67.9893 138.561 67.6378C137.989 67.2862 137.545 66.7944 137.229 66.1623C136.913 65.5302 136.755 64.7915 136.755 63.9464C136.755 63.0977 136.913 62.3555 137.229 61.7198C137.545 61.0842 137.989 60.5906 138.561 60.239C139.132 59.8874 139.802 59.7116 140.569 59.7116C141.336 59.7116 142.005 59.8874 142.577 60.239C143.149 60.5906 143.593 61.0842 143.909 61.7198C144.225 62.3555 144.383 63.0977 144.383 63.9464C144.383 64.7915 144.225 65.5302 143.909 66.1623C143.593 66.7944 143.149 67.2862 142.577 67.6378C142.005 67.9893 141.336 68.1651 140.569 68.1651ZM140.574 66.8281C141.071 66.8281 141.483 66.6967 141.81 66.4339C142.137 66.1712 142.378 65.8214 142.534 65.3846C142.694 64.9478 142.774 64.4666 142.774 63.9411C142.774 63.419 142.694 62.9396 142.534 62.5028C142.378 62.0625 142.137 61.7092 141.81 61.4428C141.483 61.1765 141.071 61.0433 140.574 61.0433C140.073 61.0433 139.658 61.1765 139.328 61.4428C139.001 61.7092 138.758 62.0625 138.598 62.5028C138.442 62.9396 138.364 63.419 138.364 63.9411C138.364 64.4666 138.442 64.9478 138.598 65.3846C138.758 65.8214 139.001 66.1712 139.328 66.4339C139.658 66.6967 140.073 66.8281 140.574 66.8281ZM152.292 61.8157L150.848 62.0714C150.788 61.8867 150.692 61.7109 150.56 61.544C150.433 61.3771 150.259 61.2404 150.038 61.1339C149.818 61.0273 149.543 60.9741 149.213 60.9741C148.762 60.9741 148.385 61.0753 148.083 61.2777C147.782 61.4766 147.631 61.734 147.631 62.0501C147.631 62.3235 147.732 62.5437 147.934 62.7106C148.137 62.8775 148.463 63.0142 148.914 63.1207L150.214 63.419C150.967 63.593 151.528 63.8612 151.897 64.2234C152.267 64.5856 152.451 65.0561 152.451 65.6349C152.451 66.125 152.309 66.5618 152.025 66.9453C151.745 67.3253 151.352 67.6236 150.848 67.8402C150.347 68.0568 149.767 68.1651 149.106 68.1651C148.19 68.1651 147.442 67.9698 146.864 67.5792C146.285 67.185 145.93 66.6257 145.798 65.9013L147.338 65.6669C147.434 66.0682 147.631 66.3718 147.929 66.5778C148.227 66.7802 148.616 66.8814 149.096 66.8814C149.618 66.8814 150.035 66.7731 150.347 66.5565C150.66 66.3363 150.816 66.0682 150.816 65.7521C150.816 65.4964 150.72 65.2816 150.528 65.1076C150.34 64.9336 150.051 64.8022 149.66 64.7134L148.275 64.4098C147.512 64.2358 146.947 63.9588 146.581 63.5788C146.219 63.1989 146.038 62.7177 146.038 62.1353C146.038 61.6523 146.173 61.2298 146.443 60.8675C146.713 60.5053 147.086 60.223 147.561 60.0206C148.037 59.8146 148.582 59.7116 149.197 59.7116C150.081 59.7116 150.777 59.9034 151.285 60.2869C151.793 60.6669 152.128 61.1765 152.292 61.8157Z" fill="white"/>
<rect x="33" y="109" width="132" height="40" rx="20" fill="url(#paint0_linear_848_133)"/>
<path d="M61.5774 127.819C61.549 127.532 61.4271 127.31 61.2116 127.151C60.9962 126.993 60.7038 126.913 60.3345 126.913C60.0836 126.913 59.8717 126.949 59.6989 127.02C59.526 127.089 59.3935 127.184 59.3011 127.308C59.2112 127.431 59.1662 127.57 59.1662 127.727C59.1615 127.857 59.1887 127.97 59.2479 128.067C59.3094 128.165 59.3935 128.249 59.5 128.32C59.6065 128.388 59.7296 128.449 59.8693 128.501C60.009 128.55 60.1581 128.593 60.3168 128.629L60.9702 128.785C61.2874 128.856 61.5786 128.951 61.8438 129.069C62.1089 129.187 62.3385 129.333 62.5327 129.506C62.7268 129.679 62.8771 129.882 62.9837 130.116C63.0926 130.351 63.1482 130.62 63.1506 130.923C63.1482 131.368 63.0346 131.754 62.8097 132.08C62.5871 132.405 62.2652 132.657 61.8438 132.837C61.4247 133.014 60.9193 133.103 60.3274 133.103C59.7403 133.103 59.2289 133.013 58.7933 132.833C58.3601 132.653 58.0215 132.387 57.7777 132.034C57.5362 131.679 57.4096 131.24 57.3977 130.717H58.8857C58.9022 130.96 58.9721 131.164 59.0952 131.327C59.2206 131.488 59.3875 131.61 59.5959 131.693C59.8066 131.774 60.0445 131.814 60.3097 131.814C60.5701 131.814 60.7962 131.776 60.9879 131.7C61.1821 131.625 61.3324 131.519 61.4389 131.384C61.5455 131.249 61.5987 131.094 61.5987 130.919C61.5987 130.756 61.5502 130.618 61.4531 130.507C61.3584 130.396 61.2188 130.301 61.0341 130.223C60.8518 130.145 60.6281 130.074 60.3629 130.01L59.571 129.811C58.9579 129.662 58.4737 129.429 58.1186 129.112C57.7635 128.794 57.5871 128.367 57.5895 127.83C57.5871 127.389 57.7043 127.004 57.9411 126.675C58.1802 126.346 58.508 126.089 58.9247 125.905C59.3414 125.72 59.8149 125.628 60.3452 125.628C60.8849 125.628 61.3561 125.72 61.7585 125.905C62.1634 126.089 62.4782 126.346 62.7031 126.675C62.928 127.004 63.044 127.386 63.0511 127.819H61.5774ZM67.0577 127.545V128.682H63.7729V127.545H67.0577ZM64.5186 126.239H66.0314V131.324C66.0314 131.464 66.0527 131.572 66.0953 131.651C66.138 131.726 66.1971 131.78 66.2729 131.81C66.351 131.841 66.441 131.857 66.5428 131.857C66.6138 131.857 66.6848 131.851 66.7559 131.839C66.8269 131.825 66.8813 131.814 66.9192 131.807L67.1571 132.933C67.0814 132.956 66.9748 132.983 66.8375 133.014C66.7002 133.047 66.5333 133.067 66.3368 133.075C65.9722 133.089 65.6526 133.04 65.378 132.929C65.1058 132.818 64.8939 132.645 64.7424 132.411C64.5908 132.176 64.5163 131.88 64.5186 131.523V126.239ZM69.5985 133.103C69.2505 133.103 68.9404 133.043 68.6681 132.922C68.3959 132.799 68.1805 132.618 68.0218 132.379C67.8656 132.137 67.7875 131.836 67.7875 131.477C67.7875 131.174 67.8431 130.919 67.9544 130.713C68.0656 130.507 68.2172 130.341 68.4089 130.216C68.6007 130.09 68.8185 129.996 69.0623 129.932C69.3085 129.868 69.5666 129.823 69.8365 129.797C70.1537 129.764 70.4094 129.733 70.6035 129.705C70.7976 129.674 70.9385 129.629 71.0261 129.57C71.1137 129.51 71.1575 129.423 71.1575 129.307V129.286C71.1575 129.061 71.0865 128.887 70.9444 128.763C70.8047 128.64 70.6059 128.579 70.3478 128.579C70.0756 128.579 69.859 128.639 69.698 128.76C69.537 128.878 69.4305 129.027 69.3784 129.207L67.9792 129.094C68.0502 128.762 68.1899 128.476 68.3983 128.234C68.6066 127.991 68.8753 127.804 69.2044 127.673C69.5358 127.541 69.9193 127.474 70.3549 127.474C70.658 127.474 70.948 127.51 71.225 127.581C71.5043 127.652 71.7517 127.762 71.9672 127.911C72.185 128.06 72.3566 128.252 72.4821 128.487C72.6075 128.719 72.6703 128.997 72.6703 129.321V133H71.2356V132.244H71.193C71.1054 132.414 70.9882 132.564 70.8414 132.695C70.6947 132.822 70.5183 132.923 70.3123 132.996C70.1064 133.067 69.8684 133.103 69.5985 133.103ZM70.0318 132.059C70.2543 132.059 70.4508 132.015 70.6213 131.928C70.7917 131.838 70.9255 131.717 71.0225 131.565C71.1196 131.414 71.1681 131.242 71.1681 131.05V130.472C71.1208 130.502 71.0557 130.531 70.9728 130.557C70.8923 130.58 70.8012 130.603 70.6994 130.624C70.5976 130.643 70.4958 130.661 70.394 130.678C70.2922 130.692 70.1999 130.705 70.117 130.717C69.9395 130.743 69.7844 130.784 69.6518 130.841C69.5192 130.898 69.4163 130.975 69.3429 131.072C69.2695 131.166 69.2328 131.285 69.2328 131.427C69.2328 131.633 69.3074 131.79 69.4565 131.899C69.608 132.006 69.7998 132.059 70.0318 132.059ZM73.8439 133V127.545H75.3105V128.497H75.3674C75.4668 128.159 75.6337 127.903 75.8681 127.73C76.1025 127.555 76.3723 127.467 76.6777 127.467C76.7535 127.467 76.8352 127.472 76.9228 127.482C77.0104 127.491 77.0873 127.504 77.1536 127.521V128.863C77.0826 128.842 76.9843 128.823 76.8588 128.806C76.7334 128.79 76.6185 128.781 76.5144 128.781C76.2918 128.781 76.093 128.83 75.9178 128.927C75.745 129.022 75.6077 129.154 75.5059 129.325C75.4064 129.495 75.3567 129.692 75.3567 129.914V133H73.8439ZM81.1104 127.545V128.682H77.8256V127.545H81.1104ZM78.5714 126.239H80.0842V131.324C80.0842 131.464 80.1055 131.572 80.1481 131.651C80.1907 131.726 80.2499 131.78 80.3256 131.81C80.4038 131.841 80.4937 131.857 80.5955 131.857C80.6665 131.857 80.7376 131.851 80.8086 131.839C80.8796 131.825 80.9341 131.814 80.9719 131.807L81.2099 132.933C81.1341 132.956 81.0276 132.983 80.8903 133.014C80.753 133.047 80.5861 133.067 80.3896 133.075C80.025 133.089 79.7054 133.04 79.4308 132.929C79.1585 132.818 78.9466 132.645 78.7951 132.411C78.6436 132.176 78.569 131.88 78.5714 131.523V126.239ZM84.1618 126.995V125.727H90.1348V126.995H87.9082V133H86.3883V126.995H84.1618ZM92.6028 129.847V133H91.09V125.727H92.5602V128.508H92.6241C92.7472 128.186 92.9461 127.934 93.2207 127.751C93.4953 127.567 93.8398 127.474 94.2541 127.474C94.6329 127.474 94.9631 127.557 95.2449 127.723C95.5289 127.886 95.7491 128.122 95.9054 128.43C96.064 128.735 96.1421 129.101 96.1397 129.527V133H94.627V129.797C94.6293 129.461 94.5441 129.199 94.3713 129.012C94.2008 128.825 93.9617 128.732 93.6539 128.732C93.448 128.732 93.2657 128.775 93.1071 128.863C92.9508 128.951 92.8277 129.078 92.7377 129.246C92.6502 129.412 92.6052 129.612 92.6028 129.847ZM99.8161 133.107C99.255 133.107 98.772 132.993 98.3672 132.766C97.9647 132.536 97.6546 132.212 97.4368 131.793C97.219 131.371 97.1101 130.873 97.1101 130.298C97.1101 129.737 97.219 129.244 97.4368 128.82C97.6546 128.397 97.9612 128.066 98.3565 127.83C98.7543 127.593 99.2206 127.474 99.7557 127.474C100.116 127.474 100.451 127.532 100.761 127.648C101.073 127.762 101.345 127.934 101.577 128.163C101.812 128.393 101.994 128.682 102.124 129.03C102.254 129.375 102.32 129.78 102.32 130.244V130.66H97.7138V129.722H100.896C100.896 129.504 100.848 129.312 100.754 129.143C100.659 128.975 100.527 128.844 100.359 128.749C100.194 128.652 100.001 128.604 99.7805 128.604C99.5509 128.604 99.3473 128.657 99.1697 128.763C98.9946 128.868 98.8572 129.009 98.7578 129.186C98.6584 129.361 98.6075 129.557 98.6051 129.772V130.663C98.6051 130.933 98.6548 131.166 98.7543 131.363C98.8561 131.559 98.9993 131.711 99.1839 131.817C99.3686 131.924 99.5876 131.977 99.8409 131.977C100.009 131.977 100.163 131.954 100.303 131.906C100.442 131.859 100.562 131.788 100.661 131.693C100.761 131.598 100.836 131.482 100.888 131.345L102.288 131.438C102.217 131.774 102.071 132.067 101.851 132.318C101.633 132.567 101.351 132.761 101.006 132.901C100.662 133.038 100.266 133.107 99.8161 133.107ZM112.067 128.273H110.511C110.483 128.072 110.425 127.893 110.337 127.737C110.25 127.579 110.137 127.444 110 127.332C109.863 127.221 109.704 127.136 109.524 127.077C109.346 127.018 109.153 126.988 108.945 126.988C108.569 126.988 108.241 127.081 107.961 127.268C107.682 127.453 107.465 127.723 107.312 128.078C107.158 128.431 107.081 128.859 107.081 129.364C107.081 129.882 107.158 130.318 107.312 130.67C107.468 131.023 107.686 131.29 107.965 131.469C108.244 131.649 108.568 131.739 108.934 131.739C109.14 131.739 109.331 131.712 109.506 131.658C109.684 131.603 109.841 131.524 109.979 131.42C110.116 131.313 110.229 131.184 110.319 131.033C110.412 130.881 110.476 130.708 110.511 130.514L112.067 130.521C112.026 130.855 111.926 131.177 111.765 131.487C111.606 131.795 111.392 132.071 111.122 132.315C110.854 132.556 110.535 132.748 110.163 132.89C109.794 133.03 109.376 133.099 108.91 133.099C108.261 133.099 107.681 132.953 107.17 132.659C106.661 132.366 106.258 131.941 105.962 131.384C105.669 130.828 105.522 130.154 105.522 129.364C105.522 128.571 105.671 127.896 105.969 127.339C106.268 126.783 106.672 126.359 107.184 126.068C107.695 125.775 108.27 125.628 108.91 125.628C109.331 125.628 109.722 125.687 110.081 125.805C110.444 125.924 110.765 126.097 111.044 126.324C111.323 126.549 111.55 126.825 111.726 127.151C111.903 127.478 112.017 127.852 112.067 128.273ZM115.605 133.107C115.054 133.107 114.577 132.989 114.174 132.755C113.774 132.518 113.465 132.189 113.247 131.768C113.03 131.344 112.921 130.853 112.921 130.294C112.921 129.731 113.03 129.238 113.247 128.817C113.465 128.393 113.774 128.064 114.174 127.83C114.577 127.593 115.054 127.474 115.605 127.474C116.157 127.474 116.633 127.593 117.033 127.83C117.435 128.064 117.745 128.393 117.963 128.817C118.181 129.238 118.29 129.731 118.29 130.294C118.29 130.853 118.181 131.344 117.963 131.768C117.745 132.189 117.435 132.518 117.033 132.755C116.633 132.989 116.157 133.107 115.605 133.107ZM115.612 131.935C115.863 131.935 116.073 131.864 116.241 131.722C116.409 131.577 116.536 131.381 116.621 131.132C116.709 130.884 116.752 130.601 116.752 130.283C116.752 129.966 116.709 129.683 116.621 129.435C116.536 129.186 116.409 128.99 116.241 128.845C116.073 128.701 115.863 128.629 115.612 128.629C115.359 128.629 115.146 128.701 114.973 128.845C114.803 128.99 114.674 129.186 114.586 129.435C114.501 129.683 114.458 129.966 114.458 130.283C114.458 130.601 114.501 130.884 114.586 131.132C114.674 131.381 114.803 131.577 114.973 131.722C115.146 131.864 115.359 131.935 115.612 131.935ZM122.771 130.678V127.545H124.284V133H122.832V132.009H122.775C122.652 132.329 122.447 132.586 122.161 132.78C121.877 132.974 121.53 133.071 121.12 133.071C120.756 133.071 120.435 132.988 120.158 132.822C119.881 132.657 119.664 132.421 119.508 132.116C119.354 131.81 119.276 131.445 119.274 131.018V127.545H120.786V130.749C120.789 131.071 120.875 131.325 121.046 131.512C121.216 131.699 121.445 131.793 121.731 131.793C121.913 131.793 122.084 131.751 122.242 131.668C122.401 131.583 122.529 131.458 122.626 131.292C122.725 131.126 122.774 130.921 122.771 130.678ZM125.494 133V127.545H126.961V128.497H127.018C127.117 128.159 127.284 127.903 127.518 127.73C127.753 127.555 128.023 127.467 128.328 127.467C128.404 127.467 128.486 127.472 128.573 127.482C128.661 127.491 128.738 127.504 128.804 127.521V128.863C128.733 128.842 128.635 128.823 128.509 128.806C128.384 128.79 128.269 128.781 128.165 128.781C127.942 128.781 127.743 128.83 127.568 128.927C127.395 129.022 127.258 129.154 127.156 129.325C127.057 129.495 127.007 129.692 127.007 129.914V133H125.494ZM134.124 129.101L132.74 129.186C132.716 129.068 132.665 128.961 132.587 128.866C132.509 128.769 132.406 128.692 132.278 128.636C132.152 128.576 132.002 128.547 131.827 128.547C131.593 128.547 131.395 128.597 131.234 128.696C131.073 128.793 130.992 128.923 130.992 129.087C130.992 129.217 131.044 129.327 131.149 129.417C131.253 129.507 131.432 129.579 131.685 129.634L132.672 129.832C133.202 129.941 133.598 130.116 133.858 130.358C134.119 130.599 134.249 130.917 134.249 131.31C134.249 131.667 134.143 131.981 133.933 132.251C133.724 132.521 133.438 132.731 133.073 132.883C132.711 133.032 132.293 133.107 131.82 133.107C131.098 133.107 130.522 132.956 130.094 132.656C129.668 132.353 129.418 131.941 129.345 131.42L130.833 131.342C130.878 131.562 130.986 131.73 131.159 131.846C131.332 131.96 131.553 132.016 131.823 132.016C132.088 132.016 132.302 131.965 132.463 131.864C132.626 131.759 132.709 131.626 132.711 131.462C132.709 131.325 132.651 131.213 132.537 131.125C132.423 131.035 132.248 130.966 132.012 130.919L131.067 130.731C130.534 130.624 130.138 130.44 129.877 130.177C129.619 129.914 129.49 129.579 129.49 129.172C129.49 128.821 129.585 128.52 129.774 128.266C129.966 128.013 130.235 127.818 130.58 127.68C130.928 127.543 131.336 127.474 131.802 127.474C132.491 127.474 133.033 127.62 133.428 127.911C133.826 128.202 134.058 128.599 134.124 129.101ZM137.687 133.107C137.126 133.107 136.643 132.993 136.238 132.766C135.836 132.536 135.526 132.212 135.308 131.793C135.09 131.371 134.981 130.873 134.981 130.298C134.981 129.737 135.09 129.244 135.308 128.82C135.526 128.397 135.832 128.066 136.228 127.83C136.625 127.593 137.092 127.474 137.627 127.474C137.987 127.474 138.322 127.532 138.632 127.648C138.944 127.762 139.217 127.934 139.449 128.163C139.683 128.393 139.865 128.682 139.995 129.03C140.126 129.375 140.191 129.78 140.191 130.244V130.66H135.585V129.722H138.767C138.767 129.504 138.719 129.312 138.625 129.143C138.53 128.975 138.399 128.844 138.23 128.749C138.065 128.652 137.872 128.604 137.652 128.604C137.422 128.604 137.218 128.657 137.041 128.763C136.866 128.868 136.728 129.009 136.629 129.186C136.529 129.361 136.479 129.557 136.476 129.772V130.663C136.476 130.933 136.526 131.166 136.625 131.363C136.727 131.559 136.87 131.711 137.055 131.817C137.24 131.924 137.459 131.977 137.712 131.977C137.88 131.977 138.034 131.954 138.174 131.906C138.313 131.859 138.433 131.788 138.532 131.693C138.632 131.598 138.708 131.482 138.76 131.345L140.159 131.438C140.088 131.774 139.942 132.067 139.722 132.318C139.504 132.567 139.222 132.761 138.877 132.901C138.533 133.038 138.137 133.107 137.687 133.107Z" fill="white"/>
<path d="M299.766 131.877C299.766 131.877 312.413 135.464 318.406 135.707L325.586 138.983C326.54 139.418 326.811 140.649 326.122 141.446C325.738 141.892 325.134 142.084 324.563 141.948L318.169 140.412L302.071 140.536L299.766 131.883V131.877Z" fill="#F2C7C4"/>
<path d="M295.53 139.468C296.224 143.366 305.087 141.948 308.165 141.948C310.487 141.948 314.893 141.852 316.915 141.807C317.553 141.79 318.113 141.383 318.322 140.779C318.632 139.881 318.056 138.915 317.113 138.768L309.928 137.644L298.958 131.662L295.524 139.468H295.53Z" fill="#F2C7C4"/>
<path d="M303.579 133.04L318.406 134.769L322.914 139.084C323.478 139.626 323.535 140.508 323.049 141.118C322.558 141.733 321.677 141.863 321.027 141.423L317.113 138.774L303.579 139.096V133.04Z" fill="#F2C7C4"/>
<path d="M294.79 55.5647C300.501 78.1193 303.003 123.664 303.003 123.664L286.233 122.873L284.482 59.8689L294.79 55.5647Z" fill="#F2C7C4"/>
<path d="M242.202 53.5596C233.819 76.7638 236.203 99.0812 225.16 134.757L234.983 139.474C248.308 116.016 255.499 60.4056 255.499 60.4056L242.208 53.5652L242.202 53.5596Z" fill="#F2C7C4"/>
<path d="M230.741 131.877C230.741 131.877 218.094 135.464 212.101 135.707L204.922 138.983C203.967 139.418 203.696 140.649 204.385 141.446C204.769 141.892 205.374 142.084 205.944 141.948L212.338 140.412L228.437 140.536L230.741 131.883V131.877Z" fill="#F2C7C4"/>
<path d="M234.977 139.468C234.283 143.366 225.42 141.948 222.342 141.948C220.02 141.948 215.614 141.852 213.592 141.807C212.954 141.79 212.394 141.383 212.185 140.779C211.875 139.881 212.451 138.915 213.394 138.768L220.579 137.644L231.549 131.662L234.983 139.468H234.977Z" fill="#F2C7C4"/>
<path d="M226.928 133.04L212.101 134.769L207.593 139.084C207.028 139.626 206.972 140.508 207.458 141.118C207.949 141.733 208.83 141.863 209.48 141.423L213.394 138.774L226.928 139.096V133.04Z" fill="#F2C7C4"/>
<path d="M248.308 94.6133L240.456 120.952C240.456 120.952 239.135 141.954 264.858 141.485C290.582 141.01 294.79 125.324 294.79 125.324L283.668 94.6133H248.308Z" fill="#345870"/>
<path d="M243.49 111.525C243.14 113.321 242.936 114.123 242.936 114.123C242.936 114.123 262.559 123.732 292.807 113.592L292.519 110.13L290.508 86.4398H290.52L291.638 86.0444L291.853 85.971L304.336 81.6216C303.844 79.7858 303.364 78.0348 302.901 76.3685C299.054 62.5917 296.123 54.4916 293.118 51.8368C290.548 49.5718 286.351 50.0858 280.386 52.5598C276.963 53.972 272.964 56.028 268.355 58.5755C268.355 58.5755 263.632 55.4462 258.074 52.927C252.996 50.6167 247.235 48.8205 243.766 50.3964C239.236 52.4525 235.299 67.4155 233.475 75.4647C232.791 78.5036 232.402 80.5597 232.402 80.5597L245.585 84.0279L247.071 84.4176L247.246 84.4685L247.308 84.4854C245.659 99.3185 244.224 107.69 243.478 111.531L243.49 111.525Z" fill="#69A0E1"/>
<path d="M242.937 114.123C242.937 114.123 262.56 123.731 292.808 113.592L292.519 110.13C277.257 112.965 253.697 112.09 243.49 111.53C243.14 113.327 242.937 114.129 242.937 114.129V114.123Z" fill="#5186C7"/>
<path d="M290.983 81.7117L291.644 86.0441L291.859 85.9707L304.342 81.6213C303.851 79.7855 303.37 78.0345 302.907 76.3682L290.989 81.7117H290.983Z" fill="#5186C7"/>
<path d="M257.504 56.5587C257.504 63.0772 262.78 68.3529 269.292 68.3529C275.805 68.3529 281.086 63.0772 281.086 56.5587C281.086 55.1523 280.838 53.8079 280.392 52.5596C276.969 53.9717 272.97 56.0278 268.36 58.5753C268.36 58.5753 263.638 55.446 258.08 52.9267C257.707 54.0734 257.504 55.2935 257.504 56.5587Z" fill="#5186C7"/>
<path d="M259.086 97.6237C259.927 97.104 261.249 97.2678 262.215 97.1831C263.254 97.0927 264.288 96.9741 265.322 96.8272C267.412 96.5335 269.473 96.1155 271.518 95.6128C275.63 94.6017 279.618 93.2291 283.414 91.3481C284.34 90.8906 285.137 92.2576 284.21 92.7546C280.358 94.8276 276.297 96.573 272.083 97.7649C269.976 98.3636 267.813 98.8099 265.649 99.1488C264.599 99.3126 263.542 99.4425 262.486 99.5442C261.413 99.6515 260.074 99.9735 259.08 99.482C258.312 99.1036 258.425 98.0191 259.08 97.6124L259.086 97.6237Z" fill="#5186C7"/>
<path d="M259.125 91.4611C260.029 91.1278 261.204 91.5458 262.142 91.6305C263.181 91.7322 264.226 91.783 265.271 91.783C267.316 91.783 269.377 91.6023 271.377 91.173C272.332 90.9696 272.71 92.3648 271.761 92.6473C269.632 93.2743 267.485 93.6979 265.271 93.8561C264.192 93.9351 263.107 93.9464 262.029 93.8899C260.91 93.8335 259.577 93.8787 258.668 93.1443C258.012 92.6134 258.493 91.6927 259.125 91.4554V91.4611Z" fill="#5186C7"/>
<path d="M259.944 116.603C255.883 111.282 230.029 86.1517 222.189 98.3695C214.355 110.582 224.324 128.488 242.241 137.118C260.153 145.749 275.528 137.022 259.944 116.603Z" fill="#345870"/>
<path d="M221.223 107.933C223.822 113.92 228.115 118.964 232.854 123.37C235.35 125.692 238.011 127.821 240.733 129.872C243.354 131.843 245.998 133.803 248.72 135.633C251.443 137.463 254.358 138.949 257.696 139.073C258.43 139.101 258.346 140.124 257.656 140.186C254.634 140.434 251.737 139.056 249.234 137.497C246.45 135.769 243.823 133.758 241.191 131.809C235.689 127.742 230.334 123.37 226.2 117.868C223.952 114.875 222.11 111.655 220.828 108.13C220.732 107.871 221.105 107.662 221.218 107.927L221.223 107.933Z" fill="#3A6885"/>
<path d="M251.94 108.26C256.634 111.841 260.752 116.298 263.604 121.495C264.412 122.963 265.129 124.477 265.762 126.031C266.073 126.799 264.898 127.33 264.587 126.556C262.429 121.179 259.272 116.208 255.29 111.994C254.16 110.796 252.962 109.65 251.692 108.599C251.488 108.43 251.72 108.091 251.934 108.26H251.94Z" fill="#3A6885"/>
<path d="M298.608 151.811L306.172 132.335C303.517 131.549 301.224 131.318 301.224 131.318L291.395 149.969C297.219 152.28 298.608 151.811 298.608 151.811Z" fill="white"/>
<path d="M293.694 148.546C292.982 149.105 292.214 149.585 291.395 149.975C290.333 149.551 288.949 148.952 287.249 148.229C285.673 147.557 283.815 146.755 281.702 145.851C279.415 144.874 276.816 143.778 273.919 142.592C273.851 139.028 274.303 135.091 275.438 131.679H275.444C281.296 132.837 290.644 131.431 297.371 131.188C299.105 131.12 300.467 131.142 301.212 131.312C301.998 132.278 300.156 143.468 293.688 148.534L293.694 148.546Z" fill="#3A6885"/>
<path d="M264.316 127.94C263.452 127.533 262.525 127.093 261.531 126.59C262.525 127.093 263.446 127.544 264.316 127.94Z" fill="#E0954A"/>
<path d="M255.538 123.46C255.866 123.641 256.182 123.811 256.493 123.98C256.182 123.805 255.866 123.636 255.538 123.46Z" fill="#E0954A"/>
<path d="M275.444 131.685C274.308 135.097 273.856 139.034 273.924 142.598C268.97 140.564 262.52 139.96 255.968 137.531L255.533 123.466C255.86 123.641 256.177 123.805 256.487 123.975C257.114 124.308 257.724 124.63 258.306 124.935C258.877 125.24 259.436 125.528 259.972 125.805H259.978C260.509 126.082 261.029 126.347 261.52 126.59H261.526C262.52 127.093 263.441 127.545 264.31 127.94C265.83 128.652 267.163 129.217 268.411 129.697C268.761 129.832 269.106 129.956 269.445 130.081C269.62 130.137 269.79 130.199 269.965 130.25C270.298 130.374 270.626 130.476 270.959 130.572C271.123 130.623 271.286 130.674 271.461 130.725C271.783 130.821 272.105 130.917 272.433 131.001C273.416 131.256 274.399 131.482 275.438 131.685H275.444Z" fill="#F2C7C4"/>
<path d="M255.973 137.531L255.538 123.466V123.46H255.533L255.973 137.531Z" fill="#F2C7C4"/>
<path d="M287.334 148.274C285.707 147.58 283.798 146.755 281.629 145.834C283.397 145.236 286.571 145.908 287.334 148.274Z" fill="white"/>
<path d="M301.224 131.323C302.918 133.814 301.004 144.705 293.7 148.546C291.068 140.852 293.994 130.888 301.224 131.323Z" fill="white"/>
<path d="M275.929 126.799C275.195 126.855 274.67 127.443 274.511 128.211C274.161 129.894 275.387 131.979 276.387 133.278C277.381 134.571 278.59 135.588 279.951 136.266C278.855 136.322 277.793 136.577 276.81 137.074C275.387 137.791 273.992 138.994 273.286 140.564C272.653 141.982 272.885 144.219 274.534 144.919C276.172 145.614 277.759 144.134 278.77 143.05C279.951 141.779 281.03 140.033 281.47 138.158C281.374 139.401 281.42 140.666 281.561 141.926C281.583 142.129 281.843 142.112 281.838 141.914C281.798 140.508 281.917 139.124 282.12 137.757C282.222 137.085 282.352 136.418 282.515 135.774C282.674 135.159 282.973 134.52 283.046 133.877C283.08 133.566 282.679 133.312 282.504 133.577C282.21 134.018 282.075 134.633 281.951 135.193C281.696 132.301 280.092 129.267 277.895 127.578C277.319 127.138 276.613 126.748 275.929 126.799ZM279.064 141.457C278.24 142.615 277.019 144.061 275.59 144.287C274.873 144.4 274.19 144.038 273.851 143.264C273.495 142.445 273.636 141.564 273.986 140.852C274.647 139.508 275.856 138.491 277.093 137.842C278.302 137.209 279.657 136.91 281.041 136.932C281.041 136.944 281.03 136.949 281.03 136.955C280.522 138.582 280.03 140.101 279.064 141.457ZM277.788 128.386C278.85 129.329 279.731 130.55 280.335 131.888C280.945 133.238 281.245 134.684 281.363 136.136C281.341 136.125 281.324 136.108 281.301 136.096C279.917 135.577 278.624 134.662 277.562 133.509C276.562 132.419 275.613 130.939 275.28 129.448C275.105 128.674 275.246 127.641 276.076 127.567C276.686 127.516 277.308 127.963 277.788 128.386Z" fill="white"/>
<path d="M284.702 134.724C283.877 137.277 283.928 140.259 284.645 142.993C284.702 143.208 285.035 143.151 284.99 142.931C284.713 141.598 284.589 140.237 284.628 138.904C284.668 137.554 284.905 136.288 285.238 135.023C285.272 134.904 285.261 134.729 285.148 134.645C285.103 134.611 285.069 134.582 285.012 134.571C284.894 134.543 284.753 134.605 284.713 134.729L284.702 134.724Z" fill="white"/>
<path d="M288.074 134.673C286.978 137.118 286.475 140.016 286.43 142.824C286.43 143.151 286.877 143.281 286.899 142.942C286.99 141.57 287.182 140.208 287.464 138.886C287.752 137.531 288.198 136.271 288.656 134.995C288.803 134.588 288.243 134.283 288.074 134.667V134.673Z" fill="white"/>
<path d="M291.039 134.758C291.011 134.763 290.977 134.769 290.949 134.775C290.842 134.797 290.791 134.916 290.768 135.017C290.604 135.707 290.367 136.367 290.215 137.068C290.062 137.763 289.944 138.469 289.848 139.186C289.667 140.593 289.61 142.016 289.684 143.462C289.701 143.744 290.136 143.795 290.136 143.513C290.136 142.106 290.226 140.7 290.418 139.333C290.508 138.672 290.627 138.017 290.774 137.367C290.932 136.656 291.073 135.91 291.339 135.249C291.378 135.142 291.361 135.017 291.299 134.916C291.282 134.893 291.265 134.865 291.254 134.842C291.203 134.758 291.118 134.741 291.039 134.758Z" fill="white"/>
<path d="M255.386 138.875L264.485 141.061L268.739 128.211L253.437 119.264L255.386 138.875Z" fill="#345870"/>
<path d="M300.45 106.549C293.994 108.317 260.995 122.839 269.372 134.69C277.748 146.54 298.089 144.021 312.815 130.662C327.54 117.304 325.23 99.7761 300.45 106.549Z" fill="#345870"/>
<path d="M239.683 154.047L231.43 134.853C234.057 133.972 236.339 133.662 236.339 133.662L246.823 151.946C241.084 154.46 239.677 154.042 239.677 154.042L239.683 154.047Z" fill="white"/>
<path d="M262.113 133.114C263.367 136.481 263.96 140.401 264.017 143.965C261.164 145.253 258.605 146.439 256.352 147.495C254.273 148.467 252.448 149.337 250.895 150.065C249.223 150.845 247.862 151.494 246.817 151.958C245.981 151.602 245.201 151.144 244.467 150.613C237.819 145.778 235.582 134.656 236.333 133.668C237.067 133.47 238.429 133.396 240.169 133.402C246.902 133.402 256.289 134.481 262.102 133.114H262.107H262.113Z" fill="#3A6885"/>
<path d="M273.1 128.973C273.953 128.538 274.856 128.064 275.834 127.522C274.856 128.058 273.953 128.544 273.1 128.973Z" fill="#E0954A"/>
<path d="M281.714 124.184C281.397 124.376 281.087 124.556 280.782 124.732C281.087 124.545 281.397 124.364 281.714 124.184Z" fill="#E0954A"/>
<path d="M281.781 138.26C275.319 140.92 268.891 141.756 264.016 143.965C263.954 140.401 263.367 136.48 262.113 133.114C263.147 132.877 264.118 132.611 265.09 132.323C265.417 132.227 265.734 132.12 266.05 132.012C266.219 131.956 266.383 131.899 266.547 131.843C266.875 131.73 267.197 131.617 267.53 131.481C267.699 131.425 267.874 131.357 268.044 131.295C268.377 131.16 268.722 131.024 269.066 130.877C270.298 130.352 271.614 129.742 273.105 128.974C273.958 128.544 274.862 128.064 275.839 127.522C275.839 127.522 275.845 127.528 275.845 127.522C276.33 127.256 276.833 126.974 277.358 126.68H277.364C277.895 126.386 278.437 126.081 279.002 125.754C279.573 125.426 280.171 125.087 280.781 124.731C281.086 124.551 281.397 124.376 281.713 124.189L281.781 138.26Z" fill="#F2C7C4"/>
<path d="M281.781 138.26L281.713 124.189V124.184H281.719L281.781 138.26Z" fill="#F2C7C4"/>
<path d="M250.822 150.116C252.426 149.365 254.301 148.472 256.436 147.473C254.646 146.936 251.499 147.721 250.822 150.116Z" fill="white"/>
<path d="M236.339 133.667C234.735 136.22 237.034 147.032 244.473 150.613C246.828 142.829 243.552 132.978 236.339 133.667Z" fill="white"/>
<path d="M259.52 129.098C257.385 130.866 255.888 133.95 255.741 136.848C255.594 136.294 255.442 135.684 255.131 135.255C254.945 134.995 254.561 135.266 254.6 135.577C254.691 136.215 255.013 136.842 255.193 137.452C255.385 138.096 255.538 138.757 255.662 139.423C255.916 140.779 256.086 142.157 256.091 143.564C256.091 143.756 256.351 143.767 256.368 143.564C256.464 142.298 256.464 141.033 256.323 139.796C256.831 141.654 257.967 143.36 259.198 144.592C260.249 145.642 261.887 147.06 263.497 146.309C265.118 145.552 265.27 143.304 264.587 141.914C263.83 140.367 262.39 139.22 260.944 138.548C259.944 138.085 258.871 137.87 257.775 137.853C259.108 137.13 260.283 136.068 261.226 134.741C262.175 133.408 263.333 131.278 262.921 129.606C262.734 128.844 262.192 128.279 261.452 128.245C260.768 128.217 260.074 128.629 259.514 129.092L259.52 129.098ZM256.724 138.582C256.724 138.582 256.713 138.565 256.707 138.559C258.091 138.491 259.458 138.74 260.689 139.327C261.949 139.932 263.197 140.903 263.903 142.225C264.276 142.925 264.451 143.801 264.124 144.631C263.813 145.416 263.141 145.8 262.423 145.716C260.989 145.541 259.712 144.14 258.848 143.01C257.837 141.694 257.295 140.191 256.724 138.582ZM261.339 129.024C262.169 129.069 262.35 130.098 262.203 130.877C261.921 132.374 261.028 133.893 260.068 135.017C259.051 136.209 257.786 137.169 256.425 137.734C256.402 137.746 256.385 137.763 256.363 137.774C256.43 136.322 256.679 134.865 257.238 133.492C257.792 132.137 258.628 130.883 259.656 129.9C260.119 129.459 260.729 128.99 261.339 129.024Z" fill="white"/>
<path d="M252.968 136.48C253.883 139 253.934 141.988 253.318 144.744C253.268 144.964 252.934 144.914 252.974 144.693C253.205 143.355 253.279 141.988 253.194 140.655C253.109 139.305 252.821 138.051 252.449 136.797C252.415 136.678 252.415 136.503 252.528 136.412C252.573 136.379 252.607 136.35 252.658 136.333C252.776 136.3 252.917 136.356 252.963 136.48H252.968Z" fill="white"/>
<path d="M249.601 136.548C250.782 138.955 251.386 141.83 251.533 144.637C251.55 144.965 251.104 145.111 251.07 144.773C250.929 143.406 250.691 142.05 250.364 140.745C250.025 139.401 249.539 138.158 249.036 136.898C248.878 136.497 249.421 136.17 249.607 136.554L249.601 136.548Z" fill="white"/>
<path d="M246.636 136.74C246.664 136.74 246.698 136.752 246.727 136.757C246.834 136.774 246.89 136.893 246.919 136.994C247.105 137.678 247.365 138.333 247.54 139.022C247.715 139.711 247.862 140.417 247.981 141.124C248.212 142.524 248.32 143.942 248.291 145.394C248.291 145.676 247.851 145.744 247.839 145.462C247.783 144.061 247.647 142.654 247.41 141.293C247.291 140.632 247.15 139.983 246.986 139.344C246.806 138.638 246.636 137.898 246.348 137.249C246.303 137.147 246.314 137.017 246.376 136.915C246.393 136.893 246.405 136.865 246.422 136.842C246.472 136.757 246.552 136.74 246.631 136.752L246.636 136.74Z" fill="white"/>
<path d="M281.906 122.167C281.55 122.274 264.977 130.939 264.977 130.939L269.761 143.05L285.837 139.627L281.906 122.167Z" fill="#345870"/>
<path d="M265.304 130.821C267.293 129.652 269.388 128.697 271.518 127.81C271.506 127.533 271.506 127.257 271.518 126.98C271.653 124.336 272.856 121.806 274.72 119.947C274.896 119.778 275.161 120.032 274.992 120.207C273.246 122.032 272.325 124.511 272.416 127.031C272.455 128.138 272.681 129.245 273.094 130.273C273.291 130.77 273.529 131.25 273.8 131.708C274.093 132.21 274.557 132.668 274.754 133.216C274.918 133.679 274.331 134.136 273.913 133.882C273.382 133.549 273.043 132.882 272.749 132.34C272.444 131.781 272.184 131.188 271.998 130.578C271.811 129.985 271.676 129.375 271.597 128.759C269.671 129.668 267.812 130.719 265.988 131.809C267.084 135.136 268.371 138.401 269.801 141.598C272.105 140.508 274.754 139.875 277.302 140.005C276.969 139.638 276.669 139.237 276.426 138.802C275.873 137.825 275.607 136.769 275.511 135.656C275.494 135.453 275.839 135.396 275.873 135.605C276.048 136.594 276.539 137.537 277.155 138.328C277.381 138.616 277.635 138.876 277.906 139.13C277.974 139.102 278.053 139.085 278.143 139.085C284.566 139.164 290.954 137.904 296.908 135.52C302.828 133.154 308.324 129.77 313.018 125.449C315.672 123.003 318.141 120.281 320.174 117.293C320.332 117.055 320.728 117.264 320.57 117.507C318.796 120.247 316.819 122.834 314.537 125.172C312.249 127.516 309.719 129.623 307.024 131.487C301.653 135.204 295.569 137.836 289.181 139.226C286.012 139.915 282.775 140.299 279.533 140.356C279.674 140.536 279.714 140.785 279.595 141.005C279.437 141.288 279.075 141.389 278.793 141.237C278.561 141.112 278.335 140.96 278.121 140.79C278.053 140.932 277.912 141.045 277.692 141.039C276.313 141.028 274.98 141.09 273.625 141.4C272.292 141.7 271.015 142.174 269.806 142.807C269.563 142.931 269.179 142.903 269.049 142.621C267.428 139.073 266.135 135.402 265.118 131.64C264.954 131.38 264.965 131.018 265.299 130.821H265.304Z" fill="#3A6885"/>
<path d="M248.427 75.0465C251.07 74.7471 253.736 75.2273 256.385 75.3911C259.001 75.5492 261.616 75.6227 264.237 75.6114C269.496 75.5888 274.76 75.2216 279.979 74.5833C282.945 74.2218 285.922 73.849 288.904 73.6005C289.921 73.5158 289.864 74.9674 289.045 75.2442C283.99 76.9614 278.579 77.6561 273.269 78.0628C267.954 78.4695 262.61 78.5373 257.284 78.2549C255.832 78.1758 254.38 78.0741 252.934 77.9442C251.341 77.803 249.844 77.6561 248.342 77.0969C247.444 76.7637 247.286 75.1764 248.427 75.0465Z" fill="#EBF4FA"/>
<path d="M247.67 81.4917C253.216 82.1808 258.724 83.0337 264.316 83.3557C269.846 83.6777 275.393 83.6042 280.911 83.2823C284.086 83.0959 287.272 83.0168 290.429 82.6044C291.361 82.4802 291.672 83.8076 290.728 83.994C287.978 84.5419 285.238 85.2141 282.453 85.5643C279.595 85.9258 276.72 86.1517 273.834 86.2477C268.151 86.4398 262.435 86.2534 256.781 85.6038C253.55 85.231 250.347 84.7678 247.206 83.9488C245.789 83.5816 246.184 81.3109 247.67 81.4917Z" fill="#EBF4FA"/>
<path d="M289.26 73.1769C289.164 73.4198 289.237 73.6457 289.373 73.8152C289.379 73.866 289.379 73.9112 289.384 73.962C289.537 76.1028 289.684 78.2436 289.859 80.3844C289.949 81.4238 290.034 82.4744 290.124 83.5194C290.203 84.4909 290.226 85.4964 290.52 86.434L291.853 85.9765C291.904 85.1575 291.796 84.3497 291.723 83.525C291.627 82.4292 291.531 81.3334 291.435 80.2376C291.254 78.1476 291.034 76.0577 290.825 73.9677C290.813 73.8547 290.802 73.7361 290.791 73.6231C291.147 73.0978 291.407 72.4821 291.649 71.9116C291.921 71.2564 292.169 70.5899 292.389 69.912C292.83 68.5451 293.135 67.1273 293.327 65.6982C293.361 65.4214 293.254 65.1277 292.943 65.0543C292.683 64.9865 292.344 65.1447 292.293 65.4271C292.067 66.8053 291.7 68.1553 291.175 69.4489C290.977 69.9403 290.74 70.4204 290.497 70.8892C290.141 67.63 289.74 64.3765 289.373 61.1172C289.322 60.6597 288.611 60.6315 288.633 61.1172C288.87 65.0882 289.057 69.0704 289.328 73.0413C289.305 73.0922 289.277 73.1317 289.26 73.1825V73.1769Z" fill="#5186C7"/>
<path d="M244.569 68.6128C244.891 69.9741 245.173 71.3467 245.501 72.708C245.664 73.3802 245.823 74.0467 245.992 74.7133C246.128 75.2725 246.178 76.035 246.574 76.4813C246.438 77.7917 246.303 79.0965 246.145 80.4013C246.003 81.6045 245.761 82.8189 245.597 84.0277L247.257 84.4627C247.489 83.1183 247.579 81.7175 247.726 80.3957C247.918 78.5882 248.037 76.7863 248.071 74.9674C248.15 71.2225 248.11 67.5227 247.834 63.7946C247.8 63.2919 247.031 63.2806 247.048 63.7946C247.127 66.8731 247.088 69.9967 246.873 73.0808C246.805 72.8549 246.738 72.629 246.67 72.403C246.263 71.0587 245.811 69.7312 245.399 68.3925C245.235 67.8729 244.45 68.0762 244.574 68.6128H244.569Z" fill="#5186C7"/>
<path d="M232.413 80.5596L245.597 84.0278L247.082 84.4176L247.726 80.4014L233.486 75.4646C232.803 78.5035 232.413 80.5596 232.413 80.5596Z" fill="#5186C7"/>
<path d="M281.589 29.198L277.542 30.1741C275.428 30.6839 274.128 32.8107 274.637 34.9245L275.849 39.9488C276.359 42.0626 278.486 43.3628 280.6 42.853L284.647 41.8769C286.76 41.3671 288.061 39.2403 287.551 37.1266L286.339 32.1022C285.829 29.9885 283.702 28.6882 281.589 29.198Z" fill="white"/>
<path d="M279.59 42.703C277.952 42.703 276.54 41.5902 276.155 39.9973L274.885 34.7385C274.664 33.8235 274.811 32.8689 275.303 32.0668C275.794 31.259 276.573 30.6942 277.489 30.4739L278.974 30.118C279.245 30.0502 279.528 30.0164 279.804 30.0164C281.443 30.0164 282.855 31.1291 283.239 32.722L284.504 37.9808C284.724 38.8959 284.577 39.8505 284.086 40.6526C283.595 41.4603 282.815 42.0252 281.9 42.2455L280.414 42.6013C280.143 42.6691 279.861 42.703 279.584 42.703H279.59Z" fill="#D9DADE"/>
<path d="M279.81 30.2987C281.318 30.2987 282.618 31.3211 282.968 32.7898L284.239 38.0485C284.657 39.7939 283.583 41.5506 281.838 41.9743L280.352 42.3301C280.098 42.3923 279.844 42.4205 279.584 42.4205C278.076 42.4205 276.777 41.3981 276.427 39.9295L275.156 34.6707C274.952 33.8234 275.088 32.9536 275.54 32.2136C275.992 31.4736 276.709 30.954 277.551 30.7506L279.036 30.3948C279.291 30.3326 279.545 30.3044 279.805 30.3044M279.805 29.7395C279.511 29.7395 279.206 29.7734 278.906 29.8469L277.421 30.2027C275.37 30.6998 274.111 32.7615 274.608 34.8063L275.879 40.0651C276.302 41.8161 277.861 42.9854 279.584 42.9854C279.878 42.9854 280.183 42.9515 280.482 42.8781L281.968 42.5222C284.018 42.0251 285.278 39.9634 284.781 37.9186L283.516 32.6598C283.092 30.9088 281.533 29.7339 279.81 29.7339L279.805 29.7395Z" fill="#5186C7"/>
<path d="M254.053 41.5056C251.183 38.3142 249.432 33.2813 249.432 33.2813C247.845 33.7445 246.201 32.1911 247.455 30.4288C244.676 30.3723 249.059 21.3685 254.832 23.2664L259.492 39.8336L254.047 41.5056H254.053Z" fill="#345870"/>
<path d="M277.392 19.7476C282.278 25.848 281.623 34.1965 281.623 34.1965L273.647 21.9222L277.398 19.7476H277.392Z" fill="#345870"/>
<path d="M276.009 40.3477L276.144 46.0076L276.302 52.5147L276.466 55.9208C276.647 59.6771 273.874 62.9306 270.134 63.3373C266.367 63.7497 262.932 61.14 262.334 57.3951L259.125 37.4783L276.009 40.3477Z" fill="#F2C7C4"/>
<path d="M276.178 44.8046L276.342 53.3396C269.129 54.0626 264.181 48.8377 262.87 44.912C265.971 43.867 276.184 44.8046 276.184 44.8046H276.178Z" fill="#345870"/>
<path d="M255.465 39.8846C253.974 39.7321 252.313 40.3365 251.63 41.6752C251.065 42.788 251.28 44.1493 251.743 45.3072C252.347 46.7985 253.375 48.1485 254.759 48.9732C256.143 49.7978 257.9 50.0464 259.402 49.4702C260.905 48.8941 262.085 47.4424 262.17 45.8326C262.334 42.7485 258.143 40.1671 255.46 39.8903L255.465 39.8846Z" fill="#F2C7C4"/>
<path d="M258.702 44.776C257.25 43.7706 255.719 43.8271 254.081 44.2507C253.838 44.3129 253.895 44.7308 254.149 44.697C255.493 44.5219 257.052 45.2957 258.012 45.9961C258.148 46.0978 258.397 46.1034 258.555 46.0583C258.719 46.0131 258.888 45.8832 258.967 45.7306C259.153 45.3635 259.024 45.002 258.696 44.776H258.702Z" fill="#345870"/>
<path d="M275.992 22.9446C274.512 21.7641 272.665 21.2388 270.705 21.2049C265.695 21.0976 259.905 24.1647 257.47 27.7911C253.912 33.0894 255.047 39.4214 258.6 44.1493C260.221 46.3296 262.362 48.1711 264.791 49.4081C269.044 51.5771 274.529 52.046 278.37 49.216C281.149 47.1769 282.646 43.6974 282.855 40.2518C283.216 34.4281 280.686 26.6953 275.997 22.9503L275.992 22.9446Z" fill="#F2C7C4"/>
<path d="M278.217 33.2078C278.528 33.8687 278.392 34.6086 277.923 34.8572C277.449 35.1057 276.816 34.7724 276.506 34.1116C276.195 33.4507 276.331 32.7107 276.799 32.4622C277.274 32.2136 277.907 32.5469 278.217 33.2078Z" fill="#345870"/>
<path d="M270.851 36.3655C271.162 37.0264 271.026 37.7663 270.558 38.0149C270.083 38.2634 269.45 37.9302 269.14 37.2693C268.829 36.6084 268.965 35.8684 269.433 35.6199C269.908 35.3714 270.541 35.7046 270.851 36.3655Z" fill="#345870"/>
<path d="M276.828 36.3484C275.624 34.9419 274.354 33.6145 273.071 32.2871C272.947 32.1572 272.732 32.321 272.851 32.4622C273.806 33.6258 274.766 34.7668 275.777 35.8852C276.263 36.4275 276.878 36.981 277.138 37.6758C277.353 38.2576 277.116 38.8337 276.799 39.3195C276.715 39.4438 276.811 39.6358 276.974 39.6076C277.539 39.5003 277.85 38.8733 277.827 38.3423C277.793 37.5741 277.313 36.9132 276.833 36.354L276.828 36.3484Z" fill="#345870"/>
<path d="M278.596 26.1924C277.878 25.1983 274.715 26.4748 274.557 27.6949C274.354 29.2822 279.827 27.8983 278.596 26.1924Z" fill="#345870"/>
<path d="M267.417 31.1633C266.474 30.0845 262.966 31.8807 262.921 33.3154C262.836 35.8121 268.58 32.4795 267.417 31.1633Z" fill="#345870"/>
<path d="M272.524 42.0593C272.574 41.7261 275.421 41.4775 275.743 41.8051C275.947 42.0141 275.444 43.2399 274.224 43.3133C273.218 43.3754 272.467 42.4434 272.524 42.0593Z" fill="white"/>
<path d="M258.871 27.7912C261.69 32.2141 262.328 42.2854 258.899 41.0823C255.471 39.8848 254.239 39.93 254.239 39.93C242.36 28.3166 250.98 18.8157 258.871 27.7912Z" fill="#345870"/>
<path d="M259.43 28.9375C261.944 22.3908 265.338 21.2668 272.715 24.6954C274.896 25.7065 280.855 25.4919 281.171 23.0009C281.38 21.3628 279.432 20.8544 279.432 20.8544C283.256 19.7304 281.595 16.2113 278.618 17.855C283.561 13.6695 279.697 10.2634 276.545 12.9634C274.116 15.0421 272.19 15.9232 268.745 15.0195C263.621 13.6695 254.843 15.9628 254.143 24.4356L259.436 28.9431L259.43 28.9375Z" fill="#345870"/>
<path d="M265.09 39.879L281.476 35.7725C284.696 34.9591 286.605 31.5417 285.746 28.1356C284.888 24.7296 281.583 22.6227 278.364 23.436L261.977 27.5425C258.758 28.3559 256.848 31.7733 257.707 35.1794C258.566 38.5854 261.87 40.6924 265.09 39.879Z" fill="white"/>
<path d="M279.895 23.7804C282.312 23.7804 284.538 25.6727 285.199 28.2767C285.978 31.3777 284.357 34.4675 281.584 35.1623L269.01 38.3085C268.637 38.4045 268.247 38.4497 267.863 38.4497C265.446 38.4497 263.22 36.5574 262.559 33.9535C261.78 30.8524 263.401 27.7627 266.174 27.0679L278.748 23.9216C279.121 23.8256 279.511 23.7804 279.895 23.7804ZM279.895 23.2156C279.471 23.2156 279.042 23.2664 278.612 23.3737L266.039 26.52C262.96 27.2938 261.153 30.6886 262.011 34.0947C262.751 37.0263 265.22 39.0146 267.858 39.0146C268.281 39.0146 268.711 38.9637 269.14 38.8564L281.713 35.7102C284.792 34.9363 286.599 31.5415 285.741 28.1355C285.001 25.2039 282.533 23.2156 279.895 23.2156Z" fill="#5186C7"/>
<path d="M280.906 33.5242L275.675 34.8347L273.93 35.2696L273.19 35.4617L270.134 36.2242L269.97 36.2694C269.744 36.3259 269.512 36.3654 269.292 36.3824C267.36 36.5292 265.547 35.2752 265.056 33.3321C264.508 31.1631 265.824 28.9602 267.993 28.4123L273.534 27.0284L276.584 26.2658L277.33 26.0738L278.934 25.6727C278.979 25.6614 279.025 25.6501 279.07 25.6445C279.256 25.5993 279.431 25.571 279.612 25.5597C281.544 25.4129 283.357 26.6669 283.848 28.61C284.396 30.779 283.08 32.9763 280.911 33.5242H280.906Z" fill="#D9DADE"/>
<path d="M276.901 25.5427L272.992 36.145L269.473 37.0206L273.382 26.4239L276.901 25.5427Z" fill="white"/>
<path d="M279.77 24.8311L275.862 35.4221L273.851 35.9248L277.765 25.3225L279.612 24.8593C279.663 24.848 279.72 24.8367 279.77 24.8254V24.8311Z" fill="white"/>
<path d="M279.9 30.5813L270.806 32.852C270.253 32.9932 269.688 32.6543 269.546 32.0951C269.405 31.5415 269.744 30.9767 270.303 30.8355L279.397 28.5647C279.951 28.4235 280.516 28.7624 280.657 29.3217C280.798 29.8752 280.459 30.4401 279.9 30.5813Z" fill="#E47272"/>
<path d="M256.682 36.4552L252.729 37.761C250.664 38.443 249.544 40.6696 250.226 42.7342L251.847 47.6418C252.529 49.7064 254.755 50.8273 256.82 50.1453L260.773 48.8395C262.838 48.1575 263.958 45.9309 263.276 43.8662L261.655 38.9586C260.973 36.894 258.747 35.7732 256.682 36.4552Z" fill="white"/>
<path d="M256.42 47.6372L256.871 47.4883C258.222 47.0421 258.955 45.5854 258.509 44.2347L257.612 41.5207C257.166 40.17 255.709 39.4367 254.359 39.8829L253.908 40.0317C252.557 40.4779 251.824 41.9346 252.27 43.2854L253.167 45.9993C253.613 47.3501 255.07 48.0833 256.42 47.6372Z" fill="#D9DADE"/>
<path d="M255.267 37.693C256.674 37.693 257.916 38.5911 258.357 39.9242L260.052 45.0587C260.616 46.7589 259.684 48.606 257.984 49.1652L256.533 49.6454C256.199 49.7527 255.855 49.8092 255.51 49.8092C254.104 49.8092 252.861 48.911 252.42 47.578L250.726 42.4435C250.455 41.6188 250.517 40.7376 250.907 39.9637C251.296 39.1899 251.969 38.6081 252.793 38.337L254.245 37.8568C254.578 37.7495 254.923 37.693 255.267 37.693ZM255.267 37.1282C254.872 37.1282 254.465 37.1903 254.07 37.3202L252.618 37.8004C250.619 38.4612 249.528 40.619 250.189 42.6242L251.884 47.7587C252.415 49.3629 253.906 50.3797 255.51 50.3797C255.906 50.3797 256.312 50.3175 256.708 50.1876L258.159 49.7075C260.159 49.0466 261.249 46.8889 260.588 44.8836L258.894 39.7491C258.363 38.1449 256.871 37.1282 255.267 37.1282Z" fill="#5186C7"/>
<defs>
<filter id="filter0_d_848_133" x="0" y="0" width="344" height="182" filterUnits="userSpaceOnUse" color-interpolation-filters="sRGB">
<feFlood flood-opacity="0" result="BackgroundImageFix"/>
<feColorMatrix in="SourceAlpha" type="matrix" values="0 0 0 0 0 0 0 0 0 0 0 0 0 0 0 0 0 0 127 0" result="hardAlpha"/>
<feOffset dy="8"/>
<feGaussianBlur stdDeviation="5"/>
<feComposite in2="hardAlpha" operator="out"/>
<feColorMatrix type="matrix" values="0 0 0 0 0 0 0 0 0 0 0 0 0 0 0 0 0 0 0.25 0"/>
<feBlend mode="normal" in2="BackgroundImageFix" result="effect1_dropShadow_848_133"/>
<feBlend mode="normal" in="SourceGraphic" in2="effect1_dropShadow_848_133" result="shape"/>
</filter>
<linearGradient id="paint0_linear_848_133" x1="99" y1="109" x2="99" y2="149" gradientUnits="userSpaceOnUse">
<stop stop-color="#E9C175"/>
<stop offset="0.713542" stop-color="#F46D4D"/>
</linearGradient>
</defs>
</svg>
