<svg width="136" height="112" viewBox="0 0 136 112" fill="none" xmlns="http://www.w3.org/2000/svg">
<rect width="136" height="112" rx="9" fill="#92DFF3"/>
<path d="M22.3245 81.1606C22.1075 80.5141 21.8929 79.8443 21.6861 79.1699L22.1952 79.0226C22.4001 79.6929 22.6139 80.3585 22.8295 81.0004L22.3245 81.1606ZM113.363 80.3259L112.836 80.2628C112.924 79.5744 113.007 78.8814 113.083 78.2029L113.611 78.259C113.534 78.94 113.451 79.6357 113.363 80.3259H113.363ZM21.1 77.1643C20.9141 76.4978 20.7342 75.8183 20.5645 75.1457L21.0801 75.0231C21.2488 75.6915 21.4278 76.3668 21.6123 77.0296L21.1 77.1648V77.1643ZM113.828 76.1884L113.299 76.1397C113.366 75.4485 113.429 74.7537 113.484 74.0742L114.013 74.115C113.958 74.7974 113.895 75.495 113.828 76.1884ZM20.0795 73.1155C19.926 72.4364 19.7804 71.7495 19.6459 71.0742L20.1671 70.9762C20.3006 71.6473 20.4458 72.3301 20.5978 73.005L20.0795 73.1155ZM114.166 72.0384L113.636 72.0059C113.681 71.3152 113.72 70.619 113.753 69.9357L114.284 69.9599C114.251 70.6459 114.211 71.3449 114.166 72.0384ZM19.2653 69.0221C19.147 68.3347 19.0381 67.6413 18.9402 66.9613L19.466 66.8902C19.5629 67.5655 19.6714 68.2544 19.7887 68.9371L19.2653 69.0221ZM114.365 67.8791L113.834 67.8642C113.855 67.1707 113.869 66.4736 113.876 65.7917L114.407 65.7973C114.4 66.4819 114.386 67.1824 114.365 67.8791ZM18.6741 64.893C18.5948 64.1986 18.5262 63.5 18.4691 62.8168L18.9982 62.7755C19.0543 63.4536 19.1229 64.1466 19.2013 64.8363L18.6736 64.893H18.6741ZM113.878 63.7202C113.872 63.0263 113.858 62.3291 113.838 61.6487L114.369 61.6338C114.389 62.318 114.403 63.0184 114.409 63.716L113.878 63.7207V63.7202ZM18.33 60.7355C18.2948 60.0369 18.2716 59.3356 18.2605 58.651L18.7914 58.6431C18.8021 59.3221 18.8252 60.0174 18.86 60.7104L18.3296 60.7355H18.33ZM113.753 59.579C113.716 58.886 113.672 58.1902 113.62 57.5121L114.149 57.474C114.202 58.1563 114.247 58.8558 114.283 59.553L113.753 59.5794V59.579ZM18.7965 56.5748L18.2656 56.5641C18.2804 55.8637 18.3087 55.1623 18.3504 54.4791L18.8804 54.5093C18.8392 55.186 18.8109 55.8809 18.7965 56.5748ZM113.436 55.4489C113.365 54.7559 113.284 54.0638 113.197 53.3918L113.723 53.3272C113.812 54.0039 113.892 54.7006 113.964 55.3983L113.436 55.4494V55.4489ZM19.0487 52.4493L18.5206 52.3978C18.5929 51.7002 18.6806 51.0025 18.7821 50.3249L19.3075 50.3992C19.2073 51.0694 19.1201 51.7591 19.0492 52.4493H19.0487ZM112.9 51.342C112.789 50.6532 112.668 49.9672 112.539 49.303L113.061 49.2073C113.191 49.8771 113.313 50.5682 113.424 51.2622L112.9 51.3416L112.9 51.342ZM50.1098 51.2691C49.3721 51.1563 48.8384 50.8297 48.0993 50.2659L48.435 49.866C49.0828 50.3583 49.5501 50.6537 50.1663 50.7559L50.1098 51.2691ZM51.9519 50.0415L51.479 49.807C51.7219 49.3444 51.9366 48.7025 52.1175 47.8994L52.6363 48.0095C52.4434 48.8678 52.2195 49.5329 51.9519 50.042V50.0415ZM46.5414 48.7861C46.1185 48.3281 45.6665 47.8014 45.1597 47.1753L45.577 46.8562C46.0768 47.4735 46.5215 47.9918 46.9364 48.441L46.5414 48.7856V48.7861ZM19.6622 48.3629L19.141 48.2645C19.2787 47.5757 19.434 46.8892 19.6037 46.2231L20.1193 46.3471C19.952 47.0044 19.7985 47.6825 19.6626 48.3629H19.6622ZM112.11 47.2775C111.953 46.5961 111.784 45.9203 111.606 45.2691L112.12 45.1372C112.299 45.7944 112.47 46.4767 112.628 47.1646L112.11 47.2775ZM52.9938 45.9324L52.4671 45.8664C52.5487 45.2505 52.6215 44.5761 52.6905 43.8046L53.2196 43.8492C53.15 44.6281 53.0763 45.3095 52.9938 45.9324ZM43.8595 45.5129C43.4279 44.9463 42.9804 44.3476 42.5947 43.8311L43.0245 43.5283C43.4093 44.0438 43.8563 44.6416 44.2861 45.2059L43.8595 45.5129ZM82.7287 45.4707C82.3152 45.4707 81.9094 45.3508 81.5232 45.114L81.8065 44.6774C82.387 45.0336 82.9587 45.0345 83.5754 44.7503L83.804 45.2161C83.4391 45.3852 83.0779 45.4707 82.7292 45.4707H82.7287ZM20.6836 44.3587L20.1759 44.2078C20.3869 43.5375 20.6182 42.8706 20.864 42.2259L21.362 42.4052C21.1199 43.0406 20.8918 43.6978 20.6841 44.3587H20.6836ZM85.5395 43.8669L85.1496 43.5166C85.552 43.093 85.9837 42.5701 86.4687 41.9189L86.899 42.2212C86.4015 42.8896 85.9568 43.4279 85.5395 43.8669ZM80.0135 43.512C79.6699 42.9969 79.3296 42.3903 78.9726 41.6574L79.4525 41.4367C79.7993 42.1488 80.1285 42.7359 80.4591 43.2315L80.0135 43.512ZM111.02 43.2835C110.806 42.6151 110.578 41.957 110.341 41.3271L110.84 41.1502C111.08 41.7874 111.311 42.4535 111.527 43.1302L111.02 43.2835H111.02ZM41.3367 42.1488C40.8508 41.5036 40.446 40.9737 40.0626 40.4818L40.4859 40.1701C40.8712 40.6643 41.2774 41.1961 41.7652 41.8441L41.3367 42.1488ZM53.3796 41.7651L52.8496 41.7317C52.8899 41.1269 52.9307 40.4474 52.9748 39.6546L53.5047 39.6824C53.4607 40.4776 53.4194 41.159 53.3791 41.7651H53.3796ZM22.1576 40.4948L21.6717 40.2863C21.9633 39.6448 22.2735 39.0145 22.6037 38.3986L23.0743 38.6374C22.7497 39.2435 22.4442 39.8636 22.1572 40.4948H22.1576ZM88.1152 40.4948L87.6714 40.2115C88.0489 39.6541 88.4383 39.0633 88.8329 38.4665L89.2794 38.7456C88.8839 39.3438 88.494 39.9351 88.1152 40.4948ZM78.118 39.7317C77.8774 39.1455 77.6289 38.5059 77.3586 37.7763L77.8579 37.6011C78.1269 38.3253 78.3731 38.9597 78.6114 39.5403L78.118 39.7312V39.7317ZM109.561 39.4098C109.275 38.7637 108.973 38.1358 108.663 37.544L109.136 37.3099C109.452 37.9119 109.759 38.5496 110.048 39.2064L109.561 39.4098ZM38.7518 38.8464C38.27 38.2653 37.8217 37.7479 37.3807 37.2649L37.7781 36.9226C38.2246 37.4116 38.6781 37.9351 39.1654 38.5227L38.7518 38.8464ZM53.6156 37.6007L53.0851 37.5747C53.1208 36.8854 53.1565 36.1957 53.1946 35.4938L53.7245 35.5208C53.6865 36.2221 53.6513 36.9114 53.6156 37.6007ZM90.4437 37.0024L90.0009 36.7177C90.4446 36.0656 90.8411 35.5013 91.2139 34.9927L91.6465 35.2918C91.2774 35.7953 90.8842 36.355 90.4442 37.002L90.4437 37.0024ZM24.1277 36.8566L23.6803 36.5788C24.0976 35.9439 24.5279 35.3703 24.9586 34.8742L25.3643 35.2073C24.9484 35.6861 24.5321 36.2407 24.1277 36.8566ZM76.6496 35.8069C76.4062 35.1134 76.1674 34.4195 75.9657 33.8324L76.4692 33.6689C76.6705 34.2556 76.9088 34.9481 77.1522 35.6402L76.6496 35.8069ZM35.9216 35.7707C35.3791 35.257 34.8454 34.8036 34.3358 34.4223L34.6595 34.0136C35.1853 34.407 35.7347 34.8738 36.292 35.401L35.9216 35.7707ZM107.633 35.7484C107.253 35.145 106.853 34.5742 106.447 34.0521L106.87 33.7409C107.287 34.2765 107.696 34.8612 108.085 35.4785L107.633 35.7484ZM26.8536 33.8032L26.5319 33.393C27.1657 32.923 27.8259 32.5839 28.4932 32.3856L28.6485 32.8789C28.0416 33.0596 27.4379 33.3703 26.8541 33.8032H26.8536ZM92.9266 33.6453L92.514 33.3206C93.012 32.7233 93.4835 32.2096 93.9564 31.7498L94.332 32.1144C93.8725 32.5616 93.4126 33.0623 92.9266 33.6453ZM53.8437 33.4423L53.3137 33.4116C53.3596 32.6615 53.4055 31.9806 53.4533 31.3294L53.9828 31.3661C53.935 32.015 53.8896 32.6945 53.8437 33.4423ZM32.5804 33.3341C31.9178 33.0136 31.2664 32.8092 30.6437 32.7261L30.7155 32.2147C31.3957 32.3053 32.1023 32.5263 32.8169 32.8719L32.5804 33.3341ZM105.081 32.4999C104.57 31.9908 104.041 31.5417 103.508 31.1645L103.821 30.7474C104.377 31.1413 104.93 31.6099 105.461 32.1394L105.082 32.4999H105.081ZM75.2883 31.857C75.024 31.0893 74.8065 30.4632 74.6034 29.8868L75.1056 29.7195C75.3091 30.2973 75.5275 30.9244 75.7918 31.6931L75.2883 31.8566V31.857ZM95.921 30.7967L95.6168 30.374C96.2697 29.93 96.9295 29.6011 97.5772 29.3967L97.7414 29.8877C97.1437 30.0763 96.5312 30.3823 95.9215 30.7971L95.921 30.7967ZM101.714 30.1645C101.057 29.8951 100.391 29.7279 99.7356 29.6685L99.7847 29.1548C100.494 29.2193 101.212 29.3991 101.92 29.6889L101.714 30.1645H101.714ZM54.153 29.2941L53.6239 29.2486C53.6902 28.5245 53.7621 27.8254 53.8377 27.1705L54.3653 27.2281C54.2902 27.8793 54.2183 28.5742 54.1525 29.2941H54.153ZM73.8973 27.9244C73.6409 27.2286 73.3988 26.5923 73.1582 25.9796L73.6543 25.7957C73.8964 26.4116 74.1393 27.0512 74.3971 27.7507L73.8973 27.9248V27.9244ZM54.6356 25.1705L54.1103 25.0967C54.2179 24.3744 54.3356 23.6796 54.4613 23.0316L54.9829 23.1269C54.8591 23.7674 54.7423 24.4548 54.6356 25.1701V25.1705ZM72.369 24.053C72.0839 23.386 71.7964 22.7478 71.5145 22.1566L71.9963 21.9397C72.2809 22.5374 72.5717 23.1817 72.8596 23.8551L72.3695 24.053H72.369ZM55.4336 21.1078L54.9185 20.9829C55.1035 20.2625 55.3079 19.5834 55.5254 18.9657L56.0276 19.1324C55.8152 19.7367 55.6149 20.4013 55.4336 21.1078ZM70.5719 20.3043C70.2227 19.6652 69.8662 19.0651 69.5119 18.5207L69.9608 18.2448C70.3224 18.7998 70.6859 19.4116 71.0411 20.0623L70.5723 20.3043H70.5719ZM56.8251 17.2415L56.3489 17.013C56.6976 16.3265 57.0843 15.7195 57.4978 15.209L57.9147 15.5281C57.5238 16.0107 57.1571 16.5871 56.8246 17.2415H56.8251ZM68.2948 16.8472C67.8311 16.2819 67.3522 15.7812 66.8718 15.359L67.2279 14.9763C67.7296 15.4171 68.228 15.9382 68.7098 16.5253L68.2948 16.8472ZM59.3961 14.1909L59.11 13.7562C59.7387 13.3651 60.4319 13.1105 61.1696 13L61.2503 13.51C60.5863 13.6094 59.9622 13.8384 59.3961 14.1909ZM65.1966 14.1909C64.578 13.8667 63.934 13.6451 63.2816 13.5323L63.3748 13.0242C64.0824 13.1468 64.7802 13.3864 65.4483 13.7362L65.1966 14.1904V14.1909Z" fill="#DCE6FF"/>
<path d="M13.0637 84.1633C13.0637 84.1633 12.37 87.2177 15.5624 88.0333C19.9287 89.149 44.6157 92.1425 38.3891 94.3701C34.8745 95.6274 41.1262 97.273 58.2452 97.9019C75.3647 98.5308 104.74 96.0672 94.8619 92.4221C84.9835 88.7769 125.344 91.7453 122.892 84.1633H13.0637Z" fill="#C3D6F4"/>
<path d="M32.442 83.9488C32.442 83.9488 20.0319 49.9106 29.3368 42.6685C35.5564 37.8278 41.6286 50.0146 49.4975 44.3699C56.5026 39.3443 52.0184 27.602 58.8385 21.9406C67.2272 14.9777 81.2397 49.5473 91.0838 44.1846C106.569 35.7489 116.036 49.0564 105.283 84.0106L32.442 83.9484V83.9488Z" fill="#D4E1FC"/>
<path d="M117.052 69.526C112.646 68.8915 113.045 78.4299 106.765 78.4299C101.023 78.4299 97.9507 57.1186 91.6499 61.453C66.3193 78.8786 86.0279 49.2258 68.9956 48.6466C61.2941 48.3847 56.1618 56.3661 54.2695 70.4981C51.526 83.2738 45.164 60.754 38.6171 62.8478C34.4561 64.1785 34.9323 78.4303 29.1907 78.4303C22.9108 78.4303 23.3244 70.4094 18.9186 71.0439C14.1749 71.7271 13.063 84.1633 13.063 84.1633H122.892C122.892 84.1633 121.795 70.2092 117.051 69.526H117.052Z" fill="#EEF7FF"/>
<path d="M112.826 79.5332C108.773 79.2619 109.434 81.7129 103.657 81.7129C98.3746 81.7129 98.5197 76.2201 94.9847 75.0529C88.4753 72.9033 83.1084 83.7835 80.5846 78.3227C75.7913 63.8336 61.8112 56.5669 55.3621 78.3227C52.8383 83.7835 46.9363 74.0399 40.962 75.0529C37.2846 75.6766 37.5721 81.7129 32.29 81.7129C26.5127 81.7129 27.1739 79.2619 23.121 79.5332C18.757 79.8253 17.4536 84.1635 17.4536 84.1635H118.494C118.494 84.1635 117.19 79.8253 112.826 79.5332H112.826Z" fill="#D4E1FC"/>
<path d="M100.031 41.1116H98.3976V43.5412H95.9722V45.1766H98.3976V47.6063H100.031V45.1766H102.456V43.5412H100.031V41.1116Z" fill="#4867AA"/>
<path d="M80.3937 37.0674H73.9098V38.7028H80.3937V37.0674Z" fill="#4867AA"/>
<path d="M26.0718 69.9902H19.5879V71.6256H26.0718V69.9902Z" fill="#4867AA"/>
<path d="M26.0718 72.4519H19.5879V74.0873H26.0718V72.4519Z" fill="#4867AA"/>
<path d="M92.4748 77.095C92.8527 76.0769 92.931 75.1642 92.4094 74.5005C91.8266 73.7582 90.9693 74.1233 90.9693 74.1233C90.9693 74.1233 90.5682 73.1047 89.8245 73.1047C89.2945 73.1047 88.3954 73.604 88.1344 74.5005C87.9322 75.1958 86.8964 75.2371 86.818 76.3444C86.7397 77.4517 87.789 77.8999 87.3003 78.8837C86.9094 79.671 87.4176 80.2065 88.4733 80.5065C89.5291 80.8066 92.2137 80.624 93.0998 79.5534C93.9859 78.4828 92.0719 78.1786 92.4743 77.095H92.4748Z" fill="#8C4225"/>
<path d="M92.5464 88.0331C92.5464 88.0331 93.107 88.459 93.4158 88.5361C93.8303 88.6397 94.8101 88.7609 95.0108 88.7865C95.5589 88.8571 95.5978 89.3624 94.8963 89.4107L93.2762 89.5603C92.7824 89.5673 92.1254 89.2235 92.0753 89.2101C91.2166 88.9207 91.7239 87.6481 92.546 88.0331H92.5464Z" fill="#F99370"/>
<path d="M84.5591 85.7005C84.5591 85.7005 88.797 84.9606 95.4228 85.6448C95.4228 85.6448 91.885 87.2514 89.9219 87.2983C87.9587 87.3452 84.5595 85.7005 84.5595 85.7005H84.5591Z" fill="#7640CC"/>
<path d="M89.213 80.7184C89.2311 80.7082 89.2571 80.6924 89.2733 80.6817C89.2733 80.6817 89.2743 80.6812 89.2747 80.6808C88.5922 81.3533 88.1638 82.2186 87.6992 83.0691C87.3839 83.6209 86.8182 84.6139 87.7233 84.8847C88.2083 84.8838 88.2111 85.6264 87.7251 85.6288C87.6319 85.6362 87.5332 85.645 87.44 85.6394C85.7096 85.5345 85.6781 83.5517 86.1533 82.292C86.5938 81.1267 87.1117 79.8266 88.1378 79.0314C89.2858 78.2497 90.4075 80.0054 89.2135 80.7184H89.213Z" fill="#F99370"/>
<path d="M90.9125 80.7184C90.8945 80.7082 90.8685 80.6924 90.8523 80.6817C90.8523 80.6817 90.8513 80.6812 90.8509 80.6808C91.5334 81.3533 91.9618 82.2186 92.4264 83.0691C92.7417 83.6209 93.3074 84.6139 92.4023 84.8847C91.9173 84.8838 91.9145 85.6264 92.4005 85.6288C92.4937 85.6362 92.5924 85.645 92.6856 85.6394C94.416 85.5345 94.4475 83.5517 93.9723 82.292C93.5318 81.1267 93.0139 79.8266 91.9878 79.0314C90.8398 78.2497 89.7181 80.0054 90.9121 80.7184H90.9125Z" fill="#F99370"/>
<path d="M88.401 78.8721L88.1928 80.161L87.9211 81.8438L87.8836 82.076C87.6619 82.0737 87.4482 82.0421 87.2544 81.997C86.7481 81.88 86.3804 81.6747 86.3804 81.6747C86.3804 81.6747 86.4179 81.5614 86.4879 81.383C86.6377 80.9993 86.9349 80.3147 87.3235 79.8038C87.8924 79.0555 88.401 78.8721 88.401 78.8721Z" fill="#EB5648"/>
<path d="M93.8252 81.7644C93.8252 81.7644 93.4626 81.9325 92.9428 82.0259C92.6688 82.0756 92.3512 82.1039 92.0196 82.076L92.0085 81.8443L92.002 81.7086L91.8652 78.835C91.8652 78.835 93.0374 79.0375 93.738 81.443C93.7681 81.5456 93.7969 81.6529 93.8252 81.7639V81.7644Z" fill="#EB5648"/>
<path d="M86.4875 81.3828C86.4875 81.3828 87.0054 81.6369 87.9206 81.8436L87.8831 82.0758C87.6615 82.0735 87.4477 82.0419 87.2539 81.9968C86.7476 81.8798 86.3799 81.6745 86.3799 81.6745C86.3799 81.6745 86.4174 81.5612 86.4875 81.3828Z" fill="#CE3932"/>
<path d="M93.8254 81.7643C93.8254 81.7643 93.4628 81.9324 92.9431 82.0258C92.6691 82.0755 92.3514 82.1038 92.0199 82.0759L92.0088 81.8442C92.6695 81.7531 93.2848 81.6208 93.7383 81.4429C93.7684 81.5455 93.7972 81.6528 93.8254 81.7638V81.7643Z" fill="#CE3932"/>
<path d="M88.1933 79.7588V80.161L87.8841 82.076C87.6624 82.0737 87.4487 82.0421 87.2549 81.997C87.2757 81.7945 87.3346 81.4499 87.5039 81.1313C87.764 80.6413 88.1933 79.7583 88.1933 79.7583V79.7588Z" fill="#CE3932"/>
<path d="M92.9422 82.0256C92.6682 82.0753 92.3506 82.1037 92.0191 82.0758L92.0015 81.7084L92.0696 79.7585C92.0696 79.7585 92.2769 80.4627 92.6061 81.0066C92.8235 81.3661 92.9093 81.7841 92.9422 82.0256Z" fill="#CE3932"/>
<path d="M93.3148 85.3496C92.3309 85.8053 91.2134 86.0022 90.1544 86.0022C89.0954 86.0022 87.894 85.7806 86.9097 85.325C86.9505 84.416 87.9297 83.7639 87.4786 82.6645C87.2658 82.1452 87.5157 81.4908 87.7141 81.0644C87.7591 80.9683 87.8013 80.8837 87.8347 80.815C88.1342 80.2014 88.4013 78.873 88.4013 78.873L88.5705 78.7996C89.0801 78.606 89.6087 78.5916 89.6087 78.5916H90.6988C90.6988 78.5916 91.1949 78.5874 91.6845 78.762L91.8644 78.8349C91.9238 78.8851 92.1083 80.1749 92.3434 80.841C92.5038 81.2971 92.9285 81.9362 92.6735 82.7165C92.2622 83.9743 93.2786 84.5591 93.3138 85.3496H93.3148Z" fill="#EB5648"/>
<path d="M90.7 78.4576V77.3015H89.6094V78.4655C89.6094 78.4655 88.8574 78.6912 88.5713 78.7999C88.5815 78.8185 89.2362 79.994 90.1542 80.3443C90.1542 80.3443 91.313 79.6986 91.6853 78.7618C91.421 78.6675 90.6995 78.4576 90.6995 78.4576H90.7Z" fill="#F99370"/>
<path d="M91.9173 76.2121C91.8686 76.4424 91.6794 76.5976 91.4944 76.5581C91.3094 76.5191 91.1986 76.3003 91.2473 76.0699C91.296 75.8396 91.4852 75.6844 91.6702 75.7239C91.8552 75.7629 91.966 75.9817 91.9173 76.2121Z" fill="#F99370"/>
<path d="M91.7612 76.3206C91.7584 76.3206 91.7561 76.3206 91.7533 76.3192C91.739 76.3151 91.7311 76.2997 91.7357 76.2858C91.7839 76.1279 91.7821 76.0187 91.7306 75.9714C91.6736 75.9184 91.56 75.9467 91.5206 75.9621C91.5067 75.9676 91.4914 75.9607 91.4858 75.9467C91.4802 75.9328 91.4872 75.9175 91.5011 75.9119C91.5081 75.9091 91.6741 75.8455 91.7668 75.9319C91.8354 75.9955 91.8419 76.12 91.7867 76.3016C91.783 76.3132 91.7728 76.3206 91.7612 76.3206Z" fill="#C16256"/>
<path d="M91.5117 76.2835C91.508 76.2835 91.5047 76.2826 91.501 76.2812C91.4876 76.2751 91.4811 76.2598 91.4871 76.2459C91.4908 76.2366 91.5854 76.0192 91.7904 76.0057C91.8047 76.0043 91.8177 76.0159 91.8191 76.0308C91.82 76.0457 91.8089 76.0582 91.7941 76.0591C91.6225 76.0708 91.5372 76.2649 91.5363 76.2668C91.5321 76.277 91.5219 76.283 91.5117 76.283V76.2835Z" fill="#C16256"/>
<path d="M88.4553 76.2121C88.504 76.4424 88.6932 76.5976 88.8782 76.5581C89.0632 76.5191 89.174 76.3003 89.1253 76.0699C89.0766 75.8396 88.8875 75.6844 88.7025 75.7239C88.5175 75.7629 88.4066 75.9817 88.4553 76.2121Z" fill="#F99370"/>
<path d="M88.6118 76.3207C88.6002 76.3207 88.5895 76.3133 88.5863 76.3017C88.5311 76.1201 88.5376 75.9956 88.6062 75.932C88.699 75.8456 88.865 75.9097 88.8719 75.912C88.8858 75.9176 88.8923 75.9329 88.8872 75.9468C88.8817 75.9608 88.8664 75.9673 88.8524 75.9622C88.8511 75.9617 88.7106 75.9078 88.6424 75.9715C88.5909 76.0193 88.5895 76.128 88.6378 76.2859C88.6419 76.3003 88.6341 76.3152 88.6201 76.3194C88.6174 76.3203 88.615 76.3207 88.6123 76.3207H88.6118Z" fill="#C16256"/>
<path d="M88.8622 76.2833C88.852 76.2833 88.8418 76.2772 88.8376 76.267C88.8366 76.2651 88.7518 76.0705 88.5798 76.0594C88.5649 76.0585 88.5538 76.0455 88.5547 76.0311C88.5557 76.0162 88.5687 76.0046 88.583 76.006C88.788 76.0194 88.8826 76.2373 88.8863 76.2461C88.8918 76.2596 88.8858 76.2754 88.8719 76.2814C88.8686 76.2828 88.8649 76.2837 88.8612 76.2837L88.8622 76.2833Z" fill="#C16256"/>
<path d="M90.7004 78.1729V77.5938H89.6099V78.1729C89.6099 78.1729 90.1551 78.46 90.7004 78.1729Z" fill="#E57D61"/>
<path d="M88.8209 76.8287C88.8705 78.4623 91.4077 78.5069 91.5412 76.8905C91.5686 76.2969 91.3785 76.1074 91.301 75.368C91.1601 74.0261 89.2563 73.9546 89.0852 75.3578C89.0179 75.9114 88.8162 76.3215 88.8209 76.8287Z" fill="#F99370"/>
<path d="M89.8215 76.007C89.8396 75.9712 89.8252 75.9276 89.7894 75.9094C89.7537 75.8913 89.71 75.9057 89.6919 75.9415C89.6738 75.9772 89.6882 76.0209 89.724 76.039C89.7597 76.0571 89.8034 76.0427 89.8215 76.007Z" fill="#C16256"/>
<path d="M90.6897 76.0084C90.7078 75.9727 90.6934 75.929 90.6576 75.9109C90.6218 75.8928 90.5782 75.9072 90.5601 75.9429C90.542 75.9787 90.5564 76.0224 90.5921 76.0405C90.6279 76.0586 90.6715 76.0442 90.6897 76.0084Z" fill="#C16256"/>
<path d="M90.2511 76.6389C90.2229 76.6389 90.195 76.6352 90.1705 76.6273C90.1561 76.6227 90.1482 76.6074 90.1528 76.593C90.1575 76.5786 90.1728 76.5707 90.1872 76.5753C90.279 76.605 90.4093 76.5586 90.4273 76.5168C90.4334 76.5019 90.4139 76.4875 90.3963 76.4778C90.2405 76.3932 90.1362 76.0983 90.132 76.0858C90.1269 76.0714 90.1343 76.0556 90.1487 76.0509C90.163 76.0458 90.1788 76.0533 90.1834 76.0677C90.1844 76.0704 90.285 76.3552 90.4222 76.4295C90.4969 76.4699 90.4858 76.5191 90.4779 76.5382C90.4528 76.5967 90.3476 76.6389 90.2511 76.6389Z" fill="#C16256"/>
<path d="M90.2581 77.0524C90.087 77.0524 89.9526 76.9819 89.9442 76.9777C89.9308 76.9707 89.9257 76.9539 89.9331 76.9404C89.9401 76.9268 89.9568 76.9217 89.9702 76.9287C89.973 76.9301 90.2595 77.0794 90.5136 76.9292C90.5266 76.9212 90.5433 76.9259 90.5512 76.939C90.5591 76.9521 90.5544 76.9688 90.5414 76.9768C90.4455 77.0332 90.3472 77.0524 90.2586 77.0524H90.2581Z" fill="#C16256"/>
<path d="M90.7786 74.5001C90.7786 74.5001 90.6159 75.4782 88.9972 75.8252C88.9972 75.8252 88.9036 74.9817 89.2425 74.5001C89.5814 74.0179 90.5027 73.9766 90.7782 74.5001H90.7786Z" fill="#8C4225"/>
<path d="M90.7784 74.5C90.7784 74.5 90.7033 75.4308 91.3737 75.8275C91.3737 75.8275 91.5453 74.7731 90.7784 74.5Z" fill="#8C4225"/>
<path d="M88.4014 78.8718C88.4014 78.8718 89.0422 80.2011 90.1545 80.5755C90.1545 80.5755 91.3906 80.1463 91.8659 78.8351C91.8659 78.8351 91.7036 78.7394 91.5854 78.7288C91.5854 78.7288 91.0837 79.7576 90.155 80.2583C90.155 80.2583 89.2972 79.8546 88.6726 78.7641C88.6726 78.7641 88.5247 78.7743 88.4018 78.8723L88.4014 78.8718Z" fill="#CE3932"/>
<path d="M86.822 82.2966H93.2109C93.2999 82.2966 93.3718 82.3686 93.3718 82.4578V86.3882H86.6611V82.4578C86.6611 82.3686 86.733 82.2966 86.822 82.2966Z" fill="#163260"/>
<path d="M92.4244 89.6274C92.41 89.6307 92.2575 89.6297 92.0029 89.6214C91.7233 89.6121 91.32 89.594 90.8387 89.5605C90.809 89.5587 90.7789 89.5564 90.7483 89.554C90.6305 89.5457 90.5081 89.5368 90.3824 89.5266C90.2266 89.5141 90.0653 89.5002 89.8997 89.4848C87.064 89.2201 82.9192 88.4992 83.4274 86.6339C84.1141 84.1174 90.9036 87.058 92.4912 87.7844C92.7026 87.8815 92.8218 87.9386 92.8218 87.9386C93.1403 88.8903 92.4239 89.6274 92.4239 89.6274H92.4244Z" fill="#9358E0"/>
<path d="M92.6525 88.6218L92.5134 89.1444L90.7496 89.555C90.6318 89.5466 90.5094 89.5378 90.3838 89.5275C90.228 89.515 90.0666 89.5011 89.9011 89.4857L89.7671 89.0886L92.6525 88.6223V88.6218Z" fill="#7640CC"/>
<path d="M92.4244 89.6277C92.4096 89.6305 92.2579 89.63 92.0029 89.6217C92.0029 89.6217 92.7902 88.8683 92.4912 87.7847C92.7026 87.8813 92.8218 87.9389 92.8218 87.9389C93.1403 88.8906 92.4239 89.6277 92.4239 89.6277H92.4244Z" fill="#7640CC"/>
<path d="M87.548 88.2678C87.548 88.2678 87.031 88.7453 86.7306 88.8516C86.3277 88.9942 85.3642 89.2093 85.1671 89.2539C84.6283 89.3765 84.6376 89.8837 85.3405 89.8642L86.9675 89.8577C87.4599 89.8173 88.0808 89.4122 88.1295 89.3941C88.9567 89.0239 88.3298 87.8056 87.5485 88.2673L87.548 88.2678Z" fill="#F99370"/>
<path d="M88.2407 89.8064C88.0158 89.8352 87.8823 89.8482 87.8679 89.8468C87.8679 89.8468 87.0843 89.1817 87.3106 88.204C87.3106 88.204 87.426 88.1339 87.6319 88.015C89.155 87.1329 95.6148 83.5686 96.5375 86.0043C97.4458 88.4023 90.0128 89.5807 88.2411 89.8064H88.2407Z" fill="#9358E0"/>
<path d="M88.2407 89.8066C88.0158 89.8354 87.8823 89.8484 87.8679 89.847C87.8679 89.847 87.0843 89.1819 87.3106 88.2042C87.3106 88.2042 87.4241 88.1196 87.6319 88.0151C87.6319 88.0151 87.4928 89.049 88.2407 89.8066Z" fill="#7640CC"/>
<path d="M87.5725 88.095C87.5651 88.0945 87.5582 88.0903 87.5545 88.0838C87.548 88.0727 87.5517 88.0587 87.5628 88.0527C87.5818 88.0415 89.4759 86.9417 90.3114 86.5557C90.323 86.5506 90.3365 86.5557 90.3416 86.5668C90.3467 86.5785 90.3416 86.5919 90.3304 86.597C89.4972 86.9821 87.6045 88.081 87.5855 88.0922C87.5814 88.0945 87.5767 88.0954 87.5725 88.0954V88.095Z" fill="#7640CC"/>
<path d="M90.8556 75.7663C90.8496 75.7663 90.8435 75.7644 90.8389 75.7602C90.6367 75.6016 90.4471 75.6655 90.4392 75.6683C90.4248 75.6734 90.4091 75.6655 90.4044 75.6515C90.3993 75.637 90.4068 75.6216 90.4211 75.6165C90.4304 75.6132 90.6465 75.539 90.8732 75.7168C90.8853 75.7262 90.8871 75.7434 90.8778 75.7556C90.8723 75.7626 90.8644 75.7663 90.8561 75.7663H90.8556Z" fill="#C16256"/>
<path d="M89.5854 75.7666C89.5776 75.7666 89.5701 75.7634 89.5646 75.7568C89.5548 75.7452 89.5562 75.7279 89.5678 75.7181C89.5748 75.712 89.7422 75.5716 90.0301 75.6294C90.0449 75.6322 90.0547 75.6472 90.0514 75.6621C90.0486 75.677 90.0338 75.6868 90.019 75.6836C89.7584 75.6308 89.6049 75.7587 89.6031 75.7601C89.598 75.7643 89.5915 75.7666 89.5854 75.7666Z" fill="#C16256"/>
<path d="M27.8987 62.1195C23.9358 62.1195 20.7119 58.8901 20.7119 54.9202C20.7119 50.9504 23.9358 47.7209 27.8987 47.7209C31.8617 47.7209 35.0856 50.9504 35.0856 54.9202C35.0856 58.8901 31.8617 62.1195 27.8987 62.1195ZM27.8987 48.1854C24.1917 48.1854 21.1756 51.2068 21.1756 54.9202C21.1756 58.6337 24.1917 61.6551 27.8987 61.6551C31.6058 61.6551 34.6219 58.6337 34.6219 54.9202C34.6219 51.2068 31.6058 48.1854 27.8987 48.1854Z" fill="#3E7CC6"/>
<path d="M27.8984 62.073C27.7217 62.073 27.5474 62.0219 27.3795 61.9207L27.571 61.6025C27.7908 61.7349 28.0106 61.7344 28.2308 61.6002L28.4237 61.9174C28.254 62.021 28.0773 62.0735 27.8988 62.0735L27.8984 62.073ZM26.7114 61.1966C26.5667 60.9597 26.4295 60.675 26.3047 60.3498L26.6506 60.2161C26.7675 60.5203 26.8945 60.7846 27.0276 61.0024L26.7114 61.1966ZM29.0886 61.1915L28.7719 60.9978C28.905 60.7795 29.0316 60.5147 29.148 60.211L29.4943 60.3443C29.3696 60.6694 29.2333 60.9541 29.0886 61.1915ZM26.0201 59.4683C25.944 59.1868 25.8745 58.8849 25.8133 58.5709L26.1772 58.4999C26.2366 58.805 26.3038 59.0981 26.378 59.3707L26.0201 59.4678V59.4683ZM29.7781 59.4627L29.4201 59.3656C29.4939 59.093 29.5611 58.7999 29.6204 58.4948L29.9844 58.5658C29.9237 58.8798 29.8541 59.1817 29.7781 59.4632V59.4627ZM25.6649 57.6652C25.625 57.3703 25.5912 57.0637 25.5643 56.7544L25.9338 56.7223C25.9598 57.0256 25.9932 57.3261 26.0321 57.615L25.6644 57.6652H25.6649ZM30.1323 57.6596L29.7646 57.6099C29.8036 57.321 29.837 57.0205 29.8629 56.7172L30.2325 56.7493C30.206 57.0586 30.1722 57.3652 30.1323 57.6601V57.6596ZM25.5063 55.8408C25.4938 55.5393 25.4873 55.2318 25.4873 54.9258H25.8582C25.8582 55.2263 25.8647 55.5286 25.8772 55.825L25.5068 55.8403L25.5063 55.8408ZM30.2904 55.8347L29.92 55.8194C29.9325 55.5235 29.9385 55.2207 29.9385 54.9202V54.9086H30.3094V54.9202C30.3094 55.2263 30.3029 55.5338 30.2904 55.8352V55.8347ZM25.8763 54.0261L25.5059 54.0108C25.5184 53.7028 25.5378 53.3953 25.5633 53.0971L25.9329 53.1287C25.9079 53.4218 25.8888 53.7237 25.8763 54.0261ZM29.9195 54.0084C29.907 53.7061 29.8875 53.4042 29.862 53.1111L30.2315 53.079C30.2575 53.3777 30.277 53.6852 30.29 53.9926L29.9195 54.0084ZM26.0312 52.2355L25.6635 52.1858C25.7057 51.8747 25.7553 51.5695 25.8114 51.2797L26.1754 51.3503C26.1207 51.6331 26.072 51.9309 26.0312 52.2351V52.2355ZM29.7637 52.2184C29.7224 51.9141 29.6733 51.6164 29.6181 51.3335L29.9821 51.2625C30.0387 51.5523 30.0887 51.857 30.1309 52.1682L29.7632 52.2184H29.7637ZM26.3757 50.4794L26.0177 50.3828C26.1035 50.0651 26.1986 49.7683 26.301 49.5012L26.6474 49.6345C26.5496 49.89 26.4582 50.1742 26.3762 50.4798L26.3757 50.4794ZM29.4173 50.4627C29.3343 50.157 29.2425 49.8728 29.1442 49.6178L29.4901 49.484C29.5931 49.7506 29.6891 50.0474 29.7753 50.3651L29.4173 50.4627ZM27.022 48.8463L26.7054 48.6531C26.9103 48.3159 27.1333 48.0711 27.3679 47.9257L27.5627 48.242C27.3781 48.3558 27.1964 48.5593 27.022 48.8458V48.8463ZM28.7664 48.8319C28.5906 48.5463 28.4079 48.3451 28.222 48.2346L28.4117 47.915C28.6495 48.0567 28.8753 48.2996 29.0826 48.6368L28.7668 48.8314L28.7664 48.8319Z" fill="#3E7CC6"/>
<path d="M27.9109 57.3356H27.8993C27.5937 57.3356 27.2863 57.3291 26.9858 57.3166L27.0011 56.9455C27.2965 56.9575 27.5988 56.964 27.8988 56.964H27.9104V57.3356H27.9109ZM28.8243 57.3161L28.8085 56.945C29.1104 56.9325 29.4117 56.913 29.7043 56.8874L29.7363 57.2576C29.4382 57.2836 29.1312 57.3031 28.8243 57.3161ZM26.0738 57.2585C25.7655 57.232 25.4594 57.1981 25.1646 57.1582L25.2142 56.7899C25.503 56.8289 25.803 56.8623 26.1053 56.8883L26.0733 57.2585H26.0738ZM30.6456 57.1563L30.5955 56.788C30.8996 56.7467 31.1969 56.6974 31.4788 56.6426L31.5497 57.0072C31.2608 57.0639 30.9567 57.1141 30.6456 57.1563ZM24.2599 57.0096C23.9465 56.9487 23.6451 56.879 23.3641 56.8029L23.461 56.4443C23.7332 56.5182 24.0258 56.5855 24.3304 56.645L24.2595 57.0096H24.2599ZM32.4455 56.8001L32.3481 56.4415C32.6532 56.3584 32.937 56.2664 33.1916 56.1679L33.3251 56.5144C33.0589 56.6175 32.7631 56.7137 32.4455 56.8001ZM22.4846 56.5191C22.1605 56.3941 21.8758 56.2576 21.6388 56.1127L21.8322 55.7954C22.0501 55.9287 22.3144 56.0555 22.6176 56.1721L22.4846 56.5191ZM34.1704 56.1062L33.9761 55.7899C34.2612 55.6138 34.462 55.4304 34.5724 55.2446L34.8914 55.4345C34.7499 55.6728 34.5074 55.8985 34.1708 56.1066L34.1704 56.1062ZM20.9146 55.4462C20.8112 55.2762 20.7588 55.0992 20.7588 54.9204C20.7588 54.7434 20.8098 54.5688 20.9109 54.4006L21.2285 54.592C21.1626 54.7016 21.1293 54.8117 21.1293 54.9204C21.1293 55.03 21.1636 55.1419 21.2308 55.2529L20.9141 55.4462H20.9146ZM34.5645 54.5836C34.4509 54.3988 34.2478 54.2167 33.9617 54.0421L34.1546 53.7248C34.4912 53.9301 34.7356 54.1535 34.8807 54.3886L34.5649 54.5836H34.5645ZM21.8271 54.0481L21.6333 53.7313C21.8697 53.5864 22.154 53.4489 22.4785 53.324L22.6121 53.6705C22.3084 53.7875 22.0445 53.9148 21.8271 54.0481ZM33.1753 53.6663C32.9203 53.5683 32.6365 53.4768 32.3314 53.3946L32.4279 53.036C32.745 53.1219 33.0413 53.2172 33.3079 53.3198L33.1749 53.6668L33.1753 53.6663ZM23.4555 53.3974L23.3586 53.0388C23.6396 52.9626 23.9409 52.893 24.2539 52.8317L24.3249 53.1963C24.0202 53.2557 23.7276 53.3231 23.4555 53.3974ZM31.4616 53.1944C31.1792 53.1396 30.882 53.0908 30.5783 53.05L30.6279 52.6816C30.9386 52.7239 31.2432 52.7736 31.5326 52.8298L31.4621 53.1944H31.4616ZM25.2081 53.0513L25.1581 52.683C25.453 52.6431 25.7585 52.6092 26.0673 52.5822L26.0993 52.9524C25.7965 52.9784 25.4965 53.0119 25.2081 53.0509V53.0513ZM29.6867 52.9515C29.3941 52.9264 29.0927 52.9074 28.7909 52.8948L28.8062 52.5237C29.1136 52.5362 29.4205 52.5558 29.7182 52.5813L29.6867 52.9515ZM26.9951 52.8953L26.9793 52.5242C27.2798 52.5116 27.5867 52.5051 27.8928 52.5051V52.8767C27.5923 52.8767 27.2905 52.8832 26.9951 52.8957V52.8953Z" fill="#3E7CC6"/>
<path d="M27.9921 61.3996H27.7603V60.9351H27.9921V61.3996ZM27.9921 60.4706H27.7603V60.0062H27.9921V60.4706ZM27.9921 59.5417H27.7603V59.0772H27.9921V59.5417ZM27.9921 58.6128H27.7603V58.1483H27.9921V58.6128ZM27.9921 57.6838H27.7603V57.2193H27.9921V57.6838ZM27.9921 56.7549H27.7603V56.2904H27.9921V56.7549ZM27.9921 55.8259H27.7603V55.3615H27.9921V55.8259ZM27.9921 54.897H27.7603V54.4325H27.9921V54.897ZM27.9921 53.968H27.7603V53.5036H27.9921V53.968ZM27.9921 53.0391H27.7603V52.5746H27.9921V53.0391ZM27.9921 52.1102H27.7603V51.6457H27.9921V52.1102ZM27.9921 51.1812H27.7603V50.7168H27.9921V51.1812ZM27.9921 50.2523H27.7603V49.7878H27.9921V50.2523ZM27.9921 49.3233H27.7603V48.8589H27.9921V49.3233ZM27.9921 48.3944H27.7603V47.9299H27.9921V48.3944Z" fill="#3E7CC6"/>
<path d="M34.8306 55.0132H34.3669V54.781H34.8306V55.0132ZM33.9033 55.0132H33.4396V54.781H33.9033V55.0132ZM32.9759 55.0132H32.5123V54.781H32.9759V55.0132ZM32.0486 55.0132H31.5849V54.781H32.0486V55.0132ZM31.1213 55.0132H30.6576V54.781H31.1213V55.0132ZM30.1939 55.0132H29.7303V54.781H30.1939V55.0132ZM29.2666 55.0132H28.8029V54.781H29.2666V55.0132ZM28.3393 55.0132H27.8756V54.781H28.3393V55.0132ZM27.4119 55.0132H26.9483V54.781H27.4119V55.0132ZM26.4846 55.0132H26.0209V54.781H26.4846V55.0132ZM25.5573 55.0132H25.0936V54.781H25.5573V55.0132ZM24.6299 55.0132H24.1663V54.781H24.6299V55.0132ZM23.7026 55.0132H23.2389V54.781H23.7026V55.0132ZM22.7753 55.0132H22.3116V54.781H22.7753V55.0132ZM21.8479 55.0132H21.3843V54.781H21.8479V55.0132Z" fill="#3E7CC6"/>
<path d="M92.0388 66.8112L90.0371 65.6532V66.5789H84.481V61.0132H85.4051L84.2492 59.0081L83.0933 61.0132H84.0174V67.0434H90.0371V67.9691L92.0388 66.8112Z" fill="#3E7CC6"/>
<path d="M53.0026 60.0551C53.2173 60.6566 52.8 60.3519 53.7143 60.409C53.9058 60.4211 54.3087 60.4076 54.108 60.0137C53.9452 59.5613 54.0857 58.3068 53.9814 57.8386C53.5089 55.7466 51.9097 56.99 53.0026 60.0551Z" fill="#ED8569"/>
<path d="M54.2397 60.767C54.235 60.9036 54.171 61.0606 54.0134 61.0606L51.1322 61.1237C50.9833 61.127 50.8744 60.9802 50.9244 60.84C51.0292 60.5227 51.492 59.9705 52.9678 59.9542C52.9678 59.9542 53.4486 60.087 54.0788 59.9087C54.0788 59.9087 54.2916 60.2519 54.2397 60.7675V60.767Z" fill="#EB5648"/>
<path d="M51.8106 60.7188C51.8185 60.7188 51.8259 60.717 51.8338 60.7137C51.8648 60.7002 51.8792 60.6645 51.8658 60.6333C51.7271 60.3119 51.4795 60.2176 51.4693 60.2135C51.4373 60.2019 51.4026 60.2181 51.3905 60.2497C51.3789 60.2813 51.3947 60.3166 51.4267 60.3282C51.435 60.3314 51.6367 60.4109 51.7536 60.6817C51.7638 60.7053 51.787 60.7193 51.8111 60.7188H51.8106Z" fill="#E8C0A6"/>
<path d="M52.2849 60.6506C52.2909 60.6506 52.297 60.6497 52.303 60.6473C52.335 60.6367 52.3521 60.6018 52.3419 60.5698C52.2209 60.2075 51.9066 60.0491 51.8936 60.0426C51.863 60.0273 51.8268 60.0403 51.8115 60.0705C51.7967 60.1007 51.8087 60.1373 51.8393 60.1527C51.8421 60.1541 52.1217 60.2962 52.2256 60.6088C52.2344 60.6348 52.2589 60.651 52.2849 60.6506Z" fill="#E8C0A6"/>
<path d="M52.8249 60.5724C52.8314 60.5724 52.8384 60.5711 52.8449 60.5687C52.8764 60.5571 52.8926 60.5218 52.881 60.4898C52.7447 60.1238 52.4521 59.9357 52.4396 59.9278C52.4113 59.9097 52.3733 59.918 52.3552 59.9468C52.3372 59.9756 52.3455 60.0132 52.3743 60.0313C52.377 60.0332 52.645 60.206 52.7665 60.5325C52.7758 60.5576 52.7999 60.5729 52.8254 60.5724H52.8249Z" fill="#E8C0A6"/>
<path d="M50.9249 60.84L54.2401 60.7676C54.2299 60.8693 54.2044 60.9682 54.1553 61.0579L51.1322 61.1238C50.9852 61.1271 50.8772 60.9845 50.9226 60.8451C50.9231 60.8433 50.9235 60.8419 50.9245 60.84H50.9249Z" fill="#CE3932"/>
<path d="M57.2541 61.8553C57.5666 62.3783 57.1674 62.5177 57.8777 62.258C58.3432 62.0495 58.4981 61.9965 58.3233 61.5706C58.1837 61.0602 58.0261 60.0769 57.9236 59.559C57.6607 57.9789 55.5649 59.029 57.2541 61.8553Z" fill="#F99370"/>
<path d="M58.6901 62.3508C58.7194 62.4841 58.6952 62.6523 58.5422 62.6908L55.7649 63.46C55.6216 63.4999 55.4797 63.3843 55.4936 63.2356C55.5177 62.9026 55.7445 62.2547 57.2616 61.8729C57.2616 61.8729 57.7503 61.8994 58.3164 61.5459C58.3164 61.5459 58.6141 61.838 58.6901 62.3508Z" fill="#EB5648"/>
<path d="M56.3222 62.9009C56.3297 62.899 56.3366 62.8953 56.3431 62.8902C56.37 62.8698 56.3751 62.8312 56.3542 62.8043C56.1414 62.527 55.8781 62.4959 55.8669 62.4949C55.8331 62.4917 55.8034 62.5158 55.7997 62.5493C55.796 62.5827 55.8201 62.6129 55.8539 62.6166C55.8632 62.6175 56.0779 62.6449 56.2573 62.879C56.2731 62.8995 56.2991 62.9074 56.3222 62.9009Z" fill="#E8C0A6"/>
<path d="M56.7658 62.7185C56.7714 62.7171 56.7774 62.7143 56.7825 62.7111C56.8108 62.693 56.8191 62.6549 56.801 62.6265C56.5952 62.3051 56.2516 62.229 56.2372 62.2257C56.2038 62.2187 56.1718 62.2396 56.1644 62.2726C56.1575 62.3056 56.1783 62.3381 56.2113 62.3455C56.2145 62.346 56.5201 62.4152 56.6976 62.6925C56.7125 62.7157 56.7403 62.7255 56.7653 62.7185H56.7658Z" fill="#E8C0A6"/>
<path d="M57.2701 62.5099C57.2766 62.508 57.2827 62.5052 57.2887 62.501C57.3165 62.482 57.3235 62.4434 57.3044 62.4156C57.0828 62.0942 56.7527 61.9841 56.7388 61.9794C56.7068 61.9688 56.672 61.9864 56.6618 62.0185C56.6511 62.0505 56.6688 62.0853 56.7008 62.0956C56.7035 62.0965 57.0058 62.1987 57.2038 62.4848C57.2191 62.5066 57.246 62.5159 57.2706 62.5089L57.2701 62.5099Z" fill="#E8C0A6"/>
<path d="M55.4932 63.2364L58.6897 62.3511C58.705 62.4519 58.7041 62.554 58.6786 62.6534L55.7644 63.4607C55.623 63.4997 55.483 63.3882 55.4932 63.2419C55.4932 63.2401 55.4932 63.2382 55.4932 63.2368V63.2364Z" fill="#CE3932"/>
<path d="M51.9919 58.6097C52.0364 58.9725 52.0735 59.1903 52.0758 59.2121C52.0758 59.2121 53.2159 59.4472 54.7335 59.2121C54.7433 57.2154 54.7294 53.5043 56.2024 52.2744C56.5455 52.0449 57.4135 51.4332 58.0594 51.0528C59.6776 50.2655 62.0789 49.6585 62.7397 48.1308C61.8675 47.7695 60.0444 47.0133 59.1639 46.6487C51.9988 47.4313 51.3117 53.8893 51.9919 58.6097Z" fill="#CE4ABF"/>
<path d="M54.7857 56.8888C55.0221 53.5934 55.3657 52.4908 58.0596 51.0528L59.325 48.1531C55.917 49.2097 53.0219 52.7095 54.7857 56.8888Z" fill="#A523A2"/>
<path d="M54.825 56.3594C55.1593 58.2772 55.7291 59.7858 56.203 61.3027C56.203 61.3027 58.0665 61.4202 59.0012 60.4332C58.6006 58.9451 57.8977 56.0514 58.6618 53.8926C58.9674 53.1006 59.7626 51.8586 62.1555 51.1559C65.1369 50.2799 64.6848 47.5674 64.6848 47.5674C63.643 45.5423 61.7202 47.3245 61.1559 47.4736C56.3996 48.9134 53.7094 51.9167 54.8254 56.3589L54.825 56.3594Z" fill="#CE4ABF"/>
<path d="M56.0234 60.7422L56.202 61.3028C56.202 61.3028 58.0654 61.4203 59.0002 60.4333C59.0002 60.4333 58.9404 60.215 58.856 59.8801C58.856 59.8801 57.8234 61.0004 56.0234 60.7422Z" fill="#A523A2"/>
<path d="M51.9917 58.6096C52.0362 58.9724 52.0733 59.1902 52.0756 59.212C52.0756 59.212 53.2158 59.4471 54.7334 59.212C54.7334 59.2213 54.7361 58.67 54.7361 58.67C54.7361 58.67 53.2288 58.9979 51.9917 58.6096Z" fill="#A523A2"/>
<path d="M64.0946 41.727C67.6454 39.5741 68.601 36.3358 67.8392 32.3846C67.7251 31.8309 66.8887 31.9489 66.929 32.5109C66.9406 35.6489 65.4875 38.0484 62.3818 39.1742C62.3828 39.1738 62.4569 42.4799 64.0942 41.727H64.0946Z" fill="#F99370"/>
<path d="M66.7259 40.6862C66.7259 40.6862 66.7259 40.6862 66.7255 40.6867C66.6888 40.7327 66.6508 40.7787 66.6114 40.8237C66.1334 41.3866 65.628 42.0824 64.9941 42.5325C64.9941 42.5325 64.9938 42.5327 64.9932 42.533C64.7697 42.6918 64.53 42.82 64.2708 42.9013C63.8299 42.6932 62.3007 41.1809 62.3076 38.9398C64.2949 38.2719 66.4723 37.0239 66.9221 32.9653C66.9221 32.9653 67.516 33.1827 67.9505 33.0396C68.4786 35.2306 68.6093 38.3606 66.7264 40.6858L66.7259 40.6862Z" fill="#1D3F70"/>
<path d="M68.0224 33.3829C67.524 33.5552 66.9003 33.3081 66.8809 33.3002C66.8962 33.1911 66.9096 33.0791 66.9212 32.9653C66.9212 32.9653 67.5152 33.1832 67.9496 33.0401C67.9496 33.0401 67.9802 33.1651 68.0219 33.3829H68.0224Z" fill="#103663"/>
<path d="M60.5485 41.662C56.4983 40.7544 54.5625 37.9894 54.0284 34.001C53.9607 33.4399 54.7804 33.2903 54.9205 33.8356C55.9285 36.7827 57.5578 38.8468 60.8577 38.9193C60.8568 38.9193 60.8536 38.9183 60.8526 38.9179C62.6433 39.1255 62.3401 41.8533 60.5485 41.662Z" fill="#F99370"/>
<path d="M61.2053 38.8609L58.9198 42.2483C58.9198 42.2483 58.7543 42.1633 58.4942 41.9975C58.0778 41.7318 57.4199 41.259 56.8125 40.5985C54.9866 38.6124 54.1835 35.6788 54.0986 34.4712C54.7232 34.5269 55.0538 34.1855 55.0538 34.1855C55.0969 34.2808 55.1437 34.3774 55.1924 34.4754C56.4842 37.1953 58.8007 38.9487 61.2053 38.8604V38.8609Z" fill="#1D3F70"/>
<path d="M55.1924 34.4758C54.8308 34.8297 54.1404 34.8195 54.1404 34.8195C54.1093 34.5989 54.0991 34.4712 54.0991 34.4712C54.7237 34.5264 55.0543 34.1851 55.0543 34.1851C55.0974 34.2803 55.1438 34.3769 55.1929 34.4754L55.1924 34.4758Z" fill="#103663"/>
<path d="M61.2058 38.8597C61.1807 38.2606 61.336 37.4078 61.4441 37.0627C61.6439 36.3776 62.7275 36.7269 62.4947 37.398C62.4609 37.373 62.2555 38.6261 62.3088 38.9819C63.3215 39.3679 60.1342 40.1635 61.2058 38.8602V38.8597Z" fill="#F99370"/>
<path d="M62.5098 37.3411C62.5079 37.349 62.5065 37.3574 62.5042 37.3653C62.5014 37.3764 62.4987 37.3871 62.4949 37.3978C62.4704 37.3788 62.3484 38.0694 62.3113 38.5748C61.8212 38.7559 61.2996 38.6226 61.2041 38.5961C61.2217 38.0606 61.3525 37.4048 61.4137 37.1605C61.4308 37.1033 61.4424 37.0699 61.4447 37.0629C61.4498 37.0476 61.4554 37.0323 61.4614 37.0179C61.5259 36.8632 61.6543 36.7517 61.8055 36.7044C61.9103 36.6718 62.0253 36.67 62.1379 36.7057C62.2492 36.7415 62.341 36.8093 62.4069 36.8957C62.4096 36.899 62.4124 36.9027 62.4152 36.9064C62.5038 37.0286 62.5418 37.1855 62.5098 37.3416V37.3411Z" fill="#E57D61"/>
<path d="M60.7329 35.9184C60.7329 35.9184 60.8804 35.3406 61.1562 34.9839L61.4488 35.2254L60.7329 35.9184Z" fill="#C92828"/>
<path d="M60.321 37.6136C60.6196 38.1078 61.2001 38.3665 61.7106 38.3772C61.8697 38.3828 62.0264 38.3642 62.1738 38.3145C62.2239 38.2978 62.2717 38.2783 62.319 38.255H62.3194C64.6104 36.8314 62.8239 33.1821 61.0462 35.5723C60.481 36.23 59.7113 36.471 60.3206 37.6136H60.321Z" fill="#F99370"/>
<path d="M60.7832 37.0462L61.5033 36.8701C61.5033 36.8701 61.4588 37.2296 61.182 37.2645C60.9177 37.2979 60.7832 37.0457 60.7832 37.0457V37.0462Z" fill="#F9F8F3"/>
<path d="M61.4762 36.2918C61.4665 36.2509 61.4915 36.2096 61.5324 36.1999C61.5733 36.1901 61.6146 36.2152 61.6244 36.2561C61.6341 36.2969 61.6091 36.3383 61.5682 36.348C61.5273 36.3578 61.486 36.3327 61.4762 36.2918Z" fill="#C16256"/>
<path d="M60.8766 36.0391C60.8669 35.9983 60.8919 35.9569 60.9328 35.9472C60.9737 35.9374 61.015 35.9625 61.0248 36.0034C61.0345 36.0442 61.0094 36.0856 60.9686 36.0953C60.9277 36.1051 60.8864 36.08 60.8766 36.0391Z" fill="#C16256"/>
<path d="M60.7733 37.0736C60.7784 37.0755 60.7844 37.076 60.79 37.0746L61.51 36.8985C61.5253 36.8948 61.5351 36.879 61.5314 36.8637C61.5277 36.8484 61.5119 36.8386 61.4966 36.8423L60.7765 37.0184C60.7612 37.0221 60.7515 37.0379 60.7552 37.0532C60.7575 37.063 60.7645 37.0704 60.7733 37.0736Z" fill="#C16256"/>
<path d="M60.9186 36.7275C60.9608 36.7428 61.0058 36.7512 61.0461 36.7479C61.0619 36.7465 61.0739 36.7326 61.0725 36.7168C61.0712 36.701 61.0572 36.6889 61.0415 36.6903C60.9404 36.6982 60.8185 36.6193 60.8101 36.5723C60.8073 36.5556 60.831 36.5459 60.8514 36.5403C61.0308 36.492 61.2089 36.2161 61.2163 36.204C61.2246 36.1905 61.2209 36.1729 61.2075 36.1641C61.1936 36.1552 61.1764 36.1594 61.1676 36.1729C61.1657 36.1757 60.9942 36.4418 60.8361 36.4846C60.7498 36.5078 60.7494 36.5607 60.7531 36.5821C60.7628 36.6383 60.8356 36.6968 60.9181 36.7275H60.9186Z" fill="#C16256"/>
<path d="M61.1758 35.4084C61.6283 35.2918 62.3113 35.6587 62.6702 35.7414C62.6702 35.7414 62.4485 36.3364 62.9627 36.9202C62.8811 37.4967 62.9155 37.7647 62.1736 38.3146C62.2237 38.2979 62.2714 38.2784 62.3187 38.2551H62.3192C64.5211 36.9017 62.9229 33.3155 61.1758 35.4084Z" fill="#E57D61"/>
<path d="M61.1627 34.1144C61.5016 33.7135 62.2449 33.629 62.7021 34.3332C63.054 34.8752 63.5459 34.989 63.4277 35.4432C64.2419 36.0758 63.5496 36.9746 63.5496 36.9746L63.105 36.8116C62.6831 36.2635 62.8467 35.6448 62.8467 35.6448C62.729 35.6225 62.6075 35.5886 62.505 35.5347C62.1888 35.3685 61.7005 35.2078 61.2874 35.2574C60.8743 35.3071 60.7834 34.5621 61.1622 34.1144H61.1627Z" fill="#C92828"/>
<path d="M63.5275 37.3596C63.4222 37.583 63.1909 37.6954 63.0114 37.6104C62.8315 37.5254 62.7712 37.2755 62.8765 37.0517C62.9817 36.8282 63.2131 36.7158 63.3925 36.8008C63.5724 36.8858 63.6327 37.1357 63.5275 37.3591V37.3596Z" fill="#F99370"/>
<path d="M63.152 36.9412C63.1599 36.9403 63.3495 36.9142 63.4256 37.028C63.445 37.0568 63.4543 37.0921 63.4543 37.1321C63.4543 37.1358 63.4548 37.1395 63.4543 37.1432C63.4515 37.2175 63.4181 37.3095 63.3546 37.4191C63.3477 37.4312 63.3328 37.4363 63.3198 37.4317C63.3185 37.4312 63.3166 37.4303 63.3152 37.4293C63.3013 37.4214 63.2967 37.4033 63.305 37.3899C63.3569 37.3011 63.3861 37.2259 63.3945 37.166C63.2257 37.1562 63.1019 37.3183 63.1005 37.3202C63.0926 37.3309 63.0792 37.3346 63.0671 37.3299C63.0648 37.329 63.062 37.3276 63.0602 37.3258C63.0472 37.3165 63.0444 37.2984 63.0542 37.2854C63.0602 37.2775 63.1965 37.0954 63.3945 37.1056C63.3917 37.088 63.3866 37.0722 63.3778 37.0592C63.3222 36.9756 63.1617 36.9969 63.1603 36.9974C63.1446 36.9997 63.1302 36.9886 63.1279 36.9728C63.1256 36.957 63.1367 36.9426 63.1525 36.9403L63.152 36.9412Z" fill="#C16256"/>
<path d="M62.7826 37.3462L63.0547 37.2022C63.0571 37.1906 63.0598 37.1794 63.0654 37.1683C63.0969 37.1042 63.1748 37.0777 63.2388 37.1093C63.3033 37.1409 63.3292 37.2189 63.2977 37.283C63.2671 37.3457 63.1929 37.3717 63.1294 37.3438L62.8577 37.4878C62.8368 37.499 62.8132 37.4999 62.7923 37.492C62.7742 37.4855 62.7585 37.4725 62.7492 37.4544C62.7283 37.4154 62.7432 37.3666 62.7826 37.3457V37.3462Z" fill="#FDFFDE"/>
<path d="M57.5663 46.9412C57.5663 46.9412 60.1494 48.336 64.7082 47.9542C64.7082 47.9542 64.7226 47.8353 64.7444 47.6277C64.8389 46.7433 65.0791 44.2533 64.9924 42.5338C64.9924 42.5338 64.8723 41.0754 64.6145 40.3638C63.8314 38.2045 62.3078 38.9398 62.3078 38.9398C61.9521 39.6597 61.106 40.2319 61.106 40.2319C60.9608 39.4795 61.1941 38.8952 61.2052 38.8608C60.0316 39.1302 58.9777 40.0173 58.5062 41.9653C58.285 42.8775 57.4833 45.0856 57.3966 46.2431C57.3721 46.5678 57.4499 46.8339 57.5668 46.9412H57.5663Z" fill="#1D3F70"/>
<path d="M60.8034 38.8585C60.8034 38.8585 60.5744 39.943 60.9852 40.5984C60.9852 40.5984 62.2194 40.1832 62.6743 38.8102C62.6743 38.8102 62.5046 38.8009 62.3075 38.9398C62.3075 38.9398 61.7294 39.7433 61.1604 40.1274C61.1604 40.1274 61.026 39.6537 61.2054 38.8603C61.2054 38.8603 60.9944 38.8023 60.8034 38.858V38.8585Z" fill="#E8C0A6"/>
<path d="M61.9174 36.2128C61.9045 36.2119 61.8924 36.204 61.8868 36.1915C61.789 35.9713 61.5808 35.9109 61.5785 35.91C61.559 35.9044 61.5479 35.8844 61.553 35.8654C61.5586 35.8459 61.5785 35.8348 61.5975 35.8399C61.6072 35.8426 61.8405 35.9091 61.9527 36.1617C61.961 36.1803 61.9527 36.2017 61.9341 36.21C61.9286 36.2124 61.9225 36.2133 61.917 36.2133L61.9174 36.2128Z" fill="#C16256"/>
<path d="M61.3635 35.7816C61.357 35.7811 61.3505 35.7788 61.345 35.7751C61.1614 35.6439 61.0297 35.7135 61.0283 35.7139C61.0107 35.7237 60.9884 35.7172 60.9791 35.6995C60.9694 35.6817 60.9759 35.6593 60.9935 35.65C61.0005 35.6463 61.1669 35.5581 61.3872 35.7158C61.4034 35.7275 61.4076 35.7503 61.3955 35.7667C61.3881 35.7774 61.3756 35.783 61.3631 35.7821L61.3635 35.7816Z" fill="#C16256"/>
<path d="M66.726 40.6867C66.6893 40.7327 66.6513 40.7787 66.6119 40.8238C66.1339 41.3867 65.6285 42.0825 64.9946 42.5325C64.9946 42.5325 64.9943 42.5327 64.9937 42.533L64.9928 42.5335C64.9756 41.5734 64.7252 41.0267 64.7095 40.9933C65.4231 41.8038 66.6967 40.7114 66.726 40.6863V40.6867Z" fill="#103663"/>
<path d="M58.9226 40.7751C58.9226 40.7751 58.6565 41.4207 58.5058 41.9656C58.503 41.9767 58.4989 41.9874 58.4942 41.9976C58.0778 41.7319 57.4199 41.2591 56.8125 40.5986C56.8125 40.5986 58.0287 41.5118 58.9222 40.7751H58.9226Z" fill="#103663"/>
<path d="M45.9629 33.9314L59.6726 16.8728L76.7012 30.6063L45.9629 33.9314ZM60.3217 22.8979L55.7713 28.5603L65.9743 27.4567L60.3217 22.8984V22.8979Z" fill="#EB5648"/>
<path d="M74.3734 29.8055L74.189 29.8254L74.3015 30.87L74.4859 30.8501L74.3734 29.8055Z" fill="#CE3932"/>
<path d="M73.4276 29.2049L73.2432 29.2249L73.4303 30.9621L73.6147 30.9422L73.4276 29.2049Z" fill="#CE3932"/>
<path d="M71.6849 29.3953L71.5005 29.4153L71.6877 31.1525L71.8721 31.1326L71.6849 29.3953Z" fill="#CE3932"/>
<path d="M67.4027 30.5579L67.2183 30.5779L67.3308 31.6224L67.5152 31.6025L67.4027 30.5579Z" fill="#CE3932"/>
<path d="M66.4569 29.96L66.2725 29.98L66.4596 31.7172L66.644 31.6973L66.4569 29.96Z" fill="#CE3932"/>
<path d="M70.8885 30.1822L70.7041 30.2021L70.8166 31.2467L71.001 31.2268L70.8885 30.1822Z" fill="#CE3932"/>
<path d="M69.9422 29.5821L69.7578 29.6021L69.945 31.3393L70.1294 31.3194L69.9422 29.5821Z" fill="#CE3932"/>
<path d="M63.9183 30.9351L63.7339 30.9551L63.8464 31.9996L64.0308 31.9797L63.9183 30.9351Z" fill="#CE3932"/>
<path d="M62.972 30.3372L62.7876 30.3572L62.9748 32.0944L63.1592 32.0745L62.972 30.3372Z" fill="#CE3932"/>
<path d="M58.6907 31.5011L58.5063 31.521L58.6189 32.5656L58.8033 32.5456L58.6907 31.5011Z" fill="#CE3932"/>
<path d="M57.744 30.9012L57.5596 30.9211L57.7467 32.6584L57.9311 32.6385L57.744 30.9012Z" fill="#CE3932"/>
<path d="M53.4622 32.0662L53.2778 32.0862L53.3904 33.1307L53.5748 33.1108L53.4622 32.0662Z" fill="#CE3932"/>
<path d="M52.5174 31.4669L52.333 31.4868L52.5202 33.2241L52.7046 33.2041L52.5174 31.4669Z" fill="#CE3932"/>
<path d="M60.4329 31.3116L60.2485 31.3315L60.3611 32.3761L60.5455 32.3562L60.4329 31.3116Z" fill="#CE3932"/>
<path d="M59.4871 30.7137L59.3027 30.7336L59.4899 32.4709L59.6743 32.451L59.4871 30.7137Z" fill="#CE3932"/>
<path d="M55.2049 31.8778L55.0205 31.8977L55.1331 32.9423L55.3174 32.9223L55.2049 31.8778Z" fill="#CE3932"/>
<path d="M54.2591 31.2784L54.0747 31.2983L54.2619 33.0356L54.4463 33.0157L54.2591 31.2784Z" fill="#CE3932"/>
<path d="M49.9779 32.443L49.7935 32.4629L49.906 33.5075L50.0904 33.4875L49.9779 32.443Z" fill="#CE3932"/>
<path d="M49.0316 31.8436L48.8472 31.8635L49.0343 33.6008L49.2187 33.5808L49.0316 31.8436Z" fill="#CE3932"/>
<path d="M51.7196 32.2545L51.5352 32.2744L51.6477 33.319L51.8321 33.299L51.7196 32.2545Z" fill="#CE3932"/>
<path d="M50.7742 31.6554L50.5898 31.6753L50.777 33.4125L50.9614 33.3926L50.7742 31.6554Z" fill="#CE3932"/>
<path d="M72.6312 29.9937L72.4468 30.0137L72.5593 31.0582L72.7437 31.0383L72.6312 29.9937Z" fill="#CE3932"/>
<path d="M69.1458 30.3707L68.9614 30.3906L69.074 31.4352L69.2584 31.4153L69.1458 30.3707Z" fill="#CE3932"/>
<path d="M68.1995 29.7721L68.0151 29.792L68.2023 31.5292L68.3867 31.5093L68.1995 29.7721Z" fill="#CE3932"/>
<path d="M65.6605 30.7464L65.4761 30.7664L65.5886 31.8109L65.773 31.791L65.6605 30.7464Z" fill="#CE3932"/>
<path d="M64.7147 30.1485L64.5303 30.1685L64.7174 31.9057L64.9018 31.8858L64.7147 30.1485Z" fill="#CE3932"/>
<path d="M62.1756 31.1231L61.9912 31.1431L62.1038 32.1876L62.2882 32.1677L62.1756 31.1231Z" fill="#CE3932"/>
<path d="M61.2293 30.5257L61.0449 30.5457L61.2321 32.2829L61.4165 32.263L61.2293 30.5257Z" fill="#CE3932"/>
<path d="M56.9481 31.6895L56.7637 31.7095L56.8762 32.754L57.0606 32.7341L56.9481 31.6895Z" fill="#CE3932"/>
<path d="M56.0023 31.0899L55.8179 31.1099L56.005 32.8471L56.1894 32.8272L56.0023 31.0899Z" fill="#CE3932"/>
<path d="M48.2352 32.6305L48.0508 32.6504L48.1633 33.695L48.3477 33.675L48.2352 32.6305Z" fill="#CE3932"/>
<path d="M66.952 31.0327C67.117 31.0318 67.0744 31.5144 67.1606 31.6384L68.3805 31.5065C68.3235 31.8223 68.0866 32.3109 67.8705 32.5557C67.743 32.7002 66.9974 32.6876 66.9288 32.5116C66.7962 32.1721 66.8082 31.8135 66.8282 31.728C66.8741 31.5311 66.7739 31.121 66.952 31.0332V31.0327Z" fill="#F99370"/>
<path d="M54.4493 32.4126C54.2615 32.4683 54.5091 33.0066 54.5091 33.0066L53.3018 33.1371C53.5642 33.5654 53.7246 33.8431 54.1684 34.1121C54.333 34.2119 54.9612 34.172 54.9719 33.9829C54.9881 33.6898 54.8745 33.1218 54.8476 33.0387C54.8212 32.8682 54.6399 32.3559 54.4498 32.4126H54.4493Z" fill="#F99370"/>
<path d="M43.0245 38.0927H40.6009V25.0188C40.6009 24.9291 40.5281 24.8562 40.4386 24.8562H37.0854C37.0316 24.8562 36.9815 24.8827 36.9514 24.9273L27.915 38.1777C27.8965 38.2046 27.8867 38.2367 27.8867 38.2692V41.7704C27.8867 41.86 27.9595 41.9329 28.049 41.9329H36.4117V45.9692C36.4117 46.0588 36.4845 46.1317 36.574 46.1317H40.4386C40.5281 46.1317 40.6009 46.0588 40.6009 45.9692V41.9329H43.0245C43.114 41.9329 43.1868 41.86 43.1868 41.7704V38.2548C43.1868 38.1651 43.114 38.0922 43.0245 38.0922V38.0927ZM32.0908 38.0927L36.4117 31.6574V38.0927H32.0908Z" fill="#8A9EDD"/>
<path d="M110.735 61.4417C109.478 60.124 107.922 59.4556 106.114 59.4556C105.264 59.4556 104.42 59.6405 103.6 60.006L104.147 56.9057H111.541C111.63 56.9057 111.703 56.8328 111.703 56.7431V53C111.703 52.9103 111.63 52.8374 111.541 52.8374H100.985C100.907 52.8374 100.839 52.8931 100.825 52.9698L98.7794 63.8291C98.771 63.8728 98.7812 63.9178 98.8067 63.9536C98.8322 63.9898 98.8716 64.0135 98.9157 64.02L102.155 64.4896C102.209 64.4975 102.263 64.4775 102.3 64.4371C103.173 63.4622 104.169 62.9684 105.262 62.9684C106.141 62.9684 106.833 63.2648 107.379 63.8751C107.922 64.4817 108.197 65.4153 108.197 66.6489C108.197 67.9689 107.918 68.9657 107.369 69.6104C106.819 70.2569 106.167 70.5709 105.376 70.5709C104.692 70.5709 104.08 70.3201 103.554 69.8249C103.026 69.3275 102.703 68.6396 102.595 67.7808C102.584 67.693 102.505 67.6303 102.418 67.6396L98.4395 68.0525C98.3959 68.0572 98.3556 68.079 98.3287 68.1138C98.3013 68.1482 98.2897 68.1928 98.2953 68.236C98.5364 70.0149 99.2866 71.452 100.525 72.5082C101.761 73.5635 103.379 74.0985 105.333 74.0985C107.782 74.0985 109.724 73.1473 111.104 71.2713C112.115 69.9021 112.628 68.3228 112.628 66.5774C112.628 64.4849 111.991 62.7566 110.736 61.4408L110.735 61.4417Z" fill="#8A9EDD"/>
<path d="M94.0037 27.435H83.9654C83.8995 27.435 83.8462 27.4884 83.8462 27.5544V30.2855C83.8462 30.3514 83.8995 30.4048 83.9654 30.4048H90.395C89.0847 32.0978 88.0178 34.031 87.2226 36.1554C86.3964 38.3626 85.9526 40.5586 85.9039 42.6822C85.903 42.7142 85.9155 42.7454 85.9378 42.7686C85.96 42.7918 85.9911 42.8043 86.0231 42.8043H88.8538C88.8853 42.8043 88.9159 42.7918 88.9382 42.769C88.9604 42.7463 88.973 42.7161 88.973 42.684C88.966 41.3478 89.1881 39.8071 89.6323 38.1053C90.0769 36.4035 90.7321 34.7741 91.5797 33.2627C92.4268 31.7518 93.2707 30.5776 94.0872 29.7736C94.1099 29.7513 94.1229 29.7202 94.1229 29.6882V27.5535C94.1229 27.4875 94.0696 27.4341 94.0037 27.4341V27.435Z" fill="#F49F9F"/>
<path d="M113.175 36.6836H112.599V36.299H112.791V36.1067H113.175V36.6836Z" fill="#3E7CC6"/>
<path d="M111.753 36.6837H110.908V36.2991H111.753V36.6837ZM110.062 36.6837H109.217V36.2991H110.062V36.6837ZM108.372 36.6837H107.526V36.2991H108.372V36.6837ZM106.681 36.6837H105.836V36.2991H106.681V36.6837Z" fill="#3E7CC6"/>
<path d="M104.991 36.6836H104.416V36.1067H104.799V36.299H104.991V36.6836Z" fill="#3E7CC6"/>
<path d="M104.799 35.2601H104.416V34.4134H104.799V35.2601ZM104.799 33.5667H104.416V32.7199H104.799V33.5667ZM104.799 31.8732H104.416V31.0265H104.799V31.8732ZM104.799 30.1797H104.416V29.333H104.799V30.1797Z" fill="#3E7CC6"/>
<path d="M104.799 28.4858H104.416V27.9094H104.991V28.294H104.799V28.4858Z" fill="#3E7CC6"/>
<path d="M111.753 28.294H110.908V27.9094H111.753V28.294ZM110.062 28.294H109.217V27.9094H110.062V28.294ZM108.372 28.294H107.527V27.9094H108.372V28.294ZM106.681 28.294H105.836V27.9094H106.681V28.294Z" fill="#3E7CC6"/>
<path d="M113.175 28.4858H112.791V28.294H112.599V27.9094H113.175V28.4858Z" fill="#3E7CC6"/>
<path d="M113.174 35.2601H112.791V34.4134H113.174V35.2601ZM113.174 33.5667H112.791V32.7199H113.174V33.5667ZM113.174 31.8732H112.791V31.0265H113.174V31.8732ZM113.174 30.1797H112.791V29.333H113.174V30.1797Z" fill="#3E7CC6"/>
<path d="M105.256 34.2176L105.223 33.8344C105.601 33.8023 105.976 33.7294 106.337 33.6184L106.449 33.9858C106.063 34.1047 105.661 34.1827 105.256 34.2171V34.2176ZM104.041 34.1934C103.638 34.1428 103.24 34.049 102.858 33.9143L102.985 33.5515C103.342 33.6769 103.713 33.7647 104.089 33.8121L104.042 34.1934H104.041ZM107.566 33.5065L107.379 33.1711C107.708 32.9858 108.019 32.7647 108.304 32.5139L108.557 32.8023C108.253 33.0713 107.919 33.3081 107.566 33.5069V33.5065ZM101.76 33.3899C101.415 33.1772 101.091 32.9273 100.797 32.6463L101.063 32.3681C101.337 32.63 101.639 32.8636 101.961 33.062L101.76 33.3894V33.3899ZM109.379 31.905L109.071 31.6765C109.296 31.3713 109.489 31.0415 109.645 30.6969L109.995 30.8553C109.828 31.225 109.62 31.578 109.379 31.9054V31.905ZM100.012 31.7173C99.7838 31.3811 99.5909 31.0197 99.4388 30.6439L99.7944 30.4995C99.9363 30.8502 100.116 31.1869 100.329 31.5009L100.012 31.7169V31.7173ZM110.375 29.6978L110 29.617C110.079 29.2482 110.119 28.8683 110.119 28.4869H110.503C110.503 28.8947 110.46 29.3021 110.375 29.6973L110.375 29.6978ZM99.1054 29.4725C99.0498 29.1493 99.0215 28.8176 99.0215 28.4874C99.0215 28.4112 99.0229 28.3346 99.0261 28.2584L99.4096 28.2733C99.4068 28.3443 99.4054 28.4163 99.4054 28.4874C99.4054 28.7963 99.4318 29.1056 99.4838 29.4075L99.1054 29.473V29.4725ZM110.072 27.7791C110.022 27.4029 109.933 27.0317 109.805 26.675L110.167 26.5454C110.303 26.9277 110.4 27.3258 110.453 27.7289L110.072 27.7791ZM99.5732 27.1493L99.2014 27.0536C99.302 26.6602 99.4457 26.2765 99.6275 25.9128L99.9706 26.0852C99.8009 26.4242 99.6669 26.7823 99.5732 27.1493ZM109.311 25.6532C109.111 25.3318 108.876 25.0303 108.613 24.7577L108.889 24.4906C109.171 24.7828 109.422 25.1056 109.637 25.4498L109.311 25.6532ZM100.584 25.1293L100.285 24.8887C100.539 24.5719 100.827 24.2816 101.141 24.0252L101.383 24.3234C101.09 24.5626 100.821 24.8339 100.584 25.1293H100.584ZM107.743 24.0285C107.428 23.8171 107.091 23.6388 106.74 23.499L106.882 23.1418C107.258 23.2918 107.62 23.4827 107.957 23.7094L107.744 24.0285H107.743ZM102.334 23.7034L102.16 23.3606C102.521 23.1762 102.903 23.0299 103.296 22.9263L103.393 23.2979C103.028 23.3945 102.671 23.5306 102.334 23.7029V23.7034ZM105.647 23.1943C105.276 23.1325 104.891 23.1098 104.515 23.1269L104.497 22.7428C104.9 22.7242 105.313 22.7489 105.71 22.8148L105.647 23.1943Z" fill="#3E7CC6"/>
<path d="M65.1199 53.3853C65.1152 53.4894 65.0642 54.5832 64.8695 56.5544C64.8245 57.0138 64.7712 57.5215 64.709 58.0751C64.3928 60.8903 63.8425 64.9024 62.897 69.9251C62.0453 74.4496 60.7016 78.3725 58.903 81.5857C58.2539 82.7445 57.2422 84.1068 56.3264 85.249C55.2642 86.5746 53.2829 86.6684 52.0996 85.4501C52.0792 85.4292 52.0588 85.4083 52.0384 85.3874C51.0332 84.3525 50.9674 82.726 51.8849 81.6122C52.6046 80.7385 53.4123 79.6293 54.0132 78.4435C54.9368 76.6196 56.3222 73.5178 57.2009 68.849C58.0953 64.097 58.622 60.2697 58.928 57.5809C58.9823 57.1034 59.0296 56.6617 59.0709 56.2572C59.2758 54.2455 59.3277 53.1531 59.3291 53.128C59.4015 51.527 60.7563 50.2864 62.3536 50.3579C63.9519 50.4295 65.1903 51.7843 65.1199 53.3853Z" fill="#3A72AA"/>
<path d="M85.8544 79.5584C85.0007 81.6188 83.6946 83.3002 82.0769 84.4205C80.6975 85.3763 79.1428 85.8784 77.609 85.8784C77.2598 85.8784 76.9121 85.8524 76.5676 85.7999C74.7899 85.5287 73.1777 84.5519 72.0278 83.0484C70.9104 81.5877 70.239 79.6982 70.0317 77.433C69.562 72.2964 70.5297 64.112 71.2929 58.8528C71.3759 58.2815 71.4566 57.7445 71.5326 57.2499C71.8317 55.3065 72.0607 54.0139 72.0923 53.8365C72.3742 52.2582 73.8797 51.2076 75.4557 51.49C77.0312 51.7724 78.08 53.281 77.7977 54.8592C77.7912 54.8969 77.6437 55.7301 77.43 57.0757C77.3586 57.523 77.2802 58.0274 77.1972 58.5778C76.4591 63.4673 75.3565 72.0075 75.8039 76.903C75.9676 78.694 76.6098 79.9328 77.4397 80.0596C78.3198 80.1938 79.6922 79.2834 80.5009 77.3322C81.1143 75.8514 82.8104 75.1492 84.2885 75.7641C84.6284 75.9053 84.927 76.1041 85.1783 76.3443C86.0194 77.1483 86.3268 78.4181 85.8544 79.5584Z" fill="#3A72AA"/>
<path d="M65.1205 53.3853C65.1159 53.4894 65.0649 54.5832 64.8701 56.5544C64.8252 57.0138 64.7718 57.5215 64.7097 58.0751H64.7092C61.7195 57.2985 58.9287 57.5809 58.9287 57.5809C58.983 57.1034 59.0303 56.6617 59.0715 56.2572C59.2765 54.2455 59.3284 53.1531 59.3298 53.128C59.4021 51.527 60.757 50.2864 62.3543 50.3579C63.9525 50.4295 65.191 51.7843 65.1205 53.3853Z" fill="#23659B"/>
<path d="M77.7973 54.8592C77.7908 54.8969 77.6433 55.7301 77.4296 57.0757C77.3582 57.523 77.2798 58.0274 77.1968 58.5778C75.2643 58.8388 73.2116 58.908 71.2925 58.8528C71.3755 58.2815 71.4562 57.7445 71.5322 57.2499C71.8313 55.3065 72.0603 54.0139 72.0918 53.8365C72.3738 52.2582 73.8793 51.2076 75.4553 51.49C77.0308 51.7724 78.0796 53.281 77.7973 54.8592Z" fill="#23659B"/>
<path d="M88.3396 54.0203C87.1841 54.5577 84.9933 55.5763 81.8612 56.3269C81.2153 56.4811 80.5295 56.6246 79.8044 56.7495C79.0291 56.8833 78.2376 56.9925 77.4299 57.0756C75.5474 57.2707 73.5787 57.3283 71.5326 57.2498C69.3932 57.1671 67.1694 56.9353 64.8701 56.5545C64.5604 56.5029 64.2497 56.449 63.9377 56.3924C62.2235 56.0807 60.5979 56.0361 59.0715 56.2572C58.893 56.2823 58.7163 56.312 58.5411 56.345C57.2154 56.5939 55.9677 57.0487 54.8053 57.7087C53.0044 58.7314 52.0613 59.9079 52.053 59.9191C51.4836 60.6818 50.6119 61.084 49.7295 61.084C49.1259 61.084 48.5171 60.8959 47.9964 60.5057C46.7143 59.5457 46.4523 57.7263 47.4107 56.4421C47.5712 56.2275 49.0605 54.2962 51.9473 52.6571C53.4565 51.8006 55.0849 51.1713 56.7968 50.7825C57.0073 50.7347 57.2192 50.6901 57.432 50.6497C59.8231 50.1945 62.3598 50.2042 64.9717 50.6789C71.303 51.8285 76.0199 51.5818 79.4571 50.9093C82.5743 50.2999 84.6386 49.3398 85.8983 48.7537C87.3501 48.0788 89.0735 48.71 89.7477 50.1643C90.4219 51.619 89.7913 53.345 88.3396 54.0203Z" fill="#3A72AA"/>
<path d="M85.1779 76.3441C83.2903 75.312 82.1418 77.1147 81.6684 77.947C81.1945 78.7793 80.295 80.9094 77.8431 80.9229C75.3912 80.9363 75.8034 76.9029 75.8034 76.9029C75.9671 78.6939 76.6093 79.9326 77.4393 80.0594C78.3193 80.1936 79.6918 79.2833 80.5004 77.332C81.1138 75.8513 82.8099 75.149 84.2881 75.764C84.628 75.9052 84.9266 76.104 85.1779 76.3441Z" fill="#23659B"/>
<path d="M53.0548 65.7087V83.2814C53.0548 85.0785 51.6003 86.5355 49.8064 86.5355H37.0592C35.2653 86.5355 33.8108 85.0785 33.8108 83.2814V65.7087C33.8108 63.8615 35.3057 62.364 37.1497 62.364H49.716C51.56 62.364 53.0548 63.8615 53.0548 65.7087Z" fill="#8A9EDD"/>
<path d="M53.055 65.593V70.149H33.8105V65.593C33.8105 63.8094 35.2539 62.3635 37.0344 62.3635H49.8312C51.6116 62.3635 53.055 63.8094 53.055 65.593Z" fill="#4867AA"/>
<path d="M49.1569 64.0691H37.7335C36.5207 64.0691 35.5376 65.0539 35.5376 66.2688C35.5376 67.4837 36.5207 68.4686 37.7335 68.4686H49.1569C50.3697 68.4686 51.3528 67.4837 51.3528 66.2688C51.3528 65.0539 50.3697 64.0691 49.1569 64.0691Z" fill="#8A9EDD"/>
<path d="M37.4252 73.8318H36.7589C36.0843 73.8318 35.5376 73.2842 35.5376 72.6084C35.5376 71.9326 36.0843 71.385 36.7589 71.385H37.4252C38.0998 71.385 38.6465 71.9326 38.6465 72.6084C38.6465 73.2842 38.0998 73.8318 37.4252 73.8318Z" fill="#D4E8FF"/>
<path d="M37.4252 77.4566H36.7589C36.0843 77.4566 35.5376 76.909 35.5376 76.2332C35.5376 75.5574 36.0843 75.0098 36.7589 75.0098H37.4252C38.0998 75.0098 38.6465 75.5574 38.6465 76.2332C38.6465 76.909 38.0998 77.4566 37.4252 77.4566Z" fill="#D4E8FF"/>
<path d="M37.4252 78.635H36.7589C36.0844 78.635 35.5376 79.1828 35.5376 79.8584C35.5376 80.5341 36.0844 81.0818 36.7589 81.0818H37.4252C38.0997 81.0818 38.6465 80.5341 38.6465 79.8584C38.6465 79.1828 38.0997 78.635 37.4252 78.635Z" fill="#D4E8FF"/>
<path d="M37.4252 82.2595H36.7589C36.0844 82.2595 35.5376 82.8073 35.5376 83.4829C35.5376 84.1586 36.0844 84.7064 36.7589 84.7064H37.4252C38.0997 84.7064 38.6465 84.1586 38.6465 83.4829C38.6465 82.8073 38.0997 82.2595 37.4252 82.2595Z" fill="#D4E8FF"/>
<path d="M41.6605 73.8318H40.9942C40.3196 73.8318 39.7729 73.2842 39.7729 72.6084C39.7729 71.9326 40.3196 71.385 40.9942 71.385H41.6605C42.3352 71.385 42.8818 71.9326 42.8818 72.6084C42.8818 73.2842 42.3352 73.8318 41.6605 73.8318Z" fill="#D4E8FF"/>
<path d="M41.6605 77.4566H40.9942C40.3196 77.4566 39.7729 76.909 39.7729 76.2332C39.7729 75.5574 40.3196 75.0098 40.9942 75.0098H41.6605C42.3352 75.0098 42.8818 75.5574 42.8818 76.2332C42.8818 76.909 42.3352 77.4566 41.6605 77.4566Z" fill="#D4E8FF"/>
<path d="M41.6605 78.635H40.9942C40.3197 78.635 39.7729 79.1828 39.7729 79.8584C39.7729 80.5341 40.3197 81.0818 40.9942 81.0818H41.6605C42.335 81.0818 42.8818 80.5341 42.8818 79.8584C42.8818 79.1828 42.335 78.635 41.6605 78.635Z" fill="#D4E8FF"/>
<path d="M41.6605 82.2595H40.9942C40.3197 82.2595 39.7729 82.8073 39.7729 83.4829C39.7729 84.1586 40.3197 84.7064 40.9942 84.7064H41.6605C42.335 84.7064 42.8818 84.1586 42.8818 83.4829C42.8818 82.8073 42.335 82.2595 41.6605 82.2595Z" fill="#D4E8FF"/>
<path d="M45.8959 73.8318H45.2296C44.555 73.8318 44.0083 73.2842 44.0083 72.6084C44.0083 71.9326 44.555 71.385 45.2296 71.385H45.8959C46.5705 71.385 47.1172 71.9326 47.1172 72.6084C47.1172 73.2842 46.5705 73.8318 45.8959 73.8318Z" fill="#D4E8FF"/>
<path d="M45.8959 77.4566H45.2296C44.555 77.4566 44.0083 76.909 44.0083 76.2332C44.0083 75.5574 44.555 75.0098 45.2296 75.0098H45.8959C46.5705 75.0098 47.1172 75.5574 47.1172 76.2332C47.1172 76.909 46.5705 77.4566 45.8959 77.4566Z" fill="#D4E8FF"/>
<path d="M45.8959 78.635H45.2296C44.5551 78.635 44.0083 79.1828 44.0083 79.8584C44.0083 80.5341 44.5551 81.0818 45.2296 81.0818H45.8959C46.5704 81.0818 47.1172 80.5341 47.1172 79.8584C47.1172 79.1828 46.5704 78.635 45.8959 78.635Z" fill="#D4E8FF"/>
<path d="M45.8959 82.2595H45.2296C44.5551 82.2595 44.0083 82.8073 44.0083 83.4829C44.0083 84.1586 44.5551 84.7064 45.2296 84.7064H45.8959C46.5704 84.7064 47.1172 84.1586 47.1172 83.4829C47.1172 82.8073 46.5704 82.2595 45.8959 82.2595Z" fill="#D4E8FF"/>
<path d="M50.1317 73.8318H49.4654C48.7908 73.8318 48.2441 73.2842 48.2441 72.6084C48.2441 71.9326 48.7908 71.385 49.4654 71.385H50.1317C50.8064 71.385 51.353 71.9326 51.353 72.6084C51.353 73.2842 50.8064 73.8318 50.1317 73.8318Z" fill="#EB5648"/>
<path d="M50.1317 77.4566H49.4654C48.7908 77.4566 48.2441 76.909 48.2441 76.2332C48.2441 75.5574 48.7908 75.0098 49.4654 75.0098H50.1317C50.8064 75.0098 51.353 75.5574 51.353 76.2332C51.353 76.909 50.8064 77.4566 50.1317 77.4566Z" fill="#4867AA"/>
<path d="M50.1317 78.635H49.4654C48.7909 78.635 48.2441 79.1828 48.2441 79.8584C48.2441 80.5341 48.7909 81.0818 49.4654 81.0818H50.1317C50.8062 81.0818 51.353 80.5341 51.353 79.8584C51.353 79.1828 50.8062 78.635 50.1317 78.635Z" fill="#4867AA"/>
<path d="M50.1317 82.2595H49.4654C48.7909 82.2595 48.2441 82.8073 48.2441 83.4829C48.2441 84.1586 48.7909 84.7064 49.4654 84.7064H50.1317C50.8062 84.7064 51.353 84.1586 51.353 83.4829C51.353 82.8073 50.8062 82.2595 50.1317 82.2595Z" fill="#4867AA"/>
<path d="M73.3255 90.107C72.6819 90.107 35.9521 90.0578 36.8331 90.0596C34.3079 90.0503 34.3089 85.191 36.84 85.1887C37.3051 85.1929 71.8047 85.2319 73.332 85.2366V85.5756L73.3255 90.107Z" fill="#FCB4B4"/>
<path d="M38.6884 90.0626C38.3833 90.0663 37.1615 90.0575 36.8332 90.0603C35.0194 90.1253 34.2895 87.0556 35.5382 85.8187H35.5387C36.1716 84.9167 37.7805 85.2433 38.6948 85.1917L38.6884 90.0626Z" fill="#EB5648"/>
<path d="M39.7827 86.9794C39.9163 86.6431 73.3712 86.6887 73.5047 87.0222C73.3703 87.358 39.9176 87.3124 39.7827 86.9794Z" fill="#F49F9F"/>
<path d="M73.3257 90.107C73.3266 89.2872 73.3308 86.113 73.3322 85.2366C74.8688 85.8264 78.1835 87.0996 79.6937 87.6797C78.1905 88.2528 74.8544 89.5246 73.3261 90.107H73.3257Z" fill="#FFE7D7"/>
<path d="M77.1112 88.6646C76.8901 88.0492 76.8942 87.293 77.114 86.6897L79.6934 87.6804L77.1112 88.6646Z" fill="#EB5648"/>
<path d="M73.3312 85.5763L39.9565 85.6511L39.9556 85.1936L73.3322 85.2368L73.3312 85.5763Z" fill="#F9C0C0"/>
<path d="M38.2215 90.0615L36.8333 90.0602C35.019 90.1252 34.2896 87.0555 35.5383 85.8186H35.5388C35.5388 85.8186 35.4817 88.9886 38.2234 88.9821L38.2215 90.0615Z" fill="#CE3932"/>
<path d="M39.9534 90.1177C39.9534 90.1177 39.9687 89.5613 39.9483 88.951C39.9005 87.5027 39.799 85.1776 39.8635 85.1279C39.8732 84.5668 39.1443 84.6783 39.1513 85.2403L39.0502 85.1874C39.0608 84.6272 38.2443 84.695 38.2522 85.2584L38.2239 88.9663L38.2225 90.1154C38.2221 90.3541 38.4154 90.5487 38.6547 90.5492C38.8939 90.5492 39.0877 90.356 39.0877 90.1163C39.0877 90.356 39.2816 90.5501 39.5199 90.5506C39.7591 90.5506 39.9529 90.3569 39.9534 90.1177Z" fill="#93ABE5"/>
<path d="M39.9507 88.9092L39.9558 85.0811C39.9275 84.8693 39.7467 84.7058 39.5278 84.7063C39.2946 84.7063 39.1059 84.8906 39.0962 85.1215L39.0901 85.0792C39.0618 84.8683 38.8815 84.7053 38.6622 84.7053C38.4234 84.7053 38.2296 84.8985 38.2291 85.1382L38.224 88.9668C38.2523 89.1777 38.4326 89.3412 38.652 89.3412C38.8912 89.3412 39.0855 89.1475 39.085 88.9083L39.0897 88.8698V88.9673C39.1179 89.1791 39.2988 89.3426 39.5176 89.3421C39.7569 89.3421 39.9507 89.1489 39.9512 88.9097L39.9507 88.9092Z" fill="#BBCEEA"/>
<path d="M73.3258 90.1073L39.9654 90.0641L39.9482 88.9508L73.323 88.876L73.3258 90.1073Z" fill="#F49F9F"/>
<path d="M73.3255 90.1072L73.3228 88.8755C73.3228 88.8755 79.6917 87.6804 79.6931 87.6799C78.1899 88.2531 74.8538 89.5248 73.3255 90.1072Z" fill="#EDD5C5"/>
<path d="M77.1111 88.6644C77.0583 88.5125 77.0166 88.3532 76.9883 88.1874L79.6928 87.6802L77.1107 88.6644H77.1111Z" fill="#CE3932"/>
</svg>
