<svg width="113" height="27" viewBox="0 0 113 27" fill="none" xmlns="http://www.w3.org/2000/svg">
<rect width="113" height="27" rx="13.5" fill="url(#paint0_linear_892_140)"/>
<path d="M25.6903 9.72727L27.5831 15.4517H27.6577L29.5469 9.72727H30.9957L28.4318 17H26.8054L24.245 9.72727H25.6903ZM31.8968 17V11.5455H33.1824V17H31.8968ZM32.5431 10.7713C32.3395 10.7713 32.1644 10.7038 32.0176 10.5689C31.8708 10.4316 31.7974 10.267 31.7974 10.0753C31.7974 9.88116 31.8708 9.71662 32.0176 9.58168C32.1644 9.44437 32.3395 9.37571 32.5431 9.37571C32.7491 9.37571 32.9243 9.44437 33.0687 9.58168C33.2155 9.71662 33.2889 9.88116 33.2889 10.0753C33.2889 10.267 33.2155 10.4316 33.0687 10.5689C32.9243 10.7038 32.7491 10.7713 32.5431 10.7713ZM36.919 17.1065C36.3722 17.1065 35.8999 16.9929 35.5021 16.7656C35.1068 16.536 34.8026 16.2116 34.5895 15.7926C34.3764 15.3712 34.2699 14.8752 34.2699 14.3047C34.2699 13.7436 34.3764 13.2512 34.5895 12.8274C34.8049 12.4013 35.1056 12.0698 35.4915 11.8331C35.8774 11.594 36.3307 11.4744 36.8516 11.4744C37.1877 11.4744 37.505 11.5289 37.8033 11.6378C38.1039 11.7443 38.3691 11.91 38.5987 12.1349C38.8307 12.3598 39.013 12.6463 39.1456 12.9943C39.2782 13.34 39.3445 13.7519 39.3445 14.2301V14.6243H34.8736V13.7578H38.1122C38.1098 13.5116 38.0566 13.2926 37.9524 13.1009C37.8482 12.9067 37.7027 12.754 37.5156 12.6428C37.331 12.5315 37.1155 12.4759 36.8693 12.4759C36.6065 12.4759 36.3757 12.5398 36.1768 12.6676C35.978 12.7931 35.8229 12.9588 35.7116 13.1648C35.6027 13.3684 35.5471 13.5921 35.5447 13.8359V14.5923C35.5447 14.9096 35.6027 15.1818 35.7188 15.4091C35.8348 15.634 35.9969 15.8068 36.2053 15.9276C36.4136 16.0459 36.6574 16.1051 36.9368 16.1051C37.1238 16.1051 37.2931 16.0791 37.4446 16.027C37.5961 15.9725 37.7275 15.8932 37.8388 15.7891C37.95 15.6849 38.0341 15.5559 38.0909 15.402L39.2912 15.5369C39.2154 15.8542 39.071 16.1312 38.858 16.3679C38.6473 16.6023 38.3774 16.7846 38.0483 16.9148C37.7192 17.0426 37.3428 17.1065 36.919 17.1065ZM41.5284 17L39.9872 11.5455H41.2976L42.2564 15.3807H42.3061L43.2862 11.5455H44.5824L45.5625 15.3594H45.6158L46.5604 11.5455H47.8743L46.3295 17H44.9908L43.968 13.3139H43.8935L42.8707 17H41.5284ZM57.5343 12.1811H56.2061C56.1683 11.9633 56.0984 11.7704 55.9966 11.6023C55.8948 11.4318 55.7682 11.2874 55.6167 11.169C55.4651 11.0507 55.2923 10.9619 55.0982 10.9027C54.9064 10.8411 54.6993 10.8104 54.4767 10.8104C54.0814 10.8104 53.731 10.9098 53.4256 11.1087C53.1202 11.3052 52.8811 11.594 52.7083 11.9751C52.5355 12.3539 52.449 12.8168 52.449 13.3636C52.449 13.92 52.5355 14.3887 52.7083 14.7699C52.8835 15.1487 53.1226 15.4351 53.4256 15.6293C53.731 15.821 54.0802 15.9169 54.4732 15.9169C54.691 15.9169 54.8946 15.8885 55.084 15.8317C55.2757 15.7725 55.4474 15.6861 55.5989 15.5724C55.7528 15.4588 55.8818 15.3191 55.986 15.1534C56.0925 14.9877 56.1659 14.7983 56.2061 14.5852L57.5343 14.5923C57.4846 14.938 57.3768 15.2623 57.2111 15.5653C57.0478 15.8684 56.8335 16.1359 56.5684 16.3679C56.3032 16.5975 55.9931 16.7775 55.638 16.9077C55.2828 17.0355 54.8887 17.0994 54.4554 17.0994C53.8162 17.0994 53.2457 16.9515 52.7438 16.6555C52.2419 16.3596 51.8465 15.9323 51.5577 15.3736C51.2689 14.8149 51.1245 14.1449 51.1245 13.3636C51.1245 12.58 51.2701 11.91 51.5613 11.3537C51.8525 10.795 52.249 10.3677 52.7509 10.0717C53.2528 9.7758 53.821 9.62784 54.4554 9.62784C54.8603 9.62784 55.2367 9.68466 55.5847 9.7983C55.9327 9.91193 56.2428 10.0788 56.5151 10.299C56.7873 10.5168 57.0111 10.7843 57.1863 11.1016C57.3638 11.4164 57.4798 11.7763 57.5343 12.1811ZM61.0632 17.1065C60.5305 17.1065 60.0689 16.9893 59.6783 16.755C59.2876 16.5206 58.9846 16.1927 58.7692 15.7713C58.5561 15.3499 58.4496 14.8575 58.4496 14.294C58.4496 13.7306 58.5561 13.237 58.7692 12.8132C58.9846 12.3894 59.2876 12.0604 59.6783 11.826C60.0689 11.5916 60.5305 11.4744 61.0632 11.4744C61.5959 11.4744 62.0575 11.5916 62.4482 11.826C62.8388 12.0604 63.1406 12.3894 63.3537 12.8132C63.5691 13.237 63.6768 13.7306 63.6768 14.294C63.6768 14.8575 63.5691 15.3499 63.3537 15.7713C63.1406 16.1927 62.8388 16.5206 62.4482 16.755C62.0575 16.9893 61.5959 17.1065 61.0632 17.1065ZM61.0703 16.0767C61.3591 16.0767 61.6006 15.9974 61.7947 15.8388C61.9889 15.6778 62.1333 15.4624 62.228 15.1925C62.325 14.9226 62.3736 14.6219 62.3736 14.2905C62.3736 13.9567 62.325 13.6548 62.228 13.3849C62.1333 13.1127 61.9889 12.8961 61.7947 12.7351C61.6006 12.5741 61.3591 12.4936 61.0703 12.4936C60.7744 12.4936 60.5282 12.5741 60.3317 12.7351C60.1375 12.8961 59.992 13.1127 59.8949 13.3849C59.8002 13.6548 59.7528 13.9567 59.7528 14.2905C59.7528 14.6219 59.8002 14.9226 59.8949 15.1925C59.992 15.4624 60.1375 15.6778 60.3317 15.8388C60.5282 15.9974 60.7744 16.0767 61.0703 16.0767ZM68.2445 14.706V11.5455H69.53V17H68.2836V16.0305H68.2267C68.1036 16.3359 67.9012 16.5857 67.6195 16.7798C67.3401 16.974 66.9957 17.071 66.5861 17.071C66.2286 17.071 65.9126 16.9917 65.638 16.8331C65.3657 16.6721 65.1526 16.4389 64.9988 16.1335C64.8449 15.8258 64.7679 15.4541 64.7679 15.0185V11.5455H66.0534V14.8196C66.0534 15.1652 66.1481 15.4399 66.3375 15.6435C66.5269 15.8471 66.7755 15.9489 67.0833 15.9489C67.2727 15.9489 67.4561 15.9027 67.6337 15.8104C67.8113 15.718 67.9569 15.5807 68.0705 15.3984C68.1865 15.2138 68.2445 14.983 68.2445 14.706ZM70.8519 17V11.5455H72.0984V12.4545H72.1552C72.2546 12.1397 72.4251 11.897 72.6665 11.7266C72.9104 11.5537 73.1886 11.4673 73.5011 11.4673C73.5721 11.4673 73.6514 11.4709 73.739 11.478C73.829 11.4827 73.9035 11.491 73.9627 11.5028V12.6854C73.9083 12.6664 73.8219 12.6499 73.7035 12.6357C73.5875 12.6191 73.475 12.6108 73.3661 12.6108C73.1317 12.6108 72.921 12.6617 72.734 12.7635C72.5494 12.8629 72.4038 13.0014 72.2972 13.179C72.1907 13.3565 72.1374 13.5613 72.1374 13.7933V17H70.8519ZM79.1278 12.9872L77.956 13.1151C77.9228 12.9967 77.8648 12.8854 77.782 12.7812C77.7015 12.6771 77.5926 12.593 77.4553 12.5291C77.3179 12.4652 77.1499 12.4332 76.951 12.4332C76.6835 12.4332 76.4586 12.4912 76.2763 12.6072C76.0964 12.7232 76.0076 12.8736 76.0099 13.0582C76.0076 13.2169 76.0656 13.3459 76.1839 13.4453C76.3047 13.5447 76.5036 13.6264 76.7805 13.6903L77.7109 13.8892C78.227 14.0005 78.6106 14.1768 78.8615 14.4183C79.1148 14.6598 79.2427 14.9759 79.245 15.3665C79.2427 15.7098 79.142 16.0128 78.9432 16.2756C78.7467 16.536 78.4732 16.7396 78.1229 16.8864C77.7725 17.0331 77.37 17.1065 76.9155 17.1065C76.2479 17.1065 75.7105 16.9669 75.3033 16.6875C74.8961 16.4058 74.6534 16.014 74.5753 15.5121L75.8288 15.3913C75.8857 15.6375 76.0064 15.8234 76.1911 15.9489C76.3757 16.0743 76.616 16.1371 76.9119 16.1371C77.2173 16.1371 77.4624 16.0743 77.647 15.9489C77.834 15.8234 77.9276 15.6683 77.9276 15.4837C77.9276 15.3274 77.8672 15.1984 77.7464 15.0966C77.6281 14.9948 77.4434 14.9167 77.1925 14.8622L76.2621 14.6669C75.7389 14.558 75.3518 14.3745 75.1009 14.1165C74.8499 13.8561 74.7256 13.527 74.728 13.1293C74.7256 12.7931 74.8168 12.5019 75.0014 12.2557C75.1884 12.0071 75.4477 11.8153 75.7791 11.6804C76.1129 11.5431 76.4976 11.4744 76.9332 11.4744C77.5724 11.4744 78.0755 11.6106 78.4425 11.8828C78.8118 12.1551 79.0402 12.5232 79.1278 12.9872ZM82.7198 17.1065C82.1729 17.1065 81.7006 16.9929 81.3029 16.7656C80.9076 16.536 80.6033 16.2116 80.3903 15.7926C80.1772 15.3712 80.0707 14.8752 80.0707 14.3047C80.0707 13.7436 80.1772 13.2512 80.3903 12.8274C80.6057 12.4013 80.9064 12.0698 81.2923 11.8331C81.6781 11.594 82.1315 11.4744 82.6523 11.4744C82.9885 11.4744 83.3058 11.5289 83.604 11.6378C83.9047 11.7443 84.1699 11.91 84.3995 12.1349C84.6315 12.3598 84.8138 12.6463 84.9464 12.9943C85.079 13.34 85.1452 13.7519 85.1452 14.2301V14.6243H80.6744V13.7578H83.913C83.9106 13.5116 83.8574 13.2926 83.7532 13.1009C83.649 12.9067 83.5034 12.754 83.3164 12.6428C83.1317 12.5315 82.9163 12.4759 82.6701 12.4759C82.4073 12.4759 82.1765 12.5398 81.9776 12.6676C81.7788 12.7931 81.6237 12.9588 81.5124 13.1648C81.4035 13.3684 81.3479 13.5921 81.3455 13.8359V14.5923C81.3455 14.9096 81.4035 15.1818 81.5195 15.4091C81.6355 15.634 81.7977 15.8068 82.006 15.9276C82.2144 16.0459 82.4582 16.1051 82.7376 16.1051C82.9246 16.1051 83.0939 16.0791 83.2454 16.027C83.3969 15.9725 83.5283 15.8932 83.6396 15.7891C83.7508 15.6849 83.8349 15.5559 83.8917 15.402L85.092 15.5369C85.0162 15.8542 84.8718 16.1312 84.6587 16.3679C84.448 16.6023 84.1781 16.7846 83.8491 16.9148C83.52 17.0426 83.1436 17.1065 82.7198 17.1065ZM90.5439 12.9872L89.372 13.1151C89.3388 12.9967 89.2808 12.8854 89.198 12.7812C89.1175 12.6771 89.0086 12.593 88.8713 12.5291C88.734 12.4652 88.5659 12.4332 88.367 12.4332C88.0995 12.4332 87.8746 12.4912 87.6923 12.6072C87.5124 12.7232 87.4236 12.8736 87.426 13.0582C87.4236 13.2169 87.4816 13.3459 87.6 13.4453C87.7207 13.5447 87.9196 13.6264 88.1966 13.6903L89.127 13.8892C89.6431 14.0005 90.0266 14.1768 90.2775 14.4183C90.5308 14.6598 90.6587 14.9759 90.661 15.3665C90.6587 15.7098 90.5581 16.0128 90.3592 16.2756C90.1627 16.536 89.8893 16.7396 89.5389 16.8864C89.1885 17.0331 88.786 17.1065 88.3315 17.1065C87.6639 17.1065 87.1265 16.9669 86.7193 16.6875C86.3121 16.4058 86.0694 16.014 85.9913 15.5121L87.2449 15.3913C87.3017 15.6375 87.4224 15.8234 87.6071 15.9489C87.7917 16.0743 88.032 16.1371 88.3279 16.1371C88.6333 16.1371 88.8784 16.0743 89.063 15.9489C89.2501 15.8234 89.3436 15.6683 89.3436 15.4837C89.3436 15.3274 89.2832 15.1984 89.1625 15.0966C89.0441 14.9948 88.8594 14.9167 88.6085 14.8622L87.6781 14.6669C87.1549 14.558 86.7678 14.3745 86.5169 14.1165C86.2659 13.8561 86.1416 13.527 86.144 13.1293C86.1416 12.7931 86.2328 12.5019 86.4174 12.2557C86.6045 12.0071 86.8637 11.8153 87.1951 11.6804C87.5289 11.5431 87.9136 11.4744 88.3493 11.4744C88.9885 11.4744 89.4915 11.6106 89.8585 11.8828C90.2278 12.1551 90.4563 12.5232 90.5439 12.9872Z" fill="white"/>
<defs>
<linearGradient id="paint0_linear_892_140" x1="56.5" y1="0" x2="56.5" y2="27" gradientUnits="userSpaceOnUse">
<stop stop-color="#EAB570"/>
<stop offset="1" stop-color="#F36D4D"/>
</linearGradient>
</defs>
</svg>
